G04*
G04 #@! TF.GenerationSoftware,Altium Limited,Altium Designer,18.1.11 (251)*
G04*
G04 Layer_Color=8388736*
%FSLAX25Y25*%
%MOIN*%
G70*
G01*
G75*
%ADD10C,0.00787*%
%ADD15C,0.00984*%
%ADD16C,0.01575*%
%ADD18R,0.14567X0.06648*%
%ADD19R,0.15551X0.06648*%
%ADD20R,0.04331X0.05512*%
%ADD21C,0.08268*%
%ADD22C,0.00394*%
%ADD23C,0.12205*%
G04:AMPARAMS|DCode=24|XSize=74.8mil|YSize=74.8mil|CornerRadius=19.68mil|HoleSize=0mil|Usage=FLASHONLY|Rotation=0.000|XOffset=0mil|YOffset=0mil|HoleType=Round|Shape=RoundedRectangle|*
%AMROUNDEDRECTD24*
21,1,0.07480,0.03543,0,0,0.0*
21,1,0.03543,0.07480,0,0,0.0*
1,1,0.03937,0.01772,-0.01772*
1,1,0.03937,-0.01772,-0.01772*
1,1,0.03937,-0.01772,0.01772*
1,1,0.03937,0.01772,0.01772*
%
%ADD24ROUNDEDRECTD24*%
%ADD25C,0.07480*%
G36*
X-68188Y169601D02*
X-63641Y168113D01*
X-59195Y166347D01*
X-54867Y164309D01*
X-50672Y162008D01*
X-46628Y159452D01*
X-42750Y156651D01*
X-40901Y155134D01*
X-40880Y155123D01*
X-41249Y154369D01*
X-41602Y153401D01*
X-41699Y153060D01*
X-41777Y152750D01*
X-41903Y152345D01*
X-42210Y151291D01*
X-42294Y150991D01*
X-42355Y150762D01*
X-42642Y149622D01*
X-42643Y149620D01*
X-42908Y148485D01*
X-42957Y148271D01*
X-43154Y147368D01*
X-43341Y146462D01*
X-43429Y146008D01*
X-43430Y146006D01*
X-43525Y145520D01*
X-43708Y144545D01*
X-43885Y143570D01*
X-43937Y143266D01*
X-44054Y142579D01*
X-44058Y142578D01*
X-44890Y143372D01*
X-47019Y145177D01*
X-49250Y146854D01*
X-51575Y148398D01*
X-53987Y149803D01*
X-56477Y151064D01*
X-59036Y152178D01*
X-61656Y153140D01*
X-62983Y153541D01*
X-62983Y153541D01*
X-62992Y153543D01*
X-62992Y153543D01*
X-62992Y153543D01*
X-62991Y153542D01*
X-62986Y153538D01*
X-63656Y151449D01*
X-64724Y147193D01*
X-65516Y142877D01*
X-66027Y138519D01*
X-66257Y134137D01*
X-66203Y129749D01*
X-65867Y125374D01*
X-65249Y121030D01*
X-64352Y116734D01*
X-63180Y112506D01*
X-61738Y108362D01*
X-60031Y104319D01*
X-59049Y102357D01*
X-59052Y104325D01*
X-59055Y108262D01*
Y112199D01*
X-59052Y116136D01*
X-59049Y118096D01*
X-59046Y118097D01*
X-58492Y117001D01*
X-57281Y114844D01*
X-55976Y112743D01*
X-54581Y110701D01*
X-53097Y108722D01*
X-51529Y106810D01*
X-49877Y104969D01*
X-48147Y103202D01*
X-47251Y102363D01*
X-47248Y102361D01*
X-47248D01*
Y102361D01*
X-47244Y102357D01*
X-47244Y102357D01*
X-47244Y102363D01*
X-47244Y102366D01*
X-47246Y103709D01*
X-47102Y106410D01*
X-46761Y109092D01*
X-46226Y111743D01*
X-46088Y112273D01*
X-46084Y112273D01*
Y111661D01*
X-46084Y110480D01*
X-46082Y110285D01*
X-46071Y109301D01*
X-45913Y107782D01*
X-45513Y106023D01*
X-44904Y104325D01*
X-44500Y103519D01*
X-44500Y103519D01*
X-44165Y102849D01*
X-43365Y101583D01*
X-42442Y100403D01*
X-41692Y99620D01*
X-40839Y98837D01*
X-40836Y98834D01*
X-40334Y98496D01*
X-39906Y98209D01*
X-39365Y97908D01*
X-38276Y97517D01*
X-37693Y97409D01*
X-36559Y97294D01*
X-36559Y97294D01*
X-35432Y97394D01*
X-34991Y97492D01*
X-34775Y97557D01*
X-22050Y100093D01*
X-20935Y100316D01*
X-19893Y100615D01*
X-19229Y100805D01*
X-15801Y101656D01*
X-12336Y102339D01*
X-8841Y102853D01*
X-5326Y103196D01*
X-1798Y103367D01*
X1734Y103367D01*
X5262Y103194D01*
X8777Y102850D01*
X12271Y102336D01*
X15736Y101652D01*
X19164Y100800D01*
X19839Y100606D01*
X20871Y100310D01*
X21972Y100089D01*
X21993Y100084D01*
X34644Y97566D01*
X34644Y97566D01*
X35734Y97346D01*
X35834Y97330D01*
X36643Y97301D01*
X37450Y97370D01*
X38243Y97534D01*
X39010Y97793D01*
X39741Y98141D01*
X39822Y98193D01*
X40120Y98400D01*
X40741Y98833D01*
X41040Y99106D01*
X41599Y99616D01*
X42466Y100537D01*
X43442Y101826D01*
X44273Y103214D01*
X44950Y104683D01*
X45465Y106216D01*
X45812Y107796D01*
X45895Y108561D01*
X45977Y109597D01*
X45984Y110463D01*
X45984Y110469D01*
X45984Y110469D01*
X45984D01*
X45984Y111644D01*
Y112658D01*
X45988Y112659D01*
X46226Y111743D01*
X46761Y109092D01*
X47102Y106410D01*
X47246Y103709D01*
X47244Y102357D01*
X48147Y103202D01*
X49877Y104969D01*
X51529Y106810D01*
X53097Y108722D01*
X54581Y110701D01*
X55976Y112743D01*
X57281Y114844D01*
X58492Y117001D01*
X59046Y118097D01*
X59049Y118096D01*
X59052Y116136D01*
X59055Y112199D01*
Y108262D01*
X59052Y104325D01*
X59049Y102357D01*
X60031Y104319D01*
X61738Y108362D01*
X63180Y112506D01*
X64352Y116734D01*
X65249Y121030D01*
X65867Y125374D01*
X66203Y129749D01*
X66257Y134137D01*
X66027Y138519D01*
X65516Y142877D01*
X64724Y147193D01*
X63656Y151449D01*
X62986Y153538D01*
X62992Y153543D01*
X62992Y153543D01*
Y153543D01*
X62992Y153543D01*
X61656Y153140D01*
X59036Y152178D01*
X56477Y151064D01*
X53987Y149803D01*
X51575Y148398D01*
X49250Y146854D01*
X47019Y145177D01*
X44890Y143372D01*
X44071Y142591D01*
X44068Y142592D01*
X44067Y142593D01*
X43898Y143570D01*
X43722Y144546D01*
X43662Y144863D01*
X43443Y146007D01*
X43443Y146007D01*
X43212Y147152D01*
X43168Y147367D01*
X42971Y148271D01*
X42764Y149173D01*
X42656Y149622D01*
X42656D01*
X42562Y150017D01*
X42359Y150803D01*
X42143Y151585D01*
X42109Y151700D01*
X41791Y152750D01*
X41791Y152750D01*
X41473Y153799D01*
X41270Y154325D01*
X40994Y154930D01*
X40890Y155124D01*
X40891Y155128D01*
X40898Y155132D01*
X42770Y156640D01*
X46656Y159447D01*
X50700Y162003D01*
X54894Y164304D01*
X59223Y166341D01*
X63669Y168107D01*
X68216Y169596D01*
X72239Y170642D01*
X72242Y170640D01*
X71555Y166662D01*
X71556Y166614D01*
X71541Y166569D01*
X70961Y161921D01*
X70964Y161874D01*
X70951Y161828D01*
X70588Y157158D01*
X70594Y157111D01*
X70583Y157064D01*
X70439Y152383D01*
X70447Y152336D01*
X70439Y152289D01*
X70514Y147606D01*
X70524Y147559D01*
X70517Y147512D01*
X70811Y142837D01*
X70824Y142791D01*
X70819Y142744D01*
X71331Y138088D01*
X71342Y138054D01*
X71340Y138018D01*
X71672Y135743D01*
X71939Y133143D01*
X72202Y127837D01*
X72185Y122525D01*
X71889Y117221D01*
X71315Y111940D01*
X70463Y106696D01*
X69336Y101505D01*
X67938Y96380D01*
X67105Y93857D01*
X67071Y93580D01*
X67005Y93309D01*
X67023Y93195D01*
X67009Y93080D01*
X67083Y92811D01*
X67127Y92535D01*
X67474Y91591D01*
X68043Y89660D01*
X68483Y87696D01*
X68792Y85707D01*
X68968Y83702D01*
X69012Y81690D01*
X68923Y79680D01*
X68702Y77679D01*
X68525Y76689D01*
X68533Y76305D01*
X68537Y75921D01*
X68540Y75914D01*
X68540Y75906D01*
X68694Y75554D01*
X68845Y75201D01*
X68851Y75196D01*
X68854Y75188D01*
X69131Y74923D01*
X69406Y74654D01*
X71054Y73581D01*
X74167Y71178D01*
X77078Y68533D01*
X79768Y65664D01*
X82220Y62589D01*
X84418Y59326D01*
X86347Y55899D01*
X87644Y53089D01*
X87642Y53085D01*
X87137Y53068D01*
X87105Y53061D01*
X87073Y53065D01*
X80376Y52628D01*
X80335Y52617D01*
X80292Y52621D01*
X73620Y51903D01*
X73579Y51891D01*
X73536Y51893D01*
X66899Y50895D01*
X66869Y50884D01*
X66837Y50885D01*
X63536Y50281D01*
X63348Y50207D01*
X63148Y50169D01*
X62987Y50064D01*
X62808Y49993D01*
X62662Y49852D01*
X62493Y49741D01*
X62384Y49582D01*
X62246Y49448D01*
X62165Y49262D01*
X62051Y49095D01*
X62011Y48906D01*
X61935Y48729D01*
X61931Y48527D01*
X61890Y48328D01*
X61925Y48139D01*
X61922Y47946D01*
X61997Y47758D01*
X62034Y47559D01*
X62140Y47397D01*
X62211Y47218D01*
X62352Y47073D01*
X62462Y46903D01*
X63703Y45635D01*
X66011Y42983D01*
X66455Y42408D01*
X66853Y40554D01*
X66966Y39369D01*
X66962Y39367D01*
X66951Y39371D01*
X65955Y40609D01*
X63857Y42995D01*
X61623Y45255D01*
X59262Y47381D01*
X56782Y49366D01*
X54190Y51204D01*
X51495Y52888D01*
X48707Y54412D01*
X47281Y55113D01*
X47266Y55118D01*
X47490Y54660D01*
X47831Y53699D01*
X48062Y52705D01*
X48177Y51691D01*
Y50671D01*
X48062Y49658D01*
X47831Y48664D01*
X47490Y47703D01*
X47268Y47249D01*
X47264Y47249D01*
X46640Y48519D01*
X45223Y50978D01*
X43596Y53305D01*
X41773Y55481D01*
X39766Y57489D01*
X37591Y59313D01*
X35266Y60941D01*
X32806Y62359D01*
X31533Y62986D01*
X31533Y62986D01*
X30777Y62968D01*
X29272Y63129D01*
X27802Y63485D01*
X26391Y64029D01*
X25063Y64754D01*
X23841Y65645D01*
X22745Y66689D01*
X21795Y67866D01*
X21008Y69157D01*
X20395Y70540D01*
X19968Y71991D01*
X19734Y73486D01*
X19716Y74242D01*
X19641Y72768D01*
X19621Y69817D01*
X19774Y66869D01*
X20099Y63936D01*
X20595Y61026D01*
X21261Y58151D01*
X22093Y55319D01*
X23090Y52541D01*
X23642Y51192D01*
X23639Y51189D01*
X22533Y52057D01*
X20436Y54025D01*
X18520Y56169D01*
X16801Y58475D01*
X15291Y60922D01*
X14003Y63494D01*
X12946Y66168D01*
X12129Y68925D01*
X11844Y70335D01*
X8706Y60272D01*
X8701Y60270D01*
X7812Y61086D01*
X6178Y62875D01*
X4708Y64801D01*
X3414Y66849D01*
X2305Y69003D01*
X1390Y71246D01*
X676Y73561D01*
X170Y75930D01*
X21Y77132D01*
X-127Y75930D01*
X-634Y73561D01*
X-1347Y71246D01*
X-2262Y69003D01*
X-3371Y66849D01*
X-4665Y64801D01*
X-6135Y62875D01*
X-7769Y61086D01*
X-8659Y60270D01*
X-8663Y60271D01*
X-11801Y70335D01*
X-12086Y68925D01*
X-12903Y66168D01*
X-13960Y63494D01*
X-15248Y60922D01*
X-16758Y58475D01*
X-18477Y56169D01*
X-20393Y54025D01*
X-22490Y52057D01*
X-23596Y51189D01*
X-23600Y51192D01*
X-23047Y52541D01*
X-22050Y55319D01*
X-21218Y58151D01*
X-20552Y61026D01*
X-20056Y63936D01*
X-19731Y66869D01*
X-19578Y69817D01*
X-19598Y72768D01*
X-19673Y74242D01*
X-19691Y73486D01*
X-19925Y71991D01*
X-20352Y70540D01*
X-20965Y69157D01*
X-21753Y67866D01*
X-22702Y66689D01*
X-23798Y65645D01*
X-25020Y64754D01*
X-26348Y64029D01*
X-27759Y63485D01*
X-29230Y63129D01*
X-30734Y62968D01*
X-31490Y62986D01*
Y62986D01*
X-32763Y62359D01*
X-35223Y60941D01*
X-37549Y59313D01*
X-39723Y57489D01*
X-41730Y55481D01*
X-43554Y53305D01*
X-45180Y50978D01*
X-46597Y48519D01*
X-47221Y47249D01*
X-47225Y47249D01*
X-47447Y47703D01*
X-47789Y48664D01*
X-48019Y49658D01*
X-48134Y50671D01*
Y51691D01*
X-48019Y52705D01*
X-47789Y53699D01*
X-47447Y54660D01*
X-47223Y55118D01*
X-47238Y55113D01*
X-48664Y54412D01*
X-51452Y52888D01*
X-54147Y51204D01*
X-56739Y49366D01*
X-59219Y47381D01*
X-61580Y45255D01*
X-63814Y42995D01*
X-65912Y40609D01*
X-66908Y39371D01*
X-66920Y39367D01*
X-66923Y39369D01*
X-66810Y40554D01*
X-66404Y42443D01*
X-65983Y42988D01*
X-63675Y45641D01*
X-62446Y46898D01*
X-62338Y47064D01*
X-62200Y47206D01*
X-62126Y47389D01*
X-62019Y47554D01*
X-61982Y47749D01*
X-61909Y47933D01*
X-61911Y48130D01*
X-61875Y48324D01*
X-61915Y48518D01*
X-61918Y48716D01*
X-61995Y48897D01*
X-62036Y49090D01*
X-62148Y49254D01*
X-62226Y49436D01*
X-62367Y49574D01*
X-62479Y49737D01*
X-62644Y49845D01*
X-62786Y49983D01*
X-62969Y50056D01*
X-63134Y50164D01*
X-63329Y50201D01*
X-63513Y50274D01*
X-66802Y50889D01*
X-66838Y50888D01*
X-66872Y50901D01*
X-73508Y51898D01*
X-73551Y51896D01*
X-73592Y51909D01*
X-80265Y52627D01*
X-80307Y52623D01*
X-80349Y52634D01*
X-87046Y53071D01*
X-87077Y53066D01*
X-87109Y53074D01*
X-87615Y53091D01*
X-87617Y53094D01*
X-86319Y55905D01*
X-84390Y59332D01*
X-82192Y62594D01*
X-79741Y65670D01*
X-77051Y68539D01*
X-74140Y71184D01*
X-71026Y73587D01*
X-69378Y74660D01*
X-69103Y74929D01*
X-68827Y75194D01*
X-68824Y75201D01*
X-68818Y75207D01*
X-68667Y75560D01*
X-68513Y75911D01*
X-68513Y75919D01*
X-68510Y75927D01*
X-68505Y76310D01*
X-68497Y76694D01*
X-68674Y77685D01*
X-68896Y79685D01*
X-68985Y81696D01*
X-68941Y83708D01*
X-68764Y85713D01*
X-68455Y87702D01*
X-68015Y89666D01*
X-67447Y91596D01*
X-67099Y92541D01*
X-67056Y92817D01*
X-66981Y93086D01*
X-66995Y93200D01*
X-66978Y93314D01*
X-67043Y93586D01*
X-67077Y93863D01*
X-67910Y96385D01*
X-69309Y101510D01*
X-70435Y106702D01*
X-71287Y111945D01*
X-71862Y117226D01*
X-72158Y122530D01*
X-72174Y127843D01*
X-71911Y133148D01*
X-71644Y135748D01*
X-71313Y138024D01*
X-71315Y138060D01*
X-71304Y138094D01*
X-70792Y142750D01*
X-70796Y142797D01*
X-70784Y142843D01*
X-70490Y147518D01*
X-70496Y147565D01*
X-70486Y147611D01*
X-70411Y152295D01*
X-70420Y152341D01*
X-70412Y152388D01*
X-70556Y157070D01*
X-70567Y157116D01*
X-70561Y157164D01*
X-70924Y161833D01*
X-70936Y161879D01*
X-70933Y161927D01*
X-71513Y166574D01*
X-71529Y166620D01*
X-71527Y166667D01*
X-72214Y170645D01*
X-72211Y170648D01*
X-68188Y169601D01*
D02*
G37*
G36*
X4876Y11602D02*
X8073Y10994D01*
X11183Y10039D01*
X12677Y9394D01*
Y9394D01*
X11124Y9011D01*
X7976Y8435D01*
X4800Y8053D01*
X1606Y7865D01*
X6Y7868D01*
X6Y7868D01*
X-1594Y7864D01*
X-4787Y8053D01*
X-7963Y8436D01*
X-11110Y9012D01*
X-12663Y9396D01*
X-11170Y10040D01*
X-8059Y10994D01*
X-4863Y11602D01*
X-1620Y11856D01*
X6Y11804D01*
X1632Y11856D01*
X4876Y11602D01*
D02*
G37*
G36*
X1005337Y-155808D02*
X1005050D01*
Y-156094D01*
X1004764D01*
Y-156380D01*
Y-156667D01*
X1004478D01*
Y-156953D01*
X1004192D01*
Y-157239D01*
X1003905D01*
Y-157526D01*
Y-157812D01*
X1003619D01*
Y-158098D01*
X1003333D01*
Y-158385D01*
X1003046D01*
Y-158671D01*
X1002760D01*
Y-158957D01*
Y-159244D01*
X1002474D01*
Y-159530D01*
X1002187D01*
Y-159816D01*
X1001901D01*
Y-160102D01*
Y-160389D01*
X1001615D01*
Y-160675D01*
X1001328D01*
Y-160961D01*
X1001042D01*
Y-161248D01*
X1000756D01*
Y-161534D01*
Y-161820D01*
X1000469D01*
Y-162107D01*
X1000183D01*
Y-162393D01*
X999897D01*
Y-162679D01*
Y-162966D01*
X999611D01*
Y-163252D01*
X999324D01*
Y-163538D01*
X999038D01*
Y-163824D01*
Y-164111D01*
X998752D01*
Y-164397D01*
X998465D01*
Y-164683D01*
X998179D01*
Y-164970D01*
X997893D01*
Y-165256D01*
Y-165542D01*
X997606D01*
Y-165829D01*
X997320D01*
Y-166115D01*
X997034D01*
Y-166401D01*
Y-166688D01*
X996747D01*
Y-166974D01*
X996461D01*
Y-167260D01*
X996175D01*
Y-167547D01*
Y-167833D01*
X995889D01*
Y-168119D01*
X995602D01*
Y-168405D01*
X995316D01*
Y-168692D01*
X995030D01*
Y-168978D01*
Y-169264D01*
X994743D01*
Y-169551D01*
X994457D01*
Y-169837D01*
X994171D01*
Y-170123D01*
Y-170410D01*
X993884D01*
Y-170696D01*
X993598D01*
Y-170982D01*
X993312D01*
Y-171269D01*
Y-171555D01*
X993025D01*
Y-171841D01*
X992739D01*
Y-172127D01*
X992453D01*
Y-172414D01*
X992166D01*
Y-172700D01*
Y-172986D01*
X991880D01*
Y-173273D01*
X991594D01*
Y-173559D01*
X991308D01*
Y-173845D01*
Y-174132D01*
X991021D01*
Y-174418D01*
X990735D01*
Y-174704D01*
X990449D01*
Y-174991D01*
X990162D01*
Y-175277D01*
Y-175563D01*
X990449D01*
Y-175850D01*
Y-176136D01*
X990735D01*
Y-176422D01*
Y-176709D01*
X991021D01*
Y-176995D01*
X991308D01*
Y-177281D01*
Y-177568D01*
X991594D01*
Y-177854D01*
Y-178140D01*
X991880D01*
Y-178426D01*
Y-178713D01*
X992166D01*
Y-178999D01*
Y-179285D01*
X992453D01*
Y-179572D01*
Y-179858D01*
X992739D01*
Y-180144D01*
Y-180431D01*
X993025D01*
Y-180717D01*
Y-181003D01*
X993312D01*
Y-181290D01*
Y-181576D01*
X993598D01*
Y-181862D01*
X993884D01*
Y-182149D01*
Y-182435D01*
X994171D01*
Y-182721D01*
Y-183007D01*
X994457D01*
Y-183294D01*
Y-183580D01*
X994743D01*
Y-183866D01*
Y-184153D01*
X995030D01*
Y-184439D01*
Y-184725D01*
X995316D01*
Y-185012D01*
Y-185298D01*
X995602D01*
Y-185584D01*
Y-185871D01*
X995889D01*
Y-186157D01*
X996175D01*
Y-186443D01*
Y-186730D01*
X996461D01*
Y-187016D01*
Y-187302D01*
X996747D01*
Y-187588D01*
Y-187875D01*
X997034D01*
Y-188161D01*
Y-188447D01*
X997320D01*
Y-188734D01*
Y-189020D01*
X997606D01*
Y-189306D01*
Y-189593D01*
X997893D01*
Y-189879D01*
Y-190165D01*
X998179D01*
Y-190452D01*
X998465D01*
Y-190738D01*
Y-191024D01*
X998752D01*
Y-191311D01*
Y-191597D01*
X999038D01*
Y-191883D01*
X983863D01*
Y-191597D01*
X983577D01*
Y-191311D01*
Y-191024D01*
Y-190738D01*
X983291D01*
Y-190452D01*
Y-190165D01*
Y-189879D01*
X983004D01*
Y-189593D01*
Y-189306D01*
X982718D01*
Y-189020D01*
Y-188734D01*
Y-188447D01*
X982432D01*
Y-188161D01*
Y-187875D01*
Y-187588D01*
X982146D01*
Y-187302D01*
Y-187016D01*
X981859D01*
Y-186730D01*
Y-186443D01*
Y-186157D01*
X981573D01*
Y-185871D01*
Y-185584D01*
Y-185298D01*
X981287D01*
Y-185012D01*
Y-184725D01*
Y-184439D01*
X981000D01*
Y-184153D01*
X980428D01*
Y-184439D01*
Y-184725D01*
X980141D01*
Y-185012D01*
X979855D01*
Y-185298D01*
Y-185584D01*
X979569D01*
Y-185871D01*
X979282D01*
Y-186157D01*
Y-186443D01*
X978996D01*
Y-186730D01*
X978710D01*
Y-187016D01*
Y-187302D01*
X978423D01*
Y-187588D01*
X978137D01*
Y-187875D01*
X977851D01*
Y-188161D01*
Y-188447D01*
X977565D01*
Y-188734D01*
X977278D01*
Y-189020D01*
Y-189306D01*
X976992D01*
Y-189593D01*
X976705D01*
Y-189879D01*
Y-190165D01*
X976419D01*
Y-190452D01*
X976133D01*
Y-190738D01*
Y-191024D01*
X975847D01*
Y-191311D01*
X975560D01*
Y-191597D01*
Y-191883D01*
X959527D01*
Y-191597D01*
X959813D01*
Y-191311D01*
X960099D01*
Y-191024D01*
X960386D01*
Y-190738D01*
X960672D01*
Y-190452D01*
Y-190165D01*
X960958D01*
Y-189879D01*
X961245D01*
Y-189593D01*
X961531D01*
Y-189306D01*
X961817D01*
Y-189020D01*
Y-188734D01*
X962104D01*
Y-188447D01*
X962390D01*
Y-188161D01*
X962676D01*
Y-187875D01*
Y-187588D01*
X962963D01*
Y-187302D01*
X963249D01*
Y-187016D01*
X963535D01*
Y-186730D01*
X963822D01*
Y-186443D01*
Y-186157D01*
X964108D01*
Y-185871D01*
X964394D01*
Y-185584D01*
X964680D01*
Y-185298D01*
X964967D01*
Y-185012D01*
Y-184725D01*
X965253D01*
Y-184439D01*
X965539D01*
Y-184153D01*
X965826D01*
Y-183866D01*
Y-183580D01*
X966112D01*
Y-183294D01*
X966398D01*
Y-183007D01*
X966685D01*
Y-182721D01*
X966971D01*
Y-182435D01*
Y-182149D01*
X967257D01*
Y-181862D01*
X967544D01*
Y-181576D01*
X967830D01*
Y-181290D01*
Y-181003D01*
X968116D01*
Y-180717D01*
X968402D01*
Y-180431D01*
X968689D01*
Y-180144D01*
X968975D01*
Y-179858D01*
Y-179572D01*
X969261D01*
Y-179285D01*
X969548D01*
Y-178999D01*
X969834D01*
Y-178713D01*
Y-178426D01*
X970120D01*
Y-178140D01*
X970407D01*
Y-177854D01*
X970693D01*
Y-177568D01*
X970979D01*
Y-177281D01*
Y-176995D01*
X971266D01*
Y-176709D01*
X971552D01*
Y-176422D01*
X971838D01*
Y-176136D01*
X972124D01*
Y-175850D01*
Y-175563D01*
X972411D01*
Y-175277D01*
X972697D01*
Y-174991D01*
X972983D01*
Y-174704D01*
Y-174418D01*
X973270D01*
Y-174132D01*
X973556D01*
Y-173845D01*
X973842D01*
Y-173559D01*
X974129D01*
Y-173273D01*
Y-172986D01*
X974415D01*
Y-172700D01*
Y-172414D01*
Y-172127D01*
X974129D01*
Y-171841D01*
X973842D01*
Y-171555D01*
Y-171269D01*
X973556D01*
Y-170982D01*
Y-170696D01*
X973270D01*
Y-170410D01*
Y-170123D01*
X972983D01*
Y-169837D01*
Y-169551D01*
X972697D01*
Y-169264D01*
Y-168978D01*
X972411D01*
Y-168692D01*
Y-168405D01*
X972124D01*
Y-168119D01*
X971838D01*
Y-167833D01*
Y-167547D01*
X971552D01*
Y-167260D01*
Y-166974D01*
X971266D01*
Y-166688D01*
Y-166401D01*
X970979D01*
Y-166115D01*
Y-165829D01*
X970693D01*
Y-165542D01*
Y-165256D01*
X970407D01*
Y-164970D01*
Y-164683D01*
X970120D01*
Y-164397D01*
X969834D01*
Y-164111D01*
Y-163824D01*
X969548D01*
Y-163538D01*
Y-163252D01*
X969261D01*
Y-162966D01*
Y-162679D01*
X968975D01*
Y-162393D01*
Y-162107D01*
X968689D01*
Y-161820D01*
Y-161534D01*
X968402D01*
Y-161248D01*
Y-160961D01*
X968116D01*
Y-160675D01*
Y-160389D01*
X967830D01*
Y-160102D01*
X967544D01*
Y-159816D01*
Y-159530D01*
X967257D01*
Y-159244D01*
Y-158957D01*
X966971D01*
Y-158671D01*
Y-158385D01*
X966685D01*
Y-158098D01*
Y-157812D01*
X966398D01*
Y-157526D01*
Y-157239D01*
X966112D01*
Y-156953D01*
Y-156667D01*
X965826D01*
Y-156380D01*
X965539D01*
Y-156094D01*
Y-155808D01*
X965253D01*
Y-155521D01*
X981000D01*
Y-155808D01*
X981287D01*
Y-156094D01*
Y-156380D01*
Y-156667D01*
X981573D01*
Y-156953D01*
Y-157239D01*
Y-157526D01*
X981859D01*
Y-157812D01*
Y-158098D01*
Y-158385D01*
X982146D01*
Y-158671D01*
Y-158957D01*
Y-159244D01*
X982432D01*
Y-159530D01*
Y-159816D01*
Y-160102D01*
X982718D01*
Y-160389D01*
Y-160675D01*
Y-160961D01*
X983004D01*
Y-161248D01*
Y-161534D01*
Y-161820D01*
X983291D01*
Y-162107D01*
Y-162393D01*
Y-162679D01*
X983577D01*
Y-162966D01*
Y-163252D01*
Y-163538D01*
Y-163824D01*
X984150D01*
Y-163538D01*
X984436D01*
Y-163252D01*
X984722D01*
Y-162966D01*
Y-162679D01*
X985009D01*
Y-162393D01*
X985295D01*
Y-162107D01*
Y-161820D01*
X985581D01*
Y-161534D01*
X985868D01*
Y-161248D01*
Y-160961D01*
X986154D01*
Y-160675D01*
X986440D01*
Y-160389D01*
Y-160102D01*
X986726D01*
Y-159816D01*
X987013D01*
Y-159530D01*
Y-159244D01*
X987299D01*
Y-158957D01*
X987585D01*
Y-158671D01*
Y-158385D01*
X987872D01*
Y-158098D01*
X988158D01*
Y-157812D01*
Y-157526D01*
X988444D01*
Y-157239D01*
X988731D01*
Y-156953D01*
Y-156667D01*
X989017D01*
Y-156380D01*
X989303D01*
Y-156094D01*
Y-155808D01*
X989590D01*
Y-155521D01*
X1005337D01*
Y-155808D01*
D02*
G37*
G36*
X872201Y-141778D02*
X873919D01*
Y-142065D01*
X874778D01*
Y-142351D01*
X875637D01*
Y-142637D01*
X876496D01*
Y-142924D01*
X877069D01*
Y-143210D01*
X877355D01*
Y-143496D01*
X877928D01*
Y-143783D01*
X878214D01*
Y-144069D01*
X878786D01*
Y-144355D01*
X879073D01*
Y-144641D01*
X879359D01*
Y-144928D01*
X879646D01*
Y-145214D01*
X879932D01*
Y-145501D01*
X880218D01*
Y-145787D01*
X880504D01*
Y-146073D01*
Y-146359D01*
X880791D01*
Y-146646D01*
X881077D01*
Y-146932D01*
Y-147218D01*
X881363D01*
Y-147505D01*
X881650D01*
Y-147791D01*
Y-148077D01*
X881936D01*
Y-148364D01*
Y-148650D01*
Y-148936D01*
X882222D01*
Y-149223D01*
Y-149509D01*
Y-149795D01*
X882509D01*
Y-150082D01*
Y-150368D01*
Y-150654D01*
Y-150940D01*
X882795D01*
Y-151227D01*
Y-151513D01*
Y-151799D01*
Y-152086D01*
Y-152372D01*
X883081D01*
Y-152658D01*
Y-152945D01*
Y-153231D01*
Y-153517D01*
Y-153804D01*
Y-154090D01*
Y-154376D01*
Y-154663D01*
Y-154949D01*
Y-155235D01*
Y-155521D01*
Y-155808D01*
Y-156094D01*
Y-156380D01*
Y-156667D01*
Y-156953D01*
Y-157239D01*
Y-157526D01*
Y-157812D01*
Y-158098D01*
X882795D01*
Y-158385D01*
Y-158671D01*
Y-158957D01*
Y-159244D01*
Y-159530D01*
Y-159816D01*
Y-160102D01*
X882509D01*
Y-160389D01*
Y-160675D01*
Y-160961D01*
Y-161248D01*
Y-161534D01*
X882222D01*
Y-161820D01*
Y-162107D01*
Y-162393D01*
Y-162679D01*
Y-162966D01*
X881936D01*
Y-163252D01*
Y-163538D01*
Y-163824D01*
X881650D01*
Y-164111D01*
Y-164397D01*
Y-164683D01*
Y-164970D01*
X881363D01*
Y-165256D01*
Y-165542D01*
Y-165829D01*
X881077D01*
Y-166115D01*
Y-166401D01*
X880791D01*
Y-166688D01*
Y-166974D01*
Y-167260D01*
X880504D01*
Y-167547D01*
Y-167833D01*
X880218D01*
Y-168119D01*
Y-168405D01*
X879932D01*
Y-168692D01*
Y-168978D01*
X879646D01*
Y-169264D01*
X879359D01*
Y-169551D01*
Y-169837D01*
X879073D01*
Y-170123D01*
X878786D01*
Y-170410D01*
X878500D01*
Y-170696D01*
Y-170982D01*
X878214D01*
Y-171269D01*
X877928D01*
Y-171555D01*
X877641D01*
Y-171841D01*
X877355D01*
Y-172127D01*
X877069D01*
Y-172414D01*
X876496D01*
Y-172700D01*
X876210D01*
Y-172986D01*
X875637D01*
Y-173273D01*
X875351D01*
Y-173559D01*
X874778D01*
Y-173845D01*
X873919D01*
Y-174132D01*
X873060D01*
Y-174418D01*
X872201D01*
Y-174704D01*
X870483D01*
Y-174991D01*
X865330D01*
Y-174704D01*
X862753D01*
Y-174418D01*
X860749D01*
Y-174132D01*
X859317D01*
Y-173845D01*
X857886D01*
Y-173559D01*
X856454D01*
Y-173845D01*
Y-174132D01*
Y-174418D01*
Y-174704D01*
Y-174991D01*
Y-175277D01*
Y-175563D01*
X856168D01*
Y-175850D01*
Y-176136D01*
Y-176422D01*
Y-176709D01*
Y-176995D01*
Y-177281D01*
X855882D01*
Y-177568D01*
Y-177854D01*
Y-178140D01*
Y-178426D01*
Y-178713D01*
Y-178999D01*
X855595D01*
Y-179285D01*
Y-179572D01*
Y-179858D01*
Y-180144D01*
Y-180431D01*
Y-180717D01*
Y-181003D01*
X855309D01*
Y-181290D01*
Y-181576D01*
Y-181862D01*
Y-182149D01*
Y-182435D01*
Y-182721D01*
X855023D01*
Y-183007D01*
Y-183294D01*
Y-183580D01*
Y-183866D01*
Y-184153D01*
Y-184439D01*
X854736D01*
Y-184725D01*
Y-185012D01*
Y-185298D01*
Y-185584D01*
Y-185871D01*
Y-186157D01*
Y-186443D01*
X854450D01*
Y-186730D01*
Y-187016D01*
Y-187302D01*
Y-187588D01*
Y-187875D01*
Y-188161D01*
X854164D01*
Y-188447D01*
Y-188734D01*
Y-189020D01*
Y-189306D01*
Y-189593D01*
Y-189879D01*
X853877D01*
Y-190165D01*
Y-190452D01*
Y-190738D01*
Y-191024D01*
Y-191311D01*
Y-191597D01*
Y-191883D01*
X840421D01*
Y-191597D01*
X840707D01*
Y-191311D01*
Y-191024D01*
Y-190738D01*
Y-190452D01*
Y-190165D01*
X840993D01*
Y-189879D01*
Y-189593D01*
Y-189306D01*
Y-189020D01*
Y-188734D01*
Y-188447D01*
Y-188161D01*
X841280D01*
Y-187875D01*
Y-187588D01*
Y-187302D01*
Y-187016D01*
Y-186730D01*
Y-186443D01*
X841566D01*
Y-186157D01*
Y-185871D01*
Y-185584D01*
Y-185298D01*
Y-185012D01*
Y-184725D01*
X841852D01*
Y-184439D01*
Y-184153D01*
Y-183866D01*
Y-183580D01*
Y-183294D01*
Y-183007D01*
Y-182721D01*
X842138D01*
Y-182435D01*
Y-182149D01*
Y-181862D01*
Y-181576D01*
Y-181290D01*
Y-181003D01*
X842425D01*
Y-180717D01*
Y-180431D01*
Y-180144D01*
Y-179858D01*
Y-179572D01*
Y-179285D01*
X842711D01*
Y-178999D01*
Y-178713D01*
Y-178426D01*
Y-178140D01*
Y-177854D01*
Y-177568D01*
X842997D01*
Y-177281D01*
Y-176995D01*
Y-176709D01*
Y-176422D01*
Y-176136D01*
Y-175850D01*
Y-175563D01*
X843284D01*
Y-175277D01*
Y-174991D01*
Y-174704D01*
Y-174418D01*
Y-174132D01*
Y-173845D01*
X843570D01*
Y-173559D01*
Y-173273D01*
Y-172986D01*
Y-172700D01*
Y-172414D01*
Y-172127D01*
X843856D01*
Y-171841D01*
Y-171555D01*
Y-171269D01*
Y-170982D01*
Y-170696D01*
Y-170410D01*
X844143D01*
Y-170123D01*
Y-169837D01*
Y-169551D01*
Y-169264D01*
Y-168978D01*
Y-168692D01*
Y-168405D01*
X844429D01*
Y-168119D01*
Y-167833D01*
Y-167547D01*
Y-167260D01*
Y-166974D01*
Y-166688D01*
X844715D01*
Y-166401D01*
Y-166115D01*
Y-165829D01*
Y-165542D01*
Y-165256D01*
Y-164970D01*
X845002D01*
Y-164683D01*
Y-164397D01*
Y-164111D01*
Y-163824D01*
Y-163538D01*
Y-163252D01*
Y-162966D01*
X845288D01*
Y-162679D01*
Y-162393D01*
Y-162107D01*
Y-161820D01*
Y-161534D01*
Y-161248D01*
X845574D01*
Y-160961D01*
Y-160675D01*
Y-160389D01*
Y-160102D01*
Y-159816D01*
Y-159530D01*
X845861D01*
Y-159244D01*
Y-158957D01*
Y-158671D01*
Y-158385D01*
Y-158098D01*
Y-157812D01*
X846147D01*
Y-157526D01*
Y-157239D01*
Y-156953D01*
Y-156667D01*
Y-156380D01*
Y-156094D01*
Y-155808D01*
X846433D01*
Y-155521D01*
Y-155235D01*
Y-154949D01*
Y-154663D01*
Y-154376D01*
Y-154090D01*
X846719D01*
Y-153804D01*
Y-153517D01*
Y-153231D01*
Y-152945D01*
Y-152658D01*
Y-152372D01*
X847006D01*
Y-152086D01*
Y-151799D01*
Y-151513D01*
Y-151227D01*
Y-150940D01*
Y-150654D01*
Y-150368D01*
X847292D01*
Y-150082D01*
Y-149795D01*
Y-149509D01*
Y-149223D01*
Y-148936D01*
Y-148650D01*
X847578D01*
Y-148364D01*
Y-148077D01*
Y-147791D01*
Y-147505D01*
Y-147218D01*
Y-146932D01*
X847865D01*
Y-146646D01*
Y-146359D01*
Y-146073D01*
Y-145787D01*
Y-145501D01*
Y-145214D01*
Y-144928D01*
X848151D01*
Y-144641D01*
Y-144355D01*
Y-144069D01*
Y-143783D01*
Y-143496D01*
Y-143210D01*
X848437D01*
Y-142924D01*
Y-142637D01*
Y-142351D01*
Y-142065D01*
Y-141778D01*
Y-141492D01*
X872201D01*
Y-141778D01*
D02*
G37*
G36*
X961245Y-155808D02*
Y-156094D01*
Y-156380D01*
Y-156667D01*
Y-156953D01*
Y-157239D01*
Y-157526D01*
Y-157812D01*
Y-158098D01*
Y-158385D01*
Y-158671D01*
Y-158957D01*
Y-159244D01*
Y-159530D01*
Y-159816D01*
Y-160102D01*
Y-160389D01*
Y-160675D01*
Y-160961D01*
Y-161248D01*
Y-161534D01*
X960958D01*
Y-161820D01*
Y-162107D01*
Y-162393D01*
Y-162679D01*
Y-162966D01*
X960672D01*
Y-163252D01*
Y-163538D01*
Y-163824D01*
Y-164111D01*
X960386D01*
Y-164397D01*
Y-164683D01*
Y-164970D01*
Y-165256D01*
X960099D01*
Y-165542D01*
Y-165829D01*
Y-166115D01*
X959813D01*
Y-166401D01*
Y-166688D01*
Y-166974D01*
X959527D01*
Y-167260D01*
Y-167547D01*
Y-167833D01*
X959241D01*
Y-168119D01*
Y-168405D01*
Y-168692D01*
X958954D01*
Y-168978D01*
Y-169264D01*
X958668D01*
Y-169551D01*
Y-169837D01*
X958381D01*
Y-170123D01*
Y-170410D01*
Y-170696D01*
X958095D01*
Y-170982D01*
Y-171269D01*
X957809D01*
Y-171555D01*
Y-171841D01*
Y-172127D01*
X957523D01*
Y-172414D01*
Y-172700D01*
X957236D01*
Y-172986D01*
Y-173273D01*
Y-173559D01*
X956950D01*
Y-173845D01*
Y-174132D01*
X956664D01*
Y-174418D01*
Y-174704D01*
Y-174991D01*
X956377D01*
Y-175277D01*
Y-175563D01*
X956091D01*
Y-175850D01*
Y-176136D01*
Y-176422D01*
X955805D01*
Y-176709D01*
Y-176995D01*
X955518D01*
Y-177281D01*
Y-177568D01*
Y-177854D01*
X955232D01*
Y-178140D01*
Y-178426D01*
X954946D01*
Y-178713D01*
Y-178999D01*
Y-179285D01*
X954659D01*
Y-179572D01*
Y-179858D01*
X954373D01*
Y-180144D01*
Y-180431D01*
Y-180717D01*
X954087D01*
Y-181003D01*
Y-181290D01*
X953800D01*
Y-181576D01*
Y-181862D01*
Y-182149D01*
X953514D01*
Y-182435D01*
Y-182721D01*
X953228D01*
Y-183007D01*
Y-183294D01*
Y-183580D01*
X952942D01*
Y-183866D01*
Y-184153D01*
X952655D01*
Y-184439D01*
Y-184725D01*
Y-185012D01*
X952369D01*
Y-185298D01*
Y-185584D01*
X952083D01*
Y-185871D01*
Y-186157D01*
Y-186443D01*
X951796D01*
Y-186730D01*
Y-187016D01*
X951510D01*
Y-187302D01*
Y-187588D01*
Y-187875D01*
X951224D01*
Y-188161D01*
Y-188447D01*
X950937D01*
Y-188734D01*
Y-189020D01*
Y-189306D01*
X950651D01*
Y-189593D01*
Y-189879D01*
X950365D01*
Y-190165D01*
Y-190452D01*
Y-190738D01*
X950078D01*
Y-191024D01*
Y-191311D01*
X949792D01*
Y-191597D01*
Y-191883D01*
Y-192169D01*
X949506D01*
Y-192456D01*
Y-192742D01*
X949220D01*
Y-193028D01*
Y-193315D01*
X948933D01*
Y-193601D01*
Y-193887D01*
X948647D01*
Y-194174D01*
Y-194460D01*
Y-194746D01*
X948361D01*
Y-195033D01*
X948074D01*
Y-195319D01*
Y-195605D01*
Y-195891D01*
X947788D01*
Y-196178D01*
X947502D01*
Y-196464D01*
Y-196750D01*
X947215D01*
Y-197037D01*
Y-197323D01*
X946929D01*
Y-197609D01*
Y-197896D01*
X946643D01*
Y-198182D01*
Y-198468D01*
X946356D01*
Y-198755D01*
X946070D01*
Y-199041D01*
Y-199327D01*
X945784D01*
Y-199614D01*
Y-199900D01*
X945497D01*
Y-200186D01*
X945211D01*
Y-200472D01*
X944925D01*
Y-200759D01*
Y-201045D01*
X944639D01*
Y-201331D01*
X944352D01*
Y-201618D01*
Y-201904D01*
X944066D01*
Y-202190D01*
X943780D01*
Y-202477D01*
X943493D01*
Y-202763D01*
Y-203049D01*
X943207D01*
Y-203336D01*
X942921D01*
Y-203622D01*
X942634D01*
Y-203908D01*
X942348D01*
Y-204195D01*
X942062D01*
Y-204481D01*
Y-204767D01*
X941775D01*
Y-205053D01*
X941489D01*
Y-205340D01*
X941203D01*
Y-205626D01*
X940916D01*
Y-205912D01*
X940630D01*
Y-206199D01*
X940344D01*
Y-206485D01*
X940057D01*
Y-206771D01*
X939485D01*
Y-207058D01*
X939199D01*
Y-207344D01*
X938912D01*
Y-207630D01*
X938626D01*
Y-207917D01*
X938340D01*
Y-208203D01*
X937767D01*
Y-208489D01*
X937481D01*
Y-208776D01*
X936908D01*
Y-209062D01*
X936622D01*
Y-209348D01*
X936049D01*
Y-209634D01*
X935763D01*
Y-209921D01*
X935190D01*
Y-210207D01*
X934618D01*
Y-210493D01*
X934045D01*
Y-210780D01*
X933472D01*
Y-211066D01*
X932900D01*
Y-211352D01*
X932041D01*
Y-211639D01*
X931468D01*
Y-211925D01*
X930609D01*
Y-212211D01*
X929464D01*
Y-212498D01*
X928319D01*
Y-212784D01*
X926601D01*
Y-213070D01*
X924597D01*
Y-213357D01*
X924310D01*
Y-213070D01*
Y-212784D01*
Y-212498D01*
Y-212211D01*
Y-211925D01*
Y-211639D01*
Y-211352D01*
Y-211066D01*
Y-210780D01*
Y-210493D01*
Y-210207D01*
Y-209921D01*
Y-209634D01*
Y-209348D01*
Y-209062D01*
Y-208776D01*
Y-208489D01*
Y-208203D01*
Y-207917D01*
Y-207630D01*
Y-207344D01*
Y-207058D01*
Y-206771D01*
Y-206485D01*
Y-206199D01*
Y-205912D01*
Y-205626D01*
Y-205340D01*
Y-205053D01*
Y-204767D01*
Y-204481D01*
Y-204195D01*
Y-203908D01*
X924883D01*
Y-203622D01*
X925455D01*
Y-203336D01*
X926028D01*
Y-203049D01*
X926601D01*
Y-202763D01*
X927173D01*
Y-202477D01*
X927746D01*
Y-202190D01*
X928032D01*
Y-201904D01*
X928605D01*
Y-201618D01*
X928891D01*
Y-201331D01*
X929464D01*
Y-201045D01*
X929750D01*
Y-200759D01*
X930037D01*
Y-200472D01*
X930609D01*
Y-200186D01*
X930896D01*
Y-199900D01*
X931182D01*
Y-199614D01*
X931468D01*
Y-199327D01*
X931754D01*
Y-199041D01*
X932041D01*
Y-198755D01*
X932327D01*
Y-198468D01*
X932613D01*
Y-198182D01*
X932900D01*
Y-197896D01*
X933186D01*
Y-197609D01*
X933472D01*
Y-197323D01*
X933759D01*
Y-197037D01*
Y-196750D01*
X934045D01*
Y-196464D01*
X934331D01*
Y-196178D01*
X934618D01*
Y-195891D01*
Y-195605D01*
X934904D01*
Y-195319D01*
X935190D01*
Y-195033D01*
Y-194746D01*
X935476D01*
Y-194460D01*
Y-194174D01*
X935763D01*
Y-193887D01*
X936049D01*
Y-193601D01*
Y-193315D01*
X936335D01*
Y-193028D01*
Y-192742D01*
X936622D01*
Y-192456D01*
Y-192169D01*
X934904D01*
Y-191883D01*
X932900D01*
Y-191597D01*
X931754D01*
Y-191311D01*
X931182D01*
Y-191024D01*
X930323D01*
Y-190738D01*
X929750D01*
Y-190452D01*
X929464D01*
Y-190165D01*
X928891D01*
Y-189879D01*
X928605D01*
Y-189593D01*
X928319D01*
Y-189306D01*
X928032D01*
Y-189020D01*
X927746D01*
Y-188734D01*
X927460D01*
Y-188447D01*
Y-188161D01*
X927173D01*
Y-187875D01*
X926887D01*
Y-187588D01*
Y-187302D01*
X926601D01*
Y-187016D01*
Y-186730D01*
X926315D01*
Y-186443D01*
Y-186157D01*
X926028D01*
Y-185871D01*
Y-185584D01*
Y-185298D01*
X925742D01*
Y-185012D01*
Y-184725D01*
Y-184439D01*
Y-184153D01*
X925455D01*
Y-183866D01*
Y-183580D01*
Y-183294D01*
Y-183007D01*
Y-182721D01*
Y-182435D01*
Y-182149D01*
X925169D01*
Y-181862D01*
Y-181576D01*
Y-181290D01*
Y-181003D01*
Y-180717D01*
Y-180431D01*
Y-180144D01*
Y-179858D01*
Y-179572D01*
Y-179285D01*
Y-178999D01*
Y-178713D01*
Y-178426D01*
Y-178140D01*
Y-177854D01*
X924883D01*
Y-177568D01*
Y-177281D01*
Y-176995D01*
Y-176709D01*
Y-176422D01*
Y-176136D01*
Y-175850D01*
Y-175563D01*
Y-175277D01*
Y-174991D01*
Y-174704D01*
Y-174418D01*
Y-174132D01*
Y-173845D01*
Y-173559D01*
X924597D01*
Y-173273D01*
Y-172986D01*
Y-172700D01*
Y-172414D01*
Y-172127D01*
Y-171841D01*
Y-171555D01*
Y-171269D01*
Y-170982D01*
Y-170696D01*
Y-170410D01*
Y-170123D01*
Y-169837D01*
Y-169551D01*
Y-169264D01*
Y-168978D01*
X924310D01*
Y-168692D01*
Y-168405D01*
Y-168119D01*
Y-167833D01*
Y-167547D01*
Y-167260D01*
Y-166974D01*
Y-166688D01*
Y-166401D01*
Y-166115D01*
Y-165829D01*
Y-165542D01*
Y-165256D01*
Y-164970D01*
Y-164683D01*
Y-164397D01*
X924024D01*
Y-164111D01*
Y-163824D01*
Y-163538D01*
Y-163252D01*
Y-162966D01*
Y-162679D01*
Y-162393D01*
Y-162107D01*
Y-161820D01*
Y-161534D01*
Y-161248D01*
Y-160961D01*
Y-160675D01*
Y-160389D01*
X923738D01*
Y-160102D01*
Y-159816D01*
Y-159530D01*
Y-159244D01*
Y-158957D01*
Y-158671D01*
Y-158385D01*
Y-158098D01*
Y-157812D01*
Y-157526D01*
Y-157239D01*
Y-156953D01*
Y-156667D01*
Y-156380D01*
Y-156094D01*
Y-155808D01*
X923451D01*
Y-155521D01*
X937194D01*
Y-155808D01*
Y-156094D01*
Y-156380D01*
Y-156667D01*
Y-156953D01*
Y-157239D01*
Y-157526D01*
Y-157812D01*
Y-158098D01*
Y-158385D01*
Y-158671D01*
Y-158957D01*
Y-159244D01*
Y-159530D01*
X937481D01*
Y-159816D01*
Y-160102D01*
Y-160389D01*
Y-160675D01*
Y-160961D01*
Y-161248D01*
Y-161534D01*
Y-161820D01*
Y-162107D01*
Y-162393D01*
Y-162679D01*
Y-162966D01*
Y-163252D01*
Y-163538D01*
Y-163824D01*
Y-164111D01*
Y-164397D01*
Y-164683D01*
Y-164970D01*
Y-165256D01*
Y-165542D01*
Y-165829D01*
Y-166115D01*
Y-166401D01*
Y-166688D01*
Y-166974D01*
Y-167260D01*
Y-167547D01*
Y-167833D01*
Y-168119D01*
Y-168405D01*
Y-168692D01*
Y-168978D01*
Y-169264D01*
Y-169551D01*
Y-169837D01*
Y-170123D01*
Y-170410D01*
Y-170696D01*
Y-170982D01*
Y-171269D01*
X937767D01*
Y-171555D01*
X937481D01*
Y-171841D01*
Y-172127D01*
X937767D01*
Y-172414D01*
Y-172700D01*
Y-172986D01*
Y-173273D01*
Y-173559D01*
Y-173845D01*
Y-174132D01*
Y-174418D01*
Y-174704D01*
Y-174991D01*
Y-175277D01*
Y-175563D01*
Y-175850D01*
Y-176136D01*
Y-176422D01*
Y-176709D01*
Y-176995D01*
Y-177281D01*
Y-177568D01*
Y-177854D01*
Y-178140D01*
Y-178426D01*
Y-178713D01*
Y-178999D01*
Y-179285D01*
Y-179572D01*
X938053D01*
Y-179858D01*
Y-180144D01*
Y-180431D01*
X938340D01*
Y-180717D01*
X938626D01*
Y-181003D01*
X938912D01*
Y-181290D01*
X939771D01*
Y-181576D01*
X940630D01*
Y-181290D01*
X940916D01*
Y-181003D01*
Y-180717D01*
Y-180431D01*
X941203D01*
Y-180144D01*
Y-179858D01*
X941489D01*
Y-179572D01*
Y-179285D01*
Y-178999D01*
X941775D01*
Y-178713D01*
Y-178426D01*
Y-178140D01*
X942062D01*
Y-177854D01*
Y-177568D01*
Y-177281D01*
X942348D01*
Y-176995D01*
Y-176709D01*
Y-176422D01*
X942634D01*
Y-176136D01*
Y-175850D01*
X942921D01*
Y-175563D01*
Y-175277D01*
Y-174991D01*
X943207D01*
Y-174704D01*
Y-174418D01*
Y-174132D01*
X943493D01*
Y-173845D01*
Y-173559D01*
Y-173273D01*
X943780D01*
Y-172986D01*
Y-172700D01*
X944066D01*
Y-172414D01*
Y-172127D01*
Y-171841D01*
X944352D01*
Y-171555D01*
Y-171269D01*
Y-170982D01*
X944639D01*
Y-170696D01*
Y-170410D01*
Y-170123D01*
X944925D01*
Y-169837D01*
Y-169551D01*
X945211D01*
Y-169264D01*
Y-168978D01*
Y-168692D01*
X945497D01*
Y-168405D01*
Y-168119D01*
Y-167833D01*
X945784D01*
Y-167547D01*
Y-167260D01*
Y-166974D01*
X946070D01*
Y-166688D01*
Y-166401D01*
X946356D01*
Y-166115D01*
Y-165829D01*
Y-165542D01*
X946643D01*
Y-165256D01*
Y-164970D01*
Y-164683D01*
X946929D01*
Y-164397D01*
Y-164111D01*
Y-163824D01*
X947215D01*
Y-163538D01*
Y-163252D01*
Y-162966D01*
Y-162679D01*
X947502D01*
Y-162393D01*
Y-162107D01*
Y-161820D01*
Y-161534D01*
X947788D01*
Y-161248D01*
Y-160961D01*
Y-160675D01*
Y-160389D01*
Y-160102D01*
X948074D01*
Y-159816D01*
Y-159530D01*
Y-159244D01*
Y-158957D01*
Y-158671D01*
Y-158385D01*
X948361D01*
Y-158098D01*
Y-157812D01*
Y-157526D01*
Y-157239D01*
Y-156953D01*
Y-156667D01*
Y-156380D01*
Y-156094D01*
Y-155808D01*
Y-155521D01*
X961245D01*
Y-155808D01*
D02*
G37*
G36*
X903409Y-138343D02*
Y-138629D01*
X903123D01*
Y-138915D01*
Y-139202D01*
Y-139488D01*
Y-139774D01*
Y-140060D01*
Y-140347D01*
X902837D01*
Y-140633D01*
Y-140919D01*
Y-141206D01*
Y-141492D01*
Y-141778D01*
Y-142065D01*
X902551D01*
Y-142351D01*
Y-142637D01*
Y-142924D01*
Y-143210D01*
Y-143496D01*
Y-143783D01*
Y-144069D01*
X902264D01*
Y-144355D01*
Y-144641D01*
Y-144928D01*
Y-145214D01*
Y-145501D01*
Y-145787D01*
X901978D01*
Y-146073D01*
Y-146359D01*
Y-146646D01*
Y-146932D01*
Y-147218D01*
Y-147505D01*
X901692D01*
Y-147791D01*
Y-148077D01*
Y-148364D01*
Y-148650D01*
Y-148936D01*
Y-149223D01*
Y-149509D01*
X901405D01*
Y-149795D01*
Y-150082D01*
Y-150368D01*
Y-150654D01*
Y-150940D01*
Y-151227D01*
X901119D01*
Y-151513D01*
Y-151799D01*
Y-152086D01*
Y-152372D01*
Y-152658D01*
Y-152945D01*
X900833D01*
Y-153231D01*
Y-153517D01*
Y-153804D01*
Y-154090D01*
Y-154376D01*
Y-154663D01*
X900546D01*
Y-154949D01*
Y-155235D01*
Y-155521D01*
Y-155808D01*
Y-156094D01*
Y-156380D01*
Y-156667D01*
X900260D01*
Y-156953D01*
Y-157239D01*
Y-157526D01*
Y-157812D01*
Y-158098D01*
Y-158385D01*
X899974D01*
Y-158671D01*
Y-158957D01*
X900546D01*
Y-158671D01*
X900833D01*
Y-158385D01*
X901119D01*
Y-158098D01*
X901692D01*
Y-157812D01*
X901978D01*
Y-157526D01*
X902264D01*
Y-157239D01*
X902837D01*
Y-156953D01*
X903409D01*
Y-156667D01*
X903696D01*
Y-156380D01*
X904268D01*
Y-156094D01*
X905127D01*
Y-155808D01*
X905700D01*
Y-155521D01*
X906559D01*
Y-155235D01*
X907990D01*
Y-154949D01*
X914289D01*
Y-155235D01*
X915435D01*
Y-155521D01*
X916294D01*
Y-155808D01*
X916866D01*
Y-156094D01*
X917153D01*
Y-156380D01*
X917725D01*
Y-156667D01*
X918011D01*
Y-156953D01*
X918298D01*
Y-157239D01*
X918584D01*
Y-157526D01*
X918870D01*
Y-157812D01*
Y-158098D01*
X919157D01*
Y-158385D01*
Y-158671D01*
X919443D01*
Y-158957D01*
Y-159244D01*
Y-159530D01*
X919729D01*
Y-159816D01*
Y-160102D01*
Y-160389D01*
Y-160675D01*
X920016D01*
Y-160961D01*
Y-161248D01*
Y-161534D01*
Y-161820D01*
Y-162107D01*
Y-162393D01*
Y-162679D01*
Y-162966D01*
Y-163252D01*
Y-163538D01*
Y-163824D01*
Y-164111D01*
Y-164397D01*
Y-164683D01*
Y-164970D01*
Y-165256D01*
Y-165542D01*
Y-165829D01*
X919729D01*
Y-166115D01*
Y-166401D01*
Y-166688D01*
Y-166974D01*
Y-167260D01*
Y-167547D01*
Y-167833D01*
X919443D01*
Y-168119D01*
Y-168405D01*
Y-168692D01*
Y-168978D01*
Y-169264D01*
Y-169551D01*
Y-169837D01*
X919157D01*
Y-170123D01*
Y-170410D01*
Y-170696D01*
Y-170982D01*
Y-171269D01*
Y-171555D01*
X918870D01*
Y-171841D01*
Y-172127D01*
Y-172414D01*
Y-172700D01*
Y-172986D01*
Y-173273D01*
X918584D01*
Y-173559D01*
Y-173845D01*
Y-174132D01*
Y-174418D01*
Y-174704D01*
Y-174991D01*
X918298D01*
Y-175277D01*
Y-175563D01*
Y-175850D01*
Y-176136D01*
Y-176422D01*
Y-176709D01*
Y-176995D01*
X918011D01*
Y-177281D01*
Y-177568D01*
Y-177854D01*
Y-178140D01*
Y-178426D01*
Y-178713D01*
X917725D01*
Y-178999D01*
Y-179285D01*
Y-179572D01*
Y-179858D01*
Y-180144D01*
Y-180431D01*
X917439D01*
Y-180717D01*
Y-181003D01*
Y-181290D01*
Y-181576D01*
Y-181862D01*
Y-182149D01*
Y-182435D01*
X917153D01*
Y-182721D01*
Y-183007D01*
Y-183294D01*
Y-183580D01*
Y-183866D01*
Y-184153D01*
X916866D01*
Y-184439D01*
Y-184725D01*
Y-185012D01*
Y-185298D01*
Y-185584D01*
Y-185871D01*
X916580D01*
Y-186157D01*
Y-186443D01*
Y-186730D01*
Y-187016D01*
Y-187302D01*
Y-187588D01*
X916294D01*
Y-187875D01*
Y-188161D01*
Y-188447D01*
Y-188734D01*
Y-189020D01*
Y-189306D01*
Y-189593D01*
X916007D01*
Y-189879D01*
Y-190165D01*
Y-190452D01*
Y-190738D01*
Y-191024D01*
Y-191311D01*
X915721D01*
Y-191597D01*
Y-191883D01*
X902551D01*
Y-191597D01*
Y-191311D01*
X902837D01*
Y-191024D01*
Y-190738D01*
Y-190452D01*
Y-190165D01*
Y-189879D01*
Y-189593D01*
X903123D01*
Y-189306D01*
Y-189020D01*
Y-188734D01*
Y-188447D01*
Y-188161D01*
Y-187875D01*
Y-187588D01*
X903409D01*
Y-187302D01*
Y-187016D01*
Y-186730D01*
Y-186443D01*
Y-186157D01*
Y-185871D01*
X903696D01*
Y-185584D01*
Y-185298D01*
Y-185012D01*
Y-184725D01*
Y-184439D01*
Y-184153D01*
X903982D01*
Y-183866D01*
Y-183580D01*
Y-183294D01*
Y-183007D01*
Y-182721D01*
Y-182435D01*
Y-182149D01*
X904268D01*
Y-181862D01*
Y-181576D01*
Y-181290D01*
Y-181003D01*
Y-180717D01*
Y-180431D01*
X904555D01*
Y-180144D01*
Y-179858D01*
Y-179572D01*
Y-179285D01*
Y-178999D01*
Y-178713D01*
Y-178426D01*
X904841D01*
Y-178140D01*
Y-177854D01*
Y-177568D01*
Y-177281D01*
Y-176995D01*
Y-176709D01*
X905127D01*
Y-176422D01*
Y-176136D01*
Y-175850D01*
Y-175563D01*
Y-175277D01*
Y-174991D01*
X905414D01*
Y-174704D01*
Y-174418D01*
Y-174132D01*
Y-173845D01*
Y-173559D01*
Y-173273D01*
X905700D01*
Y-172986D01*
Y-172700D01*
Y-172414D01*
Y-172127D01*
Y-171841D01*
Y-171555D01*
Y-171269D01*
X905986D01*
Y-170982D01*
Y-170696D01*
Y-170410D01*
Y-170123D01*
Y-169837D01*
Y-169551D01*
X906273D01*
Y-169264D01*
Y-168978D01*
Y-168692D01*
Y-168405D01*
Y-168119D01*
Y-167833D01*
Y-167547D01*
X906559D01*
Y-167260D01*
Y-166974D01*
Y-166688D01*
Y-166401D01*
Y-166115D01*
Y-165829D01*
X906273D01*
Y-165542D01*
Y-165256D01*
X905986D01*
Y-164970D01*
X905700D01*
Y-164683D01*
X905127D01*
Y-164397D01*
X903409D01*
Y-164683D01*
X901978D01*
Y-164970D01*
X901119D01*
Y-165256D01*
X900546D01*
Y-165542D01*
X900260D01*
Y-165829D01*
X899687D01*
Y-166115D01*
X899401D01*
Y-166401D01*
X899115D01*
Y-166688D01*
Y-166974D01*
X898828D01*
Y-167260D01*
Y-167547D01*
Y-167833D01*
X898542D01*
Y-168119D01*
Y-168405D01*
Y-168692D01*
Y-168978D01*
Y-169264D01*
Y-169551D01*
X898256D01*
Y-169837D01*
Y-170123D01*
Y-170410D01*
Y-170696D01*
Y-170982D01*
Y-171269D01*
Y-171555D01*
X897970D01*
Y-171841D01*
Y-172127D01*
Y-172414D01*
Y-172700D01*
Y-172986D01*
Y-173273D01*
X897683D01*
Y-173559D01*
Y-173845D01*
Y-174132D01*
Y-174418D01*
Y-174704D01*
Y-174991D01*
X897397D01*
Y-175277D01*
Y-175563D01*
Y-175850D01*
Y-176136D01*
Y-176422D01*
Y-176709D01*
X897111D01*
Y-176995D01*
Y-177281D01*
Y-177568D01*
Y-177854D01*
Y-178140D01*
Y-178426D01*
Y-178713D01*
X896824D01*
Y-178999D01*
Y-179285D01*
Y-179572D01*
Y-179858D01*
Y-180144D01*
Y-180431D01*
X896538D01*
Y-180717D01*
Y-181003D01*
Y-181290D01*
Y-181576D01*
Y-181862D01*
Y-182149D01*
X896252D01*
Y-182435D01*
Y-182721D01*
Y-183007D01*
Y-183294D01*
Y-183580D01*
Y-183866D01*
Y-184153D01*
X895965D01*
Y-184439D01*
Y-184725D01*
Y-185012D01*
Y-185298D01*
Y-185584D01*
Y-185871D01*
X895679D01*
Y-186157D01*
Y-186443D01*
Y-186730D01*
Y-187016D01*
Y-187302D01*
Y-187588D01*
X895393D01*
Y-187875D01*
Y-188161D01*
Y-188447D01*
Y-188734D01*
Y-189020D01*
Y-189306D01*
X895106D01*
Y-189593D01*
Y-189879D01*
Y-190165D01*
Y-190452D01*
Y-190738D01*
Y-191024D01*
Y-191311D01*
X894820D01*
Y-191597D01*
Y-191883D01*
X881650D01*
Y-191597D01*
Y-191311D01*
X881936D01*
Y-191024D01*
Y-190738D01*
Y-190452D01*
Y-190165D01*
Y-189879D01*
Y-189593D01*
Y-189306D01*
X882222D01*
Y-189020D01*
Y-188734D01*
Y-188447D01*
Y-188161D01*
Y-187875D01*
Y-187588D01*
X882509D01*
Y-187302D01*
Y-187016D01*
Y-186730D01*
Y-186443D01*
Y-186157D01*
Y-185871D01*
X882795D01*
Y-185584D01*
Y-185298D01*
Y-185012D01*
Y-184725D01*
Y-184439D01*
Y-184153D01*
Y-183866D01*
X883081D01*
Y-183580D01*
Y-183294D01*
Y-183007D01*
Y-182721D01*
Y-182435D01*
Y-182149D01*
X883368D01*
Y-181862D01*
Y-181576D01*
Y-181290D01*
Y-181003D01*
Y-180717D01*
Y-180431D01*
X883654D01*
Y-180144D01*
Y-179858D01*
Y-179572D01*
Y-179285D01*
Y-178999D01*
Y-178713D01*
X883940D01*
Y-178426D01*
Y-178140D01*
Y-177854D01*
Y-177568D01*
Y-177281D01*
Y-176995D01*
Y-176709D01*
X884227D01*
Y-176422D01*
Y-176136D01*
Y-175850D01*
Y-175563D01*
Y-175277D01*
Y-174991D01*
X884513D01*
Y-174704D01*
Y-174418D01*
Y-174132D01*
Y-173845D01*
Y-173559D01*
Y-173273D01*
X884799D01*
Y-172986D01*
Y-172700D01*
Y-172414D01*
Y-172127D01*
Y-171841D01*
Y-171555D01*
Y-171269D01*
X885085D01*
Y-170982D01*
Y-170696D01*
Y-170410D01*
Y-170123D01*
Y-169837D01*
Y-169551D01*
X885372D01*
Y-169264D01*
Y-168978D01*
Y-168692D01*
Y-168405D01*
Y-168119D01*
Y-167833D01*
X885658D01*
Y-167547D01*
Y-167260D01*
Y-166974D01*
Y-166688D01*
Y-166401D01*
Y-166115D01*
X885944D01*
Y-165829D01*
Y-165542D01*
Y-165256D01*
Y-164970D01*
Y-164683D01*
Y-164397D01*
Y-164111D01*
X886231D01*
Y-163824D01*
Y-163538D01*
Y-163252D01*
Y-162966D01*
Y-162679D01*
Y-162393D01*
X886517D01*
Y-162107D01*
Y-161820D01*
Y-161534D01*
Y-161248D01*
Y-160961D01*
Y-160675D01*
X886803D01*
Y-160389D01*
Y-160102D01*
Y-159816D01*
Y-159530D01*
Y-159244D01*
Y-158957D01*
X887090D01*
Y-158671D01*
Y-158385D01*
Y-158098D01*
Y-157812D01*
Y-157526D01*
Y-157239D01*
Y-156953D01*
X887376D01*
Y-156667D01*
Y-156380D01*
Y-156094D01*
Y-155808D01*
Y-155521D01*
Y-155235D01*
X887662D01*
Y-154949D01*
Y-154663D01*
Y-154376D01*
Y-154090D01*
Y-153804D01*
Y-153517D01*
X887949D01*
Y-153231D01*
Y-152945D01*
Y-152658D01*
Y-152372D01*
Y-152086D01*
Y-151799D01*
Y-151513D01*
X888235D01*
Y-151227D01*
Y-150940D01*
Y-150654D01*
Y-150368D01*
Y-150082D01*
Y-149795D01*
X888521D01*
Y-149509D01*
Y-149223D01*
Y-148936D01*
Y-148650D01*
Y-148364D01*
Y-148077D01*
X888807D01*
Y-147791D01*
Y-147505D01*
Y-147218D01*
Y-146932D01*
Y-146646D01*
Y-146359D01*
X889094D01*
Y-146073D01*
Y-145787D01*
Y-145501D01*
Y-145214D01*
Y-144928D01*
Y-144641D01*
Y-144355D01*
X889380D01*
Y-144069D01*
Y-143783D01*
Y-143496D01*
Y-143210D01*
Y-142924D01*
Y-142637D01*
X889666D01*
Y-142351D01*
Y-142065D01*
Y-141778D01*
Y-141492D01*
Y-141206D01*
Y-140919D01*
X889953D01*
Y-140633D01*
Y-140347D01*
Y-140060D01*
Y-139774D01*
Y-139488D01*
Y-139202D01*
Y-138915D01*
X890239D01*
Y-138629D01*
Y-138343D01*
Y-138056D01*
X903409D01*
Y-138343D01*
D02*
G37*
%LPC*%
G36*
X38189Y84646D02*
X33071D01*
Y78347D01*
X33249D01*
X33250Y78343D01*
X33084Y78215D01*
X32654Y77655D01*
X32384Y77003D01*
X32292Y76303D01*
Y73303D01*
X32384Y72603D01*
X32654Y71951D01*
X33084Y71391D01*
X33644Y70961D01*
X34296Y70691D01*
X34996Y70599D01*
X37996D01*
X38696Y70691D01*
X39348Y70961D01*
X39908Y71391D01*
X40338Y71951D01*
X40608Y72603D01*
X40700Y73303D01*
Y76303D01*
X40608Y77003D01*
X40338Y77655D01*
X39908Y78215D01*
X39348Y78645D01*
X38696Y78915D01*
X38189Y78982D01*
Y84646D01*
D02*
G37*
G36*
X-33071D02*
X-38189D01*
Y78982D01*
X-38696Y78915D01*
X-39348Y78645D01*
X-39908Y78215D01*
X-40338Y77655D01*
X-40608Y77003D01*
X-40700Y76303D01*
Y73303D01*
X-40608Y72603D01*
X-40338Y71951D01*
X-39908Y71391D01*
X-39348Y70961D01*
X-38696Y70691D01*
X-37996Y70599D01*
X-34996D01*
X-34296Y70691D01*
X-33644Y70961D01*
X-33084Y71391D01*
X-32654Y71951D01*
X-32384Y72603D01*
X-32292Y73303D01*
Y76303D01*
X-32384Y77003D01*
X-32654Y77655D01*
X-33084Y78215D01*
X-33250Y78343D01*
X-33249Y78347D01*
X-33071D01*
Y84646D01*
D02*
G37*
G36*
X29921D02*
X24803D01*
Y78628D01*
X24387Y78455D01*
X23514Y77785D01*
X22844Y76912D01*
X22423Y75895D01*
X22279Y74803D01*
X22423Y73712D01*
X22844Y72695D01*
X23514Y71821D01*
X24387Y71151D01*
X25405Y70730D01*
X26496Y70586D01*
X27588Y70730D01*
X28605Y71151D01*
X29478Y71821D01*
X30148Y72695D01*
X30570Y73712D01*
X30713Y74803D01*
X30570Y75895D01*
X30148Y76912D01*
X29478Y77785D01*
X28751Y78343D01*
X28753Y78347D01*
X29921D01*
Y84646D01*
D02*
G37*
G36*
X-24803D02*
X-29921D01*
Y78347D01*
X-28753D01*
X-28751Y78343D01*
X-29478Y77785D01*
X-30148Y76912D01*
X-30569Y75895D01*
X-30713Y74803D01*
X-30569Y73712D01*
X-30148Y72695D01*
X-29478Y71821D01*
X-28605Y71151D01*
X-27588Y70730D01*
X-26496Y70586D01*
X-25405Y70730D01*
X-24387Y71151D01*
X-23514Y71821D01*
X-22844Y72695D01*
X-22423Y73712D01*
X-22279Y74803D01*
X-22423Y75895D01*
X-22844Y76912D01*
X-23514Y77785D01*
X-24387Y78455D01*
X-24803Y78628D01*
Y84646D01*
D02*
G37*
G36*
X867907Y-152658D02*
X859890D01*
Y-152945D01*
Y-153231D01*
Y-153517D01*
Y-153804D01*
Y-154090D01*
X859604D01*
Y-154376D01*
Y-154663D01*
Y-154949D01*
Y-155235D01*
Y-155521D01*
Y-155808D01*
X859317D01*
Y-156094D01*
Y-156380D01*
Y-156667D01*
Y-156953D01*
Y-157239D01*
Y-157526D01*
X859031D01*
Y-157812D01*
Y-158098D01*
Y-158385D01*
Y-158671D01*
Y-158957D01*
Y-159244D01*
X858745D01*
Y-159530D01*
Y-159816D01*
Y-160102D01*
Y-160389D01*
Y-160675D01*
Y-160961D01*
Y-161248D01*
X858458D01*
Y-161534D01*
Y-161820D01*
Y-162107D01*
Y-162393D01*
Y-162679D01*
Y-162966D01*
X858172D01*
Y-163252D01*
Y-163538D01*
Y-163824D01*
X865330D01*
Y-163538D01*
X866475D01*
Y-163252D01*
X867048D01*
Y-162966D01*
X867334D01*
Y-162679D01*
X867620D01*
Y-162393D01*
X867907D01*
Y-162107D01*
X868193D01*
Y-161820D01*
Y-161534D01*
X868479D01*
Y-161248D01*
Y-160961D01*
X868766D01*
Y-160675D01*
Y-160389D01*
X869052D01*
Y-160102D01*
Y-159816D01*
Y-159530D01*
Y-159244D01*
X869338D01*
Y-158957D01*
Y-158671D01*
Y-158385D01*
Y-158098D01*
Y-157812D01*
X869625D01*
Y-157526D01*
Y-157239D01*
Y-156953D01*
Y-156667D01*
Y-156380D01*
Y-156094D01*
Y-155808D01*
Y-155521D01*
Y-155235D01*
Y-154949D01*
Y-154663D01*
X869338D01*
Y-154376D01*
Y-154090D01*
X869052D01*
Y-153804D01*
Y-153517D01*
X868766D01*
Y-153231D01*
X868479D01*
Y-152945D01*
X867907D01*
Y-152658D01*
D02*
G37*
%LPD*%
D10*
X1178748Y-229571D02*
Y-190201D01*
X1021267Y-150831D02*
X1296858D01*
X1021267Y-190201D02*
X1296858D01*
X824417Y-229571D02*
X1296858D01*
X824417Y-111461D02*
X1296858D01*
X824417Y-268941D02*
Y-111461D01*
X1021267Y-268941D02*
Y-111461D01*
X-356685Y900350D02*
X1296858D01*
Y-268941D02*
Y900350D01*
X-356685Y-268941D02*
Y900350D01*
Y-268941D02*
X1296858D01*
X1035046Y-255164D02*
X1031110D01*
Y-258115D01*
X1033078D01*
X1031110D01*
Y-261067D01*
X1037014Y-257131D02*
Y-261067D01*
Y-259099D01*
X1037998Y-258115D01*
X1038981Y-257131D01*
X1039965D01*
X1042917Y-261067D02*
X1044885D01*
X1043901D01*
Y-257131D01*
X1042917D01*
X1047837Y-256147D02*
X1048821Y-255164D01*
X1050789D01*
X1051772Y-256147D01*
Y-257131D01*
X1050789Y-258115D01*
X1049805D01*
X1050789D01*
X1051772Y-259099D01*
Y-260083D01*
X1050789Y-261067D01*
X1048821D01*
X1047837Y-260083D01*
X1053740Y-255164D02*
Y-261067D01*
X1056692D01*
X1057676Y-260083D01*
Y-256147D01*
X1056692Y-255164D01*
X1053740D01*
X1059644Y-262051D02*
X1063580D01*
X1069483Y-261067D02*
X1065548D01*
X1069483Y-257131D01*
Y-256147D01*
X1068499Y-255164D01*
X1066531D01*
X1065548Y-256147D01*
X1071451D02*
X1072435Y-255164D01*
X1074403D01*
X1075387Y-256147D01*
Y-260083D01*
X1074403Y-261067D01*
X1072435D01*
X1071451Y-260083D01*
Y-256147D01*
X1077355Y-261067D02*
X1079323D01*
X1078339D01*
Y-255164D01*
X1077355Y-256147D01*
X1082275Y-260083D02*
X1083258Y-261067D01*
X1085226D01*
X1086210Y-260083D01*
Y-256147D01*
X1085226Y-255164D01*
X1083258D01*
X1082275Y-256147D01*
Y-257131D01*
X1083258Y-258115D01*
X1086210D01*
X1088178Y-262051D02*
X1092114D01*
X1098017Y-256147D02*
X1097034Y-255164D01*
X1095066D01*
X1094082Y-256147D01*
Y-257131D01*
X1095066Y-258115D01*
X1097034D01*
X1098017Y-259099D01*
Y-260083D01*
X1097034Y-261067D01*
X1095066D01*
X1094082Y-260083D01*
X1100969Y-261067D02*
X1102937D01*
X1103921Y-260083D01*
Y-258115D01*
X1102937Y-257131D01*
X1100969D01*
X1099985Y-258115D01*
Y-260083D01*
X1100969Y-261067D01*
X1105889D02*
X1107857D01*
X1106873D01*
Y-255164D01*
X1105889D01*
X1114744D02*
Y-261067D01*
X1111792D01*
X1110808Y-260083D01*
Y-258115D01*
X1111792Y-257131D01*
X1114744D01*
X1119664Y-261067D02*
X1117696D01*
X1116712Y-260083D01*
Y-258115D01*
X1117696Y-257131D01*
X1119664D01*
X1120648Y-258115D01*
Y-259099D01*
X1116712D01*
X1122616Y-257131D02*
Y-261067D01*
Y-259099D01*
X1123600Y-258115D01*
X1124584Y-257131D01*
X1125568D01*
X1128519Y-255164D02*
Y-261067D01*
X1131471D01*
X1132455Y-260083D01*
Y-259099D01*
X1131471Y-258115D01*
X1128519D01*
X1131471D01*
X1132455Y-257131D01*
Y-256147D01*
X1131471Y-255164D01*
X1128519D01*
X1135407Y-257131D02*
X1137375D01*
X1138359Y-258115D01*
Y-261067D01*
X1135407D01*
X1134423Y-260083D01*
X1135407Y-259099D01*
X1138359D01*
X1144262Y-255164D02*
Y-261067D01*
X1141311D01*
X1140326Y-260083D01*
Y-258115D01*
X1141311Y-257131D01*
X1144262D01*
X1148198Y-263035D02*
X1149182D01*
X1150166Y-262051D01*
Y-257131D01*
X1147214D01*
X1146230Y-258115D01*
Y-260083D01*
X1147214Y-261067D01*
X1150166D01*
X1155085D02*
X1153118D01*
X1152134Y-260083D01*
Y-258115D01*
X1153118Y-257131D01*
X1155085D01*
X1156069Y-258115D01*
Y-259099D01*
X1152134D01*
X1158037Y-262051D02*
X1161973D01*
X1163941Y-256147D02*
X1164925Y-255164D01*
X1166893D01*
X1167877Y-256147D01*
Y-260083D01*
X1166893Y-261067D01*
X1164925D01*
X1163941Y-260083D01*
Y-256147D01*
X1169845Y-261067D02*
X1171812D01*
X1170829D01*
Y-255164D01*
X1169845Y-256147D01*
X1174764Y-261067D02*
Y-260083D01*
X1175748D01*
Y-261067D01*
X1174764D01*
X1179684D02*
Y-255164D01*
X1182636D01*
X1183620Y-256147D01*
Y-258115D01*
X1182636Y-259099D01*
X1179684D01*
X1189523Y-257131D02*
X1186571D01*
X1185588Y-258115D01*
Y-260083D01*
X1186571Y-261067D01*
X1189523D01*
X1191491Y-255164D02*
Y-261067D01*
X1194443D01*
X1195427Y-260083D01*
Y-259099D01*
Y-258115D01*
X1194443Y-257131D01*
X1191491D01*
X1197395Y-255164D02*
Y-261067D01*
X1200346D01*
X1201330Y-260083D01*
Y-256147D01*
X1200346Y-255164D01*
X1197395D01*
X1204282Y-261067D02*
X1206250D01*
X1207234Y-260083D01*
Y-258115D01*
X1206250Y-257131D01*
X1204282D01*
X1203298Y-258115D01*
Y-260083D01*
X1204282Y-261067D01*
X1213138Y-257131D02*
X1210186D01*
X1209202Y-258115D01*
Y-260083D01*
X1210186Y-261067D01*
X1213138D01*
D15*
X-161Y178022D02*
G03*
X-11719Y166089I253J-11808D01*
G01*
X-11726Y166089D02*
G03*
X-39627Y156685I16667J-95546D01*
G01*
X39655Y156679D02*
G03*
X11703Y166092I-44568J-86143D01*
G01*
X11746Y166092D02*
G03*
X189Y178016I-11811J116D01*
G01*
X-24512Y6543D02*
G03*
X24555Y6543I24533J42723D01*
G01*
X48173Y9652D02*
G03*
X24540Y6538I43865J-424098D01*
G01*
X62998Y7868D02*
G03*
X48188Y9657I-11477J-32805D01*
G01*
X62998Y7868D02*
G03*
X55999Y26983I-24495J1871D01*
G01*
X78747Y23617D02*
G03*
X55999Y26983I-26577J-101038D01*
G01*
X78747Y23617D02*
G03*
X63909Y48296I-59470J-18955D01*
G01*
X90558Y51175D02*
G03*
X63897Y48307I3682J-159583D01*
G01*
X90558Y51175D02*
G03*
X70501Y76336I-47910J-17616D01*
G01*
X70501D02*
G03*
X69011Y93228I-31925J5695D01*
G01*
X69011D02*
G03*
X73664Y135990I-97680J32264D01*
G01*
X74809Y173228D02*
G03*
X73664Y135990I97809J-21644D01*
G01*
X74809Y173228D02*
G03*
X39655Y156679I15198J-77899D01*
G01*
X-39627Y156685D02*
G03*
X-74782Y173234I-50353J-61350D01*
G01*
X-73636Y135996D02*
G03*
X-74782Y173234I-98954J15594D01*
G01*
X-73636Y135996D02*
G03*
X-68983Y93234I102333J-10498D01*
G01*
X-68983D02*
G03*
X-70473Y76342I30435J-11197D01*
G01*
X-70473D02*
G03*
X-90530Y51181I27853J-42777D01*
G01*
X-63869Y48313D02*
G03*
X-90530Y51181I-30343J-156715D01*
G01*
X-63881Y48302D02*
G03*
X-78719Y23622I44633J-43634D01*
G01*
X-55972Y26989D02*
G03*
X-78719Y23622I3830J-104405D01*
G01*
X-55972Y26989D02*
G03*
X-62970Y7874I17496J-17245D01*
G01*
X-48161Y9663D02*
G03*
X-62970Y7874I-3333J-34594D01*
G01*
X-24512Y6543D02*
G03*
X-48146Y9657I-67498J-420984D01*
G01*
X-161Y178022D02*
X189D01*
X1182685Y-202012D02*
Y-194141D01*
X1186621D01*
X1187932Y-195452D01*
Y-198076D01*
X1186621Y-199388D01*
X1182685D01*
X1185308D02*
X1187932Y-202012D01*
X1194492D02*
X1191868D01*
X1190556Y-200700D01*
Y-198076D01*
X1191868Y-196764D01*
X1194492D01*
X1195804Y-198076D01*
Y-199388D01*
X1190556D01*
X1198428Y-196764D02*
X1201052Y-202012D01*
X1203675Y-196764D01*
X828354Y-233511D02*
Y-241382D01*
X832290D01*
X833602Y-240070D01*
Y-234823D01*
X832290Y-233511D01*
X828354D01*
X840161Y-241382D02*
X837537D01*
X836226Y-240070D01*
Y-237446D01*
X837537Y-236134D01*
X840161D01*
X841473Y-237446D01*
Y-238758D01*
X836226D01*
X844097Y-241382D02*
X848033D01*
X849345Y-240070D01*
X848033Y-238758D01*
X845409D01*
X844097Y-237446D01*
X845409Y-236134D01*
X849345D01*
X854592Y-244006D02*
X855904D01*
X857216Y-242694D01*
Y-236134D01*
X853280D01*
X851968Y-237446D01*
Y-240070D01*
X853280Y-241382D01*
X857216D01*
X859840D02*
X862464D01*
X861152D01*
Y-236134D01*
X859840D01*
X866399Y-241382D02*
Y-236134D01*
X870335D01*
X871647Y-237446D01*
Y-241382D01*
X878207D02*
X875583D01*
X874271Y-240070D01*
Y-237446D01*
X875583Y-236134D01*
X878207D01*
X879519Y-237446D01*
Y-238758D01*
X874271D01*
X882143Y-236134D02*
Y-241382D01*
Y-238758D01*
X883454Y-237446D01*
X884766Y-236134D01*
X886078D01*
X1025204Y-115400D02*
Y-123272D01*
X1029140D01*
X1030452Y-121960D01*
Y-116712D01*
X1029140Y-115400D01*
X1025204D01*
X1034388Y-123272D02*
X1037012D01*
X1038323Y-121960D01*
Y-119336D01*
X1037012Y-118024D01*
X1034388D01*
X1033076Y-119336D01*
Y-121960D01*
X1034388Y-123272D01*
X1046195Y-118024D02*
X1042259D01*
X1040947Y-119336D01*
Y-121960D01*
X1042259Y-123272D01*
X1046195D01*
X1048819Y-118024D02*
Y-121960D01*
X1050131Y-123272D01*
X1054066D01*
Y-118024D01*
X1056690Y-123272D02*
Y-118024D01*
X1058002D01*
X1059314Y-119336D01*
Y-123272D01*
Y-119336D01*
X1060626Y-118024D01*
X1061938Y-119336D01*
Y-123272D01*
X1068498D02*
X1065874D01*
X1064562Y-121960D01*
Y-119336D01*
X1065874Y-118024D01*
X1068498D01*
X1069810Y-119336D01*
Y-120648D01*
X1064562D01*
X1072433Y-123272D02*
Y-118024D01*
X1076369D01*
X1077681Y-119336D01*
Y-123272D01*
X1081617Y-116712D02*
Y-118024D01*
X1080305D01*
X1082929D01*
X1081617D01*
Y-121960D01*
X1082929Y-123272D01*
X1025204Y-154770D02*
Y-162642D01*
X1030452D01*
X1034388Y-157394D02*
X1037012D01*
X1038323Y-158706D01*
Y-162642D01*
X1034388D01*
X1033076Y-161330D01*
X1034388Y-160018D01*
X1038323D01*
X1040947Y-157394D02*
Y-161330D01*
X1042259Y-162642D01*
X1046195D01*
Y-163954D01*
X1044883Y-165266D01*
X1043571D01*
X1046195Y-162642D02*
Y-157394D01*
X1052755Y-162642D02*
X1050131D01*
X1048819Y-161330D01*
Y-158706D01*
X1050131Y-157394D01*
X1052755D01*
X1054066Y-158706D01*
Y-160018D01*
X1048819D01*
X1056690Y-157394D02*
Y-162642D01*
Y-160018D01*
X1058002Y-158706D01*
X1059314Y-157394D01*
X1060626D01*
X1072433Y-162642D02*
Y-154770D01*
X1077681Y-162642D01*
Y-154770D01*
X1081617Y-157394D02*
X1084241D01*
X1085552Y-158706D01*
Y-162642D01*
X1081617D01*
X1080305Y-161330D01*
X1081617Y-160018D01*
X1085552D01*
X1088176Y-162642D02*
Y-157394D01*
X1089488D01*
X1090800Y-158706D01*
Y-162642D01*
Y-158706D01*
X1092112Y-157394D01*
X1093424Y-158706D01*
Y-162642D01*
X1099984D02*
X1097360D01*
X1096048Y-161330D01*
Y-158706D01*
X1097360Y-157394D01*
X1099984D01*
X1101295Y-158706D01*
Y-160018D01*
X1096048D01*
X1025204Y-194141D02*
Y-202012D01*
X1029140D01*
X1030452Y-200700D01*
Y-195452D01*
X1029140Y-194141D01*
X1025204D01*
X1034388Y-196764D02*
X1037012D01*
X1038323Y-198076D01*
Y-202012D01*
X1034388D01*
X1033076Y-200700D01*
X1034388Y-199388D01*
X1038323D01*
X1042259Y-195452D02*
Y-196764D01*
X1040947D01*
X1043571D01*
X1042259D01*
Y-200700D01*
X1043571Y-202012D01*
X1051443D02*
X1048819D01*
X1047507Y-200700D01*
Y-198076D01*
X1048819Y-196764D01*
X1051443D01*
X1052755Y-198076D01*
Y-199388D01*
X1047507D01*
X1025204Y-233511D02*
Y-241382D01*
X1029140D01*
X1030452Y-240070D01*
Y-234823D01*
X1029140Y-233511D01*
X1025204D01*
X1034388Y-241382D02*
X1037012D01*
X1038323Y-240070D01*
Y-237446D01*
X1037012Y-236134D01*
X1034388D01*
X1033076Y-237446D01*
Y-240070D01*
X1034388Y-241382D01*
X1046195Y-236134D02*
X1042259D01*
X1040947Y-237446D01*
Y-240070D01*
X1042259Y-241382D01*
X1046195D01*
X1048819Y-236134D02*
Y-240070D01*
X1050131Y-241382D01*
X1054066D01*
Y-236134D01*
X1056690Y-241382D02*
Y-236134D01*
X1058002D01*
X1059314Y-237446D01*
Y-241382D01*
Y-237446D01*
X1060626Y-236134D01*
X1061938Y-237446D01*
Y-241382D01*
X1068498D02*
X1065874D01*
X1064562Y-240070D01*
Y-237446D01*
X1065874Y-236134D01*
X1068498D01*
X1069810Y-237446D01*
Y-238758D01*
X1064562D01*
X1072433Y-241382D02*
Y-236134D01*
X1076369D01*
X1077681Y-237446D01*
Y-241382D01*
X1081617Y-234823D02*
Y-236134D01*
X1080305D01*
X1082929D01*
X1081617D01*
Y-240070D01*
X1082929Y-241382D01*
D16*
X1042921Y-168552D02*
X1052104D01*
X1047513D01*
Y-182327D01*
X1058992D02*
X1063584D01*
X1065879Y-180031D01*
Y-175439D01*
X1063584Y-173144D01*
X1058992D01*
X1056696Y-175439D01*
Y-180031D01*
X1058992Y-182327D01*
X1070471Y-186919D02*
Y-173144D01*
X1077359D01*
X1079655Y-175439D01*
Y-180031D01*
X1077359Y-182327D01*
X1070471D01*
X1107205Y-170848D02*
X1104909Y-168552D01*
X1100317D01*
X1098021Y-170848D01*
Y-173144D01*
X1100317Y-175439D01*
X1104909D01*
X1107205Y-177735D01*
Y-180031D01*
X1104909Y-182327D01*
X1100317D01*
X1098021Y-180031D01*
X1114092Y-182327D02*
X1118684D01*
X1120980Y-180031D01*
Y-175439D01*
X1118684Y-173144D01*
X1114092D01*
X1111796Y-175439D01*
Y-180031D01*
X1114092Y-182327D01*
X1125571D02*
X1130163D01*
X1127867D01*
Y-168552D01*
X1125571D01*
X1146234D02*
Y-182327D01*
X1139347D01*
X1137051Y-180031D01*
Y-175439D01*
X1139347Y-173144D01*
X1146234D01*
X1157713Y-182327D02*
X1153122D01*
X1150826Y-180031D01*
Y-175439D01*
X1153122Y-173144D01*
X1157713D01*
X1160009Y-175439D01*
Y-177735D01*
X1150826D01*
X1164601Y-173144D02*
Y-182327D01*
Y-177735D01*
X1166897Y-175439D01*
X1169193Y-173144D01*
X1171488D01*
X846071Y-247293D02*
Y-263036D01*
X851318Y-257788D01*
X856566Y-263036D01*
Y-247293D01*
X861814Y-263036D02*
X867061D01*
X864437D01*
Y-252540D01*
X861814D01*
X874933Y-263036D02*
Y-252540D01*
X877556D01*
X880180Y-255164D01*
Y-263036D01*
Y-255164D01*
X882804Y-252540D01*
X885428Y-255164D01*
Y-263036D01*
X890676Y-247293D02*
Y-257788D01*
X895923Y-263036D01*
X901171Y-257788D01*
Y-247293D01*
X916914Y-249917D02*
X914290Y-247293D01*
X909042D01*
X906419Y-249917D01*
Y-260412D01*
X909042Y-263036D01*
X914290D01*
X916914Y-260412D01*
Y-255164D01*
X911666D01*
X1200401Y-210546D02*
X1203025Y-207923D01*
X1208273D01*
X1210897Y-210546D01*
Y-221042D01*
X1208273Y-223665D01*
X1203025D01*
X1200401Y-221042D01*
Y-210546D01*
X1216144Y-223665D02*
X1221392D01*
X1218768D01*
Y-207923D01*
X1216144Y-210546D01*
X1046199Y-209890D02*
X1041607Y-212186D01*
X1037015Y-216778D01*
Y-221370D01*
X1039311Y-223665D01*
X1043903D01*
X1046199Y-221370D01*
Y-219074D01*
X1043903Y-216778D01*
X1037015D01*
X1050791Y-223665D02*
X1059974Y-214482D01*
X1064566Y-212186D02*
X1066861Y-209890D01*
X1071453D01*
X1073749Y-212186D01*
Y-221370D01*
X1071453Y-223665D01*
X1066861D01*
X1064566Y-221370D01*
Y-212186D01*
X1078341D02*
X1080637Y-209890D01*
X1085228D01*
X1087524Y-212186D01*
Y-214482D01*
X1085228Y-216778D01*
X1087524Y-219074D01*
Y-221370D01*
X1085228Y-223665D01*
X1080637D01*
X1078341Y-221370D01*
Y-219074D01*
X1080637Y-216778D01*
X1078341Y-214482D01*
Y-212186D01*
X1080637Y-216778D02*
X1085228D01*
X1092116Y-223665D02*
X1101299Y-214482D01*
X1115074Y-223665D02*
X1105891D01*
X1115074Y-214482D01*
Y-212186D01*
X1112778Y-209890D01*
X1108187D01*
X1105891Y-212186D01*
X1119666D02*
X1121962Y-209890D01*
X1126553D01*
X1128849Y-212186D01*
Y-221370D01*
X1126553Y-223665D01*
X1121962D01*
X1119666Y-221370D01*
Y-212186D01*
X1133441Y-223665D02*
X1138033D01*
X1135737D01*
Y-209890D01*
X1133441Y-212186D01*
X1144920Y-221370D02*
X1147216Y-223665D01*
X1151808D01*
X1154104Y-221370D01*
Y-212186D01*
X1151808Y-209890D01*
X1147216D01*
X1144920Y-212186D01*
Y-214482D01*
X1147216Y-216778D01*
X1154104D01*
X1031110Y-144925D02*
Y-129182D01*
X1036358Y-134430D01*
X1041605Y-129182D01*
Y-144925D01*
X1046853D02*
X1052100D01*
X1049477D01*
Y-134430D01*
X1046853D01*
X1059972Y-144925D02*
Y-134430D01*
X1067843D01*
X1070467Y-137054D01*
Y-144925D01*
X1075715D02*
X1080963D01*
X1078339D01*
Y-134430D01*
X1075715D01*
X1104577Y-144925D02*
Y-129182D01*
X1112449D01*
X1115072Y-131806D01*
Y-137054D01*
X1112449Y-139678D01*
X1104577D01*
X1120320Y-129182D02*
Y-144925D01*
Y-137054D01*
X1122944Y-134430D01*
X1128191D01*
X1130815Y-137054D01*
Y-144925D01*
X1136063Y-131806D02*
X1138687Y-129182D01*
X1143934D01*
X1146558Y-131806D01*
Y-142301D01*
X1143934Y-144925D01*
X1138687D01*
X1136063Y-142301D01*
Y-131806D01*
X1151806Y-134430D02*
X1162301Y-144925D01*
X1157053Y-139678D01*
X1162301Y-134430D01*
X1151806Y-144925D01*
X1167549Y-134430D02*
X1178044Y-144925D01*
X1172796Y-139678D01*
X1178044Y-134430D01*
X1167549Y-144925D01*
D18*
X30906Y82306D02*
D03*
D19*
X-30413D02*
D03*
D20*
X27362Y74803D02*
D03*
X35630D02*
D03*
X-27362D02*
D03*
X-35630D02*
D03*
D21*
X0Y66142D02*
D03*
Y144882D02*
D03*
D22*
X-55090Y15754D02*
D03*
X55118Y15748D02*
D03*
D23*
X0Y166339D02*
D03*
D24*
X36496Y74803D02*
D03*
X-36496D02*
D03*
D25*
X26496D02*
D03*
X-26496D02*
D03*
M02*
