G04*
G04 #@! TF.GenerationSoftware,Altium Limited,Altium Designer,18.1.11 (251)*
G04*
G04 Layer_Color=65535*
%FSLAX25Y25*%
%MOIN*%
G70*
G01*
G75*
%ADD10C,0.00787*%
%ADD11C,0.04331*%
%ADD12C,0.04724*%
%ADD13C,0.03937*%
%ADD14C,0.00394*%
%ADD15C,0.00984*%
%ADD16C,0.01575*%
G36*
X1126Y170317D02*
X1680Y170126D01*
X2284Y169797D01*
X2826Y169373D01*
X3291Y168865D01*
X3630Y168340D01*
X4020Y167321D01*
X4020Y167321D01*
X4020Y167321D01*
X4021Y167321D01*
X5187Y167160D01*
X5281Y167147D01*
X6120Y167020D01*
X6216Y167004D01*
X7376Y166813D01*
X8539Y166609D01*
X8870Y166550D01*
X9864Y166365D01*
X10857Y166172D01*
X11352Y166072D01*
X11352D01*
X12447Y165852D01*
X14630Y165384D01*
X16808Y164890D01*
X18959Y164375D01*
X20063Y164097D01*
X20063D01*
X21165Y163816D01*
X21711Y163675D01*
X22808Y163385D01*
X23389Y163227D01*
X24450Y162935D01*
X25507Y162637D01*
X26019Y162490D01*
X27063Y162183D01*
X27578Y162028D01*
X28621Y161708D01*
X28624Y161707D01*
X28626Y161706D01*
X29670Y161376D01*
X30055Y161253D01*
X31003Y160938D01*
X31948Y160614D01*
X32419Y160447D01*
X32419Y160447D01*
X32827Y160303D01*
X33641Y160002D01*
X34449Y159689D01*
X35252Y159363D01*
X35652Y159195D01*
X36213Y158988D01*
X37296Y158483D01*
X38333Y157889D01*
X39318Y157212D01*
X39783Y156831D01*
X39789Y156826D01*
X39794Y156821D01*
X39799Y156816D01*
X39801Y156813D01*
X39801D01*
X39871Y156736D01*
X40006Y156578D01*
X40135Y156414D01*
X40258Y156247D01*
X40316Y156161D01*
X40317Y156159D01*
X40320Y156156D01*
X40322Y156153D01*
X40324Y156149D01*
X40325Y156148D01*
X40330Y156141D01*
X40403Y156032D01*
X40541Y155808D01*
X40668Y155578D01*
X40785Y155343D01*
X40838Y155223D01*
X40838D01*
X40994Y154930D01*
X41270Y154325D01*
X41473Y153799D01*
X41791Y152750D01*
X41791Y152750D01*
X42109Y151700D01*
X42143Y151585D01*
X42359Y150803D01*
X42562Y150017D01*
X42656Y149622D01*
X42656D01*
X42764Y149173D01*
X42971Y148271D01*
X43168Y147367D01*
X43212Y147152D01*
X43443Y146007D01*
X43443Y146007D01*
X43662Y144863D01*
X43722Y144546D01*
X43898Y143570D01*
X44067Y142593D01*
X44148Y142104D01*
X44148D01*
X44231Y141606D01*
X44391Y140609D01*
X44546Y139611D01*
X44604Y139224D01*
X44768Y138111D01*
X44921Y136993D01*
X45139Y135393D01*
X45298Y134227D01*
X45406Y133348D01*
X45435Y133119D01*
X45443Y133055D01*
X45493Y132648D01*
X45550Y132182D01*
X45607Y131711D01*
X45634Y131482D01*
X45736Y130652D01*
X45769Y130367D01*
X45870Y129483D01*
X45967Y128609D01*
X46113Y127248D01*
X46252Y125886D01*
X46319Y125203D01*
X46319Y125202D01*
X46319Y125202D01*
X46321Y125180D01*
X46324Y125135D01*
X46326Y125091D01*
X46327Y125046D01*
Y125024D01*
X46327Y125017D01*
Y125013D01*
X46327Y125013D01*
Y124862D01*
X46283Y124564D01*
X46196Y124275D01*
X46067Y124002D01*
X45984Y123876D01*
Y111644D01*
X45984Y110469D01*
X45984D01*
X45984Y110463D01*
X45977Y109597D01*
X45895Y108561D01*
X45812Y107796D01*
X45465Y106216D01*
X44950Y104683D01*
X44273Y103214D01*
X43442Y101826D01*
X42466Y100537D01*
X41599Y99616D01*
X41040Y99106D01*
X40741Y98833D01*
X40120Y98400D01*
X39822Y98193D01*
X39741Y98141D01*
X39010Y97793D01*
X38243Y97534D01*
X37450Y97370D01*
X36643Y97301D01*
X35834Y97330D01*
X35734Y97346D01*
X34644Y97566D01*
X34644Y97566D01*
X21993Y100084D01*
X21972Y100089D01*
X20871Y100310D01*
X19839Y100606D01*
X19164Y100800D01*
X15736Y101652D01*
X12271Y102336D01*
X8777Y102850D01*
X5262Y103194D01*
X1734Y103367D01*
X-1798Y103367D01*
X-5326Y103196D01*
X-8841Y102853D01*
X-12336Y102339D01*
X-15801Y101656D01*
X-19229Y100805D01*
X-19893Y100615D01*
X-20935Y100316D01*
X-22050Y100093D01*
X-34775Y97557D01*
X-34991Y97492D01*
X-35432Y97394D01*
X-36559Y97294D01*
X-36559Y97294D01*
X-37693Y97409D01*
X-38276Y97517D01*
X-39365Y97908D01*
X-39906Y98209D01*
X-40334Y98496D01*
X-40836Y98834D01*
X-40839Y98837D01*
X-41692Y99620D01*
X-42442Y100403D01*
X-43365Y101583D01*
X-44165Y102849D01*
X-44500Y103519D01*
X-44500Y103519D01*
X-44904Y104325D01*
X-45513Y106023D01*
X-45913Y107782D01*
X-46071Y109301D01*
X-46082Y110285D01*
X-46084Y110480D01*
X-46084Y111661D01*
Y113057D01*
X-46083Y113069D01*
X-46082Y113081D01*
X-46080Y113093D01*
X-46078Y113098D01*
Y124009D01*
X-46077Y124023D01*
X-46075Y124037D01*
X-46072Y124051D01*
X-46070Y124058D01*
X-46130Y124169D01*
X-46221Y124404D01*
X-46282Y124649D01*
X-46313Y124899D01*
X-46313Y125025D01*
X-46313Y125047D01*
X-46312Y125091D01*
X-46310Y125134D01*
X-46308Y125178D01*
X-46306Y125200D01*
X-46306Y125200D01*
X-46306Y125201D01*
X-46305Y125203D01*
X-46239Y125886D01*
X-46099Y127248D01*
X-45954Y128609D01*
X-45801Y129970D01*
X-45722Y130650D01*
X-45722Y130650D01*
X-45722Y130653D01*
X-45722D01*
X-45643Y131297D01*
X-45610Y131580D01*
X-45542Y132145D01*
X-45472Y132711D01*
X-45402Y133280D01*
X-45366Y133559D01*
X-45366Y133559D01*
X-45285Y134227D01*
X-45132Y135343D01*
X-44754Y138111D01*
X-44754Y138111D01*
X-44754Y138112D01*
X-44754Y138112D01*
X-44682Y138611D01*
X-44532Y139610D01*
X-44377Y140608D01*
X-44324Y140939D01*
X-44135Y142104D01*
X-44135Y142104D01*
X-44124Y142169D01*
X-43937Y143266D01*
X-43885Y143570D01*
X-43708Y144545D01*
X-43525Y145520D01*
X-43430Y146006D01*
X-43429Y146008D01*
X-43341Y146462D01*
X-43154Y147368D01*
X-42957Y148271D01*
X-42908Y148485D01*
X-42643Y149620D01*
X-42642Y149622D01*
X-42355Y150762D01*
X-42294Y150991D01*
X-42210Y151291D01*
X-41903Y152345D01*
X-41777Y152750D01*
X-41699Y153060D01*
X-41602Y153401D01*
X-41249Y154369D01*
X-40750Y155390D01*
X-40147Y156354D01*
X-39797Y156801D01*
X-39795Y156805D01*
X-39790Y156811D01*
X-39784Y156817D01*
X-39779Y156822D01*
X-39592Y156995D01*
X-39204Y157310D01*
X-38797Y157599D01*
X-38372Y157861D01*
X-38151Y157979D01*
X-37846Y158148D01*
X-37227Y158468D01*
X-36714Y158717D01*
X-35646Y159191D01*
X-35642Y159193D01*
X-35642Y159193D01*
Y159193D01*
X-34554Y159641D01*
X-34438Y159688D01*
X-33629Y160001D01*
X-33494Y160051D01*
X-32405Y160447D01*
X-32405Y160447D01*
X-31317Y160826D01*
X-30990Y160938D01*
X-30042Y161253D01*
X-29726Y161354D01*
X-28613Y161706D01*
X-27500Y162047D01*
X-27051Y162183D01*
X-26007Y162490D01*
X-24961Y162789D01*
X-24436Y162935D01*
Y162935D01*
X-24436D01*
X-24436Y162935D01*
X-23342Y163239D01*
X-21146Y163821D01*
X-18943Y164376D01*
X-16778Y164894D01*
X-15626Y165155D01*
X-14475Y165412D01*
X-14022Y165512D01*
X-12950Y165742D01*
X-11877Y165964D01*
X-11340Y166072D01*
X-11340Y166072D01*
X-11339Y166073D01*
X-10428Y166260D01*
X-8601Y166603D01*
X-6767Y166915D01*
X-4929Y167195D01*
X-4008Y167320D01*
X-3926Y167654D01*
X-3652Y168286D01*
X-3278Y168864D01*
X-2814Y169372D01*
X-2272Y169797D01*
X-1668Y170126D01*
X-1114Y170317D01*
X6Y170464D01*
X1126Y170317D01*
D02*
G37*
G36*
X6Y47239D02*
X1170Y47237D01*
X2345Y47222D01*
Y47222D01*
X2345Y47222D01*
X2860Y47204D01*
X3514Y47181D01*
X3514Y47181D01*
X4088Y47142D01*
X4683Y47101D01*
X4683Y47101D01*
X5269Y47036D01*
X5853Y46970D01*
X6958Y46788D01*
X7022Y46775D01*
X7635Y46657D01*
X8839Y46327D01*
X10014Y45904D01*
X10723Y45584D01*
X11699Y45090D01*
X12627Y44478D01*
X13137Y44077D01*
X13938Y43217D01*
X14597Y42244D01*
X15098Y41180D01*
X15428Y40052D01*
X15580Y38887D01*
X15551Y37712D01*
X15445Y37133D01*
X15414Y36955D01*
X15341Y36601D01*
X15260Y36249D01*
X15169Y35899D01*
X15119Y35726D01*
X14916Y34967D01*
X14271Y33535D01*
X13405Y32224D01*
X12340Y31069D01*
X11722Y30583D01*
X11539Y30441D01*
X11161Y30172D01*
X10771Y29919D01*
X10371Y29682D01*
X10166Y29573D01*
Y29573D01*
X9935Y29450D01*
X9465Y29222D01*
X8986Y29011D01*
X8500Y28820D01*
X8253Y28734D01*
X8253Y28734D01*
X7970Y28635D01*
X7399Y28456D01*
X6821Y28297D01*
X6239Y28157D01*
X5946Y28097D01*
X5213Y27952D01*
X3734Y27739D01*
X2246Y27602D01*
X1183Y27559D01*
X6Y27550D01*
X6D01*
X-1163Y27565D01*
X-1942Y27598D01*
X-2720Y27649D01*
X-3109Y27684D01*
X-3445Y27713D01*
X-4117Y27791D01*
X-4682Y27872D01*
X-5783Y28066D01*
Y28066D01*
X-6861Y28314D01*
X-7210Y28407D01*
X-7772Y28576D01*
X-8051Y28669D01*
X-8051Y28669D01*
X-8294Y28751D01*
X-8775Y28933D01*
X-8953Y29007D01*
X-9945Y29465D01*
X-10909Y29988D01*
X-12011Y30777D01*
X-13164Y31938D01*
X-14107Y33276D01*
X-14460Y34015D01*
X-14612Y34337D01*
X-14875Y35000D01*
X-15088Y35645D01*
X-15351Y36717D01*
X-15351Y36717D01*
X-15511Y37832D01*
X-15550Y38623D01*
X-15403Y39896D01*
X-15051Y41127D01*
X-14502Y42285D01*
X-13771Y43338D01*
X-12878Y44257D01*
X-11847Y45017D01*
X-11276Y45308D01*
X-11141Y45378D01*
X-10148Y45832D01*
X-10094Y45851D01*
X-9876Y45932D01*
X-9504Y46069D01*
X-8545Y46386D01*
X-8483Y46404D01*
X-8399Y46427D01*
X-7373Y46687D01*
X-6779Y46813D01*
X-6921Y46783D01*
X-7353Y46692D01*
X-7353Y46692D01*
X-6921Y46783D01*
X-6777Y46814D01*
X-6779Y46813D01*
X-6667Y46837D01*
X-6624Y46844D01*
X-5518Y47010D01*
X-5075Y47056D01*
X-4514Y47115D01*
X-3945Y47151D01*
X-3366Y47187D01*
X-2213Y47224D01*
X-1968Y47228D01*
X-1404Y47235D01*
X-840Y47239D01*
X-276Y47240D01*
X6Y47239D01*
D02*
G37*
G36*
X25562Y23602D02*
X25948Y23567D01*
X26692Y23347D01*
X27379Y22985D01*
X27982Y22497D01*
X28230Y22199D01*
X28477Y21900D01*
X28847Y21218D01*
X29076Y20477D01*
X29156Y19706D01*
X29085Y18934D01*
X28863Y18190D01*
X28502Y17504D01*
X28013Y16902D01*
X27715Y16654D01*
X27715D01*
X26891Y15999D01*
X25172Y14782D01*
X23389Y13662D01*
X21546Y12643D01*
X19649Y11728D01*
X17705Y10920D01*
X15718Y10221D01*
X13696Y9633D01*
X12672Y9396D01*
X11168Y9997D01*
X8062Y10950D01*
X4870Y11558D01*
X1631Y11811D01*
X6Y11804D01*
X0Y11811D01*
X-6Y11804D01*
X-1631Y11811D01*
X-4870Y11558D01*
X-8062Y10950D01*
X-11168Y9997D01*
X-12672Y9396D01*
X-13696Y9633D01*
X-15718Y10221D01*
X-17705Y10920D01*
X-19649Y11728D01*
X-21546Y12643D01*
X-23389Y13662D01*
X-25172Y14782D01*
X-26891Y15999D01*
X-27715Y16654D01*
X-28013Y16902D01*
X-28502Y17504D01*
X-28863Y18190D01*
X-29085Y18934D01*
X-29156Y19706D01*
X-29076Y20477D01*
X-28847Y21218D01*
X-28477Y21900D01*
X-28230Y22199D01*
X-28230D01*
X-27982Y22497D01*
X-27379Y22985D01*
X-26692Y23347D01*
X-25948Y23567D01*
X-25562Y23602D01*
X-25176Y23637D01*
X-24404Y23556D01*
X-23663Y23325D01*
X-22982Y22954D01*
X-22684Y22706D01*
X-22684Y22706D01*
X-22270Y22372D01*
X-21419Y21732D01*
X-20541Y21132D01*
X-19636Y20572D01*
X-19175Y20307D01*
X-18928Y20170D01*
X-18432Y19904D01*
X-17931Y19646D01*
X-17424Y19399D01*
X-17169Y19279D01*
X-17169D01*
X-16904Y19157D01*
X-16371Y18921D01*
X-15833Y18694D01*
X-15292Y18476D01*
X-15020Y18371D01*
X-15020Y18371D01*
X-14447Y18159D01*
X-13291Y17763D01*
X-12123Y17405D01*
X-10945Y17084D01*
X-10352Y16938D01*
X-9405Y16725D01*
X-7498Y16360D01*
X-5577Y16081D01*
X-3646Y15886D01*
X-2677Y15820D01*
X-2344Y15802D01*
X-1676Y15773D01*
X-1008Y15754D01*
X-340Y15744D01*
X-6Y15743D01*
X0Y15748D01*
X6Y15743D01*
X340Y15744D01*
X1008Y15754D01*
X1676Y15773D01*
X2344Y15802D01*
X2677Y15820D01*
X3646Y15886D01*
X5577Y16081D01*
X7498Y16360D01*
X9405Y16725D01*
X10352Y16938D01*
X10945Y17084D01*
X12123Y17405D01*
X13291Y17763D01*
X14447Y18159D01*
X15020Y18371D01*
Y18371D01*
X15292Y18476D01*
X15833Y18694D01*
X16371Y18921D01*
X16904Y19157D01*
X17169Y19279D01*
X17424Y19399D01*
X17931Y19646D01*
X18432Y19904D01*
X18928Y20170D01*
X19174Y20307D01*
X19175D01*
X19636Y20572D01*
X20541Y21132D01*
X21419Y21732D01*
X22270Y22372D01*
X22684Y22706D01*
Y22706D01*
X22982Y22954D01*
X23663Y23325D01*
X24404Y23556D01*
X25176Y23637D01*
X25562Y23602D01*
D02*
G37*
G36*
X12677Y9394D02*
X12670Y9396D01*
X12670D01*
X12672Y9396D01*
X12677Y9394D01*
D02*
G37*
G36*
X-12670Y9396D02*
X-12677Y9394D01*
X-12672Y9396D01*
X-12670Y9396D01*
D02*
G37*
G36*
X1005337Y-155808D02*
X1005050D01*
Y-156094D01*
X1004764D01*
Y-156380D01*
Y-156667D01*
X1004478D01*
Y-156953D01*
X1004192D01*
Y-157239D01*
X1003905D01*
Y-157526D01*
Y-157812D01*
X1003619D01*
Y-158098D01*
X1003333D01*
Y-158385D01*
X1003046D01*
Y-158671D01*
X1002760D01*
Y-158957D01*
Y-159244D01*
X1002474D01*
Y-159530D01*
X1002187D01*
Y-159816D01*
X1001901D01*
Y-160102D01*
Y-160389D01*
X1001615D01*
Y-160675D01*
X1001328D01*
Y-160961D01*
X1001042D01*
Y-161248D01*
X1000756D01*
Y-161534D01*
Y-161820D01*
X1000469D01*
Y-162107D01*
X1000183D01*
Y-162393D01*
X999897D01*
Y-162679D01*
Y-162966D01*
X999611D01*
Y-163252D01*
X999324D01*
Y-163538D01*
X999038D01*
Y-163824D01*
Y-164111D01*
X998752D01*
Y-164397D01*
X998465D01*
Y-164683D01*
X998179D01*
Y-164970D01*
X997893D01*
Y-165256D01*
Y-165542D01*
X997606D01*
Y-165829D01*
X997320D01*
Y-166115D01*
X997034D01*
Y-166401D01*
Y-166688D01*
X996747D01*
Y-166974D01*
X996461D01*
Y-167260D01*
X996175D01*
Y-167547D01*
Y-167833D01*
X995889D01*
Y-168119D01*
X995602D01*
Y-168405D01*
X995316D01*
Y-168692D01*
X995030D01*
Y-168978D01*
Y-169264D01*
X994743D01*
Y-169551D01*
X994457D01*
Y-169837D01*
X994171D01*
Y-170123D01*
Y-170410D01*
X993884D01*
Y-170696D01*
X993598D01*
Y-170982D01*
X993312D01*
Y-171269D01*
Y-171555D01*
X993025D01*
Y-171841D01*
X992739D01*
Y-172127D01*
X992453D01*
Y-172414D01*
X992166D01*
Y-172700D01*
Y-172986D01*
X991880D01*
Y-173273D01*
X991594D01*
Y-173559D01*
X991308D01*
Y-173845D01*
Y-174132D01*
X991021D01*
Y-174418D01*
X990735D01*
Y-174704D01*
X990449D01*
Y-174991D01*
X990162D01*
Y-175277D01*
Y-175563D01*
X990449D01*
Y-175850D01*
Y-176136D01*
X990735D01*
Y-176422D01*
Y-176709D01*
X991021D01*
Y-176995D01*
X991308D01*
Y-177281D01*
Y-177568D01*
X991594D01*
Y-177854D01*
Y-178140D01*
X991880D01*
Y-178426D01*
Y-178713D01*
X992166D01*
Y-178999D01*
Y-179285D01*
X992453D01*
Y-179572D01*
Y-179858D01*
X992739D01*
Y-180144D01*
Y-180431D01*
X993025D01*
Y-180717D01*
Y-181003D01*
X993312D01*
Y-181290D01*
Y-181576D01*
X993598D01*
Y-181862D01*
X993884D01*
Y-182149D01*
Y-182435D01*
X994171D01*
Y-182721D01*
Y-183007D01*
X994457D01*
Y-183294D01*
Y-183580D01*
X994743D01*
Y-183866D01*
Y-184153D01*
X995030D01*
Y-184439D01*
Y-184725D01*
X995316D01*
Y-185012D01*
Y-185298D01*
X995602D01*
Y-185584D01*
Y-185871D01*
X995889D01*
Y-186157D01*
X996175D01*
Y-186443D01*
Y-186730D01*
X996461D01*
Y-187016D01*
Y-187302D01*
X996747D01*
Y-187588D01*
Y-187875D01*
X997034D01*
Y-188161D01*
Y-188447D01*
X997320D01*
Y-188734D01*
Y-189020D01*
X997606D01*
Y-189306D01*
Y-189593D01*
X997893D01*
Y-189879D01*
Y-190165D01*
X998179D01*
Y-190452D01*
X998465D01*
Y-190738D01*
Y-191024D01*
X998752D01*
Y-191311D01*
Y-191597D01*
X999038D01*
Y-191883D01*
X983863D01*
Y-191597D01*
X983577D01*
Y-191311D01*
Y-191024D01*
Y-190738D01*
X983291D01*
Y-190452D01*
Y-190165D01*
Y-189879D01*
X983004D01*
Y-189593D01*
Y-189306D01*
X982718D01*
Y-189020D01*
Y-188734D01*
Y-188447D01*
X982432D01*
Y-188161D01*
Y-187875D01*
Y-187588D01*
X982146D01*
Y-187302D01*
Y-187016D01*
X981859D01*
Y-186730D01*
Y-186443D01*
Y-186157D01*
X981573D01*
Y-185871D01*
Y-185584D01*
Y-185298D01*
X981287D01*
Y-185012D01*
Y-184725D01*
Y-184439D01*
X981000D01*
Y-184153D01*
X980428D01*
Y-184439D01*
Y-184725D01*
X980141D01*
Y-185012D01*
X979855D01*
Y-185298D01*
Y-185584D01*
X979569D01*
Y-185871D01*
X979282D01*
Y-186157D01*
Y-186443D01*
X978996D01*
Y-186730D01*
X978710D01*
Y-187016D01*
Y-187302D01*
X978423D01*
Y-187588D01*
X978137D01*
Y-187875D01*
X977851D01*
Y-188161D01*
Y-188447D01*
X977565D01*
Y-188734D01*
X977278D01*
Y-189020D01*
Y-189306D01*
X976992D01*
Y-189593D01*
X976705D01*
Y-189879D01*
Y-190165D01*
X976419D01*
Y-190452D01*
X976133D01*
Y-190738D01*
Y-191024D01*
X975847D01*
Y-191311D01*
X975560D01*
Y-191597D01*
Y-191883D01*
X959527D01*
Y-191597D01*
X959813D01*
Y-191311D01*
X960099D01*
Y-191024D01*
X960386D01*
Y-190738D01*
X960672D01*
Y-190452D01*
Y-190165D01*
X960958D01*
Y-189879D01*
X961245D01*
Y-189593D01*
X961531D01*
Y-189306D01*
X961817D01*
Y-189020D01*
Y-188734D01*
X962104D01*
Y-188447D01*
X962390D01*
Y-188161D01*
X962676D01*
Y-187875D01*
Y-187588D01*
X962963D01*
Y-187302D01*
X963249D01*
Y-187016D01*
X963535D01*
Y-186730D01*
X963822D01*
Y-186443D01*
Y-186157D01*
X964108D01*
Y-185871D01*
X964394D01*
Y-185584D01*
X964680D01*
Y-185298D01*
X964967D01*
Y-185012D01*
Y-184725D01*
X965253D01*
Y-184439D01*
X965539D01*
Y-184153D01*
X965826D01*
Y-183866D01*
Y-183580D01*
X966112D01*
Y-183294D01*
X966398D01*
Y-183007D01*
X966685D01*
Y-182721D01*
X966971D01*
Y-182435D01*
Y-182149D01*
X967257D01*
Y-181862D01*
X967544D01*
Y-181576D01*
X967830D01*
Y-181290D01*
Y-181003D01*
X968116D01*
Y-180717D01*
X968402D01*
Y-180431D01*
X968689D01*
Y-180144D01*
X968975D01*
Y-179858D01*
Y-179572D01*
X969261D01*
Y-179285D01*
X969548D01*
Y-178999D01*
X969834D01*
Y-178713D01*
Y-178426D01*
X970120D01*
Y-178140D01*
X970407D01*
Y-177854D01*
X970693D01*
Y-177568D01*
X970979D01*
Y-177281D01*
Y-176995D01*
X971266D01*
Y-176709D01*
X971552D01*
Y-176422D01*
X971838D01*
Y-176136D01*
X972124D01*
Y-175850D01*
Y-175563D01*
X972411D01*
Y-175277D01*
X972697D01*
Y-174991D01*
X972983D01*
Y-174704D01*
Y-174418D01*
X973270D01*
Y-174132D01*
X973556D01*
Y-173845D01*
X973842D01*
Y-173559D01*
X974129D01*
Y-173273D01*
Y-172986D01*
X974415D01*
Y-172700D01*
Y-172414D01*
Y-172127D01*
X974129D01*
Y-171841D01*
X973842D01*
Y-171555D01*
Y-171269D01*
X973556D01*
Y-170982D01*
Y-170696D01*
X973270D01*
Y-170410D01*
Y-170123D01*
X972983D01*
Y-169837D01*
Y-169551D01*
X972697D01*
Y-169264D01*
Y-168978D01*
X972411D01*
Y-168692D01*
Y-168405D01*
X972124D01*
Y-168119D01*
X971838D01*
Y-167833D01*
Y-167547D01*
X971552D01*
Y-167260D01*
Y-166974D01*
X971266D01*
Y-166688D01*
Y-166401D01*
X970979D01*
Y-166115D01*
Y-165829D01*
X970693D01*
Y-165542D01*
Y-165256D01*
X970407D01*
Y-164970D01*
Y-164683D01*
X970120D01*
Y-164397D01*
X969834D01*
Y-164111D01*
Y-163824D01*
X969548D01*
Y-163538D01*
Y-163252D01*
X969261D01*
Y-162966D01*
Y-162679D01*
X968975D01*
Y-162393D01*
Y-162107D01*
X968689D01*
Y-161820D01*
Y-161534D01*
X968402D01*
Y-161248D01*
Y-160961D01*
X968116D01*
Y-160675D01*
Y-160389D01*
X967830D01*
Y-160102D01*
X967544D01*
Y-159816D01*
Y-159530D01*
X967257D01*
Y-159244D01*
Y-158957D01*
X966971D01*
Y-158671D01*
Y-158385D01*
X966685D01*
Y-158098D01*
Y-157812D01*
X966398D01*
Y-157526D01*
Y-157239D01*
X966112D01*
Y-156953D01*
Y-156667D01*
X965826D01*
Y-156380D01*
X965539D01*
Y-156094D01*
Y-155808D01*
X965253D01*
Y-155521D01*
X981000D01*
Y-155808D01*
X981287D01*
Y-156094D01*
Y-156380D01*
Y-156667D01*
X981573D01*
Y-156953D01*
Y-157239D01*
Y-157526D01*
X981859D01*
Y-157812D01*
Y-158098D01*
Y-158385D01*
X982146D01*
Y-158671D01*
Y-158957D01*
Y-159244D01*
X982432D01*
Y-159530D01*
Y-159816D01*
Y-160102D01*
X982718D01*
Y-160389D01*
Y-160675D01*
Y-160961D01*
X983004D01*
Y-161248D01*
Y-161534D01*
Y-161820D01*
X983291D01*
Y-162107D01*
Y-162393D01*
Y-162679D01*
X983577D01*
Y-162966D01*
Y-163252D01*
Y-163538D01*
Y-163824D01*
X984150D01*
Y-163538D01*
X984436D01*
Y-163252D01*
X984722D01*
Y-162966D01*
Y-162679D01*
X985009D01*
Y-162393D01*
X985295D01*
Y-162107D01*
Y-161820D01*
X985581D01*
Y-161534D01*
X985868D01*
Y-161248D01*
Y-160961D01*
X986154D01*
Y-160675D01*
X986440D01*
Y-160389D01*
Y-160102D01*
X986726D01*
Y-159816D01*
X987013D01*
Y-159530D01*
Y-159244D01*
X987299D01*
Y-158957D01*
X987585D01*
Y-158671D01*
Y-158385D01*
X987872D01*
Y-158098D01*
X988158D01*
Y-157812D01*
Y-157526D01*
X988444D01*
Y-157239D01*
X988731D01*
Y-156953D01*
Y-156667D01*
X989017D01*
Y-156380D01*
X989303D01*
Y-156094D01*
Y-155808D01*
X989590D01*
Y-155521D01*
X1005337D01*
Y-155808D01*
D02*
G37*
G36*
X872201Y-141778D02*
X873919D01*
Y-142065D01*
X874778D01*
Y-142351D01*
X875637D01*
Y-142637D01*
X876496D01*
Y-142924D01*
X877069D01*
Y-143210D01*
X877355D01*
Y-143496D01*
X877928D01*
Y-143783D01*
X878214D01*
Y-144069D01*
X878786D01*
Y-144355D01*
X879073D01*
Y-144641D01*
X879359D01*
Y-144928D01*
X879646D01*
Y-145214D01*
X879932D01*
Y-145501D01*
X880218D01*
Y-145787D01*
X880504D01*
Y-146073D01*
Y-146359D01*
X880791D01*
Y-146646D01*
X881077D01*
Y-146932D01*
Y-147218D01*
X881363D01*
Y-147505D01*
X881650D01*
Y-147791D01*
Y-148077D01*
X881936D01*
Y-148364D01*
Y-148650D01*
Y-148936D01*
X882222D01*
Y-149223D01*
Y-149509D01*
Y-149795D01*
X882509D01*
Y-150082D01*
Y-150368D01*
Y-150654D01*
Y-150940D01*
X882795D01*
Y-151227D01*
Y-151513D01*
Y-151799D01*
Y-152086D01*
Y-152372D01*
X883081D01*
Y-152658D01*
Y-152945D01*
Y-153231D01*
Y-153517D01*
Y-153804D01*
Y-154090D01*
Y-154376D01*
Y-154663D01*
Y-154949D01*
Y-155235D01*
Y-155521D01*
Y-155808D01*
Y-156094D01*
Y-156380D01*
Y-156667D01*
Y-156953D01*
Y-157239D01*
Y-157526D01*
Y-157812D01*
Y-158098D01*
X882795D01*
Y-158385D01*
Y-158671D01*
Y-158957D01*
Y-159244D01*
Y-159530D01*
Y-159816D01*
Y-160102D01*
X882509D01*
Y-160389D01*
Y-160675D01*
Y-160961D01*
Y-161248D01*
Y-161534D01*
X882222D01*
Y-161820D01*
Y-162107D01*
Y-162393D01*
Y-162679D01*
Y-162966D01*
X881936D01*
Y-163252D01*
Y-163538D01*
Y-163824D01*
X881650D01*
Y-164111D01*
Y-164397D01*
Y-164683D01*
Y-164970D01*
X881363D01*
Y-165256D01*
Y-165542D01*
Y-165829D01*
X881077D01*
Y-166115D01*
Y-166401D01*
X880791D01*
Y-166688D01*
Y-166974D01*
Y-167260D01*
X880504D01*
Y-167547D01*
Y-167833D01*
X880218D01*
Y-168119D01*
Y-168405D01*
X879932D01*
Y-168692D01*
Y-168978D01*
X879646D01*
Y-169264D01*
X879359D01*
Y-169551D01*
Y-169837D01*
X879073D01*
Y-170123D01*
X878786D01*
Y-170410D01*
X878500D01*
Y-170696D01*
Y-170982D01*
X878214D01*
Y-171269D01*
X877928D01*
Y-171555D01*
X877641D01*
Y-171841D01*
X877355D01*
Y-172127D01*
X877069D01*
Y-172414D01*
X876496D01*
Y-172700D01*
X876210D01*
Y-172986D01*
X875637D01*
Y-173273D01*
X875351D01*
Y-173559D01*
X874778D01*
Y-173845D01*
X873919D01*
Y-174132D01*
X873060D01*
Y-174418D01*
X872201D01*
Y-174704D01*
X870483D01*
Y-174991D01*
X865330D01*
Y-174704D01*
X862753D01*
Y-174418D01*
X860749D01*
Y-174132D01*
X859317D01*
Y-173845D01*
X857886D01*
Y-173559D01*
X856454D01*
Y-173845D01*
Y-174132D01*
Y-174418D01*
Y-174704D01*
Y-174991D01*
Y-175277D01*
Y-175563D01*
X856168D01*
Y-175850D01*
Y-176136D01*
Y-176422D01*
Y-176709D01*
Y-176995D01*
Y-177281D01*
X855882D01*
Y-177568D01*
Y-177854D01*
Y-178140D01*
Y-178426D01*
Y-178713D01*
Y-178999D01*
X855595D01*
Y-179285D01*
Y-179572D01*
Y-179858D01*
Y-180144D01*
Y-180431D01*
Y-180717D01*
Y-181003D01*
X855309D01*
Y-181290D01*
Y-181576D01*
Y-181862D01*
Y-182149D01*
Y-182435D01*
Y-182721D01*
X855023D01*
Y-183007D01*
Y-183294D01*
Y-183580D01*
Y-183866D01*
Y-184153D01*
Y-184439D01*
X854736D01*
Y-184725D01*
Y-185012D01*
Y-185298D01*
Y-185584D01*
Y-185871D01*
Y-186157D01*
Y-186443D01*
X854450D01*
Y-186730D01*
Y-187016D01*
Y-187302D01*
Y-187588D01*
Y-187875D01*
Y-188161D01*
X854164D01*
Y-188447D01*
Y-188734D01*
Y-189020D01*
Y-189306D01*
Y-189593D01*
Y-189879D01*
X853877D01*
Y-190165D01*
Y-190452D01*
Y-190738D01*
Y-191024D01*
Y-191311D01*
Y-191597D01*
Y-191883D01*
X840421D01*
Y-191597D01*
X840707D01*
Y-191311D01*
Y-191024D01*
Y-190738D01*
Y-190452D01*
Y-190165D01*
X840993D01*
Y-189879D01*
Y-189593D01*
Y-189306D01*
Y-189020D01*
Y-188734D01*
Y-188447D01*
Y-188161D01*
X841280D01*
Y-187875D01*
Y-187588D01*
Y-187302D01*
Y-187016D01*
Y-186730D01*
Y-186443D01*
X841566D01*
Y-186157D01*
Y-185871D01*
Y-185584D01*
Y-185298D01*
Y-185012D01*
Y-184725D01*
X841852D01*
Y-184439D01*
Y-184153D01*
Y-183866D01*
Y-183580D01*
Y-183294D01*
Y-183007D01*
Y-182721D01*
X842138D01*
Y-182435D01*
Y-182149D01*
Y-181862D01*
Y-181576D01*
Y-181290D01*
Y-181003D01*
X842425D01*
Y-180717D01*
Y-180431D01*
Y-180144D01*
Y-179858D01*
Y-179572D01*
Y-179285D01*
X842711D01*
Y-178999D01*
Y-178713D01*
Y-178426D01*
Y-178140D01*
Y-177854D01*
Y-177568D01*
X842997D01*
Y-177281D01*
Y-176995D01*
Y-176709D01*
Y-176422D01*
Y-176136D01*
Y-175850D01*
Y-175563D01*
X843284D01*
Y-175277D01*
Y-174991D01*
Y-174704D01*
Y-174418D01*
Y-174132D01*
Y-173845D01*
X843570D01*
Y-173559D01*
Y-173273D01*
Y-172986D01*
Y-172700D01*
Y-172414D01*
Y-172127D01*
X843856D01*
Y-171841D01*
Y-171555D01*
Y-171269D01*
Y-170982D01*
Y-170696D01*
Y-170410D01*
X844143D01*
Y-170123D01*
Y-169837D01*
Y-169551D01*
Y-169264D01*
Y-168978D01*
Y-168692D01*
Y-168405D01*
X844429D01*
Y-168119D01*
Y-167833D01*
Y-167547D01*
Y-167260D01*
Y-166974D01*
Y-166688D01*
X844715D01*
Y-166401D01*
Y-166115D01*
Y-165829D01*
Y-165542D01*
Y-165256D01*
Y-164970D01*
X845002D01*
Y-164683D01*
Y-164397D01*
Y-164111D01*
Y-163824D01*
Y-163538D01*
Y-163252D01*
Y-162966D01*
X845288D01*
Y-162679D01*
Y-162393D01*
Y-162107D01*
Y-161820D01*
Y-161534D01*
Y-161248D01*
X845574D01*
Y-160961D01*
Y-160675D01*
Y-160389D01*
Y-160102D01*
Y-159816D01*
Y-159530D01*
X845861D01*
Y-159244D01*
Y-158957D01*
Y-158671D01*
Y-158385D01*
Y-158098D01*
Y-157812D01*
X846147D01*
Y-157526D01*
Y-157239D01*
Y-156953D01*
Y-156667D01*
Y-156380D01*
Y-156094D01*
Y-155808D01*
X846433D01*
Y-155521D01*
Y-155235D01*
Y-154949D01*
Y-154663D01*
Y-154376D01*
Y-154090D01*
X846719D01*
Y-153804D01*
Y-153517D01*
Y-153231D01*
Y-152945D01*
Y-152658D01*
Y-152372D01*
X847006D01*
Y-152086D01*
Y-151799D01*
Y-151513D01*
Y-151227D01*
Y-150940D01*
Y-150654D01*
Y-150368D01*
X847292D01*
Y-150082D01*
Y-149795D01*
Y-149509D01*
Y-149223D01*
Y-148936D01*
Y-148650D01*
X847578D01*
Y-148364D01*
Y-148077D01*
Y-147791D01*
Y-147505D01*
Y-147218D01*
Y-146932D01*
X847865D01*
Y-146646D01*
Y-146359D01*
Y-146073D01*
Y-145787D01*
Y-145501D01*
Y-145214D01*
Y-144928D01*
X848151D01*
Y-144641D01*
Y-144355D01*
Y-144069D01*
Y-143783D01*
Y-143496D01*
Y-143210D01*
X848437D01*
Y-142924D01*
Y-142637D01*
Y-142351D01*
Y-142065D01*
Y-141778D01*
Y-141492D01*
X872201D01*
Y-141778D01*
D02*
G37*
G36*
X961245Y-155808D02*
Y-156094D01*
Y-156380D01*
Y-156667D01*
Y-156953D01*
Y-157239D01*
Y-157526D01*
Y-157812D01*
Y-158098D01*
Y-158385D01*
Y-158671D01*
Y-158957D01*
Y-159244D01*
Y-159530D01*
Y-159816D01*
Y-160102D01*
Y-160389D01*
Y-160675D01*
Y-160961D01*
Y-161248D01*
Y-161534D01*
X960958D01*
Y-161820D01*
Y-162107D01*
Y-162393D01*
Y-162679D01*
Y-162966D01*
X960672D01*
Y-163252D01*
Y-163538D01*
Y-163824D01*
Y-164111D01*
X960386D01*
Y-164397D01*
Y-164683D01*
Y-164970D01*
Y-165256D01*
X960099D01*
Y-165542D01*
Y-165829D01*
Y-166115D01*
X959813D01*
Y-166401D01*
Y-166688D01*
Y-166974D01*
X959527D01*
Y-167260D01*
Y-167547D01*
Y-167833D01*
X959241D01*
Y-168119D01*
Y-168405D01*
Y-168692D01*
X958954D01*
Y-168978D01*
Y-169264D01*
X958668D01*
Y-169551D01*
Y-169837D01*
X958381D01*
Y-170123D01*
Y-170410D01*
Y-170696D01*
X958095D01*
Y-170982D01*
Y-171269D01*
X957809D01*
Y-171555D01*
Y-171841D01*
Y-172127D01*
X957523D01*
Y-172414D01*
Y-172700D01*
X957236D01*
Y-172986D01*
Y-173273D01*
Y-173559D01*
X956950D01*
Y-173845D01*
Y-174132D01*
X956664D01*
Y-174418D01*
Y-174704D01*
Y-174991D01*
X956377D01*
Y-175277D01*
Y-175563D01*
X956091D01*
Y-175850D01*
Y-176136D01*
Y-176422D01*
X955805D01*
Y-176709D01*
Y-176995D01*
X955518D01*
Y-177281D01*
Y-177568D01*
Y-177854D01*
X955232D01*
Y-178140D01*
Y-178426D01*
X954946D01*
Y-178713D01*
Y-178999D01*
Y-179285D01*
X954659D01*
Y-179572D01*
Y-179858D01*
X954373D01*
Y-180144D01*
Y-180431D01*
Y-180717D01*
X954087D01*
Y-181003D01*
Y-181290D01*
X953800D01*
Y-181576D01*
Y-181862D01*
Y-182149D01*
X953514D01*
Y-182435D01*
Y-182721D01*
X953228D01*
Y-183007D01*
Y-183294D01*
Y-183580D01*
X952942D01*
Y-183866D01*
Y-184153D01*
X952655D01*
Y-184439D01*
Y-184725D01*
Y-185012D01*
X952369D01*
Y-185298D01*
Y-185584D01*
X952083D01*
Y-185871D01*
Y-186157D01*
Y-186443D01*
X951796D01*
Y-186730D01*
Y-187016D01*
X951510D01*
Y-187302D01*
Y-187588D01*
Y-187875D01*
X951224D01*
Y-188161D01*
Y-188447D01*
X950937D01*
Y-188734D01*
Y-189020D01*
Y-189306D01*
X950651D01*
Y-189593D01*
Y-189879D01*
X950365D01*
Y-190165D01*
Y-190452D01*
Y-190738D01*
X950078D01*
Y-191024D01*
Y-191311D01*
X949792D01*
Y-191597D01*
Y-191883D01*
Y-192169D01*
X949506D01*
Y-192456D01*
Y-192742D01*
X949220D01*
Y-193028D01*
Y-193315D01*
X948933D01*
Y-193601D01*
Y-193887D01*
X948647D01*
Y-194174D01*
Y-194460D01*
Y-194746D01*
X948361D01*
Y-195033D01*
X948074D01*
Y-195319D01*
Y-195605D01*
Y-195891D01*
X947788D01*
Y-196178D01*
X947502D01*
Y-196464D01*
Y-196750D01*
X947215D01*
Y-197037D01*
Y-197323D01*
X946929D01*
Y-197609D01*
Y-197896D01*
X946643D01*
Y-198182D01*
Y-198468D01*
X946356D01*
Y-198755D01*
X946070D01*
Y-199041D01*
Y-199327D01*
X945784D01*
Y-199614D01*
Y-199900D01*
X945497D01*
Y-200186D01*
X945211D01*
Y-200472D01*
X944925D01*
Y-200759D01*
Y-201045D01*
X944639D01*
Y-201331D01*
X944352D01*
Y-201618D01*
Y-201904D01*
X944066D01*
Y-202190D01*
X943780D01*
Y-202477D01*
X943493D01*
Y-202763D01*
Y-203049D01*
X943207D01*
Y-203336D01*
X942921D01*
Y-203622D01*
X942634D01*
Y-203908D01*
X942348D01*
Y-204195D01*
X942062D01*
Y-204481D01*
Y-204767D01*
X941775D01*
Y-205053D01*
X941489D01*
Y-205340D01*
X941203D01*
Y-205626D01*
X940916D01*
Y-205912D01*
X940630D01*
Y-206199D01*
X940344D01*
Y-206485D01*
X940057D01*
Y-206771D01*
X939485D01*
Y-207058D01*
X939199D01*
Y-207344D01*
X938912D01*
Y-207630D01*
X938626D01*
Y-207917D01*
X938340D01*
Y-208203D01*
X937767D01*
Y-208489D01*
X937481D01*
Y-208776D01*
X936908D01*
Y-209062D01*
X936622D01*
Y-209348D01*
X936049D01*
Y-209634D01*
X935763D01*
Y-209921D01*
X935190D01*
Y-210207D01*
X934618D01*
Y-210493D01*
X934045D01*
Y-210780D01*
X933472D01*
Y-211066D01*
X932900D01*
Y-211352D01*
X932041D01*
Y-211639D01*
X931468D01*
Y-211925D01*
X930609D01*
Y-212211D01*
X929464D01*
Y-212498D01*
X928319D01*
Y-212784D01*
X926601D01*
Y-213070D01*
X924597D01*
Y-213357D01*
X924310D01*
Y-213070D01*
Y-212784D01*
Y-212498D01*
Y-212211D01*
Y-211925D01*
Y-211639D01*
Y-211352D01*
Y-211066D01*
Y-210780D01*
Y-210493D01*
Y-210207D01*
Y-209921D01*
Y-209634D01*
Y-209348D01*
Y-209062D01*
Y-208776D01*
Y-208489D01*
Y-208203D01*
Y-207917D01*
Y-207630D01*
Y-207344D01*
Y-207058D01*
Y-206771D01*
Y-206485D01*
Y-206199D01*
Y-205912D01*
Y-205626D01*
Y-205340D01*
Y-205053D01*
Y-204767D01*
Y-204481D01*
Y-204195D01*
Y-203908D01*
X924883D01*
Y-203622D01*
X925455D01*
Y-203336D01*
X926028D01*
Y-203049D01*
X926601D01*
Y-202763D01*
X927173D01*
Y-202477D01*
X927746D01*
Y-202190D01*
X928032D01*
Y-201904D01*
X928605D01*
Y-201618D01*
X928891D01*
Y-201331D01*
X929464D01*
Y-201045D01*
X929750D01*
Y-200759D01*
X930037D01*
Y-200472D01*
X930609D01*
Y-200186D01*
X930896D01*
Y-199900D01*
X931182D01*
Y-199614D01*
X931468D01*
Y-199327D01*
X931754D01*
Y-199041D01*
X932041D01*
Y-198755D01*
X932327D01*
Y-198468D01*
X932613D01*
Y-198182D01*
X932900D01*
Y-197896D01*
X933186D01*
Y-197609D01*
X933472D01*
Y-197323D01*
X933759D01*
Y-197037D01*
Y-196750D01*
X934045D01*
Y-196464D01*
X934331D01*
Y-196178D01*
X934618D01*
Y-195891D01*
Y-195605D01*
X934904D01*
Y-195319D01*
X935190D01*
Y-195033D01*
Y-194746D01*
X935476D01*
Y-194460D01*
Y-194174D01*
X935763D01*
Y-193887D01*
X936049D01*
Y-193601D01*
Y-193315D01*
X936335D01*
Y-193028D01*
Y-192742D01*
X936622D01*
Y-192456D01*
Y-192169D01*
X934904D01*
Y-191883D01*
X932900D01*
Y-191597D01*
X931754D01*
Y-191311D01*
X931182D01*
Y-191024D01*
X930323D01*
Y-190738D01*
X929750D01*
Y-190452D01*
X929464D01*
Y-190165D01*
X928891D01*
Y-189879D01*
X928605D01*
Y-189593D01*
X928319D01*
Y-189306D01*
X928032D01*
Y-189020D01*
X927746D01*
Y-188734D01*
X927460D01*
Y-188447D01*
Y-188161D01*
X927173D01*
Y-187875D01*
X926887D01*
Y-187588D01*
Y-187302D01*
X926601D01*
Y-187016D01*
Y-186730D01*
X926315D01*
Y-186443D01*
Y-186157D01*
X926028D01*
Y-185871D01*
Y-185584D01*
Y-185298D01*
X925742D01*
Y-185012D01*
Y-184725D01*
Y-184439D01*
Y-184153D01*
X925455D01*
Y-183866D01*
Y-183580D01*
Y-183294D01*
Y-183007D01*
Y-182721D01*
Y-182435D01*
Y-182149D01*
X925169D01*
Y-181862D01*
Y-181576D01*
Y-181290D01*
Y-181003D01*
Y-180717D01*
Y-180431D01*
Y-180144D01*
Y-179858D01*
Y-179572D01*
Y-179285D01*
Y-178999D01*
Y-178713D01*
Y-178426D01*
Y-178140D01*
Y-177854D01*
X924883D01*
Y-177568D01*
Y-177281D01*
Y-176995D01*
Y-176709D01*
Y-176422D01*
Y-176136D01*
Y-175850D01*
Y-175563D01*
Y-175277D01*
Y-174991D01*
Y-174704D01*
Y-174418D01*
Y-174132D01*
Y-173845D01*
Y-173559D01*
X924597D01*
Y-173273D01*
Y-172986D01*
Y-172700D01*
Y-172414D01*
Y-172127D01*
Y-171841D01*
Y-171555D01*
Y-171269D01*
Y-170982D01*
Y-170696D01*
Y-170410D01*
Y-170123D01*
Y-169837D01*
Y-169551D01*
Y-169264D01*
Y-168978D01*
X924310D01*
Y-168692D01*
Y-168405D01*
Y-168119D01*
Y-167833D01*
Y-167547D01*
Y-167260D01*
Y-166974D01*
Y-166688D01*
Y-166401D01*
Y-166115D01*
Y-165829D01*
Y-165542D01*
Y-165256D01*
Y-164970D01*
Y-164683D01*
Y-164397D01*
X924024D01*
Y-164111D01*
Y-163824D01*
Y-163538D01*
Y-163252D01*
Y-162966D01*
Y-162679D01*
Y-162393D01*
Y-162107D01*
Y-161820D01*
Y-161534D01*
Y-161248D01*
Y-160961D01*
Y-160675D01*
Y-160389D01*
X923738D01*
Y-160102D01*
Y-159816D01*
Y-159530D01*
Y-159244D01*
Y-158957D01*
Y-158671D01*
Y-158385D01*
Y-158098D01*
Y-157812D01*
Y-157526D01*
Y-157239D01*
Y-156953D01*
Y-156667D01*
Y-156380D01*
Y-156094D01*
Y-155808D01*
X923451D01*
Y-155521D01*
X937194D01*
Y-155808D01*
Y-156094D01*
Y-156380D01*
Y-156667D01*
Y-156953D01*
Y-157239D01*
Y-157526D01*
Y-157812D01*
Y-158098D01*
Y-158385D01*
Y-158671D01*
Y-158957D01*
Y-159244D01*
Y-159530D01*
X937481D01*
Y-159816D01*
Y-160102D01*
Y-160389D01*
Y-160675D01*
Y-160961D01*
Y-161248D01*
Y-161534D01*
Y-161820D01*
Y-162107D01*
Y-162393D01*
Y-162679D01*
Y-162966D01*
Y-163252D01*
Y-163538D01*
Y-163824D01*
Y-164111D01*
Y-164397D01*
Y-164683D01*
Y-164970D01*
Y-165256D01*
Y-165542D01*
Y-165829D01*
Y-166115D01*
Y-166401D01*
Y-166688D01*
Y-166974D01*
Y-167260D01*
Y-167547D01*
Y-167833D01*
Y-168119D01*
Y-168405D01*
Y-168692D01*
Y-168978D01*
Y-169264D01*
Y-169551D01*
Y-169837D01*
Y-170123D01*
Y-170410D01*
Y-170696D01*
Y-170982D01*
Y-171269D01*
X937767D01*
Y-171555D01*
X937481D01*
Y-171841D01*
Y-172127D01*
X937767D01*
Y-172414D01*
Y-172700D01*
Y-172986D01*
Y-173273D01*
Y-173559D01*
Y-173845D01*
Y-174132D01*
Y-174418D01*
Y-174704D01*
Y-174991D01*
Y-175277D01*
Y-175563D01*
Y-175850D01*
Y-176136D01*
Y-176422D01*
Y-176709D01*
Y-176995D01*
Y-177281D01*
Y-177568D01*
Y-177854D01*
Y-178140D01*
Y-178426D01*
Y-178713D01*
Y-178999D01*
Y-179285D01*
Y-179572D01*
X938053D01*
Y-179858D01*
Y-180144D01*
Y-180431D01*
X938340D01*
Y-180717D01*
X938626D01*
Y-181003D01*
X938912D01*
Y-181290D01*
X939771D01*
Y-181576D01*
X940630D01*
Y-181290D01*
X940916D01*
Y-181003D01*
Y-180717D01*
Y-180431D01*
X941203D01*
Y-180144D01*
Y-179858D01*
X941489D01*
Y-179572D01*
Y-179285D01*
Y-178999D01*
X941775D01*
Y-178713D01*
Y-178426D01*
Y-178140D01*
X942062D01*
Y-177854D01*
Y-177568D01*
Y-177281D01*
X942348D01*
Y-176995D01*
Y-176709D01*
Y-176422D01*
X942634D01*
Y-176136D01*
Y-175850D01*
X942921D01*
Y-175563D01*
Y-175277D01*
Y-174991D01*
X943207D01*
Y-174704D01*
Y-174418D01*
Y-174132D01*
X943493D01*
Y-173845D01*
Y-173559D01*
Y-173273D01*
X943780D01*
Y-172986D01*
Y-172700D01*
X944066D01*
Y-172414D01*
Y-172127D01*
Y-171841D01*
X944352D01*
Y-171555D01*
Y-171269D01*
Y-170982D01*
X944639D01*
Y-170696D01*
Y-170410D01*
Y-170123D01*
X944925D01*
Y-169837D01*
Y-169551D01*
X945211D01*
Y-169264D01*
Y-168978D01*
Y-168692D01*
X945497D01*
Y-168405D01*
Y-168119D01*
Y-167833D01*
X945784D01*
Y-167547D01*
Y-167260D01*
Y-166974D01*
X946070D01*
Y-166688D01*
Y-166401D01*
X946356D01*
Y-166115D01*
Y-165829D01*
Y-165542D01*
X946643D01*
Y-165256D01*
Y-164970D01*
Y-164683D01*
X946929D01*
Y-164397D01*
Y-164111D01*
Y-163824D01*
X947215D01*
Y-163538D01*
Y-163252D01*
Y-162966D01*
Y-162679D01*
X947502D01*
Y-162393D01*
Y-162107D01*
Y-161820D01*
Y-161534D01*
X947788D01*
Y-161248D01*
Y-160961D01*
Y-160675D01*
Y-160389D01*
Y-160102D01*
X948074D01*
Y-159816D01*
Y-159530D01*
Y-159244D01*
Y-158957D01*
Y-158671D01*
Y-158385D01*
X948361D01*
Y-158098D01*
Y-157812D01*
Y-157526D01*
Y-157239D01*
Y-156953D01*
Y-156667D01*
Y-156380D01*
Y-156094D01*
Y-155808D01*
Y-155521D01*
X961245D01*
Y-155808D01*
D02*
G37*
G36*
X903409Y-138343D02*
Y-138629D01*
X903123D01*
Y-138915D01*
Y-139202D01*
Y-139488D01*
Y-139774D01*
Y-140060D01*
Y-140347D01*
X902837D01*
Y-140633D01*
Y-140919D01*
Y-141206D01*
Y-141492D01*
Y-141778D01*
Y-142065D01*
X902551D01*
Y-142351D01*
Y-142637D01*
Y-142924D01*
Y-143210D01*
Y-143496D01*
Y-143783D01*
Y-144069D01*
X902264D01*
Y-144355D01*
Y-144641D01*
Y-144928D01*
Y-145214D01*
Y-145501D01*
Y-145787D01*
X901978D01*
Y-146073D01*
Y-146359D01*
Y-146646D01*
Y-146932D01*
Y-147218D01*
Y-147505D01*
X901692D01*
Y-147791D01*
Y-148077D01*
Y-148364D01*
Y-148650D01*
Y-148936D01*
Y-149223D01*
Y-149509D01*
X901405D01*
Y-149795D01*
Y-150082D01*
Y-150368D01*
Y-150654D01*
Y-150940D01*
Y-151227D01*
X901119D01*
Y-151513D01*
Y-151799D01*
Y-152086D01*
Y-152372D01*
Y-152658D01*
Y-152945D01*
X900833D01*
Y-153231D01*
Y-153517D01*
Y-153804D01*
Y-154090D01*
Y-154376D01*
Y-154663D01*
X900546D01*
Y-154949D01*
Y-155235D01*
Y-155521D01*
Y-155808D01*
Y-156094D01*
Y-156380D01*
Y-156667D01*
X900260D01*
Y-156953D01*
Y-157239D01*
Y-157526D01*
Y-157812D01*
Y-158098D01*
Y-158385D01*
X899974D01*
Y-158671D01*
Y-158957D01*
X900546D01*
Y-158671D01*
X900833D01*
Y-158385D01*
X901119D01*
Y-158098D01*
X901692D01*
Y-157812D01*
X901978D01*
Y-157526D01*
X902264D01*
Y-157239D01*
X902837D01*
Y-156953D01*
X903409D01*
Y-156667D01*
X903696D01*
Y-156380D01*
X904268D01*
Y-156094D01*
X905127D01*
Y-155808D01*
X905700D01*
Y-155521D01*
X906559D01*
Y-155235D01*
X907990D01*
Y-154949D01*
X914289D01*
Y-155235D01*
X915435D01*
Y-155521D01*
X916294D01*
Y-155808D01*
X916866D01*
Y-156094D01*
X917153D01*
Y-156380D01*
X917725D01*
Y-156667D01*
X918011D01*
Y-156953D01*
X918298D01*
Y-157239D01*
X918584D01*
Y-157526D01*
X918870D01*
Y-157812D01*
Y-158098D01*
X919157D01*
Y-158385D01*
Y-158671D01*
X919443D01*
Y-158957D01*
Y-159244D01*
Y-159530D01*
X919729D01*
Y-159816D01*
Y-160102D01*
Y-160389D01*
Y-160675D01*
X920016D01*
Y-160961D01*
Y-161248D01*
Y-161534D01*
Y-161820D01*
Y-162107D01*
Y-162393D01*
Y-162679D01*
Y-162966D01*
Y-163252D01*
Y-163538D01*
Y-163824D01*
Y-164111D01*
Y-164397D01*
Y-164683D01*
Y-164970D01*
Y-165256D01*
Y-165542D01*
Y-165829D01*
X919729D01*
Y-166115D01*
Y-166401D01*
Y-166688D01*
Y-166974D01*
Y-167260D01*
Y-167547D01*
Y-167833D01*
X919443D01*
Y-168119D01*
Y-168405D01*
Y-168692D01*
Y-168978D01*
Y-169264D01*
Y-169551D01*
Y-169837D01*
X919157D01*
Y-170123D01*
Y-170410D01*
Y-170696D01*
Y-170982D01*
Y-171269D01*
Y-171555D01*
X918870D01*
Y-171841D01*
Y-172127D01*
Y-172414D01*
Y-172700D01*
Y-172986D01*
Y-173273D01*
X918584D01*
Y-173559D01*
Y-173845D01*
Y-174132D01*
Y-174418D01*
Y-174704D01*
Y-174991D01*
X918298D01*
Y-175277D01*
Y-175563D01*
Y-175850D01*
Y-176136D01*
Y-176422D01*
Y-176709D01*
Y-176995D01*
X918011D01*
Y-177281D01*
Y-177568D01*
Y-177854D01*
Y-178140D01*
Y-178426D01*
Y-178713D01*
X917725D01*
Y-178999D01*
Y-179285D01*
Y-179572D01*
Y-179858D01*
Y-180144D01*
Y-180431D01*
X917439D01*
Y-180717D01*
Y-181003D01*
Y-181290D01*
Y-181576D01*
Y-181862D01*
Y-182149D01*
Y-182435D01*
X917153D01*
Y-182721D01*
Y-183007D01*
Y-183294D01*
Y-183580D01*
Y-183866D01*
Y-184153D01*
X916866D01*
Y-184439D01*
Y-184725D01*
Y-185012D01*
Y-185298D01*
Y-185584D01*
Y-185871D01*
X916580D01*
Y-186157D01*
Y-186443D01*
Y-186730D01*
Y-187016D01*
Y-187302D01*
Y-187588D01*
X916294D01*
Y-187875D01*
Y-188161D01*
Y-188447D01*
Y-188734D01*
Y-189020D01*
Y-189306D01*
Y-189593D01*
X916007D01*
Y-189879D01*
Y-190165D01*
Y-190452D01*
Y-190738D01*
Y-191024D01*
Y-191311D01*
X915721D01*
Y-191597D01*
Y-191883D01*
X902551D01*
Y-191597D01*
Y-191311D01*
X902837D01*
Y-191024D01*
Y-190738D01*
Y-190452D01*
Y-190165D01*
Y-189879D01*
Y-189593D01*
X903123D01*
Y-189306D01*
Y-189020D01*
Y-188734D01*
Y-188447D01*
Y-188161D01*
Y-187875D01*
Y-187588D01*
X903409D01*
Y-187302D01*
Y-187016D01*
Y-186730D01*
Y-186443D01*
Y-186157D01*
Y-185871D01*
X903696D01*
Y-185584D01*
Y-185298D01*
Y-185012D01*
Y-184725D01*
Y-184439D01*
Y-184153D01*
X903982D01*
Y-183866D01*
Y-183580D01*
Y-183294D01*
Y-183007D01*
Y-182721D01*
Y-182435D01*
Y-182149D01*
X904268D01*
Y-181862D01*
Y-181576D01*
Y-181290D01*
Y-181003D01*
Y-180717D01*
Y-180431D01*
X904555D01*
Y-180144D01*
Y-179858D01*
Y-179572D01*
Y-179285D01*
Y-178999D01*
Y-178713D01*
Y-178426D01*
X904841D01*
Y-178140D01*
Y-177854D01*
Y-177568D01*
Y-177281D01*
Y-176995D01*
Y-176709D01*
X905127D01*
Y-176422D01*
Y-176136D01*
Y-175850D01*
Y-175563D01*
Y-175277D01*
Y-174991D01*
X905414D01*
Y-174704D01*
Y-174418D01*
Y-174132D01*
Y-173845D01*
Y-173559D01*
Y-173273D01*
X905700D01*
Y-172986D01*
Y-172700D01*
Y-172414D01*
Y-172127D01*
Y-171841D01*
Y-171555D01*
Y-171269D01*
X905986D01*
Y-170982D01*
Y-170696D01*
Y-170410D01*
Y-170123D01*
Y-169837D01*
Y-169551D01*
X906273D01*
Y-169264D01*
Y-168978D01*
Y-168692D01*
Y-168405D01*
Y-168119D01*
Y-167833D01*
Y-167547D01*
X906559D01*
Y-167260D01*
Y-166974D01*
Y-166688D01*
Y-166401D01*
Y-166115D01*
Y-165829D01*
X906273D01*
Y-165542D01*
Y-165256D01*
X905986D01*
Y-164970D01*
X905700D01*
Y-164683D01*
X905127D01*
Y-164397D01*
X903409D01*
Y-164683D01*
X901978D01*
Y-164970D01*
X901119D01*
Y-165256D01*
X900546D01*
Y-165542D01*
X900260D01*
Y-165829D01*
X899687D01*
Y-166115D01*
X899401D01*
Y-166401D01*
X899115D01*
Y-166688D01*
Y-166974D01*
X898828D01*
Y-167260D01*
Y-167547D01*
Y-167833D01*
X898542D01*
Y-168119D01*
Y-168405D01*
Y-168692D01*
Y-168978D01*
Y-169264D01*
Y-169551D01*
X898256D01*
Y-169837D01*
Y-170123D01*
Y-170410D01*
Y-170696D01*
Y-170982D01*
Y-171269D01*
Y-171555D01*
X897970D01*
Y-171841D01*
Y-172127D01*
Y-172414D01*
Y-172700D01*
Y-172986D01*
Y-173273D01*
X897683D01*
Y-173559D01*
Y-173845D01*
Y-174132D01*
Y-174418D01*
Y-174704D01*
Y-174991D01*
X897397D01*
Y-175277D01*
Y-175563D01*
Y-175850D01*
Y-176136D01*
Y-176422D01*
Y-176709D01*
X897111D01*
Y-176995D01*
Y-177281D01*
Y-177568D01*
Y-177854D01*
Y-178140D01*
Y-178426D01*
Y-178713D01*
X896824D01*
Y-178999D01*
Y-179285D01*
Y-179572D01*
Y-179858D01*
Y-180144D01*
Y-180431D01*
X896538D01*
Y-180717D01*
Y-181003D01*
Y-181290D01*
Y-181576D01*
Y-181862D01*
Y-182149D01*
X896252D01*
Y-182435D01*
Y-182721D01*
Y-183007D01*
Y-183294D01*
Y-183580D01*
Y-183866D01*
Y-184153D01*
X895965D01*
Y-184439D01*
Y-184725D01*
Y-185012D01*
Y-185298D01*
Y-185584D01*
Y-185871D01*
X895679D01*
Y-186157D01*
Y-186443D01*
Y-186730D01*
Y-187016D01*
Y-187302D01*
Y-187588D01*
X895393D01*
Y-187875D01*
Y-188161D01*
Y-188447D01*
Y-188734D01*
Y-189020D01*
Y-189306D01*
X895106D01*
Y-189593D01*
Y-189879D01*
Y-190165D01*
Y-190452D01*
Y-190738D01*
Y-191024D01*
Y-191311D01*
X894820D01*
Y-191597D01*
Y-191883D01*
X881650D01*
Y-191597D01*
Y-191311D01*
X881936D01*
Y-191024D01*
Y-190738D01*
Y-190452D01*
Y-190165D01*
Y-189879D01*
Y-189593D01*
Y-189306D01*
X882222D01*
Y-189020D01*
Y-188734D01*
Y-188447D01*
Y-188161D01*
Y-187875D01*
Y-187588D01*
X882509D01*
Y-187302D01*
Y-187016D01*
Y-186730D01*
Y-186443D01*
Y-186157D01*
Y-185871D01*
X882795D01*
Y-185584D01*
Y-185298D01*
Y-185012D01*
Y-184725D01*
Y-184439D01*
Y-184153D01*
Y-183866D01*
X883081D01*
Y-183580D01*
Y-183294D01*
Y-183007D01*
Y-182721D01*
Y-182435D01*
Y-182149D01*
X883368D01*
Y-181862D01*
Y-181576D01*
Y-181290D01*
Y-181003D01*
Y-180717D01*
Y-180431D01*
X883654D01*
Y-180144D01*
Y-179858D01*
Y-179572D01*
Y-179285D01*
Y-178999D01*
Y-178713D01*
X883940D01*
Y-178426D01*
Y-178140D01*
Y-177854D01*
Y-177568D01*
Y-177281D01*
Y-176995D01*
Y-176709D01*
X884227D01*
Y-176422D01*
Y-176136D01*
Y-175850D01*
Y-175563D01*
Y-175277D01*
Y-174991D01*
X884513D01*
Y-174704D01*
Y-174418D01*
Y-174132D01*
Y-173845D01*
Y-173559D01*
Y-173273D01*
X884799D01*
Y-172986D01*
Y-172700D01*
Y-172414D01*
Y-172127D01*
Y-171841D01*
Y-171555D01*
Y-171269D01*
X885085D01*
Y-170982D01*
Y-170696D01*
Y-170410D01*
Y-170123D01*
Y-169837D01*
Y-169551D01*
X885372D01*
Y-169264D01*
Y-168978D01*
Y-168692D01*
Y-168405D01*
Y-168119D01*
Y-167833D01*
X885658D01*
Y-167547D01*
Y-167260D01*
Y-166974D01*
Y-166688D01*
Y-166401D01*
Y-166115D01*
X885944D01*
Y-165829D01*
Y-165542D01*
Y-165256D01*
Y-164970D01*
Y-164683D01*
Y-164397D01*
Y-164111D01*
X886231D01*
Y-163824D01*
Y-163538D01*
Y-163252D01*
Y-162966D01*
Y-162679D01*
Y-162393D01*
X886517D01*
Y-162107D01*
Y-161820D01*
Y-161534D01*
Y-161248D01*
Y-160961D01*
Y-160675D01*
X886803D01*
Y-160389D01*
Y-160102D01*
Y-159816D01*
Y-159530D01*
Y-159244D01*
Y-158957D01*
X887090D01*
Y-158671D01*
Y-158385D01*
Y-158098D01*
Y-157812D01*
Y-157526D01*
Y-157239D01*
Y-156953D01*
X887376D01*
Y-156667D01*
Y-156380D01*
Y-156094D01*
Y-155808D01*
Y-155521D01*
Y-155235D01*
X887662D01*
Y-154949D01*
Y-154663D01*
Y-154376D01*
Y-154090D01*
Y-153804D01*
Y-153517D01*
X887949D01*
Y-153231D01*
Y-152945D01*
Y-152658D01*
Y-152372D01*
Y-152086D01*
Y-151799D01*
Y-151513D01*
X888235D01*
Y-151227D01*
Y-150940D01*
Y-150654D01*
Y-150368D01*
Y-150082D01*
Y-149795D01*
X888521D01*
Y-149509D01*
Y-149223D01*
Y-148936D01*
Y-148650D01*
Y-148364D01*
Y-148077D01*
X888807D01*
Y-147791D01*
Y-147505D01*
Y-147218D01*
Y-146932D01*
Y-146646D01*
Y-146359D01*
X889094D01*
Y-146073D01*
Y-145787D01*
Y-145501D01*
Y-145214D01*
Y-144928D01*
Y-144641D01*
Y-144355D01*
X889380D01*
Y-144069D01*
Y-143783D01*
Y-143496D01*
Y-143210D01*
Y-142924D01*
Y-142637D01*
X889666D01*
Y-142351D01*
Y-142065D01*
Y-141778D01*
Y-141492D01*
Y-141206D01*
Y-140919D01*
X889953D01*
Y-140633D01*
Y-140347D01*
Y-140060D01*
Y-139774D01*
Y-139488D01*
Y-139202D01*
Y-138915D01*
X890239D01*
Y-138629D01*
Y-138343D01*
Y-138056D01*
X903409D01*
Y-138343D01*
D02*
G37*
%LPC*%
G36*
X6Y164297D02*
X-122Y164297D01*
X-254Y164295D01*
X-388Y164292D01*
X-666Y164283D01*
X-954Y164269D01*
X-1402Y164242D01*
X-1617Y164227D01*
Y164227D01*
X-1817Y164212D01*
X-2217Y164178D01*
X-2616Y164141D01*
X-3015Y164099D01*
X-3215Y164077D01*
X-6251Y163643D01*
X-12286Y162534D01*
X-18271Y161185D01*
X-24198Y159599D01*
X-27127Y158689D01*
Y158689D01*
X-27403Y158581D01*
X-27949Y158349D01*
X-28488Y158103D01*
X-29020Y157841D01*
X-29283Y157703D01*
X-29775Y157446D01*
X-30724Y156870D01*
X-31634Y156234D01*
X-32501Y155541D01*
X-32912Y155168D01*
X-32912D01*
X-33314Y154797D01*
X-34069Y154006D01*
X-34769Y153165D01*
X-35412Y152281D01*
X-35704Y151818D01*
X-35857Y151576D01*
X-36149Y151084D01*
X-36426Y150582D01*
X-36689Y150073D01*
X-36812Y149815D01*
X-36943Y149542D01*
X-37191Y148989D01*
X-37424Y148430D01*
X-37642Y147865D01*
X-37853Y147275D01*
X-38058Y146660D01*
X-38249Y146041D01*
X-38427Y145418D01*
X-38509Y145105D01*
X-38690Y144401D01*
X-39005Y142981D01*
X-39273Y141552D01*
X-39494Y140115D01*
X-39581Y139393D01*
X-39752Y138079D01*
X-39935Y136700D01*
X-40124Y135282D01*
X-40311Y133850D01*
X-40490Y132431D01*
X-40652Y131050D01*
X-40791Y129733D01*
X-40791Y129733D01*
X-40800Y129643D01*
X-40807Y129580D01*
X-40835Y129279D01*
X-40835Y129273D01*
X-40862Y128969D01*
X-40862Y128966D01*
X-40888Y128661D01*
X-40888Y128659D01*
X-40893Y128594D01*
X-40900Y128506D01*
X-40922Y128246D01*
X-40955Y127726D01*
X-40979Y127205D01*
X-40979Y127204D01*
X-40993Y126684D01*
X-40995Y126424D01*
X-40995Y126424D01*
X-40997Y126005D01*
X-40723Y125215D01*
X-40203Y124559D01*
X-39496Y124112D01*
X-39088Y124018D01*
X-38023Y123738D01*
X-37933Y123713D01*
X-37769Y123665D01*
X-36009Y123150D01*
Y123150D01*
X-34968Y122843D01*
X-32872Y122280D01*
X-30763Y121767D01*
X-28670Y121312D01*
X-28642Y121306D01*
X-27577Y121100D01*
X-27075Y121003D01*
X-26070Y120820D01*
X-25062Y120646D01*
X-24053Y120483D01*
X-23548Y120406D01*
X-22960Y120316D01*
X-21780Y120149D01*
X-20600Y119994D01*
X-19953Y119915D01*
X-19418Y119850D01*
X-18826Y119784D01*
X-18826D01*
X-18144Y119708D01*
X-17695Y119662D01*
X-16779Y119569D01*
X-15412Y119444D01*
X-14460Y119366D01*
X-14044Y119331D01*
X-13360Y119282D01*
X-13360Y119282D01*
X-11692Y119164D01*
X-8352Y118989D01*
X-5010Y118874D01*
X-1666Y118820D01*
X6Y118824D01*
Y118824D01*
X891Y118823D01*
X1186Y118826D01*
X2661Y118838D01*
X4432Y118869D01*
X5921Y118907D01*
X6201Y118915D01*
X7086Y118946D01*
Y118946D01*
X7867Y118973D01*
X8249Y118990D01*
X9428Y119042D01*
X10988Y119126D01*
X12179Y119201D01*
X12548Y119224D01*
X13327Y119281D01*
X14010Y119330D01*
X14472Y119368D01*
X15374Y119442D01*
X16738Y119567D01*
X17650Y119660D01*
X18100Y119706D01*
X18378Y119737D01*
X18780Y119781D01*
Y119781D01*
X19371Y119847D01*
X19907Y119913D01*
X20551Y119991D01*
X21730Y120146D01*
X22907Y120312D01*
X23494Y120402D01*
X24784Y120594D01*
X27351Y121050D01*
X29905Y121578D01*
X32443Y122176D01*
X33704Y122510D01*
X33986Y122586D01*
X34552Y122740D01*
X34905Y122839D01*
X35116Y122898D01*
X35122Y122899D01*
X35680Y123058D01*
X35961Y123140D01*
X35961Y123140D01*
Y123140D01*
X37013Y123452D01*
X37118Y123482D01*
X37892Y123700D01*
X38668Y123908D01*
X39058Y124009D01*
X39472Y124104D01*
X40188Y124561D01*
X40709Y125231D01*
X40976Y126038D01*
X40966Y126463D01*
X40966Y126463D01*
X40963Y126584D01*
X40956Y126823D01*
X40956Y126827D01*
X40946Y127068D01*
X40946Y127069D01*
X40935Y127311D01*
X40935Y127312D01*
X40928Y127432D01*
X40928Y127433D01*
X40920Y127571D01*
X40920Y127572D01*
X40917Y127623D01*
X40903Y127849D01*
X40884Y128127D01*
X40864Y128405D01*
X40853Y128543D01*
X40748Y129769D01*
X40617Y131083D01*
X40465Y132460D01*
X40299Y133875D01*
X40124Y135302D01*
X39944Y136714D01*
X39740Y138273D01*
X39594Y139393D01*
X39594Y139393D01*
X39594Y139393D01*
X39540Y139805D01*
X39421Y140628D01*
X39292Y141448D01*
X39151Y142268D01*
X39075Y142676D01*
X39075Y142676D01*
X39008Y143041D01*
X38860Y143769D01*
X38700Y144494D01*
X38528Y145216D01*
X38435Y145575D01*
X38435D01*
X38352Y145898D01*
X38172Y146539D01*
X37977Y147176D01*
X37769Y147808D01*
X37557Y148406D01*
X37340Y148969D01*
X37180Y149352D01*
X37107Y149525D01*
X37107Y149526D01*
X36860Y150075D01*
X36729Y150347D01*
X36729Y150347D01*
X36729Y150347D01*
X36388Y151071D01*
X36235Y151323D01*
X35559Y152440D01*
X34590Y153715D01*
X33742Y154616D01*
X33493Y154881D01*
X32887Y155403D01*
X32887Y155403D01*
X32687Y155573D01*
X32278Y155898D01*
X32277Y155899D01*
X31857Y156212D01*
X31426Y156510D01*
X31206Y156652D01*
X30727Y156956D01*
X29739Y157516D01*
X28724Y158024D01*
X27685Y158482D01*
X27155Y158684D01*
X24224Y159595D01*
X18293Y161182D01*
X12304Y162532D01*
X6266Y163642D01*
X3227Y164077D01*
X3028Y164099D01*
X2628Y164141D01*
X2229Y164178D01*
X1829Y164212D01*
X1628Y164227D01*
X1425Y164241D01*
X1416Y164242D01*
X1415Y164242D01*
X1114Y164261D01*
X1113Y164261D01*
X821Y164277D01*
X820Y164277D01*
X538Y164288D01*
X266Y164295D01*
X266Y164295D01*
X234Y164296D01*
X174Y164296D01*
X169Y164297D01*
X106Y164297D01*
X104Y164297D01*
X40Y164297D01*
X39Y164297D01*
X6Y164297D01*
D02*
G37*
%LPD*%
G36*
X12264Y157621D02*
X12288Y157620D01*
X12288D01*
X12289Y157620D01*
X12289Y157620D01*
X12290Y157620D01*
X12290Y157620D01*
X12289Y157620D01*
X12289D01*
X12289D01*
X12289D01*
X12290Y157620D01*
X12290D01*
X12314Y157620D01*
X12363Y157618D01*
X12412Y157615D01*
X12460Y157611D01*
X12485Y157609D01*
X12485Y157609D01*
X12485Y157609D01*
X12486Y157609D01*
X12487Y157609D01*
X12487Y157609D01*
X12487Y157609D01*
X12487Y157609D01*
X12512Y157607D01*
X12563Y157601D01*
X12614Y157595D01*
X12665Y157588D01*
X12691Y157584D01*
X12691Y157584D01*
X12691Y157583D01*
X12692Y157583D01*
X12693Y157583D01*
X12693Y157583D01*
X12745Y157575D01*
X12850Y157555D01*
X12954Y157532D01*
X13058Y157506D01*
X13109Y157492D01*
D01*
X13162Y157476D01*
X13269Y157443D01*
X13375Y157407D01*
X13479Y157367D01*
X13531Y157346D01*
X13531Y157346D01*
X13608Y157315D01*
X13759Y157246D01*
X13906Y157170D01*
X14051Y157089D01*
X14121Y157045D01*
X14121Y157045D01*
X14121D01*
X14121Y157045D01*
X14121D01*
X14166Y157017D01*
X14252Y156959D01*
X14337Y156899D01*
X14420Y156836D01*
X14461Y156803D01*
X14461Y156803D01*
X14461Y156803D01*
X14461Y156803D01*
X14461Y156803D01*
X14461Y156802D01*
X14461Y156802D01*
X14480Y156787D01*
X14518Y156755D01*
X14556Y156722D01*
X14593Y156688D01*
X14611Y156671D01*
D01*
X14628Y156655D01*
X14663Y156621D01*
X14696Y156587D01*
X14730Y156552D01*
X14746Y156535D01*
X14746D01*
X14762Y156517D01*
X14792Y156483D01*
X14822Y156447D01*
X14851Y156411D01*
X14865Y156392D01*
D01*
X14865Y156392D01*
X14865Y156392D01*
X14865D01*
X14879Y156375D01*
X14905Y156338D01*
X14931Y156301D01*
X14955Y156264D01*
X14967Y156245D01*
D01*
X14967Y156245D01*
X14967Y156245D01*
X14967Y156245D01*
X14978Y156227D01*
X15000Y156189D01*
X15021Y156151D01*
X15041Y156112D01*
X15050Y156093D01*
X15049Y156094D01*
X15067Y156057D01*
X15098Y155982D01*
X15122Y155904D01*
X15142Y155825D01*
X15148Y155785D01*
Y155785D01*
X15148Y155785D01*
X15149Y155784D01*
X15149Y155784D01*
X15149Y155783D01*
X15149Y155783D01*
X15149Y155783D01*
X15152Y155765D01*
X15156Y155728D01*
X15159Y155692D01*
X15161Y155655D01*
Y155637D01*
Y155636D01*
X15161Y155634D01*
Y155632D01*
X15161Y155631D01*
X15161Y155630D01*
X15161D01*
X15161Y155630D01*
X15160Y155611D01*
X15158Y155573D01*
X15155Y155535D01*
X15149Y155498D01*
X15146Y155480D01*
X15146Y155480D01*
X15146Y155480D01*
X15146Y155480D01*
X15146Y155479D01*
X15146Y155479D01*
X15145Y155479D01*
X15145Y155479D01*
D01*
Y155479D01*
X15134Y155424D01*
X15097Y155317D01*
X15044Y155217D01*
X14978Y155126D01*
X14939Y155086D01*
X14938D01*
X14938Y155086D01*
X14938Y155086D01*
X14938Y155086D01*
X14938Y155086D01*
X14938Y155086D01*
X14939Y155086D01*
D01*
X14938Y155086D01*
D01*
X14938Y155086D01*
X14938Y155086D01*
X14938Y155086D01*
X14938Y155086D01*
X14938Y155086D01*
X14938Y155086D01*
X14938Y155086D01*
X14938Y155085D01*
X14938Y155085D01*
X14938Y155085D01*
X14937Y155085D01*
X14938Y155085D01*
X14938Y155085D01*
X14938Y155085D01*
X14938Y155086D01*
X14938Y155086D01*
X14925Y155072D01*
X14897Y155045D01*
X14868Y155020D01*
X14838Y154996D01*
X14822Y154985D01*
X14822D01*
X14822Y154985D01*
X14822D01*
X14822Y154985D01*
Y154985D01*
X14806Y154973D01*
X14773Y154950D01*
X14740Y154929D01*
X14705Y154910D01*
X14687Y154900D01*
X14687Y154900D01*
X14687Y154900D01*
X14669Y154891D01*
X14632Y154873D01*
X14593Y154856D01*
X14555Y154840D01*
X14535Y154833D01*
X14535Y154833D01*
X14535Y154833D01*
X14535Y154833D01*
X14535Y154832D01*
X14534Y154832D01*
X14493Y154817D01*
X14409Y154792D01*
X14323Y154771D01*
X14236Y154754D01*
X14193Y154748D01*
X14171Y154745D01*
X14124Y154740D01*
X14078Y154735D01*
X14032Y154732D01*
X14009Y154730D01*
X14009D01*
X13985Y154729D01*
X13937Y154727D01*
X13889Y154727D01*
X13840Y154727D01*
X13816Y154727D01*
X13816D01*
X13816Y154727D01*
X13815Y154727D01*
X13815Y154727D01*
X13814Y154727D01*
X13790Y154728D01*
X13740Y154730D01*
X13691Y154733D01*
X13642Y154736D01*
X13618Y154739D01*
X13618D01*
X13592Y154741D01*
X13542Y154747D01*
X13491Y154753D01*
X13441Y154760D01*
X13416Y154764D01*
X13416Y154764D01*
X13415Y154764D01*
X13414Y154764D01*
X13414Y154764D01*
X13413Y154764D01*
X13416Y154764D01*
X13416Y154764D01*
X13415Y154764D01*
X13415Y154764D01*
X13414Y154764D01*
X13414Y154764D01*
X13414D01*
X13413Y154764D01*
X13361Y154773D01*
X13255Y154792D01*
X13151Y154815D01*
X13047Y154841D01*
X12995Y154856D01*
D01*
X12942Y154871D01*
X12835Y154905D01*
X12730Y154941D01*
X12625Y154980D01*
X12573Y155001D01*
X12573Y155001D01*
X12497Y155033D01*
X12346Y155102D01*
X12198Y155177D01*
X12053Y155259D01*
X11983Y155303D01*
X11983D01*
X11983Y155303D01*
Y155303D01*
X11939Y155331D01*
X11852Y155388D01*
X11767Y155449D01*
X11684Y155512D01*
X11644Y155545D01*
Y155545D01*
X11644Y155545D01*
X11644Y155545D01*
X11644Y155545D01*
X11644Y155545D01*
X11644Y155545D01*
X11624Y155561D01*
X11586Y155593D01*
X11549Y155626D01*
X11512Y155659D01*
X11494Y155676D01*
Y155676D01*
X11476Y155693D01*
X11442Y155726D01*
X11408Y155761D01*
X11375Y155796D01*
X11359Y155813D01*
X11359Y155813D01*
X11343Y155830D01*
X11312Y155865D01*
X11282Y155901D01*
X11253Y155937D01*
X11239Y155956D01*
X11239Y155956D01*
X11226Y155973D01*
X11200Y156009D01*
X11174Y156045D01*
X11150Y156082D01*
X11138Y156101D01*
X11138Y156101D01*
X11138Y156102D01*
X11138Y156102D01*
X11137Y156103D01*
X11137Y156103D01*
X11126Y156121D01*
X11104Y156159D01*
X11083Y156197D01*
X11063Y156236D01*
X11054Y156255D01*
X11054Y156255D01*
X11054Y156255D01*
X11054Y156255D01*
X11054Y156256D01*
X11054Y156256D01*
X11054Y156255D01*
X11054Y156255D01*
X11054Y156255D01*
X11054Y156255D01*
Y156255D01*
X11054Y156256D01*
X11036Y156292D01*
X11006Y156367D01*
X10982Y156444D01*
X10963Y156523D01*
X10956Y156563D01*
X10956Y156563D01*
X10956Y156563D01*
X10956Y156564D01*
X10956Y156564D01*
X10956Y156564D01*
X10953Y156583D01*
X10948Y156622D01*
X10945Y156660D01*
X10944Y156699D01*
X10944Y156718D01*
Y156718D01*
X10944Y156737D01*
X10946Y156775D01*
X10950Y156812D01*
X10955Y156850D01*
X10959Y156868D01*
X10959Y156868D01*
X10959Y156868D01*
X10959Y156869D01*
X10959Y156869D01*
X10959Y156869D01*
Y156869D01*
X10970Y156924D01*
X11008Y157030D01*
X11060Y157130D01*
X11127Y157222D01*
X11166Y157262D01*
X11166Y157262D01*
X11166Y157262D01*
X11167Y157263D01*
X11167Y157263D01*
X11167Y157263D01*
Y157263D01*
X11167Y157263D01*
X11167Y157263D01*
X11166Y157262D01*
X11179Y157276D01*
X11207Y157302D01*
X11235Y157327D01*
X11265Y157351D01*
X11280Y157362D01*
X11280Y157362D01*
X11281Y157362D01*
X11281Y157363D01*
X11282Y157363D01*
X11282Y157363D01*
X11282D01*
Y157363D01*
X11298Y157375D01*
X11331Y157397D01*
X11365Y157418D01*
X11399Y157438D01*
X11417Y157447D01*
X11417Y157447D01*
X11417Y157448D01*
X11417Y157448D01*
X11418Y157448D01*
X11418Y157448D01*
X11419Y157448D01*
Y157448D01*
X11437Y157458D01*
X11474Y157476D01*
X11512Y157492D01*
X11550Y157508D01*
X11569Y157515D01*
X11569Y157515D01*
X11569Y157515D01*
X11569Y157515D01*
X11570Y157515D01*
X11570Y157515D01*
X11570Y157515D01*
X11611Y157530D01*
X11696Y157556D01*
X11781Y157577D01*
X11868Y157593D01*
X11912Y157599D01*
X11935Y157603D01*
X11981Y157608D01*
X12026Y157613D01*
X12072Y157616D01*
X12096Y157617D01*
D01*
X12120Y157619D01*
X12168Y157620D01*
X12216Y157621D01*
X12264Y157621D01*
D02*
G37*
G36*
X12096Y157617D02*
X12096D01*
X12096Y157617D01*
X12096Y157617D01*
D02*
G37*
G36*
X-11986Y157609D02*
X-11986Y157609D01*
Y157609D01*
X-11986Y157609D01*
D02*
G37*
G36*
X-11726Y157566D02*
X-11726Y157566D01*
X-11726D01*
X-11726Y157566D01*
D02*
G37*
G36*
X13109Y157492D02*
X13109Y157492D01*
X13109Y157492D01*
X13109Y157492D01*
D02*
G37*
G36*
X-11489Y157488D02*
X-11489Y157488D01*
X-11489D01*
X-11489Y157488D01*
D02*
G37*
G36*
X13531Y157346D02*
X13531Y157346D01*
X13531Y157346D01*
X13531Y157346D01*
D02*
G37*
G36*
X-12162Y157620D02*
X-12092Y157618D01*
X-12021Y157613D01*
X-11986Y157609D01*
D01*
X-11953Y157606D01*
X-11888Y157598D01*
X-11823Y157587D01*
X-11758Y157574D01*
X-11726Y157566D01*
X-11726Y157566D01*
X-11695Y157559D01*
X-11636Y157542D01*
X-11576Y157522D01*
X-11518Y157500D01*
X-11489Y157488D01*
X-11489Y157488D01*
X-11462Y157476D01*
X-11408Y157450D01*
X-11356Y157421D01*
X-11306Y157389D01*
X-11281Y157372D01*
X-11281D01*
Y157372D01*
X-11281Y157372D01*
X-11281D01*
X-11257Y157355D01*
X-11212Y157318D01*
X-11169Y157278D01*
X-11129Y157236D01*
X-11110Y157213D01*
X-11110Y157213D01*
X-11110Y157213D01*
X-11110Y157213D01*
X-11110Y157213D01*
X-11110Y157213D01*
X-11091Y157190D01*
X-11057Y157142D01*
X-11027Y157091D01*
X-11001Y157039D01*
X-10989Y157011D01*
X-10989Y157011D01*
X-10989D01*
X-10975Y156975D01*
X-10953Y156902D01*
X-10939Y156828D01*
X-10931Y156752D01*
Y156714D01*
Y156713D01*
X-10931Y156713D01*
Y156712D01*
Y156711D01*
X-10931D01*
Y156711D01*
X-10931Y156711D01*
Y156711D01*
Y156711D01*
X-10931Y156711D01*
D01*
Y156692D01*
X-10933Y156654D01*
X-10936Y156615D01*
X-10941Y156577D01*
X-10944Y156558D01*
X-10948Y156539D01*
X-10956Y156500D01*
X-10965Y156462D01*
X-10976Y156424D01*
X-10982Y156405D01*
X-10982Y156405D01*
Y156405D01*
X-10982Y156405D01*
X-10982Y156405D01*
X-10988Y156386D01*
X-11002Y156348D01*
X-11017Y156310D01*
X-11033Y156273D01*
X-11042Y156255D01*
X-11042D01*
X-11042Y156255D01*
X-11042Y156255D01*
D01*
X-11051Y156236D01*
X-11070Y156198D01*
X-11090Y156161D01*
X-11112Y156124D01*
X-11123Y156106D01*
X-11123Y156106D01*
X-11134Y156088D01*
X-11158Y156051D01*
X-11183Y156014D01*
X-11209Y155979D01*
X-11223Y155961D01*
X-11223Y155961D01*
X-11237Y155943D01*
X-11265Y155906D01*
X-11295Y155871D01*
X-11326Y155836D01*
X-11341Y155818D01*
X-11341Y155818D01*
X-11341Y155819D01*
X-11341D01*
X-11341Y155818D01*
X-11357Y155800D01*
X-11391Y155765D01*
X-11425Y155730D01*
X-11460Y155696D01*
X-11478Y155680D01*
X-11478Y155680D01*
X-11496Y155662D01*
X-11534Y155628D01*
X-11573Y155594D01*
X-11611Y155561D01*
X-11631Y155545D01*
X-11632Y155545D01*
X-11632Y155544D01*
X-11633Y155544D01*
X-11633Y155543D01*
X-11633Y155543D01*
X-11631Y155545D01*
X-11632Y155544D01*
Y155544D01*
X-11632Y155544D01*
X-11632Y155544D01*
X-11633Y155544D01*
X-11633Y155543D01*
X-11633Y155543D01*
X-11696Y155493D01*
X-11825Y155398D01*
X-11958Y155309D01*
X-12095Y155227D01*
X-12166Y155189D01*
X-12308Y155111D01*
X-12607Y154979D01*
X-12916Y154872D01*
X-13233Y154792D01*
X-13395Y154765D01*
Y154765D01*
X-13395Y154765D01*
X-13395Y154765D01*
X-13395Y154765D01*
X-13396Y154765D01*
X-13396Y154765D01*
Y154765D01*
X-13422Y154761D01*
X-13474Y154753D01*
X-13527Y154747D01*
X-13579Y154741D01*
X-13605Y154738D01*
X-13605Y154738D01*
X-13654Y154734D01*
X-13753Y154728D01*
X-13853Y154726D01*
X-13952Y154728D01*
X-14002Y154730D01*
X-14002Y154730D01*
X-14002D01*
X-14002Y154730D01*
X-14002Y154730D01*
X-14002Y154730D01*
X-14003Y154730D01*
X-14002Y154730D01*
X-14003Y154730D01*
X-14003Y154731D01*
X-14004Y154731D01*
X-14004Y154731D01*
X-14027Y154732D01*
X-14073Y154736D01*
X-14120Y154740D01*
X-14166Y154746D01*
X-14188Y154749D01*
X-14188Y154749D01*
X-14210Y154753D01*
X-14254Y154760D01*
X-14297Y154768D01*
X-14340Y154778D01*
X-14362Y154783D01*
X-14362Y154783D01*
X-14362D01*
X-14382Y154788D01*
X-14423Y154799D01*
X-14463Y154812D01*
X-14503Y154825D01*
X-14523Y154832D01*
X-14523Y154832D01*
X-14542Y154840D01*
X-14580Y154855D01*
X-14617Y154871D01*
X-14653Y154889D01*
X-14672Y154898D01*
X-14671Y154898D01*
X-14671D01*
X-14689Y154907D01*
X-14723Y154927D01*
X-14757Y154947D01*
X-14789Y154969D01*
X-14805Y154981D01*
X-14805Y154981D01*
X-14821Y154992D01*
X-14851Y155016D01*
X-14880Y155041D01*
X-14908Y155068D01*
X-14922Y155081D01*
X-14922Y155081D01*
X-14935Y155095D01*
X-14961Y155124D01*
X-14985Y155153D01*
X-15008Y155184D01*
X-15018Y155200D01*
X-15018Y155200D01*
X-15018Y155200D01*
X-15018Y155200D01*
X-15018Y155200D01*
X-15018Y155200D01*
X-15018Y155200D01*
X-15029Y155216D01*
X-15049Y155249D01*
X-15067Y155283D01*
X-15083Y155318D01*
X-15090Y155336D01*
X-15090D01*
X-15090Y155336D01*
X-15091Y155337D01*
X-15091Y155337D01*
X-15091Y155338D01*
X-15091Y155338D01*
X-15091D01*
X-15113Y155393D01*
X-15140Y155507D01*
X-15151Y155624D01*
X-15145Y155741D01*
X-15134Y155798D01*
X-15134Y155799D01*
X-15134Y155799D01*
X-15134Y155799D01*
X-15134Y155799D01*
X-15134Y155800D01*
X-15134Y155800D01*
X-15134Y155800D01*
X-15134Y155800D01*
X-15129Y155828D01*
X-15115Y155886D01*
X-15099Y155943D01*
X-15079Y155999D01*
X-15067Y156026D01*
X-15067Y156026D01*
X-15055Y156055D01*
X-15029Y156112D01*
X-15001Y156167D01*
X-14970Y156221D01*
X-14953Y156248D01*
Y156248D01*
X-14953Y156247D01*
X-14953D01*
X-14953Y156248D01*
X-14936Y156275D01*
X-14898Y156330D01*
X-14860Y156384D01*
X-14819Y156436D01*
X-14797Y156461D01*
X-14797Y156461D01*
X-14775Y156488D01*
X-14728Y156540D01*
X-14680Y156592D01*
X-14630Y156641D01*
X-14604Y156665D01*
X-14605Y156665D01*
X-14578Y156691D01*
X-14522Y156741D01*
X-14465Y156789D01*
X-14407Y156836D01*
X-14377Y156859D01*
X-14378Y156859D01*
X-14378D01*
X-14346Y156883D01*
X-14283Y156929D01*
X-14218Y156974D01*
X-14152Y157018D01*
X-14119Y157039D01*
X-14119Y157039D01*
X-14119Y157039D01*
X-14119Y157039D01*
X-14119Y157039D01*
X-14119Y157039D01*
X-14119D01*
X-14047Y157084D01*
X-13900Y157167D01*
X-13750Y157244D01*
X-13597Y157314D01*
X-13519Y157346D01*
X-13520Y157346D01*
X-13405Y157393D01*
X-13171Y157472D01*
X-12932Y157536D01*
X-12689Y157583D01*
X-12566Y157599D01*
X-12565Y157599D01*
X-12528Y157604D01*
X-12454Y157611D01*
X-12379Y157616D01*
X-12304Y157620D01*
X-12267Y157620D01*
X-12267D01*
X-12232Y157621D01*
X-12162Y157620D01*
D02*
G37*
G36*
X14611Y156671D02*
X14611D01*
X14611Y156672D01*
X14611Y156671D01*
D02*
G37*
G36*
X14746Y156535D02*
Y156535D01*
X14746Y156535D01*
X14746Y156535D01*
D02*
G37*
G36*
X-11223Y155961D02*
X-11223Y155961D01*
X-11223D01*
X-11223Y155961D01*
D02*
G37*
G36*
X-15134Y155799D02*
X-15134Y155799D01*
X-15134Y155799D01*
X-15134Y155799D01*
X-15134Y155799D01*
X-15134Y155800D01*
X-15134Y155799D01*
D02*
G37*
G36*
X15145Y155479D02*
X15145D01*
X15145Y155479D01*
Y155479D01*
D02*
G37*
G36*
X14483Y129987D02*
X13583Y128961D01*
X13588D01*
X13604Y128955D01*
X13632Y128950D01*
X13670Y128944D01*
X13714Y128933D01*
X13763Y128917D01*
X13817Y128900D01*
X13877Y128879D01*
X14008Y128824D01*
X14145Y128759D01*
X14270Y128671D01*
X14331Y128622D01*
X14385Y128567D01*
X14391Y128562D01*
X14396Y128551D01*
X14412Y128535D01*
X14429Y128513D01*
X14451Y128486D01*
X14472Y128447D01*
X14500Y128404D01*
X14527Y128360D01*
X14576Y128251D01*
X14620Y128120D01*
X14653Y127978D01*
X14658Y127896D01*
X14664Y127814D01*
Y127808D01*
Y127797D01*
Y127781D01*
Y127754D01*
X14658Y127726D01*
X14653Y127688D01*
X14642Y127601D01*
X14620Y127503D01*
X14587Y127393D01*
X14538Y127284D01*
X14478Y127170D01*
Y127164D01*
X14467Y127159D01*
X14462Y127142D01*
X14445Y127120D01*
X14402Y127071D01*
X14342Y127006D01*
X14265Y126929D01*
X14167Y126853D01*
X14052Y126777D01*
X13921Y126706D01*
X13916D01*
X13905Y126700D01*
X13883Y126689D01*
X13856Y126678D01*
X13817Y126667D01*
X13774Y126651D01*
X13724Y126635D01*
X13670Y126618D01*
X13604Y126602D01*
X13533Y126585D01*
X13462Y126569D01*
X13381Y126558D01*
X13206Y126536D01*
X13009Y126531D01*
X12938D01*
X12900Y126536D01*
X12856D01*
X12802Y126542D01*
X12747Y126547D01*
X12622Y126558D01*
X12480Y126575D01*
X12332Y126602D01*
X12179Y126640D01*
X12174D01*
X12163Y126646D01*
X12141Y126651D01*
X12114Y126662D01*
X12076Y126673D01*
X12037Y126684D01*
X11945Y126722D01*
X11835Y126766D01*
X11721Y126820D01*
X11601Y126880D01*
X11491Y126951D01*
X11846Y127661D01*
X11857Y127656D01*
X11885Y127634D01*
X11934Y127601D01*
X11999Y127563D01*
X12076Y127519D01*
X12168Y127475D01*
X12267Y127432D01*
X12376Y127393D01*
X12381D01*
X12392Y127388D01*
X12403Y127383D01*
X12431Y127377D01*
X12485Y127366D01*
X12567Y127350D01*
X12660Y127328D01*
X12758Y127317D01*
X12873Y127306D01*
X12987Y127301D01*
X13047D01*
X13107Y127306D01*
X13189Y127317D01*
X13277Y127333D01*
X13364Y127355D01*
X13452Y127388D01*
X13533Y127432D01*
X13544Y127437D01*
X13566Y127459D01*
X13599Y127486D01*
X13637Y127530D01*
X13670Y127585D01*
X13703Y127650D01*
X13724Y127726D01*
X13735Y127814D01*
Y127819D01*
Y127836D01*
X13730Y127858D01*
X13724Y127890D01*
X13714Y127929D01*
X13697Y127972D01*
X13675Y128016D01*
X13643Y128060D01*
X13604Y128103D01*
X13555Y128152D01*
X13495Y128191D01*
X13419Y128229D01*
X13337Y128262D01*
X13233Y128284D01*
X13118Y128300D01*
X12987Y128305D01*
X12567D01*
Y128911D01*
X13386Y129845D01*
X11688D01*
Y130582D01*
X14483D01*
Y129987D01*
D02*
G37*
G36*
X17263Y130577D02*
X17317D01*
X17383Y130571D01*
X17459Y130560D01*
X17541Y130549D01*
X17628Y130538D01*
X17721Y130522D01*
X17912Y130478D01*
X18109Y130413D01*
X18207Y130375D01*
X18300Y130331D01*
X18305D01*
X18322Y130320D01*
X18349Y130304D01*
X18382Y130287D01*
X18426Y130260D01*
X18475Y130227D01*
X18584Y130151D01*
X18710Y130052D01*
X18841Y129932D01*
X18966Y129796D01*
X19075Y129638D01*
X19081Y129632D01*
X19086Y129616D01*
X19103Y129594D01*
X19119Y129561D01*
X19141Y129517D01*
X19163Y129463D01*
X19190Y129403D01*
X19217Y129337D01*
X19239Y129266D01*
X19266Y129184D01*
X19288Y129097D01*
X19310Y129004D01*
X19343Y128808D01*
X19348Y128698D01*
X19354Y128589D01*
Y128584D01*
Y128562D01*
Y128529D01*
X19348Y128491D01*
X19343Y128436D01*
X19337Y128376D01*
X19332Y128305D01*
X19321Y128234D01*
X19288Y128070D01*
X19239Y127890D01*
X19206Y127803D01*
X19168Y127710D01*
X19124Y127623D01*
X19075Y127535D01*
X19070Y127530D01*
X19064Y127514D01*
X19048Y127492D01*
X19026Y127464D01*
X18999Y127426D01*
X18961Y127383D01*
X18922Y127333D01*
X18879Y127279D01*
X18824Y127224D01*
X18764Y127170D01*
X18704Y127110D01*
X18633Y127055D01*
X18557Y126995D01*
X18480Y126940D01*
X18393Y126891D01*
X18300Y126842D01*
X18294D01*
X18278Y126831D01*
X18251Y126820D01*
X18213Y126804D01*
X18164Y126787D01*
X18109Y126766D01*
X18043Y126744D01*
X17972Y126722D01*
X17890Y126695D01*
X17803Y126673D01*
X17705Y126651D01*
X17607Y126635D01*
X17503Y126618D01*
X17388Y126607D01*
X17274Y126602D01*
X17153Y126596D01*
X15341D01*
Y130582D01*
X17219D01*
X17263Y130577D01*
D02*
G37*
G36*
X11022Y126596D02*
X10099D01*
Y130582D01*
X11022D01*
Y126596D01*
D02*
G37*
G36*
X7773Y130577D02*
X7828Y130571D01*
X7888Y130566D01*
X7953Y130560D01*
X8095Y130538D01*
X8254Y130511D01*
X8406Y130467D01*
X8559Y130407D01*
X8565D01*
X8576Y130402D01*
X8598Y130391D01*
X8625Y130375D01*
X8658Y130358D01*
X8696Y130336D01*
X8783Y130282D01*
X8882Y130211D01*
X8980Y130123D01*
X9073Y130020D01*
X9160Y129905D01*
Y129900D01*
X9171Y129889D01*
X9182Y129872D01*
X9193Y129850D01*
X9209Y129818D01*
X9225Y129780D01*
X9247Y129736D01*
X9269Y129687D01*
X9307Y129578D01*
X9340Y129446D01*
X9362Y129299D01*
X9373Y129135D01*
Y129130D01*
Y129113D01*
Y129092D01*
X9367Y129059D01*
Y129021D01*
X9362Y128977D01*
X9346Y128873D01*
X9324Y128753D01*
X9285Y128627D01*
X9231Y128496D01*
X9160Y128371D01*
Y128365D01*
X9149Y128354D01*
X9138Y128338D01*
X9122Y128316D01*
X9073Y128262D01*
X9007Y128191D01*
X8920Y128109D01*
X8816Y128027D01*
X8690Y127945D01*
X8554Y127874D01*
X9444Y126596D01*
X8456D01*
X7686Y127705D01*
X6834D01*
Y126596D01*
X5911D01*
Y130582D01*
X7724D01*
X7773Y130577D01*
D02*
G37*
G36*
X5283Y129845D02*
X3192D01*
Y128786D01*
X5043D01*
Y128049D01*
X3192D01*
Y126596D01*
X2269D01*
Y130582D01*
X5283D01*
Y129845D01*
D02*
G37*
G36*
X4260Y125728D02*
X4314Y125723D01*
X4374Y125717D01*
X4440Y125712D01*
X4587Y125690D01*
X4740Y125657D01*
X4904Y125608D01*
X5062Y125548D01*
X5068D01*
X5079Y125537D01*
X5100Y125532D01*
X5133Y125515D01*
X5171Y125493D01*
X5210Y125472D01*
X5308Y125417D01*
X5423Y125340D01*
X5537Y125253D01*
X5657Y125144D01*
X5772Y125024D01*
X5177Y124478D01*
X5171Y124483D01*
X5161Y124500D01*
X5133Y124522D01*
X5106Y124549D01*
X5068Y124587D01*
X5018Y124625D01*
X4964Y124669D01*
X4898Y124713D01*
X4833Y124756D01*
X4756Y124800D01*
X4669Y124838D01*
X4582Y124876D01*
X4489Y124904D01*
X4391Y124926D01*
X4281Y124942D01*
X4172Y124947D01*
X4112D01*
X4079Y124942D01*
X4041Y124936D01*
X3948Y124926D01*
X3850Y124909D01*
X3735Y124876D01*
X3621Y124838D01*
X3512Y124784D01*
X3506D01*
X3501Y124778D01*
X3484Y124767D01*
X3462Y124756D01*
X3413Y124718D01*
X3348Y124663D01*
X3271Y124603D01*
X3200Y124522D01*
X3124Y124434D01*
X3058Y124330D01*
Y124325D01*
X3053Y124320D01*
X3042Y124303D01*
X3031Y124281D01*
X3020Y124254D01*
X3009Y124221D01*
X2977Y124139D01*
X2949Y124041D01*
X2922Y123932D01*
X2900Y123806D01*
X2895Y123670D01*
Y123664D01*
Y123653D01*
Y123632D01*
X2900Y123610D01*
Y123577D01*
X2905Y123539D01*
X2916Y123446D01*
X2933Y123348D01*
X2966Y123233D01*
X3004Y123118D01*
X3058Y123009D01*
Y123004D01*
X3064Y122998D01*
X3075Y122982D01*
X3091Y122960D01*
X3124Y122911D01*
X3179Y122845D01*
X3239Y122769D01*
X3320Y122698D01*
X3408Y122621D01*
X3512Y122556D01*
X3517D01*
X3523Y122550D01*
X3539Y122539D01*
X3561Y122529D01*
X3588Y122518D01*
X3621Y122507D01*
X3703Y122474D01*
X3801Y122447D01*
X3910Y122419D01*
X4036Y122398D01*
X4172Y122392D01*
X4200D01*
X4232Y122398D01*
X4270D01*
X4325Y122408D01*
X4385Y122419D01*
X4451Y122430D01*
X4522Y122452D01*
X4598Y122479D01*
X4680Y122507D01*
X4767Y122545D01*
X4849Y122594D01*
X4937Y122649D01*
X5018Y122709D01*
X5100Y122785D01*
X5177Y122867D01*
X5772Y122316D01*
X5767Y122310D01*
X5761Y122299D01*
X5745Y122283D01*
X5723Y122261D01*
X5690Y122228D01*
X5657Y122196D01*
X5576Y122119D01*
X5472Y122037D01*
X5352Y121950D01*
X5215Y121868D01*
X5062Y121792D01*
X5057D01*
X5046Y121786D01*
X5018Y121775D01*
X4991Y121764D01*
X4948Y121748D01*
X4904Y121737D01*
X4849Y121721D01*
X4789Y121704D01*
X4718Y121682D01*
X4647Y121666D01*
X4489Y121639D01*
X4314Y121617D01*
X4123Y121611D01*
X4063D01*
X4019Y121617D01*
X3965D01*
X3905Y121628D01*
X3834Y121633D01*
X3757Y121644D01*
X3675Y121660D01*
X3583Y121677D01*
X3402Y121721D01*
X3211Y121786D01*
X3113Y121830D01*
X3020Y121873D01*
X3015Y121879D01*
X2998Y121884D01*
X2971Y121901D01*
X2938Y121923D01*
X2900Y121950D01*
X2851Y121983D01*
X2796Y122021D01*
X2742Y122064D01*
X2676Y122114D01*
X2616Y122168D01*
X2485Y122294D01*
X2359Y122441D01*
X2245Y122605D01*
X2239Y122610D01*
X2234Y122627D01*
X2218Y122654D01*
X2201Y122687D01*
X2179Y122731D01*
X2158Y122785D01*
X2130Y122845D01*
X2103Y122916D01*
X2076Y122987D01*
X2048Y123069D01*
X2026Y123162D01*
X2005Y123255D01*
X1972Y123451D01*
X1966Y123561D01*
X1961Y123670D01*
Y123675D01*
Y123697D01*
Y123730D01*
X1966Y123768D01*
X1972Y123823D01*
X1977Y123883D01*
X1983Y123948D01*
X1999Y124025D01*
X2010Y124101D01*
X2032Y124188D01*
X2081Y124363D01*
X2114Y124456D01*
X2152Y124549D01*
X2196Y124642D01*
X2245Y124729D01*
X2250Y124734D01*
X2256Y124751D01*
X2272Y124773D01*
X2300Y124805D01*
X2327Y124849D01*
X2359Y124893D01*
X2403Y124942D01*
X2447Y125002D01*
X2502Y125057D01*
X2561Y125117D01*
X2622Y125177D01*
X2693Y125242D01*
X2846Y125357D01*
X3020Y125466D01*
X3026Y125472D01*
X3042Y125477D01*
X3069Y125493D01*
X3108Y125510D01*
X3151Y125526D01*
X3206Y125554D01*
X3271Y125575D01*
X3342Y125603D01*
X3424Y125624D01*
X3506Y125652D01*
X3599Y125674D01*
X3697Y125690D01*
X3905Y125723D01*
X4014Y125728D01*
X4129Y125734D01*
X4216D01*
X4260Y125728D01*
D02*
G37*
G36*
X15256Y121677D02*
X14388D01*
X14382Y124068D01*
X13208Y122097D01*
X12794D01*
X11625Y124019D01*
Y121677D01*
X10757D01*
Y125663D01*
X11521D01*
X13017Y123184D01*
X14486Y125663D01*
X15245D01*
X15256Y121677D01*
D02*
G37*
G36*
X18063Y125657D02*
X18117Y125652D01*
X18177Y125646D01*
X18243Y125641D01*
X18385Y125619D01*
X18543Y125592D01*
X18696Y125548D01*
X18849Y125488D01*
X18854D01*
X18865Y125482D01*
X18887Y125472D01*
X18914Y125455D01*
X18947Y125439D01*
X18985Y125417D01*
X19073Y125362D01*
X19171Y125291D01*
X19269Y125204D01*
X19362Y125100D01*
X19449Y124986D01*
Y124980D01*
X19460Y124969D01*
X19471Y124953D01*
X19482Y124931D01*
X19499Y124898D01*
X19515Y124860D01*
X19537Y124816D01*
X19558Y124767D01*
X19597Y124658D01*
X19629Y124527D01*
X19651Y124380D01*
X19662Y124216D01*
Y124210D01*
Y124194D01*
Y124172D01*
X19657Y124145D01*
Y124107D01*
X19651Y124063D01*
X19635Y123959D01*
X19613Y123839D01*
X19575Y123708D01*
X19520Y123577D01*
X19449Y123451D01*
Y123446D01*
X19438Y123435D01*
X19428Y123419D01*
X19411Y123397D01*
X19362Y123337D01*
X19296Y123266D01*
X19209Y123184D01*
X19111Y123102D01*
X18985Y123020D01*
X18849Y122949D01*
X18843D01*
X18832Y122944D01*
X18811Y122933D01*
X18778Y122922D01*
X18745Y122911D01*
X18696Y122894D01*
X18647Y122878D01*
X18587Y122862D01*
X18521Y122845D01*
X18456Y122829D01*
X18379Y122812D01*
X18297Y122802D01*
X18117Y122780D01*
X17926Y122774D01*
X17123D01*
Y121677D01*
X16201D01*
Y125663D01*
X18013D01*
X18063Y125657D01*
D02*
G37*
G36*
X10342Y121677D02*
X9370D01*
X9015Y122529D01*
X7164D01*
X6809Y121677D01*
X5870D01*
X7645Y125663D01*
X8557D01*
X10342Y121677D01*
D02*
G37*
%LPC*%
G36*
X12288Y157620D02*
X12288Y157620D01*
X12288D01*
X12289Y157620D01*
X12289Y157620D01*
X12288Y157620D01*
D02*
G37*
G36*
X11054Y156255D02*
X11055Y156254D01*
X11055Y156254D01*
X11055Y156254D01*
X11054Y156255D01*
D02*
G37*
G36*
X11137Y156103D02*
Y156103D01*
X11137Y156103D01*
X11137Y156103D01*
X11138Y156101D01*
X11138Y156101D01*
X11138Y156101D01*
X11138D01*
X11138Y156101D01*
X11138Y156102D01*
X11138Y156102D01*
X11137Y156103D01*
X11137Y156103D01*
X11137Y156103D01*
D02*
G37*
G36*
X11494Y155676D02*
D01*
X11494Y155676D01*
X11494Y155676D01*
D02*
G37*
G36*
X15145Y155479D02*
D01*
Y155479D01*
Y155479D01*
D02*
G37*
G36*
X12573Y155002D02*
Y155002D01*
X12573Y155001D01*
X12573Y155002D01*
D02*
G37*
G36*
X12995Y154856D02*
Y154856D01*
X12996Y154856D01*
X12995Y154856D01*
D02*
G37*
G36*
X13416Y154764D02*
X13416Y154764D01*
X13416D01*
X13416Y154764D01*
D02*
G37*
G36*
X14194Y154749D02*
X14193Y154748D01*
Y154748D01*
X14193Y154748D01*
X14194Y154749D01*
D02*
G37*
G36*
X13815Y154727D02*
X13814D01*
X13815Y154727D01*
X13815Y154727D01*
X13816Y154727D01*
X13816Y154727D01*
X13816D01*
X13815Y154727D01*
X13815Y154727D01*
D02*
G37*
G36*
X-14797Y156461D02*
X-14798Y156461D01*
X-14797D01*
X-14797Y156461D01*
D02*
G37*
G36*
X-11123Y156107D02*
X-11123Y156106D01*
X-11123Y156106D01*
Y156107D01*
D02*
G37*
G36*
X-15134Y155799D02*
X-15134Y155799D01*
X-15134Y155798D01*
X-15134Y155799D01*
D02*
G37*
G36*
X-12165Y155189D02*
X-12166Y155189D01*
X-12166Y155189D01*
X-12165Y155189D01*
D02*
G37*
G36*
X-14004Y154731D02*
X-14003Y154731D01*
X-14003Y154731D01*
X-14003Y154730D01*
X-14004Y154731D01*
D02*
G37*
G36*
X17110Y129823D02*
X16263D01*
Y127350D01*
X17170D01*
X17208Y127355D01*
X17257Y127361D01*
X17317Y127366D01*
X17383Y127377D01*
X17454Y127393D01*
X17601Y127432D01*
X17683Y127459D01*
X17760Y127492D01*
X17841Y127530D01*
X17918Y127574D01*
X17989Y127623D01*
X18060Y127683D01*
X18065Y127688D01*
X18076Y127699D01*
X18092Y127716D01*
X18114Y127743D01*
X18142Y127781D01*
X18174Y127819D01*
X18207Y127868D01*
X18240Y127923D01*
X18273Y127983D01*
X18305Y128054D01*
X18338Y128125D01*
X18365Y128207D01*
X18387Y128294D01*
X18404Y128387D01*
X18415Y128486D01*
X18420Y128589D01*
Y128595D01*
Y128616D01*
Y128644D01*
X18415Y128682D01*
X18409Y128731D01*
X18404Y128786D01*
X18393Y128846D01*
X18376Y128917D01*
X18333Y129059D01*
X18305Y129135D01*
X18267Y129212D01*
X18229Y129283D01*
X18180Y129354D01*
X18125Y129425D01*
X18060Y129490D01*
X18054Y129496D01*
X18043Y129507D01*
X18022Y129523D01*
X17994Y129545D01*
X17962Y129567D01*
X17918Y129594D01*
X17863Y129627D01*
X17809Y129659D01*
X17743Y129687D01*
X17672Y129719D01*
X17596Y129747D01*
X17508Y129774D01*
X17421Y129790D01*
X17323Y129807D01*
X17219Y129818D01*
X17110Y129823D01*
D02*
G37*
G36*
X7587Y129829D02*
X6834D01*
Y128442D01*
X7626D01*
X7659Y128447D01*
X7691D01*
X7729Y128453D01*
X7822Y128464D01*
X7926Y128486D01*
X8030Y128518D01*
X8134Y128562D01*
X8221Y128622D01*
X8232Y128633D01*
X8254Y128655D01*
X8292Y128698D01*
X8330Y128759D01*
X8368Y128830D01*
X8406Y128917D01*
X8428Y129021D01*
X8439Y129135D01*
Y129141D01*
Y129152D01*
Y129168D01*
X8434Y129190D01*
X8428Y129250D01*
X8412Y129326D01*
X8385Y129408D01*
X8346Y129496D01*
X8292Y129578D01*
X8221Y129648D01*
X8210Y129654D01*
X8183Y129676D01*
X8128Y129703D01*
X8062Y129741D01*
X7970Y129774D01*
X7861Y129801D01*
X7735Y129823D01*
X7587Y129829D01*
D02*
G37*
G36*
X17877Y124909D02*
X17123D01*
Y123528D01*
X17915D01*
X17948Y123533D01*
X17981D01*
X18019Y123539D01*
X18112Y123550D01*
X18215Y123572D01*
X18319Y123604D01*
X18423Y123648D01*
X18510Y123708D01*
X18521Y123719D01*
X18543Y123741D01*
X18581Y123784D01*
X18619Y123839D01*
X18658Y123910D01*
X18696Y123997D01*
X18718Y124101D01*
X18729Y124216D01*
Y124221D01*
Y124232D01*
Y124249D01*
X18723Y124270D01*
X18718Y124330D01*
X18701Y124407D01*
X18674Y124489D01*
X18636Y124576D01*
X18581Y124658D01*
X18510Y124729D01*
X18499Y124734D01*
X18472Y124756D01*
X18417Y124784D01*
X18352Y124822D01*
X18259Y124855D01*
X18150Y124882D01*
X18024Y124904D01*
X17877Y124909D01*
D02*
G37*
G36*
X8093Y124756D02*
X7459Y123233D01*
X8726D01*
X8093Y124756D01*
D02*
G37*
G36*
X2242Y45272D02*
X6Y45271D01*
X6Y45271D01*
X-120Y45272D01*
X-370Y45244D01*
X-614Y45185D01*
X-850Y45096D01*
X-961Y45038D01*
X-1068Y44980D01*
X-1267Y44842D01*
X-1450Y44682D01*
X-1614Y44504D01*
X-1686Y44406D01*
X-1764Y44300D01*
X-1902Y44077D01*
X-2023Y43843D01*
X-2124Y43600D01*
X-2165Y43475D01*
X-2298Y43037D01*
X-2424Y42131D01*
X-2406Y41216D01*
X-2245Y40316D01*
X-2094Y39884D01*
X-2094Y39884D01*
X-2044Y39735D01*
X-1927Y39444D01*
X-1792Y39160D01*
X-1640Y38885D01*
X-1556Y38753D01*
X-1309Y38337D01*
X-615Y37663D01*
X228Y37190D01*
X1166Y36951D01*
X1649Y36957D01*
X1818Y36959D01*
X2154Y36977D01*
X2489Y37010D01*
X2822Y37058D01*
X2987Y37089D01*
X3173Y37124D01*
X3393Y37172D01*
X3544Y37205D01*
X3544Y37205D01*
X3911Y37297D01*
X3912Y37297D01*
X4276Y37400D01*
X4457Y37457D01*
X4457D01*
X4844Y37580D01*
X5607Y37860D01*
X6357Y38174D01*
X7091Y38522D01*
X7450Y38713D01*
X7450Y38713D01*
X7624Y38804D01*
X7966Y38995D01*
X7967Y38996D01*
X8306Y39195D01*
X8306Y39195D01*
X8406Y39257D01*
X8640Y39403D01*
X8804Y39510D01*
X8954Y39608D01*
X9247Y39811D01*
X9247Y39812D01*
X9534Y40024D01*
X9534Y40025D01*
X9814Y40245D01*
X9950Y40360D01*
X9950Y40360D01*
X9950Y40360D01*
X10067Y40457D01*
X10289Y40660D01*
X10290Y40661D01*
X10503Y40875D01*
X10503Y40875D01*
X10667Y41056D01*
X10699Y41091D01*
X10699Y41091D01*
X10706Y41099D01*
X10706Y41099D01*
X10749Y41151D01*
X10749Y41151D01*
X10803Y41216D01*
X10803Y41216D01*
X10879Y41307D01*
X10880Y41307D01*
X11016Y41501D01*
X11016Y41501D01*
X11135Y41706D01*
X11136Y41707D01*
X11236Y41921D01*
X11276Y42033D01*
X11277Y42033D01*
X11277Y42033D01*
X11348Y42219D01*
X11346Y42617D01*
X11346Y42617D01*
X11200Y42988D01*
Y42988D01*
X10929Y43280D01*
X10749Y43367D01*
X10507Y43517D01*
X10008Y43792D01*
X9497Y44042D01*
X8972Y44265D01*
X8705Y44363D01*
X8576Y44410D01*
X8317Y44499D01*
X8055Y44582D01*
X7792Y44659D01*
X7660Y44695D01*
X7528Y44730D01*
X7265Y44795D01*
X7000Y44855D01*
X6734Y44910D01*
X6600Y44935D01*
X6600Y44935D01*
X6466Y44960D01*
X6199Y45005D01*
X5931Y45046D01*
X5662Y45083D01*
X5527Y45099D01*
X5392Y45115D01*
X5121Y45143D01*
X4850Y45169D01*
X4578Y45190D01*
X4306Y45209D01*
X4032Y45224D01*
X3758Y45238D01*
X3484Y45248D01*
X3347Y45252D01*
X3209Y45257D01*
X2933Y45263D01*
X2656Y45268D01*
X2380Y45272D01*
X2242Y45272D01*
D02*
G37*
G36*
X867907Y-152658D02*
X859890D01*
Y-152945D01*
Y-153231D01*
Y-153517D01*
Y-153804D01*
Y-154090D01*
X859604D01*
Y-154376D01*
Y-154663D01*
Y-154949D01*
Y-155235D01*
Y-155521D01*
Y-155808D01*
X859317D01*
Y-156094D01*
Y-156380D01*
Y-156667D01*
Y-156953D01*
Y-157239D01*
Y-157526D01*
X859031D01*
Y-157812D01*
Y-158098D01*
Y-158385D01*
Y-158671D01*
Y-158957D01*
Y-159244D01*
X858745D01*
Y-159530D01*
Y-159816D01*
Y-160102D01*
Y-160389D01*
Y-160675D01*
Y-160961D01*
Y-161248D01*
X858458D01*
Y-161534D01*
Y-161820D01*
Y-162107D01*
Y-162393D01*
Y-162679D01*
Y-162966D01*
X858172D01*
Y-163252D01*
Y-163538D01*
Y-163824D01*
X865330D01*
Y-163538D01*
X866475D01*
Y-163252D01*
X867048D01*
Y-162966D01*
X867334D01*
Y-162679D01*
X867620D01*
Y-162393D01*
X867907D01*
Y-162107D01*
X868193D01*
Y-161820D01*
Y-161534D01*
X868479D01*
Y-161248D01*
Y-160961D01*
X868766D01*
Y-160675D01*
Y-160389D01*
X869052D01*
Y-160102D01*
Y-159816D01*
Y-159530D01*
Y-159244D01*
X869338D01*
Y-158957D01*
Y-158671D01*
Y-158385D01*
Y-158098D01*
Y-157812D01*
X869625D01*
Y-157526D01*
Y-157239D01*
Y-156953D01*
Y-156667D01*
Y-156380D01*
Y-156094D01*
Y-155808D01*
Y-155521D01*
Y-155235D01*
Y-154949D01*
Y-154663D01*
X869338D01*
Y-154376D01*
Y-154090D01*
X869052D01*
Y-153804D01*
Y-153517D01*
X868766D01*
Y-153231D01*
X868479D01*
Y-152945D01*
X867907D01*
Y-152658D01*
D02*
G37*
%LPD*%
D10*
X39655Y156679D02*
G03*
X5801Y166932I-44568J-86143D01*
G01*
X-5757Y166953D02*
G03*
X-39611Y156700I10715J-96395D01*
G01*
X21729Y68162D02*
G03*
X21729Y81445I9767J6641D01*
G01*
X41339Y74803D02*
G03*
X41339Y74803I-9843J0D01*
G01*
X-21729Y81445D02*
G03*
X-21729Y68162I-9767J-6641D01*
G01*
X-21654Y74803D02*
G03*
X-21654Y74803I-9843J0D01*
G01*
X-7882Y121216D02*
X-5272Y126514D01*
X-12742Y131039D02*
X-11691Y128923D01*
X-4075Y128929D02*
X-3024Y131044D01*
X-10495Y126512D02*
X-7882Y121216D01*
X-13451Y126745D02*
X-7882Y121216D01*
X-12742Y131039D02*
X-2314Y126740D01*
X-7882Y121216D02*
X-2314Y126740D01*
X-13451Y126745D02*
X-3024Y131044D01*
X21654Y81496D02*
X21654Y68110D01*
X-21654Y68110D02*
Y81496D01*
X1178748Y-229571D02*
Y-190201D01*
X1021267Y-150831D02*
X1296858D01*
X1021267Y-190201D02*
X1296858D01*
X824417Y-229571D02*
X1296858D01*
X824417Y-111461D02*
X1296858D01*
X824417Y-268941D02*
Y-111461D01*
X1021267Y-268941D02*
Y-111461D01*
X-356685Y900350D02*
X1296858D01*
Y-268941D02*
Y900350D01*
X-356685Y-268941D02*
Y900350D01*
Y-268941D02*
X1296858D01*
X1035046Y-255164D02*
X1031110D01*
Y-258115D01*
X1033078D01*
X1031110D01*
Y-261067D01*
X1037014Y-257131D02*
Y-261067D01*
Y-259099D01*
X1037998Y-258115D01*
X1038981Y-257131D01*
X1039965D01*
X1042917Y-261067D02*
X1044885D01*
X1043901D01*
Y-257131D01*
X1042917D01*
X1047837Y-256147D02*
X1048821Y-255164D01*
X1050789D01*
X1051772Y-256147D01*
Y-257131D01*
X1050789Y-258115D01*
X1049805D01*
X1050789D01*
X1051772Y-259099D01*
Y-260083D01*
X1050789Y-261067D01*
X1048821D01*
X1047837Y-260083D01*
X1053740Y-255164D02*
Y-261067D01*
X1056692D01*
X1057676Y-260083D01*
Y-256147D01*
X1056692Y-255164D01*
X1053740D01*
X1059644Y-262051D02*
X1063580D01*
X1069483Y-261067D02*
X1065548D01*
X1069483Y-257131D01*
Y-256147D01*
X1068499Y-255164D01*
X1066531D01*
X1065548Y-256147D01*
X1071451D02*
X1072435Y-255164D01*
X1074403D01*
X1075387Y-256147D01*
Y-260083D01*
X1074403Y-261067D01*
X1072435D01*
X1071451Y-260083D01*
Y-256147D01*
X1077355Y-261067D02*
X1079323D01*
X1078339D01*
Y-255164D01*
X1077355Y-256147D01*
X1082275Y-260083D02*
X1083258Y-261067D01*
X1085226D01*
X1086210Y-260083D01*
Y-256147D01*
X1085226Y-255164D01*
X1083258D01*
X1082275Y-256147D01*
Y-257131D01*
X1083258Y-258115D01*
X1086210D01*
X1088178Y-262051D02*
X1092114D01*
X1098017Y-256147D02*
X1097034Y-255164D01*
X1095066D01*
X1094082Y-256147D01*
Y-257131D01*
X1095066Y-258115D01*
X1097034D01*
X1098017Y-259099D01*
Y-260083D01*
X1097034Y-261067D01*
X1095066D01*
X1094082Y-260083D01*
X1100969Y-261067D02*
X1102937D01*
X1103921Y-260083D01*
Y-258115D01*
X1102937Y-257131D01*
X1100969D01*
X1099985Y-258115D01*
Y-260083D01*
X1100969Y-261067D01*
X1105889D02*
X1107857D01*
X1106873D01*
Y-255164D01*
X1105889D01*
X1114744D02*
Y-261067D01*
X1111792D01*
X1110808Y-260083D01*
Y-258115D01*
X1111792Y-257131D01*
X1114744D01*
X1119664Y-261067D02*
X1117696D01*
X1116712Y-260083D01*
Y-258115D01*
X1117696Y-257131D01*
X1119664D01*
X1120648Y-258115D01*
Y-259099D01*
X1116712D01*
X1122616Y-257131D02*
Y-261067D01*
Y-259099D01*
X1123600Y-258115D01*
X1124584Y-257131D01*
X1125568D01*
X1128519Y-255164D02*
Y-261067D01*
X1131471D01*
X1132455Y-260083D01*
Y-259099D01*
X1131471Y-258115D01*
X1128519D01*
X1131471D01*
X1132455Y-257131D01*
Y-256147D01*
X1131471Y-255164D01*
X1128519D01*
X1135407Y-257131D02*
X1137375D01*
X1138359Y-258115D01*
Y-261067D01*
X1135407D01*
X1134423Y-260083D01*
X1135407Y-259099D01*
X1138359D01*
X1144262Y-255164D02*
Y-261067D01*
X1141311D01*
X1140326Y-260083D01*
Y-258115D01*
X1141311Y-257131D01*
X1144262D01*
X1148198Y-263035D02*
X1149182D01*
X1150166Y-262051D01*
Y-257131D01*
X1147214D01*
X1146230Y-258115D01*
Y-260083D01*
X1147214Y-261067D01*
X1150166D01*
X1155085D02*
X1153118D01*
X1152134Y-260083D01*
Y-258115D01*
X1153118Y-257131D01*
X1155085D01*
X1156069Y-258115D01*
Y-259099D01*
X1152134D01*
X1158037Y-262051D02*
X1161973D01*
X1163941Y-256147D02*
X1164925Y-255164D01*
X1166893D01*
X1167877Y-256147D01*
Y-260083D01*
X1166893Y-261067D01*
X1164925D01*
X1163941Y-260083D01*
Y-256147D01*
X1169845Y-261067D02*
X1171812D01*
X1170829D01*
Y-255164D01*
X1169845Y-256147D01*
X1174764Y-261067D02*
Y-260083D01*
X1175748D01*
Y-261067D01*
X1174764D01*
X1179684D02*
Y-255164D01*
X1182636D01*
X1183620Y-256147D01*
Y-258115D01*
X1182636Y-259099D01*
X1179684D01*
X1189523Y-257131D02*
X1186571D01*
X1185588Y-258115D01*
Y-260083D01*
X1186571Y-261067D01*
X1189523D01*
X1191491Y-255164D02*
Y-261067D01*
X1194443D01*
X1195427Y-260083D01*
Y-259099D01*
Y-258115D01*
X1194443Y-257131D01*
X1191491D01*
X1197395Y-255164D02*
Y-261067D01*
X1200346D01*
X1201330Y-260083D01*
Y-256147D01*
X1200346Y-255164D01*
X1197395D01*
X1204282Y-261067D02*
X1206250D01*
X1207234Y-260083D01*
Y-258115D01*
X1206250Y-257131D01*
X1204282D01*
X1203298Y-258115D01*
Y-260083D01*
X1204282Y-261067D01*
X1213138Y-257131D02*
X1210186D01*
X1209202Y-258115D01*
Y-260083D01*
X1210186Y-261067D01*
X1213138D01*
D11*
X-111Y176462D02*
G03*
X-10055Y167453I219J-10234D01*
G01*
X10099Y167432D02*
G03*
X155Y176442I-10163J-1224D01*
G01*
D12*
X42126Y74803D02*
G03*
X42126Y74803I-10630J0D01*
G01*
X-20866D02*
G03*
X-20866Y74803I-10630J0D01*
G01*
D13*
X-24512Y6543D02*
G03*
X24555Y6543I24533J42723D01*
G01*
X62998Y7868D02*
G03*
X55999Y26983I-24495J1871D01*
G01*
X-63881Y48302D02*
G03*
X-78719Y23622I44633J-43634D01*
G01*
X74809Y173228D02*
G03*
X39655Y156679I15198J-77899D01*
G01*
X90558Y51175D02*
G03*
X70501Y76336I-47910J-17616D01*
G01*
X-39627Y156685D02*
G03*
X-74782Y173234I-50353J-61350D01*
G01*
X-70473Y76342D02*
G03*
X-90530Y51181I27853J-42777D01*
G01*
X90558Y51175D02*
G03*
X63897Y48307I3682J-159583D01*
G01*
X78747Y23617D02*
G03*
X55999Y26983I-26577J-101038D01*
G01*
X62998Y7868D02*
G03*
X48188Y9657I-11477J-32805D01*
G01*
X-63869Y48313D02*
G03*
X-90530Y51181I-30343J-156715D01*
G01*
X-55972Y26989D02*
G03*
X-78719Y23622I3830J-104405D01*
G01*
X-24512Y6543D02*
G03*
X-48146Y9657I-67498J-420984D01*
G01*
X78747Y23617D02*
G03*
X63909Y48296I-59470J-18955D01*
G01*
X-55972Y26989D02*
G03*
X-62970Y7874I17496J-17245D01*
G01*
X48173Y9652D02*
G03*
X24540Y6538I43865J-424098D01*
G01*
X-48161Y9663D02*
G03*
X-62970Y7874I-3333J-34594D01*
G01*
X69011Y93228D02*
G03*
X73664Y135990I-97680J32264D01*
G01*
X-73636Y135996D02*
G03*
X-68983Y93234I102333J-10498D01*
G01*
X74809Y173228D02*
G03*
X73664Y135990I97809J-21644D01*
G01*
X70501Y76336D02*
G03*
X69011Y93228I-31925J5695D01*
G01*
X-73636Y135996D02*
G03*
X-74782Y173234I-98954J15594D01*
G01*
X-68983Y93234D02*
G03*
X-70473Y76342I30435J-11197D01*
G01*
D14*
X31102Y74016D02*
Y75590D01*
X31496Y74803D02*
X32283Y75590D01*
Y74016D02*
Y75590D01*
X31496Y74803D02*
X32283Y74016D01*
X-31102D02*
Y75590D01*
X-32283Y74016D02*
X-31496Y74803D01*
X-32283Y74016D02*
Y75590D01*
X-31496Y74803D01*
D15*
X6Y15743D02*
Y27554D01*
X-161Y178022D02*
G03*
X-11719Y166089I253J-11808D01*
G01*
X-11726Y166089D02*
G03*
X-39627Y156685I16667J-95546D01*
G01*
X39655Y156679D02*
G03*
X11703Y166092I-44568J-86143D01*
G01*
X11746Y166092D02*
G03*
X189Y178016I-11811J116D01*
G01*
X-24512Y6543D02*
G03*
X24555Y6543I24533J42723D01*
G01*
X48173Y9652D02*
G03*
X24540Y6538I43865J-424098D01*
G01*
X62998Y7868D02*
G03*
X48188Y9657I-11477J-32805D01*
G01*
X62998Y7868D02*
G03*
X55999Y26983I-24495J1871D01*
G01*
X78747Y23617D02*
G03*
X55999Y26983I-26577J-101038D01*
G01*
X78747Y23617D02*
G03*
X63909Y48296I-59470J-18955D01*
G01*
X90558Y51175D02*
G03*
X63897Y48307I3682J-159583D01*
G01*
X90558Y51175D02*
G03*
X70501Y76336I-47910J-17616D01*
G01*
X70501D02*
G03*
X69011Y93228I-31925J5695D01*
G01*
X69011D02*
G03*
X73664Y135990I-97680J32264D01*
G01*
X74809Y173228D02*
G03*
X73664Y135990I97809J-21644D01*
G01*
X74809Y173228D02*
G03*
X39655Y156679I15198J-77899D01*
G01*
X-39627Y156685D02*
G03*
X-74782Y173234I-50353J-61350D01*
G01*
X-73636Y135996D02*
G03*
X-74782Y173234I-98954J15594D01*
G01*
X-73636Y135996D02*
G03*
X-68983Y93234I102333J-10498D01*
G01*
X-68983D02*
G03*
X-70473Y76342I30435J-11197D01*
G01*
X-70473D02*
G03*
X-90530Y51181I27853J-42777D01*
G01*
X-63869Y48313D02*
G03*
X-90530Y51181I-30343J-156715D01*
G01*
X-63881Y48302D02*
G03*
X-78719Y23622I44633J-43634D01*
G01*
X-55972Y26989D02*
G03*
X-78719Y23622I3830J-104405D01*
G01*
X-55972Y26989D02*
G03*
X-62970Y7874I17496J-17245D01*
G01*
X-48161Y9663D02*
G03*
X-62970Y7874I-3333J-34594D01*
G01*
X-24512Y6543D02*
G03*
X-48146Y9657I-67498J-420984D01*
G01*
X-161Y178022D02*
X189D01*
X1182685Y-202012D02*
Y-194141D01*
X1186621D01*
X1187932Y-195452D01*
Y-198076D01*
X1186621Y-199388D01*
X1182685D01*
X1185308D02*
X1187932Y-202012D01*
X1194492D02*
X1191868D01*
X1190556Y-200700D01*
Y-198076D01*
X1191868Y-196764D01*
X1194492D01*
X1195804Y-198076D01*
Y-199388D01*
X1190556D01*
X1198428Y-196764D02*
X1201052Y-202012D01*
X1203675Y-196764D01*
X828354Y-233511D02*
Y-241382D01*
X832290D01*
X833602Y-240070D01*
Y-234823D01*
X832290Y-233511D01*
X828354D01*
X840161Y-241382D02*
X837537D01*
X836226Y-240070D01*
Y-237446D01*
X837537Y-236134D01*
X840161D01*
X841473Y-237446D01*
Y-238758D01*
X836226D01*
X844097Y-241382D02*
X848033D01*
X849345Y-240070D01*
X848033Y-238758D01*
X845409D01*
X844097Y-237446D01*
X845409Y-236134D01*
X849345D01*
X854592Y-244006D02*
X855904D01*
X857216Y-242694D01*
Y-236134D01*
X853280D01*
X851968Y-237446D01*
Y-240070D01*
X853280Y-241382D01*
X857216D01*
X859840D02*
X862464D01*
X861152D01*
Y-236134D01*
X859840D01*
X866399Y-241382D02*
Y-236134D01*
X870335D01*
X871647Y-237446D01*
Y-241382D01*
X878207D02*
X875583D01*
X874271Y-240070D01*
Y-237446D01*
X875583Y-236134D01*
X878207D01*
X879519Y-237446D01*
Y-238758D01*
X874271D01*
X882143Y-236134D02*
Y-241382D01*
Y-238758D01*
X883454Y-237446D01*
X884766Y-236134D01*
X886078D01*
X1025204Y-115400D02*
Y-123272D01*
X1029140D01*
X1030452Y-121960D01*
Y-116712D01*
X1029140Y-115400D01*
X1025204D01*
X1034388Y-123272D02*
X1037012D01*
X1038323Y-121960D01*
Y-119336D01*
X1037012Y-118024D01*
X1034388D01*
X1033076Y-119336D01*
Y-121960D01*
X1034388Y-123272D01*
X1046195Y-118024D02*
X1042259D01*
X1040947Y-119336D01*
Y-121960D01*
X1042259Y-123272D01*
X1046195D01*
X1048819Y-118024D02*
Y-121960D01*
X1050131Y-123272D01*
X1054066D01*
Y-118024D01*
X1056690Y-123272D02*
Y-118024D01*
X1058002D01*
X1059314Y-119336D01*
Y-123272D01*
Y-119336D01*
X1060626Y-118024D01*
X1061938Y-119336D01*
Y-123272D01*
X1068498D02*
X1065874D01*
X1064562Y-121960D01*
Y-119336D01*
X1065874Y-118024D01*
X1068498D01*
X1069810Y-119336D01*
Y-120648D01*
X1064562D01*
X1072433Y-123272D02*
Y-118024D01*
X1076369D01*
X1077681Y-119336D01*
Y-123272D01*
X1081617Y-116712D02*
Y-118024D01*
X1080305D01*
X1082929D01*
X1081617D01*
Y-121960D01*
X1082929Y-123272D01*
X1025204Y-154770D02*
Y-162642D01*
X1030452D01*
X1034388Y-157394D02*
X1037012D01*
X1038323Y-158706D01*
Y-162642D01*
X1034388D01*
X1033076Y-161330D01*
X1034388Y-160018D01*
X1038323D01*
X1040947Y-157394D02*
Y-161330D01*
X1042259Y-162642D01*
X1046195D01*
Y-163954D01*
X1044883Y-165266D01*
X1043571D01*
X1046195Y-162642D02*
Y-157394D01*
X1052755Y-162642D02*
X1050131D01*
X1048819Y-161330D01*
Y-158706D01*
X1050131Y-157394D01*
X1052755D01*
X1054066Y-158706D01*
Y-160018D01*
X1048819D01*
X1056690Y-157394D02*
Y-162642D01*
Y-160018D01*
X1058002Y-158706D01*
X1059314Y-157394D01*
X1060626D01*
X1072433Y-162642D02*
Y-154770D01*
X1077681Y-162642D01*
Y-154770D01*
X1081617Y-157394D02*
X1084241D01*
X1085552Y-158706D01*
Y-162642D01*
X1081617D01*
X1080305Y-161330D01*
X1081617Y-160018D01*
X1085552D01*
X1088176Y-162642D02*
Y-157394D01*
X1089488D01*
X1090800Y-158706D01*
Y-162642D01*
Y-158706D01*
X1092112Y-157394D01*
X1093424Y-158706D01*
Y-162642D01*
X1099984D02*
X1097360D01*
X1096048Y-161330D01*
Y-158706D01*
X1097360Y-157394D01*
X1099984D01*
X1101295Y-158706D01*
Y-160018D01*
X1096048D01*
X1025204Y-194141D02*
Y-202012D01*
X1029140D01*
X1030452Y-200700D01*
Y-195452D01*
X1029140Y-194141D01*
X1025204D01*
X1034388Y-196764D02*
X1037012D01*
X1038323Y-198076D01*
Y-202012D01*
X1034388D01*
X1033076Y-200700D01*
X1034388Y-199388D01*
X1038323D01*
X1042259Y-195452D02*
Y-196764D01*
X1040947D01*
X1043571D01*
X1042259D01*
Y-200700D01*
X1043571Y-202012D01*
X1051443D02*
X1048819D01*
X1047507Y-200700D01*
Y-198076D01*
X1048819Y-196764D01*
X1051443D01*
X1052755Y-198076D01*
Y-199388D01*
X1047507D01*
X1025204Y-233511D02*
Y-241382D01*
X1029140D01*
X1030452Y-240070D01*
Y-234823D01*
X1029140Y-233511D01*
X1025204D01*
X1034388Y-241382D02*
X1037012D01*
X1038323Y-240070D01*
Y-237446D01*
X1037012Y-236134D01*
X1034388D01*
X1033076Y-237446D01*
Y-240070D01*
X1034388Y-241382D01*
X1046195Y-236134D02*
X1042259D01*
X1040947Y-237446D01*
Y-240070D01*
X1042259Y-241382D01*
X1046195D01*
X1048819Y-236134D02*
Y-240070D01*
X1050131Y-241382D01*
X1054066D01*
Y-236134D01*
X1056690Y-241382D02*
Y-236134D01*
X1058002D01*
X1059314Y-237446D01*
Y-241382D01*
Y-237446D01*
X1060626Y-236134D01*
X1061938Y-237446D01*
Y-241382D01*
X1068498D02*
X1065874D01*
X1064562Y-240070D01*
Y-237446D01*
X1065874Y-236134D01*
X1068498D01*
X1069810Y-237446D01*
Y-238758D01*
X1064562D01*
X1072433Y-241382D02*
Y-236134D01*
X1076369D01*
X1077681Y-237446D01*
Y-241382D01*
X1081617Y-234823D02*
Y-236134D01*
X1080305D01*
X1082929D01*
X1081617D01*
Y-240070D01*
X1082929Y-241382D01*
D16*
X1042921Y-168552D02*
X1052104D01*
X1047513D01*
Y-182327D01*
X1058992D02*
X1063584D01*
X1065879Y-180031D01*
Y-175439D01*
X1063584Y-173144D01*
X1058992D01*
X1056696Y-175439D01*
Y-180031D01*
X1058992Y-182327D01*
X1070471Y-186919D02*
Y-173144D01*
X1077359D01*
X1079655Y-175439D01*
Y-180031D01*
X1077359Y-182327D01*
X1070471D01*
X1104909Y-168552D02*
X1100317D01*
X1098021Y-170848D01*
Y-180031D01*
X1100317Y-182327D01*
X1104909D01*
X1107205Y-180031D01*
Y-170848D01*
X1104909Y-168552D01*
X1111796Y-173144D02*
X1116388Y-182327D01*
X1120980Y-173144D01*
X1132459Y-182327D02*
X1127867D01*
X1125571Y-180031D01*
Y-175439D01*
X1127867Y-173144D01*
X1132459D01*
X1134755Y-175439D01*
Y-177735D01*
X1125571D01*
X1139347Y-173144D02*
Y-182327D01*
Y-177735D01*
X1141642Y-175439D01*
X1143938Y-173144D01*
X1146234D01*
X1153122Y-182327D02*
X1157713D01*
X1155417D01*
Y-168552D01*
X1153122D01*
X1166897Y-173144D02*
X1171488D01*
X1173784Y-175439D01*
Y-182327D01*
X1166897D01*
X1164601Y-180031D01*
X1166897Y-177735D01*
X1173784D01*
X1178376Y-173144D02*
Y-180031D01*
X1180672Y-182327D01*
X1187559D01*
Y-184623D01*
X1185264Y-186919D01*
X1182968D01*
X1187559Y-182327D02*
Y-173144D01*
X846071Y-247293D02*
Y-263036D01*
X851318Y-257788D01*
X856566Y-263036D01*
Y-247293D01*
X861814Y-263036D02*
X867061D01*
X864437D01*
Y-252540D01*
X861814D01*
X874933Y-263036D02*
Y-252540D01*
X877556D01*
X880180Y-255164D01*
Y-263036D01*
Y-255164D01*
X882804Y-252540D01*
X885428Y-255164D01*
Y-263036D01*
X890676Y-247293D02*
Y-257788D01*
X895923Y-263036D01*
X901171Y-257788D01*
Y-247293D01*
X916914Y-249917D02*
X914290Y-247293D01*
X909042D01*
X906419Y-249917D01*
Y-260412D01*
X909042Y-263036D01*
X914290D01*
X916914Y-260412D01*
Y-255164D01*
X911666D01*
X1200401Y-210546D02*
X1203025Y-207923D01*
X1208273D01*
X1210897Y-210546D01*
Y-221042D01*
X1208273Y-223665D01*
X1203025D01*
X1200401Y-221042D01*
Y-210546D01*
X1216144Y-223665D02*
X1221392D01*
X1218768D01*
Y-207923D01*
X1216144Y-210546D01*
X1046199Y-209890D02*
X1041607Y-212186D01*
X1037015Y-216778D01*
Y-221370D01*
X1039311Y-223665D01*
X1043903D01*
X1046199Y-221370D01*
Y-219074D01*
X1043903Y-216778D01*
X1037015D01*
X1050791Y-223665D02*
X1059974Y-214482D01*
X1064566Y-212186D02*
X1066861Y-209890D01*
X1071453D01*
X1073749Y-212186D01*
Y-221370D01*
X1071453Y-223665D01*
X1066861D01*
X1064566Y-221370D01*
Y-212186D01*
X1078341D02*
X1080637Y-209890D01*
X1085228D01*
X1087524Y-212186D01*
Y-214482D01*
X1085228Y-216778D01*
X1087524Y-219074D01*
Y-221370D01*
X1085228Y-223665D01*
X1080637D01*
X1078341Y-221370D01*
Y-219074D01*
X1080637Y-216778D01*
X1078341Y-214482D01*
Y-212186D01*
X1080637Y-216778D02*
X1085228D01*
X1092116Y-223665D02*
X1101299Y-214482D01*
X1115074Y-223665D02*
X1105891D01*
X1115074Y-214482D01*
Y-212186D01*
X1112778Y-209890D01*
X1108187D01*
X1105891Y-212186D01*
X1119666D02*
X1121962Y-209890D01*
X1126553D01*
X1128849Y-212186D01*
Y-221370D01*
X1126553Y-223665D01*
X1121962D01*
X1119666Y-221370D01*
Y-212186D01*
X1133441Y-223665D02*
X1138033D01*
X1135737D01*
Y-209890D01*
X1133441Y-212186D01*
X1144920Y-221370D02*
X1147216Y-223665D01*
X1151808D01*
X1154104Y-221370D01*
Y-212186D01*
X1151808Y-209890D01*
X1147216D01*
X1144920Y-212186D01*
Y-214482D01*
X1147216Y-216778D01*
X1154104D01*
X1031110Y-144925D02*
Y-129182D01*
X1036358Y-134430D01*
X1041605Y-129182D01*
Y-144925D01*
X1046853D02*
X1052100D01*
X1049477D01*
Y-134430D01*
X1046853D01*
X1059972Y-144925D02*
Y-134430D01*
X1067843D01*
X1070467Y-137054D01*
Y-144925D01*
X1075715D02*
X1080963D01*
X1078339D01*
Y-134430D01*
X1075715D01*
X1104577Y-144925D02*
Y-129182D01*
X1112449D01*
X1115072Y-131806D01*
Y-137054D01*
X1112449Y-139678D01*
X1104577D01*
X1120320Y-129182D02*
Y-144925D01*
Y-137054D01*
X1122944Y-134430D01*
X1128191D01*
X1130815Y-137054D01*
Y-144925D01*
X1136063Y-131806D02*
X1138687Y-129182D01*
X1143934D01*
X1146558Y-131806D01*
Y-142301D01*
X1143934Y-144925D01*
X1138687D01*
X1136063Y-142301D01*
Y-131806D01*
X1151806Y-134430D02*
X1162301Y-144925D01*
X1157053Y-139678D01*
X1162301Y-134430D01*
X1151806Y-144925D01*
X1167549Y-134430D02*
X1178044Y-144925D01*
X1172796Y-139678D01*
X1178044Y-134430D01*
X1167549Y-144925D01*
M02*
