G04*
G04 #@! TF.GenerationSoftware,Altium Limited,Altium Designer,18.1.11 (251)*
G04*
G04 Layer_Physical_Order=2*
G04 Layer_Color=40191*
%FSLAX25Y25*%
%MOIN*%
G70*
G01*
G75*
%ADD10C,0.00787*%
%ADD15C,0.00984*%
%ADD16C,0.01575*%
%ADD26C,0.07874*%
%ADD27C,0.11811*%
G04:AMPARAMS|DCode=28|XSize=70.87mil|YSize=70.87mil|CornerRadius=17.72mil|HoleSize=0mil|Usage=FLASHONLY|Rotation=0.000|XOffset=0mil|YOffset=0mil|HoleType=Round|Shape=RoundedRectangle|*
%AMROUNDEDRECTD28*
21,1,0.07087,0.03543,0,0,0.0*
21,1,0.03543,0.07087,0,0,0.0*
1,1,0.03543,0.01772,-0.01772*
1,1,0.03543,-0.01772,-0.01772*
1,1,0.03543,-0.01772,0.01772*
1,1,0.03543,0.01772,0.01772*
%
%ADD28ROUNDEDRECTD28*%
%ADD29C,0.07087*%
%ADD30C,0.01968*%
G04:AMPARAMS|DCode=31|XSize=59.06mil|YSize=157.48mil|CornerRadius=0mil|HoleSize=0mil|Usage=FLASHONLY|Rotation=30.000|XOffset=0mil|YOffset=0mil|HoleType=Round|Shape=Rectangle|*
%AMROTATEDRECTD31*
4,1,4,0.01380,-0.08296,-0.06494,0.05343,-0.01380,0.08296,0.06494,-0.05343,0.01380,-0.08296,0.0*
%
%ADD31ROTATEDRECTD31*%

G04:AMPARAMS|DCode=32|XSize=59.06mil|YSize=196.85mil|CornerRadius=0mil|HoleSize=0mil|Usage=FLASHONLY|Rotation=30.000|XOffset=0mil|YOffset=0mil|HoleType=Round|Shape=Rectangle|*
%AMROTATEDRECTD32*
4,1,4,0.02364,-0.10000,-0.07478,0.07048,-0.02364,0.10000,0.07478,-0.07048,0.02364,-0.10000,0.0*
%
%ADD32ROTATEDRECTD32*%

G04:AMPARAMS|DCode=33|XSize=59.06mil|YSize=196.85mil|CornerRadius=0mil|HoleSize=0mil|Usage=FLASHONLY|Rotation=150.000|XOffset=0mil|YOffset=0mil|HoleType=Round|Shape=Rectangle|*
%AMROTATEDRECTD33*
4,1,4,0.07478,0.07048,-0.02364,-0.10000,-0.07478,-0.07048,0.02364,0.10000,0.07478,0.07048,0.0*
%
%ADD33ROTATEDRECTD33*%

G04:AMPARAMS|DCode=34|XSize=59.06mil|YSize=157.48mil|CornerRadius=0mil|HoleSize=0mil|Usage=FLASHONLY|Rotation=150.000|XOffset=0mil|YOffset=0mil|HoleType=Round|Shape=Rectangle|*
%AMROTATEDRECTD34*
4,1,4,0.06494,0.05343,-0.01380,-0.08296,-0.06494,-0.05343,0.01380,0.08296,0.06494,0.05343,0.0*
%
%ADD34ROTATEDRECTD34*%

%ADD35R,0.15748X0.19685*%
G36*
X54331Y94095D02*
Y91880D01*
X53494Y89321D01*
X48130Y92028D01*
X49606Y96457D01*
X54331Y94095D01*
D02*
G37*
G36*
X-32577Y46015D02*
X-32577Y45946D01*
X-32509Y45946D01*
X-32508Y46014D01*
X-32440Y46013D01*
X-32440Y45945D01*
X-32372Y45944D01*
X-32371Y46013D01*
X-32303Y46012D01*
X-32303Y45944D01*
X-32235Y45943D01*
X-32234Y46012D01*
X-31070Y46001D01*
X-31071Y45933D01*
X-31276Y45935D01*
X-31277Y45866D01*
X-31345Y45867D01*
X-31345Y45935D01*
X-31413Y45936D01*
X-31414Y45867D01*
X-31482Y45868D01*
X-31483Y45800D01*
X-31551Y45800D01*
X-31552Y45732D01*
X-31620Y45732D01*
X-31621Y45664D01*
X-31758Y45665D01*
X-31758Y45597D01*
X-31759Y45528D01*
X-31828Y45529D01*
X-31828Y45460D01*
X-31896Y45461D01*
X-31897Y45392D01*
X-31966Y45393D01*
X-31966Y45324D01*
X-32035Y45325D01*
X-32035Y45257D01*
X-32104Y45257D01*
X-32104Y45189D01*
X-32036Y45188D01*
X-32037Y45120D01*
X-32105Y45120D01*
X-32105Y45052D01*
X-32174Y45052D01*
X-32175Y44984D01*
X-32243Y44984D01*
X-32244Y44916D01*
X-32244Y44848D01*
X-32245Y44779D01*
X-32313Y44780D01*
X-32314Y44711D01*
X-32315Y44643D01*
X-32315Y44574D01*
X-32384Y44575D01*
X-32384Y44506D01*
X-32316Y44506D01*
X-32316Y44437D01*
X-32385Y44438D01*
X-32386Y44369D01*
X-32386Y44301D01*
X-32387Y44232D01*
X-32455Y44233D01*
X-32456Y44164D01*
X-32456Y44096D01*
X-32457Y44028D01*
X-32525Y44028D01*
X-32526Y43960D01*
X-32458Y43959D01*
X-32458Y43891D01*
X-32527Y43891D01*
X-32527Y43823D01*
X-32459Y43822D01*
X-32459Y43754D01*
X-32528Y43754D01*
X-32528Y43686D01*
X-32529Y43617D01*
X-32530Y43549D01*
X-32530Y43480D01*
X-32531Y43412D01*
X-32531Y43343D01*
X-32532Y43275D01*
X-32600Y43275D01*
X-32601Y43207D01*
X-32533Y43206D01*
X-32533Y43138D01*
X-32602Y43139D01*
X-32602Y43070D01*
X-32534Y43069D01*
X-32534Y43001D01*
X-32603Y43001D01*
X-32603Y42933D01*
X-32535Y42932D01*
X-32536Y42864D01*
X-32604Y42865D01*
X-32605Y42796D01*
X-32536Y42796D01*
X-32537Y42727D01*
X-32605Y42728D01*
X-32606Y42659D01*
X-32537Y42658D01*
X-32538Y42590D01*
X-32606Y42591D01*
X-32607Y42522D01*
X-32539Y42522D01*
X-32539Y42453D01*
X-32608Y42454D01*
X-32608Y42385D01*
X-32540Y42385D01*
X-32540Y42316D01*
X-32541Y42248D01*
X-32542Y42179D01*
X-32542Y42111D01*
X-32543Y42042D01*
X-32543Y41974D01*
X-32544Y41905D01*
X-32544Y41837D01*
X-32545Y41768D01*
X-32477Y41768D01*
X-32477Y41699D01*
X-32546Y41700D01*
X-32546Y41631D01*
X-32478Y41631D01*
X-32478Y41562D01*
X-32547Y41563D01*
X-32548Y41494D01*
X-32479Y41494D01*
X-32480Y41425D01*
X-32548Y41426D01*
X-32549Y41357D01*
X-32480Y41357D01*
X-32481Y41288D01*
X-32481Y41220D01*
X-32482Y41151D01*
X-32483Y41083D01*
X-32483Y41014D01*
X-32415Y41014D01*
X-32415Y40945D01*
X-32484Y40946D01*
X-32484Y40878D01*
X-32416Y40877D01*
X-32416Y40808D01*
X-32417Y40740D01*
X-32418Y40671D01*
X-32418Y40603D01*
X-32419Y40534D01*
X-32351Y40534D01*
X-32351Y40465D01*
X-32419Y40466D01*
X-32420Y40398D01*
X-32352Y40397D01*
X-32352Y40328D01*
X-32353Y40260D01*
X-32353Y40191D01*
X-32354Y40123D01*
X-32355Y40055D01*
X-32286Y40054D01*
X-32287Y39985D01*
X-32287Y39917D01*
X-32288Y39849D01*
X-32219Y39848D01*
X-32220Y39779D01*
X-32289Y39780D01*
X-32289Y39711D01*
X-32221Y39711D01*
X-32221Y39642D01*
X-32290Y39643D01*
X-32290Y39575D01*
X-32222Y39574D01*
X-32223Y39505D01*
X-32223Y39437D01*
X-32224Y39369D01*
X-32155Y39368D01*
X-32156Y39299D01*
X-32156Y39231D01*
X-32157Y39162D01*
X-32089Y39162D01*
X-32089Y39093D01*
X-32158Y39094D01*
X-32158Y39026D01*
X-32090Y39025D01*
X-32090Y38956D01*
X-32159Y38957D01*
X-32159Y38888D01*
X-32091Y38888D01*
X-32092Y38820D01*
X-32092Y38751D01*
X-32093Y38682D01*
X-32024Y38682D01*
X-32025Y38613D01*
X-32025Y38545D01*
X-32026Y38476D01*
X-31958Y38476D01*
X-31958Y38407D01*
X-32027Y38408D01*
X-32027Y38339D01*
X-31959Y38339D01*
X-31959Y38270D01*
X-31960Y38202D01*
X-31960Y38133D01*
X-32029Y38134D01*
X-32028Y38203D01*
X-32097Y38203D01*
X-32097Y38135D01*
X-32166Y38135D01*
X-32165Y38204D01*
X-32371Y38206D01*
X-32370Y38274D01*
X-32439Y38275D01*
X-32439Y38206D01*
X-32508Y38207D01*
X-32507Y38275D01*
X-32849Y38278D01*
X-32849Y38347D01*
X-32917Y38347D01*
X-32918Y38279D01*
X-32987Y38279D01*
X-32986Y38348D01*
X-33054Y38348D01*
X-33054Y38417D01*
X-33122Y38418D01*
X-33123Y38349D01*
X-33191Y38350D01*
X-33191Y38418D01*
X-33533Y38421D01*
X-33533Y38490D01*
X-33738Y38491D01*
X-33737Y38560D01*
X-34080Y38563D01*
X-34079Y38631D01*
X-34285Y38633D01*
X-34284Y38702D01*
X-34626Y38705D01*
X-34626Y38773D01*
X-34694Y38774D01*
X-34694Y38842D01*
X-34762Y38843D01*
X-34763Y38774D01*
X-34831Y38775D01*
X-34831Y38843D01*
X-35036Y38845D01*
X-35035Y38914D01*
X-35104Y38914D01*
X-35103Y38983D01*
X-35172Y38983D01*
X-35173Y38915D01*
X-35241Y38915D01*
X-35240Y38984D01*
X-35446Y38986D01*
X-35445Y39054D01*
X-35651Y39056D01*
X-35650Y39125D01*
X-35855Y39126D01*
X-35855Y39195D01*
X-35923Y39195D01*
X-35923Y39264D01*
X-35991Y39264D01*
X-35992Y39196D01*
X-36060Y39197D01*
X-36060Y39265D01*
X-36265Y39267D01*
X-36265Y39335D01*
X-36333Y39336D01*
X-36332Y39404D01*
X-36538Y39406D01*
X-36537Y39475D01*
X-36606Y39475D01*
X-36605Y39544D01*
X-36811Y39546D01*
X-36810Y39614D01*
X-36878Y39615D01*
X-36878Y39683D01*
X-37083Y39685D01*
X-37083Y39753D01*
X-37151Y39754D01*
X-37151Y39822D01*
X-37219Y39823D01*
X-37218Y39891D01*
X-37287Y39892D01*
X-37286Y39961D01*
X-37492Y39962D01*
X-37491Y40031D01*
X-37560Y40031D01*
X-37559Y40100D01*
X-37628Y40100D01*
X-37627Y40169D01*
X-37695Y40170D01*
X-37695Y40238D01*
X-37763Y40239D01*
X-37763Y40307D01*
X-37831Y40308D01*
X-37831Y40376D01*
X-37899Y40377D01*
X-37898Y40445D01*
X-37967Y40446D01*
X-37966Y40514D01*
X-37966Y40583D01*
X-37965Y40651D01*
X-38034Y40652D01*
X-38033Y40720D01*
X-38102Y40721D01*
X-38101Y40789D01*
X-38100Y40858D01*
X-38100Y40926D01*
X-38168Y40927D01*
X-38168Y40995D01*
X-38099Y40995D01*
X-38098Y41063D01*
X-38167Y41064D01*
X-38166Y41133D01*
X-38098Y41132D01*
X-38097Y41200D01*
X-38166Y41201D01*
X-38165Y41269D01*
X-38165Y41338D01*
X-38164Y41406D01*
X-38096Y41406D01*
X-38095Y41474D01*
X-38163Y41475D01*
X-38163Y41543D01*
X-38094Y41543D01*
X-38094Y41611D01*
X-38093Y41680D01*
X-38093Y41748D01*
X-38024Y41748D01*
X-38023Y41816D01*
X-37955Y41816D01*
X-37954Y41884D01*
X-38023Y41885D01*
X-38022Y41953D01*
X-37954Y41952D01*
X-37953Y42021D01*
X-37953Y42089D01*
X-37952Y42158D01*
X-37884Y42157D01*
X-37883Y42226D01*
X-37815Y42225D01*
X-37814Y42294D01*
X-37882Y42294D01*
X-37882Y42363D01*
X-37813Y42362D01*
X-37813Y42431D01*
X-37812Y42499D01*
X-37744Y42498D01*
X-37743Y42567D01*
X-37742Y42635D01*
X-37674Y42635D01*
X-37673Y42703D01*
X-37673Y42772D01*
X-37672Y42840D01*
X-37604Y42840D01*
X-37603Y42908D01*
X-37535Y42908D01*
X-37534Y42976D01*
X-37602Y42977D01*
X-37602Y43045D01*
X-37533Y43044D01*
X-37533Y43113D01*
X-37464Y43112D01*
X-37464Y43181D01*
X-37395Y43180D01*
X-37395Y43249D01*
X-37394Y43317D01*
X-37326Y43317D01*
X-37325Y43385D01*
X-37324Y43454D01*
X-37256Y43453D01*
X-37255Y43521D01*
X-37187Y43521D01*
X-37186Y43589D01*
X-37118Y43589D01*
X-37117Y43657D01*
X-37117Y43726D01*
X-37048Y43725D01*
X-37047Y43794D01*
X-37047Y43862D01*
X-36978Y43861D01*
X-36978Y43930D01*
X-36909Y43929D01*
X-36909Y43998D01*
X-36840Y43997D01*
X-36840Y44066D01*
X-36771Y44065D01*
X-36770Y44134D01*
X-36702Y44133D01*
X-36701Y44201D01*
X-36633Y44201D01*
X-36632Y44269D01*
X-36564Y44269D01*
X-36563Y44337D01*
X-36495Y44337D01*
X-36494Y44405D01*
X-36426Y44405D01*
X-36425Y44473D01*
X-36357Y44472D01*
X-36356Y44541D01*
X-36288Y44540D01*
X-36287Y44609D01*
X-36219Y44608D01*
X-36218Y44677D01*
X-36149Y44676D01*
X-36149Y44745D01*
X-36080Y44744D01*
X-36080Y44812D01*
X-36011Y44812D01*
X-36011Y44880D01*
X-35942Y44880D01*
X-35942Y44948D01*
X-35736Y44946D01*
X-35736Y45015D01*
X-35667Y45014D01*
X-35666Y45083D01*
X-35461Y45081D01*
X-35460Y45149D01*
X-35392Y45149D01*
X-35391Y45217D01*
X-35323Y45217D01*
X-35322Y45285D01*
X-35117Y45283D01*
X-35116Y45352D01*
X-35048Y45351D01*
X-35047Y45420D01*
X-34842Y45418D01*
X-34841Y45487D01*
X-34636Y45485D01*
X-34635Y45553D01*
X-34567Y45553D01*
X-34566Y45621D01*
X-34498Y45620D01*
X-34498Y45552D01*
X-34430Y45551D01*
X-34429Y45620D01*
X-34224Y45618D01*
X-34223Y45687D01*
X-34155Y45686D01*
X-34154Y45754D01*
X-34086Y45754D01*
X-34086Y45685D01*
X-34018Y45685D01*
X-34017Y45753D01*
X-33812Y45751D01*
X-33811Y45820D01*
X-33742Y45819D01*
X-33743Y45751D01*
X-33675Y45750D01*
X-33674Y45819D01*
X-33606Y45818D01*
X-33605Y45887D01*
X-33536Y45886D01*
X-33537Y45818D01*
X-33469Y45817D01*
X-33468Y45885D01*
X-32989Y45881D01*
X-32988Y45950D01*
X-32919Y45949D01*
X-32920Y45881D01*
X-32852Y45880D01*
X-32851Y45948D01*
X-32646Y45947D01*
X-32645Y46015D01*
X-32577Y46015D01*
D02*
G37*
G36*
X-30045Y45787D02*
X-30045Y45719D01*
X-29977Y45718D01*
X-29976Y45786D01*
X-29908Y45786D01*
X-29908Y45717D01*
X-29566Y45714D01*
X-29566Y45646D01*
X-29498Y45645D01*
X-29497Y45714D01*
X-29429Y45713D01*
X-29430Y45645D01*
X-29224Y45643D01*
X-29225Y45574D01*
X-29019Y45573D01*
X-29020Y45504D01*
X-28951Y45504D01*
X-28951Y45572D01*
X-28882Y45571D01*
X-28883Y45503D01*
X-28814Y45502D01*
X-28815Y45434D01*
X-28747Y45433D01*
X-28746Y45502D01*
X-28677Y45501D01*
X-28678Y45433D01*
X-28473Y45431D01*
X-28473Y45362D01*
X-28405Y45362D01*
X-28405Y45293D01*
X-28200Y45292D01*
X-28201Y45223D01*
X-27995Y45221D01*
X-27996Y45153D01*
X-27927Y45152D01*
X-27928Y45084D01*
X-27722Y45082D01*
X-27723Y45013D01*
X-27517Y45012D01*
X-27518Y44943D01*
X-27450Y44943D01*
X-27450Y44874D01*
X-27382Y44873D01*
X-27382Y44805D01*
X-27177Y44803D01*
X-27177Y44735D01*
X-27109Y44734D01*
X-27110Y44666D01*
X-27041Y44665D01*
X-27042Y44597D01*
X-26836Y44595D01*
X-26837Y44526D01*
X-26768Y44526D01*
X-26769Y44457D01*
X-26700Y44457D01*
X-26701Y44388D01*
X-26633Y44388D01*
X-26633Y44319D01*
X-26428Y44317D01*
X-26428Y44249D01*
X-26360Y44248D01*
X-26360Y44180D01*
X-26292Y44179D01*
X-26293Y44111D01*
X-26224Y44110D01*
X-26225Y44042D01*
X-26156Y44041D01*
X-26157Y43973D01*
X-26088Y43972D01*
X-26089Y43903D01*
X-25952Y43902D01*
X-25953Y43834D01*
X-25953Y43765D01*
X-25748Y43764D01*
X-25748Y43695D01*
X-25749Y43626D01*
X-25612Y43625D01*
X-25613Y43557D01*
X-25613Y43488D01*
X-25476Y43487D01*
X-25477Y43419D01*
X-25477Y43350D01*
X-25340Y43349D01*
X-25341Y43281D01*
X-25342Y43212D01*
X-25205Y43211D01*
X-25205Y43142D01*
X-25206Y43074D01*
X-25069Y43073D01*
X-25069Y43004D01*
X-25138Y43005D01*
X-25139Y42936D01*
X-25002Y42935D01*
X-25002Y42867D01*
X-25003Y42798D01*
X-24934Y42798D01*
X-24935Y42729D01*
X-24867Y42728D01*
X-24867Y42660D01*
X-24799Y42660D01*
X-24799Y42591D01*
X-24731Y42590D01*
X-24731Y42522D01*
X-24663Y42521D01*
X-24663Y42453D01*
X-24595Y42452D01*
X-24596Y42384D01*
X-24596Y42315D01*
X-24597Y42247D01*
X-24528Y42246D01*
X-24529Y42178D01*
X-24460Y42177D01*
X-24461Y42109D01*
X-24393Y42108D01*
X-24393Y42040D01*
X-24325Y42039D01*
X-24325Y41971D01*
X-24257Y41970D01*
X-24257Y41901D01*
X-24258Y41833D01*
X-24189Y41832D01*
X-24190Y41764D01*
X-24191Y41695D01*
X-24122Y41695D01*
X-24123Y41626D01*
X-24054Y41626D01*
X-24055Y41557D01*
X-24056Y41489D01*
X-24056Y41420D01*
X-23988Y41420D01*
X-23988Y41351D01*
X-23920Y41351D01*
X-23920Y41282D01*
X-23852Y41282D01*
X-23852Y41213D01*
X-23853Y41144D01*
X-23854Y41076D01*
X-23785Y41076D01*
X-23786Y41007D01*
X-23717Y41006D01*
X-23718Y40938D01*
X-23719Y40869D01*
X-23719Y40801D01*
X-23651Y40800D01*
X-23651Y40732D01*
X-23583Y40731D01*
X-23583Y40663D01*
X-23584Y40594D01*
X-23584Y40526D01*
X-23516Y40525D01*
X-23517Y40457D01*
X-23448Y40456D01*
X-23449Y40388D01*
X-23449Y40319D01*
X-23450Y40251D01*
X-23381Y40250D01*
X-23382Y40182D01*
X-23314Y40181D01*
X-23314Y40113D01*
X-23383Y40113D01*
X-23383Y40045D01*
X-23452Y40045D01*
X-23451Y40114D01*
X-23520Y40114D01*
X-23519Y40183D01*
X-23587Y40183D01*
X-23587Y40252D01*
X-23655Y40253D01*
X-23655Y40321D01*
X-23723Y40322D01*
X-23723Y40390D01*
X-23791Y40391D01*
X-23790Y40459D01*
X-23790Y40528D01*
X-23858Y40528D01*
X-23858Y40597D01*
X-23926Y40597D01*
X-23926Y40666D01*
X-23994Y40666D01*
X-23994Y40735D01*
X-23993Y40803D01*
X-24130Y40804D01*
X-24129Y40873D01*
X-24129Y40942D01*
X-24266Y40943D01*
X-24265Y41011D01*
X-24264Y41080D01*
X-24333Y41080D01*
X-24332Y41149D01*
X-24401Y41149D01*
X-24400Y41218D01*
X-24537Y41219D01*
X-24537Y41287D01*
X-24536Y41356D01*
X-24673Y41357D01*
X-24672Y41426D01*
X-24741Y41426D01*
X-24740Y41495D01*
X-24877Y41496D01*
X-24877Y41564D01*
X-24945Y41565D01*
X-24945Y41633D01*
X-25013Y41634D01*
X-25012Y41702D01*
X-25081Y41703D01*
X-25080Y41772D01*
X-25149Y41772D01*
X-25148Y41841D01*
X-25217Y41841D01*
X-25216Y41910D01*
X-25422Y41912D01*
X-25421Y41980D01*
X-25489Y41981D01*
X-25489Y42049D01*
X-25557Y42050D01*
X-25557Y42118D01*
X-25625Y42119D01*
X-25624Y42187D01*
X-25830Y42189D01*
X-25829Y42257D01*
X-25898Y42258D01*
X-25897Y42327D01*
X-25966Y42327D01*
X-25965Y42396D01*
X-26034Y42396D01*
X-26033Y42465D01*
X-26238Y42467D01*
X-26238Y42535D01*
X-26306Y42536D01*
X-26306Y42604D01*
X-26511Y42606D01*
X-26511Y42674D01*
X-26579Y42675D01*
X-26578Y42744D01*
X-26784Y42745D01*
X-26783Y42814D01*
X-26852Y42814D01*
X-26851Y42883D01*
X-26920Y42883D01*
X-26920Y42815D01*
X-26989Y42816D01*
X-26988Y42884D01*
X-27057Y42885D01*
X-27056Y42953D01*
X-27125Y42954D01*
X-27124Y43022D01*
X-27192Y43023D01*
X-27193Y42954D01*
X-27261Y42955D01*
X-27261Y43023D01*
X-27466Y43025D01*
X-27466Y43094D01*
X-27534Y43094D01*
X-27534Y43163D01*
X-27739Y43165D01*
X-27738Y43233D01*
X-27944Y43235D01*
X-27943Y43303D01*
X-28149Y43305D01*
X-28148Y43374D01*
X-28354Y43375D01*
X-28353Y43444D01*
X-28558Y43446D01*
X-28558Y43514D01*
X-28763Y43516D01*
X-28763Y43584D01*
X-28968Y43586D01*
X-28967Y43655D01*
X-29036Y43655D01*
X-29037Y43587D01*
X-29105Y43587D01*
X-29104Y43656D01*
X-29173Y43656D01*
X-29172Y43725D01*
X-29241Y43725D01*
X-29241Y43657D01*
X-29310Y43658D01*
X-29309Y43726D01*
X-29652Y43729D01*
X-29651Y43798D01*
X-29719Y43798D01*
X-29720Y43730D01*
X-29789Y43730D01*
X-29788Y43799D01*
X-29857Y43799D01*
X-29856Y43868D01*
X-29924Y43868D01*
X-29925Y43800D01*
X-29994Y43801D01*
X-29993Y43869D01*
X-30061Y43870D01*
X-30062Y43801D01*
X-30130Y43802D01*
X-30130Y43870D01*
X-30198Y43871D01*
X-30199Y43802D01*
X-30267Y43803D01*
X-30267Y43871D01*
X-30335Y43872D01*
X-30336Y43804D01*
X-30404Y43804D01*
X-30404Y43873D01*
X-30472Y43873D01*
X-30473Y43805D01*
X-30541Y43805D01*
X-30541Y43874D01*
X-30609Y43874D01*
X-30610Y43806D01*
X-30678Y43806D01*
X-30678Y43875D01*
X-30746Y43876D01*
X-30747Y43807D01*
X-30815Y43808D01*
X-30816Y43739D01*
X-30884Y43740D01*
X-30884Y43808D01*
X-30952Y43809D01*
X-30953Y43740D01*
X-31158Y43742D01*
X-31159Y43674D01*
X-31227Y43674D01*
X-31228Y43606D01*
X-31296Y43606D01*
X-31297Y43538D01*
X-31365Y43539D01*
X-31366Y43470D01*
X-31435Y43471D01*
X-31434Y43539D01*
X-31433Y43608D01*
X-31433Y43676D01*
X-31432Y43745D01*
X-31431Y43813D01*
X-31363Y43813D01*
X-31363Y43881D01*
X-31431Y43882D01*
X-31430Y43950D01*
X-31362Y43949D01*
X-31361Y44018D01*
X-31430Y44019D01*
X-31429Y44087D01*
X-31361Y44086D01*
X-31360Y44155D01*
X-31359Y44223D01*
X-31359Y44292D01*
X-31290Y44291D01*
X-31290Y44360D01*
X-31289Y44428D01*
X-31289Y44497D01*
X-31220Y44496D01*
X-31220Y44565D01*
X-31288Y44565D01*
X-31287Y44634D01*
X-31219Y44633D01*
X-31218Y44701D01*
X-31218Y44770D01*
X-31149Y44769D01*
X-31149Y44838D01*
X-31148Y44906D01*
X-31080Y44906D01*
X-31079Y44974D01*
X-31078Y45043D01*
X-31078Y45111D01*
X-31009Y45111D01*
X-31009Y45179D01*
X-30940Y45178D01*
X-30940Y45247D01*
X-30939Y45315D01*
X-30802Y45314D01*
X-30801Y45383D01*
X-30801Y45451D01*
X-30664Y45450D01*
X-30663Y45518D01*
X-30663Y45587D01*
X-30526Y45586D01*
X-30525Y45654D01*
X-30457Y45654D01*
X-30456Y45722D01*
X-30114Y45719D01*
X-30113Y45788D01*
X-30045Y45787D01*
D02*
G37*
G36*
X-26038Y41848D02*
X-26039Y41780D01*
X-25971Y41779D01*
X-25971Y41711D01*
X-25903Y41710D01*
X-25903Y41642D01*
X-25698Y41640D01*
X-25698Y41572D01*
X-25630Y41571D01*
X-25631Y41502D01*
X-25562Y41502D01*
X-25563Y41433D01*
X-25357Y41432D01*
X-25358Y41363D01*
X-25289Y41363D01*
X-25290Y41294D01*
X-25221Y41293D01*
X-25222Y41225D01*
X-25153Y41224D01*
X-25154Y41156D01*
X-25086Y41155D01*
X-25086Y41087D01*
X-25018Y41086D01*
X-25018Y41018D01*
X-24813Y41016D01*
X-24814Y40947D01*
X-24745Y40947D01*
X-24746Y40878D01*
X-24677Y40878D01*
X-24678Y40809D01*
X-24609Y40809D01*
X-24610Y40740D01*
X-24541Y40740D01*
X-24542Y40671D01*
X-24474Y40671D01*
X-24474Y40602D01*
X-24406Y40602D01*
X-24406Y40533D01*
X-24338Y40532D01*
X-24338Y40464D01*
X-24270Y40463D01*
X-24270Y40395D01*
X-24202Y40394D01*
X-24203Y40326D01*
X-24134Y40325D01*
X-24135Y40257D01*
X-24066Y40256D01*
X-24067Y40188D01*
X-23998Y40187D01*
X-23999Y40119D01*
X-23931Y40118D01*
X-23931Y40049D01*
X-23863Y40049D01*
X-23863Y39980D01*
X-23932Y39981D01*
X-23932Y39913D01*
X-23795Y39911D01*
X-23796Y39843D01*
X-23797Y39774D01*
X-23728Y39774D01*
X-23729Y39705D01*
X-23660Y39705D01*
X-23661Y39636D01*
X-23592Y39636D01*
X-23593Y39567D01*
X-23524Y39566D01*
X-23525Y39498D01*
X-23457Y39497D01*
X-23457Y39429D01*
X-23526Y39430D01*
X-23526Y39361D01*
X-23458Y39360D01*
X-23458Y39292D01*
X-23390Y39291D01*
X-23390Y39223D01*
X-23322Y39222D01*
X-23323Y39154D01*
X-23391Y39154D01*
X-23392Y39086D01*
X-23323Y39085D01*
X-23324Y39017D01*
X-23255Y39016D01*
X-23256Y38948D01*
X-23187Y38947D01*
X-23188Y38879D01*
X-23189Y38810D01*
X-23189Y38742D01*
X-23121Y38741D01*
X-23121Y38673D01*
X-23122Y38604D01*
X-23122Y38536D01*
X-23054Y38535D01*
X-23055Y38467D01*
X-23055Y38398D01*
X-23056Y38330D01*
X-22987Y38329D01*
X-22988Y38261D01*
X-22988Y38192D01*
X-22989Y38124D01*
X-22921Y38123D01*
X-22921Y38055D01*
X-22922Y37986D01*
X-22922Y37918D01*
X-22854Y37917D01*
X-22854Y37849D01*
X-22923Y37849D01*
X-22924Y37781D01*
X-22855Y37780D01*
X-22856Y37712D01*
X-22856Y37643D01*
X-22857Y37575D01*
X-22858Y37506D01*
X-22858Y37438D01*
X-22790Y37437D01*
X-22790Y37369D01*
X-22859Y37369D01*
X-22859Y37301D01*
X-22791Y37300D01*
X-22791Y37232D01*
X-22860Y37232D01*
X-22861Y37164D01*
X-22792Y37163D01*
X-22793Y37095D01*
X-22793Y37026D01*
X-22794Y36958D01*
X-22862Y36958D01*
X-22863Y36890D01*
X-22794Y36889D01*
X-22795Y36821D01*
X-22796Y36752D01*
X-22796Y36684D01*
X-22865Y36684D01*
X-22865Y36616D01*
X-22797Y36615D01*
X-22797Y36547D01*
X-22866Y36547D01*
X-22866Y36479D01*
X-22798Y36478D01*
X-22799Y36410D01*
X-22867Y36410D01*
X-22868Y36342D01*
X-22799Y36341D01*
X-22800Y36273D01*
X-22868Y36274D01*
X-22869Y36205D01*
X-22870Y36137D01*
X-22870Y36068D01*
X-22871Y36000D01*
X-22871Y35931D01*
X-22940Y35932D01*
X-22940Y35863D01*
X-22941Y35795D01*
X-22941Y35726D01*
X-22942Y35658D01*
X-22943Y35589D01*
X-23011Y35590D01*
X-23012Y35522D01*
X-22943Y35521D01*
X-22944Y35452D01*
X-23012Y35453D01*
X-23013Y35385D01*
X-23014Y35316D01*
X-23014Y35247D01*
X-23083Y35248D01*
X-23083Y35180D01*
X-23084Y35111D01*
X-23085Y35043D01*
X-23153Y35043D01*
X-23154Y34975D01*
X-23085Y34974D01*
X-23086Y34906D01*
X-23154Y34906D01*
X-23155Y34838D01*
X-23155Y34769D01*
X-23224Y34770D01*
X-23224Y34701D01*
X-23225Y34633D01*
X-23293Y34634D01*
X-23294Y34565D01*
X-23226Y34565D01*
X-23226Y34496D01*
X-23295Y34497D01*
X-23295Y34428D01*
X-23296Y34360D01*
X-23364Y34360D01*
X-23365Y34292D01*
X-23366Y34223D01*
X-23434Y34224D01*
X-23435Y34155D01*
X-23366Y34155D01*
X-23367Y34086D01*
X-23435Y34087D01*
X-23436Y34018D01*
X-23504Y34019D01*
X-23505Y33951D01*
X-23573Y33951D01*
X-23574Y33883D01*
X-23505Y33882D01*
X-23506Y33814D01*
X-23575Y33814D01*
X-23575Y33746D01*
X-23644Y33746D01*
X-23644Y33678D01*
X-23713Y33678D01*
X-23713Y33610D01*
X-23645Y33609D01*
X-23645Y33541D01*
X-23714Y33542D01*
X-23715Y33473D01*
X-23783Y33474D01*
X-23784Y33405D01*
X-23852Y33406D01*
X-23853Y33337D01*
X-23784Y33337D01*
X-23785Y33268D01*
X-23853Y33269D01*
X-23854Y33200D01*
X-23922Y33201D01*
X-23923Y33132D01*
X-23991Y33133D01*
X-23992Y33065D01*
X-23993Y32996D01*
X-24061Y32997D01*
X-24062Y32928D01*
X-24062Y32860D01*
X-24131Y32860D01*
X-24131Y32792D01*
X-24200Y32792D01*
X-24200Y32724D01*
X-24269Y32724D01*
X-24270Y32656D01*
X-24338Y32657D01*
X-24339Y32588D01*
X-24407Y32589D01*
X-24408Y32520D01*
X-24339Y32520D01*
X-24340Y32451D01*
X-24477Y32452D01*
X-24477Y32384D01*
X-24478Y32315D01*
X-24546Y32316D01*
X-24547Y32248D01*
X-24615Y32248D01*
X-24616Y32180D01*
X-24685Y32180D01*
X-24685Y32112D01*
X-24754Y32112D01*
X-24754Y32044D01*
X-24823Y32045D01*
X-24823Y31976D01*
X-24892Y31977D01*
X-24892Y31908D01*
X-24961Y31909D01*
X-24961Y31840D01*
X-25030Y31841D01*
X-25030Y31772D01*
X-25099Y31773D01*
X-25100Y31705D01*
X-25168Y31705D01*
X-25169Y31637D01*
X-25237Y31637D01*
X-25238Y31569D01*
X-25306Y31569D01*
X-25307Y31501D01*
X-25444Y31502D01*
X-25444Y31434D01*
X-25445Y31365D01*
X-25651Y31367D01*
X-25651Y31299D01*
X-25720Y31299D01*
X-25720Y31231D01*
X-25789Y31231D01*
X-25789Y31163D01*
X-25858Y31163D01*
X-25858Y31095D01*
X-26064Y31097D01*
X-26064Y31028D01*
X-26133Y31029D01*
X-26133Y30960D01*
X-26270Y30961D01*
X-26271Y30893D01*
X-26408Y30894D01*
X-26408Y30826D01*
X-26477Y30826D01*
X-26478Y30758D01*
X-26546Y30758D01*
X-26546Y30827D01*
X-26614Y30827D01*
X-26615Y30759D01*
X-26683Y30760D01*
X-26684Y30691D01*
X-26889Y30693D01*
X-26890Y30624D01*
X-26958Y30625D01*
X-26959Y30556D01*
X-27096Y30558D01*
X-27095Y30626D01*
X-26958Y30625D01*
X-26957Y30694D01*
X-26957Y30762D01*
X-26888Y30761D01*
X-26888Y30830D01*
X-26887Y30898D01*
X-26819Y30898D01*
X-26818Y30966D01*
X-26750Y30966D01*
X-26749Y31034D01*
X-26681Y31034D01*
X-26680Y31102D01*
X-26612Y31101D01*
X-26611Y31170D01*
X-26542Y31169D01*
X-26542Y31238D01*
X-26610Y31238D01*
X-26610Y31307D01*
X-26541Y31306D01*
X-26541Y31375D01*
X-26472Y31374D01*
X-26472Y31443D01*
X-26403Y31442D01*
X-26403Y31510D01*
X-26334Y31510D01*
X-26333Y31578D01*
X-26333Y31647D01*
X-26332Y31715D01*
X-26264Y31715D01*
X-26263Y31783D01*
X-26195Y31782D01*
X-26194Y31851D01*
X-26126Y31850D01*
X-26125Y31919D01*
X-26193Y31920D01*
X-26193Y31988D01*
X-26124Y31987D01*
X-26124Y32056D01*
X-26055Y32055D01*
X-26055Y32124D01*
X-25986Y32123D01*
X-25986Y32192D01*
X-25985Y32260D01*
X-25917Y32260D01*
X-25916Y32328D01*
X-25915Y32397D01*
X-25847Y32396D01*
X-25846Y32464D01*
X-25846Y32533D01*
X-25845Y32601D01*
X-25777Y32601D01*
X-25776Y32669D01*
X-25708Y32669D01*
X-25707Y32737D01*
X-25776Y32738D01*
X-25775Y32806D01*
X-25706Y32806D01*
X-25706Y32874D01*
X-25637Y32873D01*
X-25637Y32942D01*
X-25636Y33010D01*
X-25636Y33079D01*
X-25567Y33078D01*
X-25567Y33147D01*
X-25566Y33215D01*
X-25497Y33215D01*
X-25497Y33283D01*
X-25496Y33352D01*
X-25428Y33351D01*
X-25427Y33419D01*
X-25496Y33420D01*
X-25495Y33489D01*
X-25427Y33488D01*
X-25426Y33557D01*
X-25357Y33556D01*
X-25357Y33624D01*
X-25356Y33693D01*
X-25356Y33761D01*
X-25287Y33761D01*
X-25286Y33829D01*
X-25355Y33830D01*
X-25354Y33898D01*
X-25286Y33898D01*
X-25285Y33966D01*
X-25217Y33966D01*
X-25216Y34034D01*
X-25216Y34102D01*
X-25215Y34171D01*
X-25147Y34170D01*
X-25146Y34239D01*
X-25214Y34240D01*
X-25214Y34308D01*
X-25145Y34307D01*
X-25145Y34376D01*
X-25144Y34444D01*
X-25144Y34513D01*
X-25075Y34512D01*
X-25075Y34581D01*
X-25143Y34581D01*
X-25142Y34650D01*
X-25074Y34649D01*
X-25073Y34718D01*
X-25005Y34717D01*
X-25004Y34786D01*
X-25073Y34786D01*
X-25072Y34855D01*
X-25004Y34854D01*
X-25003Y34923D01*
X-25071Y34923D01*
X-25071Y34992D01*
X-25003Y34991D01*
X-25002Y35059D01*
X-25001Y35128D01*
X-25001Y35196D01*
X-25000Y35265D01*
X-24999Y35333D01*
X-24931Y35333D01*
X-24930Y35401D01*
X-24930Y35470D01*
X-24929Y35538D01*
X-24929Y35607D01*
X-24928Y35675D01*
X-24860Y35675D01*
X-24859Y35743D01*
X-24927Y35744D01*
X-24927Y35812D01*
X-24858Y35811D01*
X-24858Y35880D01*
X-24926Y35881D01*
X-24926Y35949D01*
X-24857Y35949D01*
X-24857Y36017D01*
X-24925Y36018D01*
X-24925Y36086D01*
X-24856Y36085D01*
X-24855Y36154D01*
X-24924Y36154D01*
X-24923Y36223D01*
X-24855Y36222D01*
X-24854Y36291D01*
X-24854Y36359D01*
X-24853Y36428D01*
X-24922Y36428D01*
X-24921Y36497D01*
X-24852Y36496D01*
X-24852Y36565D01*
X-24851Y36633D01*
X-24851Y36702D01*
X-24850Y36770D01*
X-24849Y36839D01*
X-24849Y36907D01*
X-24848Y36976D01*
X-24917Y36976D01*
X-24916Y37045D01*
X-24848Y37044D01*
X-24847Y37113D01*
X-24915Y37113D01*
X-24915Y37182D01*
X-24846Y37181D01*
X-24846Y37250D01*
X-24914Y37250D01*
X-24914Y37319D01*
X-24845Y37318D01*
X-24845Y37387D01*
X-24913Y37387D01*
X-24913Y37456D01*
X-24844Y37455D01*
X-24843Y37523D01*
X-24912Y37524D01*
X-24911Y37593D01*
X-24843Y37592D01*
X-24842Y37660D01*
X-24911Y37661D01*
X-24910Y37729D01*
X-24909Y37798D01*
X-24909Y37867D01*
X-24908Y37935D01*
X-24908Y38003D01*
X-24976Y38004D01*
X-24976Y38072D01*
X-24975Y38141D01*
X-24974Y38210D01*
X-25043Y38210D01*
X-25042Y38279D01*
X-24974Y38278D01*
X-24973Y38346D01*
X-25042Y38347D01*
X-25041Y38416D01*
X-24973Y38415D01*
X-24972Y38483D01*
X-25041Y38484D01*
X-25040Y38552D01*
X-24971Y38552D01*
X-24971Y38620D01*
X-25039Y38621D01*
X-25039Y38689D01*
X-25107Y38690D01*
X-25107Y38759D01*
X-25106Y38827D01*
X-25105Y38895D01*
X-25174Y38896D01*
X-25173Y38965D01*
X-25105Y38964D01*
X-25104Y39032D01*
X-25173Y39033D01*
X-25172Y39101D01*
X-25172Y39170D01*
X-25171Y39239D01*
X-25239Y39239D01*
X-25239Y39307D01*
X-25238Y39376D01*
X-25238Y39445D01*
X-25306Y39445D01*
X-25305Y39514D01*
X-25237Y39513D01*
X-25236Y39582D01*
X-25305Y39582D01*
X-25304Y39650D01*
X-25304Y39719D01*
X-25303Y39788D01*
X-25372Y39788D01*
X-25371Y39857D01*
X-25439Y39857D01*
X-25439Y39926D01*
X-25370Y39925D01*
X-25370Y39994D01*
X-25438Y39994D01*
X-25438Y40063D01*
X-25506Y40063D01*
X-25506Y40132D01*
X-25505Y40200D01*
X-25504Y40269D01*
X-25573Y40269D01*
X-25572Y40338D01*
X-25572Y40406D01*
X-25571Y40475D01*
X-25640Y40475D01*
X-25639Y40544D01*
X-25707Y40544D01*
X-25707Y40613D01*
X-25638Y40612D01*
X-25638Y40681D01*
X-25706Y40681D01*
X-25706Y40750D01*
X-25774Y40750D01*
X-25773Y40819D01*
X-25773Y40887D01*
X-25772Y40956D01*
X-25841Y40956D01*
X-25840Y41025D01*
X-25909Y41026D01*
X-25908Y41094D01*
X-25976Y41095D01*
X-25976Y41163D01*
X-25907Y41162D01*
X-25907Y41231D01*
X-25975Y41232D01*
X-25975Y41300D01*
X-26043Y41301D01*
X-26043Y41369D01*
X-26042Y41438D01*
X-26041Y41506D01*
X-26110Y41507D01*
X-26109Y41575D01*
X-26178Y41576D01*
X-26177Y41644D01*
X-26246Y41645D01*
X-26245Y41713D01*
X-26177Y41713D01*
X-26176Y41781D01*
X-26244Y41782D01*
X-26244Y41850D01*
X-26038Y41848D01*
D02*
G37*
G36*
X-36Y41207D02*
X-2741D01*
Y43913D01*
X-36Y41207D01*
D02*
G37*
G36*
X-16144D02*
X-18850D01*
Y43913D01*
X-16144Y41207D01*
D02*
G37*
G36*
X-23247Y39975D02*
X-23247Y39906D01*
X-23248Y39838D01*
X-23385Y39839D01*
X-23384Y39908D01*
X-23316Y39907D01*
X-23315Y39976D01*
X-23247Y39975D01*
D02*
G37*
G36*
X-38386Y39491D02*
X-38387Y39422D01*
X-38318Y39422D01*
X-38319Y39353D01*
X-38250Y39353D01*
X-38251Y39284D01*
X-38252Y39216D01*
X-38183Y39215D01*
X-38184Y39147D01*
X-38184Y39078D01*
X-38116Y39077D01*
X-38116Y39009D01*
X-38048Y39008D01*
X-38049Y38940D01*
X-37980Y38939D01*
X-37981Y38871D01*
X-37912Y38870D01*
X-37913Y38802D01*
X-37844Y38801D01*
X-37845Y38733D01*
X-37776Y38732D01*
X-37777Y38664D01*
X-37709Y38663D01*
X-37709Y38594D01*
X-37641Y38594D01*
X-37641Y38526D01*
X-37436Y38524D01*
X-37436Y38455D01*
X-37437Y38387D01*
X-37300Y38385D01*
X-37301Y38317D01*
X-37232Y38316D01*
X-37233Y38248D01*
X-37096Y38247D01*
X-37096Y38178D01*
X-36959Y38177D01*
X-36960Y38109D01*
X-36892Y38108D01*
X-36892Y38040D01*
X-36755Y38038D01*
X-36756Y37970D01*
X-36619Y37969D01*
X-36619Y37900D01*
X-36551Y37900D01*
X-36552Y37831D01*
X-36346Y37829D01*
X-36347Y37761D01*
X-36278Y37760D01*
X-36279Y37692D01*
X-36073Y37690D01*
X-36074Y37622D01*
X-35869Y37620D01*
X-35869Y37551D01*
X-35664Y37549D01*
X-35664Y37481D01*
X-35596Y37480D01*
X-35596Y37412D01*
X-35528Y37411D01*
X-35527Y37480D01*
X-35459Y37479D01*
X-35460Y37411D01*
X-35254Y37409D01*
X-35255Y37340D01*
X-35186Y37340D01*
X-35187Y37271D01*
X-34844Y37268D01*
X-34845Y37200D01*
X-34776Y37199D01*
X-34777Y37131D01*
X-34709Y37130D01*
X-34708Y37199D01*
X-34640Y37198D01*
X-34640Y37130D01*
X-34435Y37128D01*
X-34435Y37059D01*
X-34230Y37058D01*
X-34231Y36989D01*
X-33888Y36986D01*
X-33889Y36918D01*
X-33683Y36916D01*
X-33684Y36847D01*
X-33341Y36844D01*
X-33342Y36776D01*
X-33137Y36774D01*
X-33137Y36706D01*
X-33069Y36705D01*
X-33068Y36773D01*
X-33000Y36773D01*
X-33000Y36704D01*
X-32658Y36701D01*
X-32658Y36633D01*
X-32590Y36632D01*
X-32589Y36701D01*
X-32521Y36700D01*
X-32522Y36632D01*
X-32316Y36630D01*
X-32317Y36562D01*
X-32248Y36561D01*
X-32248Y36629D01*
X-32179Y36629D01*
X-32180Y36560D01*
X-31974Y36558D01*
X-31975Y36490D01*
X-31906Y36489D01*
X-31906Y36558D01*
X-31837Y36557D01*
X-31838Y36489D01*
X-31769Y36488D01*
X-31769Y36557D01*
X-31700Y36556D01*
X-31701Y36488D01*
X-31632Y36487D01*
X-31633Y36419D01*
X-31565Y36418D01*
X-31564Y36486D01*
X-31495Y36486D01*
X-31496Y36417D01*
X-30880Y36412D01*
X-30880Y36343D01*
X-30812Y36343D01*
X-30811Y36411D01*
X-30743Y36411D01*
X-30743Y36342D01*
X-30538Y36340D01*
X-30538Y36272D01*
X-30470Y36271D01*
X-30470Y36340D01*
X-30401Y36339D01*
X-30402Y36271D01*
X-30333Y36270D01*
X-30332Y36339D01*
X-30264Y36338D01*
X-30265Y36270D01*
X-29922Y36267D01*
X-29923Y36198D01*
X-29854Y36198D01*
X-29854Y36266D01*
X-29785Y36265D01*
X-29786Y36197D01*
X-29580Y36195D01*
X-29581Y36127D01*
X-29513Y36126D01*
X-29512Y36195D01*
X-29443Y36194D01*
X-29444Y36125D01*
X-29376Y36125D01*
X-29375Y36193D01*
X-29307Y36193D01*
X-29307Y36124D01*
X-28828Y36120D01*
X-28828Y36052D01*
X-28760Y36051D01*
X-28759Y36119D01*
X-28691Y36119D01*
X-28691Y36050D01*
X-28486Y36049D01*
X-28487Y35980D01*
X-28418Y35980D01*
X-28418Y36048D01*
X-28349Y36047D01*
X-28350Y35979D01*
X-28281Y35978D01*
X-28280Y36047D01*
X-28212Y36046D01*
X-28213Y35978D01*
X-28144Y35977D01*
X-28144Y36046D01*
X-28075Y36045D01*
X-28076Y35976D01*
X-27870Y35975D01*
X-27870Y36043D01*
X-27801Y36043D01*
X-27802Y35974D01*
X-27322Y35970D01*
X-27322Y36039D01*
X-27253Y36038D01*
X-27254Y35969D01*
X-27185Y35969D01*
X-27185Y36037D01*
X-27116Y36037D01*
X-27117Y35968D01*
X-27049Y35968D01*
X-27048Y36036D01*
X-26842Y36034D01*
X-26842Y36103D01*
X-26500Y36100D01*
X-26499Y36168D01*
X-26430Y36168D01*
X-26430Y36236D01*
X-26224Y36234D01*
X-26224Y36303D01*
X-26155Y36302D01*
X-26155Y36371D01*
X-26018Y36369D01*
X-26017Y36438D01*
X-26017Y36507D01*
X-25880Y36505D01*
X-25879Y36574D01*
X-25878Y36642D01*
X-25810Y36642D01*
X-25809Y36710D01*
X-25741Y36709D01*
X-25740Y36778D01*
X-25672Y36777D01*
X-25671Y36846D01*
X-25670Y36914D01*
X-25670Y36983D01*
X-25602Y36982D01*
X-25602Y36914D01*
X-25534Y36913D01*
X-25534Y36845D01*
X-25603Y36845D01*
X-25603Y36777D01*
X-25535Y36776D01*
X-25535Y36708D01*
X-25604Y36708D01*
X-25605Y36640D01*
X-25536Y36639D01*
X-25537Y36571D01*
X-25605Y36571D01*
X-25606Y36503D01*
X-25606Y36434D01*
X-25607Y36366D01*
X-25607Y36297D01*
X-25608Y36229D01*
X-25609Y36160D01*
X-25609Y36092D01*
X-25610Y36024D01*
X-25610Y35955D01*
X-25679Y35956D01*
X-25679Y35887D01*
X-25680Y35819D01*
X-25681Y35750D01*
X-25681Y35682D01*
X-25682Y35613D01*
X-25683Y35545D01*
X-25683Y35476D01*
X-25752Y35477D01*
X-25752Y35408D01*
X-25684Y35408D01*
X-25684Y35339D01*
X-25753Y35340D01*
X-25753Y35271D01*
X-25685Y35271D01*
X-25686Y35202D01*
X-25754Y35203D01*
X-25755Y35135D01*
X-25755Y35066D01*
X-25756Y34997D01*
X-25756Y34929D01*
X-25757Y34861D01*
X-25825Y34861D01*
X-25826Y34793D01*
X-25827Y34724D01*
X-25827Y34656D01*
X-25828Y34587D01*
X-25828Y34519D01*
X-25897Y34519D01*
X-25897Y34451D01*
X-25829Y34450D01*
X-25830Y34382D01*
X-25898Y34382D01*
X-25899Y34314D01*
X-25899Y34245D01*
X-25900Y34177D01*
X-25968Y34178D01*
X-25969Y34109D01*
X-25970Y34041D01*
X-25970Y33972D01*
X-26039Y33973D01*
X-26039Y33904D01*
X-25971Y33904D01*
X-25971Y33835D01*
X-26040Y33836D01*
X-26040Y33767D01*
X-26041Y33699D01*
X-26042Y33630D01*
X-26110Y33631D01*
X-26111Y33562D01*
X-26111Y33494D01*
X-26112Y33426D01*
X-26180Y33426D01*
X-26181Y33358D01*
X-26112Y33357D01*
X-26113Y33288D01*
X-26182Y33289D01*
X-26182Y33221D01*
X-26251Y33221D01*
X-26251Y33153D01*
X-26252Y33084D01*
X-26252Y33016D01*
X-26321Y33016D01*
X-26322Y32948D01*
X-26322Y32879D01*
X-26323Y32811D01*
X-26391Y32812D01*
X-26392Y32743D01*
X-26460Y32744D01*
X-26461Y32675D01*
X-26392Y32675D01*
X-26393Y32606D01*
X-26461Y32607D01*
X-26462Y32538D01*
X-26531Y32539D01*
X-26531Y32470D01*
X-26600Y32471D01*
X-26600Y32403D01*
X-26532Y32402D01*
X-26532Y32333D01*
X-26601Y32334D01*
X-26601Y32265D01*
X-26670Y32266D01*
X-26671Y32198D01*
X-26671Y32129D01*
X-26672Y32061D01*
X-26740Y32061D01*
X-26741Y31993D01*
X-26809Y31993D01*
X-26810Y31925D01*
X-26878Y31925D01*
X-26879Y31857D01*
X-26880Y31789D01*
X-26948Y31789D01*
X-26949Y31721D01*
X-26949Y31652D01*
X-27018Y31653D01*
X-27018Y31584D01*
X-27087Y31585D01*
X-27087Y31516D01*
X-27156Y31517D01*
X-27156Y31449D01*
X-27157Y31380D01*
X-27294Y31381D01*
X-27295Y31313D01*
X-27295Y31244D01*
X-27364Y31245D01*
X-27364Y31176D01*
X-27365Y31108D01*
X-27502Y31109D01*
X-27502Y31041D01*
X-27503Y30972D01*
X-27640Y30973D01*
X-27641Y30905D01*
X-27641Y30836D01*
X-27847Y30838D01*
X-27847Y30770D01*
X-27916Y30770D01*
X-27916Y30702D01*
X-27985Y30702D01*
X-27985Y30634D01*
X-28054Y30635D01*
X-28054Y30566D01*
X-28260Y30568D01*
X-28260Y30499D01*
X-28329Y30500D01*
X-28330Y30432D01*
X-28535Y30433D01*
X-28536Y30365D01*
X-28604Y30365D01*
X-28605Y30297D01*
X-28947Y30300D01*
X-28948Y30231D01*
X-29153Y30233D01*
X-29154Y30165D01*
X-29222Y30165D01*
X-29222Y30234D01*
X-29290Y30235D01*
X-29291Y30166D01*
X-29907Y30171D01*
X-29908Y30103D01*
X-29976Y30103D01*
X-29975Y30172D01*
X-30044Y30173D01*
X-30044Y30104D01*
X-30113Y30105D01*
X-30112Y30173D01*
X-30181Y30174D01*
X-30182Y30105D01*
X-30250Y30106D01*
X-30249Y30174D01*
X-31140Y30182D01*
X-31139Y30251D01*
X-31207Y30251D01*
X-31208Y30183D01*
X-31277Y30183D01*
X-31276Y30252D01*
X-31481Y30254D01*
X-31481Y30322D01*
X-31549Y30323D01*
X-31550Y30254D01*
X-31618Y30255D01*
X-31618Y30323D01*
X-31823Y30325D01*
X-31823Y30393D01*
X-31891Y30394D01*
X-31892Y30326D01*
X-31960Y30326D01*
X-31960Y30395D01*
X-32028Y30395D01*
X-32027Y30464D01*
X-32096Y30464D01*
X-32096Y30396D01*
X-32165Y30397D01*
X-32164Y30465D01*
X-32370Y30467D01*
X-32369Y30535D01*
X-32575Y30537D01*
X-32574Y30606D01*
X-32779Y30607D01*
X-32779Y30676D01*
X-32984Y30678D01*
X-32984Y30746D01*
X-33189Y30748D01*
X-33189Y30816D01*
X-33257Y30817D01*
X-33257Y30885D01*
X-33462Y30887D01*
X-33461Y30956D01*
X-33530Y30956D01*
X-33529Y31025D01*
X-33735Y31027D01*
X-33734Y31095D01*
X-33803Y31096D01*
X-33802Y31164D01*
X-34007Y31166D01*
X-34007Y31234D01*
X-34075Y31235D01*
X-34075Y31303D01*
X-34280Y31305D01*
X-34280Y31374D01*
X-34348Y31374D01*
X-34347Y31443D01*
X-34416Y31443D01*
X-34415Y31512D01*
X-34484Y31512D01*
X-34483Y31581D01*
X-34620Y31582D01*
X-34620Y31651D01*
X-34756Y31652D01*
X-34756Y31720D01*
X-34824Y31721D01*
X-34824Y31789D01*
X-34892Y31790D01*
X-34892Y31859D01*
X-34960Y31859D01*
X-34960Y31927D01*
X-35028Y31928D01*
X-35027Y31997D01*
X-35233Y31998D01*
X-35232Y32067D01*
X-35164Y32066D01*
X-35163Y32135D01*
X-35368Y32137D01*
X-35368Y32205D01*
X-35436Y32206D01*
X-35436Y32274D01*
X-35504Y32275D01*
X-35504Y32343D01*
X-35572Y32344D01*
X-35572Y32412D01*
X-35640Y32413D01*
X-35640Y32481D01*
X-35708Y32482D01*
X-35707Y32550D01*
X-35776Y32551D01*
X-35775Y32620D01*
X-35844Y32620D01*
X-35843Y32689D01*
X-35912Y32689D01*
X-35911Y32758D01*
X-35980Y32758D01*
X-35979Y32827D01*
X-36047Y32827D01*
X-36047Y32896D01*
X-36115Y32896D01*
X-36115Y32965D01*
X-36183Y32965D01*
X-36182Y33034D01*
X-36251Y33035D01*
X-36250Y33103D01*
X-36319Y33104D01*
X-36318Y33172D01*
X-36250Y33171D01*
X-36249Y33240D01*
X-36386Y33241D01*
X-36386Y33310D01*
X-36385Y33378D01*
X-36454Y33379D01*
X-36453Y33447D01*
X-36521Y33448D01*
X-36521Y33516D01*
X-36589Y33517D01*
X-36589Y33585D01*
X-36657Y33586D01*
X-36656Y33654D01*
X-36725Y33655D01*
X-36724Y33724D01*
X-36793Y33724D01*
X-36792Y33793D01*
X-36792Y33861D01*
X-36791Y33930D01*
X-36860Y33930D01*
X-36859Y33999D01*
X-36928Y33999D01*
X-36927Y34068D01*
X-36995Y34068D01*
X-36995Y34137D01*
X-36994Y34205D01*
X-37063Y34206D01*
X-37062Y34274D01*
X-37061Y34343D01*
X-37130Y34343D01*
X-37129Y34412D01*
X-37198Y34413D01*
X-37197Y34481D01*
X-37266Y34482D01*
X-37265Y34550D01*
X-37197Y34549D01*
X-37196Y34618D01*
X-37264Y34619D01*
X-37264Y34687D01*
X-37332Y34688D01*
X-37332Y34756D01*
X-37400Y34757D01*
X-37400Y34825D01*
X-37331Y34825D01*
X-37331Y34893D01*
X-37399Y34894D01*
X-37398Y34962D01*
X-37467Y34963D01*
X-37466Y35031D01*
X-37535Y35032D01*
X-37534Y35100D01*
X-37534Y35169D01*
X-37533Y35237D01*
X-37602Y35238D01*
X-37601Y35306D01*
X-37669Y35307D01*
X-37669Y35375D01*
X-37600Y35375D01*
X-37600Y35443D01*
X-37668Y35444D01*
X-37668Y35512D01*
X-37736Y35513D01*
X-37736Y35581D01*
X-37735Y35650D01*
X-37734Y35718D01*
X-37803Y35719D01*
X-37802Y35787D01*
X-37802Y35856D01*
X-37801Y35925D01*
X-37869Y35925D01*
X-37869Y35993D01*
X-37937Y35994D01*
X-37937Y36063D01*
X-37868Y36062D01*
X-37868Y36130D01*
X-37936Y36131D01*
X-37936Y36200D01*
X-37935Y36268D01*
X-37934Y36336D01*
X-38003Y36337D01*
X-38002Y36406D01*
X-38071Y36406D01*
X-38070Y36475D01*
X-38002Y36474D01*
X-38001Y36543D01*
X-38069Y36543D01*
X-38069Y36612D01*
X-38068Y36680D01*
X-38068Y36749D01*
X-38136Y36749D01*
X-38136Y36818D01*
X-38135Y36886D01*
X-38134Y36955D01*
X-38203Y36955D01*
X-38202Y37024D01*
X-38134Y37023D01*
X-38133Y37092D01*
X-38202Y37092D01*
X-38201Y37161D01*
X-38201Y37229D01*
X-38200Y37298D01*
X-38268Y37298D01*
X-38268Y37367D01*
X-38267Y37435D01*
X-38267Y37504D01*
X-38335Y37504D01*
X-38334Y37573D01*
X-38266Y37572D01*
X-38265Y37641D01*
X-38334Y37641D01*
X-38333Y37710D01*
X-38265Y37709D01*
X-38264Y37778D01*
X-38333Y37778D01*
X-38332Y37847D01*
X-38331Y37915D01*
X-38331Y37984D01*
X-38399Y37984D01*
X-38399Y38053D01*
X-38330Y38052D01*
X-38330Y38121D01*
X-38398Y38121D01*
X-38397Y38190D01*
X-38397Y38258D01*
X-38396Y38327D01*
X-38396Y38395D01*
X-38395Y38464D01*
X-38464Y38464D01*
X-38463Y38533D01*
X-38395Y38532D01*
X-38394Y38601D01*
X-38462Y38601D01*
X-38462Y38670D01*
X-38393Y38669D01*
X-38393Y38737D01*
X-38461Y38738D01*
X-38461Y38807D01*
X-38392Y38806D01*
X-38392Y38874D01*
X-38460Y38875D01*
X-38459Y38943D01*
X-38391Y38943D01*
X-38390Y39011D01*
X-38459Y39012D01*
X-38458Y39081D01*
X-38458Y39149D01*
X-38457Y39217D01*
X-38456Y39286D01*
X-38456Y39354D01*
X-38455Y39423D01*
X-38455Y39491D01*
X-38386Y39491D01*
D02*
G37*
G36*
X-36Y37317D02*
X-2741D01*
Y40022D01*
X-36Y37317D01*
D02*
G37*
G36*
X-16144D02*
X-18850D01*
Y40022D01*
X-16144Y37317D01*
D02*
G37*
G36*
X-25532Y37050D02*
X-25533Y36982D01*
X-25602Y36982D01*
X-25601Y37051D01*
X-25532Y37050D01*
D02*
G37*
G36*
X-40896Y25938D02*
X-40896Y25855D01*
X-40813Y25854D01*
X-40813Y25937D01*
X-40729Y25936D01*
X-40730Y25853D01*
X-40647Y25852D01*
X-40648Y25769D01*
X-40482Y25768D01*
X-40483Y25685D01*
X-40483Y25602D01*
X-40400Y25601D01*
X-40401Y25518D01*
X-40402Y25435D01*
X-40402Y25352D01*
X-40319Y25351D01*
X-40320Y25268D01*
X-40321Y25185D01*
X-40322Y25102D01*
X-40322Y25019D01*
X-40323Y24936D01*
X-40240Y24936D01*
X-40241Y24853D01*
X-40324Y24853D01*
X-40325Y24770D01*
X-40242Y24770D01*
X-40242Y24687D01*
X-40325Y24687D01*
X-40326Y24604D01*
X-40243Y24603D01*
X-40244Y24521D01*
X-40244Y24438D01*
X-40245Y24354D01*
X-40246Y24271D01*
X-40247Y24188D01*
X-40163Y24188D01*
X-40164Y24105D01*
X-40247Y24105D01*
X-40248Y24022D01*
X-40165Y24022D01*
X-40166Y23939D01*
X-40166Y23856D01*
X-40167Y23773D01*
X-40084Y23772D01*
X-40085Y23689D01*
X-40168Y23690D01*
X-40169Y23607D01*
X-40086Y23606D01*
X-40086Y23523D01*
X-40169Y23524D01*
X-40170Y23440D01*
X-40087Y23440D01*
X-40088Y23357D01*
X-40171Y23358D01*
X-40172Y23275D01*
X-40088Y23274D01*
X-40089Y23191D01*
X-40090Y23108D01*
X-40091Y23025D01*
X-40008Y23024D01*
X-40008Y22941D01*
X-40009Y22858D01*
X-40010Y22775D01*
X-40010Y22692D01*
X-40011Y22609D01*
X-39928Y22608D01*
X-39929Y22525D01*
X-40012Y22526D01*
X-40013Y22443D01*
X-39930Y22442D01*
X-39930Y22359D01*
X-40013Y22360D01*
X-40014Y22277D01*
X-39931Y22276D01*
X-39932Y22193D01*
X-40015Y22194D01*
X-40016Y22111D01*
X-39933Y22110D01*
X-39933Y22027D01*
X-39934Y21944D01*
X-39935Y21861D01*
X-39852Y21860D01*
X-39852Y21777D01*
X-39935Y21778D01*
X-39936Y21695D01*
X-39853Y21694D01*
X-39854Y21611D01*
X-39855Y21528D01*
X-39855Y21445D01*
X-39856Y21362D01*
X-39857Y21279D01*
X-39774Y21278D01*
X-39775Y21195D01*
X-39858Y21196D01*
X-39858Y21113D01*
X-39775Y21112D01*
X-39776Y21029D01*
X-39859Y21030D01*
X-39860Y20947D01*
X-39777Y20946D01*
X-39777Y20863D01*
X-39778Y20780D01*
X-39779Y20697D01*
X-39780Y20614D01*
X-39780Y20531D01*
X-39697Y20530D01*
X-39698Y20447D01*
X-39699Y20364D01*
X-39700Y20281D01*
X-39700Y20198D01*
X-39701Y20115D01*
X-39618Y20115D01*
X-39619Y20032D01*
X-39702Y20032D01*
X-39702Y19949D01*
X-39619Y19949D01*
X-39620Y19865D01*
X-39703Y19866D01*
X-39704Y19783D01*
X-39621Y19782D01*
X-39621Y19700D01*
X-39622Y19616D01*
X-39623Y19534D01*
X-39624Y19450D01*
X-39624Y19367D01*
X-39541Y19367D01*
X-39542Y19284D01*
X-39543Y19201D01*
X-39544Y19118D01*
X-39544Y19035D01*
X-39545Y18952D01*
X-39462Y18951D01*
X-39463Y18868D01*
X-39380Y18867D01*
X-39379Y18950D01*
X-39462Y18951D01*
X-39461Y19034D01*
X-39378Y19033D01*
X-39377Y19116D01*
X-39377Y19199D01*
X-39376Y19282D01*
X-39375Y19365D01*
X-39375Y19448D01*
X-39292Y19447D01*
X-39291Y19531D01*
X-39374Y19531D01*
X-39373Y19614D01*
X-39290Y19614D01*
X-39289Y19697D01*
X-39372Y19697D01*
X-39372Y19780D01*
X-39289Y19780D01*
X-39288Y19863D01*
X-39287Y19946D01*
X-39287Y20029D01*
X-39204Y20028D01*
X-39203Y20111D01*
X-39286Y20112D01*
X-39285Y20195D01*
X-39202Y20194D01*
X-39201Y20277D01*
X-39201Y20360D01*
X-39200Y20443D01*
X-39199Y20526D01*
X-39198Y20609D01*
X-39115Y20608D01*
X-39115Y20691D01*
X-39198Y20692D01*
X-39197Y20775D01*
X-39114Y20774D01*
X-39113Y20857D01*
X-39196Y20858D01*
X-39195Y20941D01*
X-39112Y20941D01*
X-39112Y21023D01*
X-39111Y21106D01*
X-39110Y21190D01*
X-39110Y21273D01*
X-39109Y21356D01*
X-39026Y21355D01*
X-39025Y21438D01*
X-39024Y21521D01*
X-39024Y21604D01*
X-39023Y21687D01*
X-39022Y21770D01*
X-38939Y21769D01*
X-38939Y21852D01*
X-39022Y21853D01*
X-39021Y21936D01*
X-38938Y21935D01*
X-38937Y22018D01*
X-39020Y22019D01*
X-39019Y22102D01*
X-38936Y22101D01*
X-38936Y22184D01*
X-38935Y22267D01*
X-38934Y22350D01*
X-38933Y22433D01*
X-38933Y22516D01*
X-38932Y22599D01*
X-38849Y22599D01*
X-38848Y22682D01*
X-38848Y22765D01*
X-38847Y22848D01*
X-38846Y22931D01*
X-38763Y22930D01*
X-38762Y23013D01*
X-38845Y23014D01*
X-38845Y23097D01*
X-38762Y23096D01*
X-38761Y23179D01*
X-38844Y23180D01*
X-38843Y23263D01*
X-38760Y23262D01*
X-38759Y23345D01*
X-38759Y23428D01*
X-38758Y23511D01*
X-38757Y23594D01*
X-38756Y23677D01*
X-38756Y23760D01*
X-38755Y23843D01*
X-38672Y23843D01*
X-38671Y23926D01*
X-38671Y24009D01*
X-38670Y24092D01*
X-38669Y24175D01*
X-38668Y24258D01*
X-38585Y24257D01*
X-38585Y24340D01*
X-38668Y24341D01*
X-38667Y24424D01*
X-38584Y24423D01*
X-38583Y24506D01*
X-38666Y24507D01*
X-38666Y24590D01*
X-38583Y24589D01*
X-38582Y24672D01*
X-38581Y24755D01*
X-38580Y24838D01*
X-38580Y24921D01*
X-38579Y25004D01*
X-38496Y25003D01*
X-38495Y25086D01*
X-38578Y25087D01*
X-38577Y25170D01*
X-38494Y25169D01*
X-38494Y25253D01*
X-38493Y25335D01*
X-38492Y25418D01*
X-38409Y25418D01*
X-38408Y25501D01*
X-38491Y25501D01*
X-38491Y25585D01*
X-38408Y25584D01*
X-38407Y25667D01*
X-38324Y25666D01*
X-38323Y25749D01*
X-38240Y25748D01*
X-38240Y25831D01*
X-38157Y25831D01*
X-38156Y25914D01*
X-38073Y25913D01*
X-38074Y25830D01*
X-37990Y25829D01*
X-37990Y25912D01*
X-37907Y25912D01*
X-37907Y25828D01*
X-37824Y25828D01*
X-37825Y25745D01*
X-37742Y25744D01*
X-37743Y25661D01*
X-37660Y25660D01*
X-37661Y25577D01*
X-37578Y25577D01*
X-37578Y25494D01*
X-37579Y25411D01*
X-37580Y25328D01*
X-37580Y25245D01*
X-37581Y25161D01*
X-37498Y25161D01*
X-37499Y25078D01*
X-37582Y25078D01*
X-37583Y24995D01*
X-37500Y24995D01*
X-37500Y24912D01*
X-37501Y24829D01*
X-37502Y24746D01*
X-37503Y24663D01*
X-37503Y24580D01*
X-37420Y24579D01*
X-37421Y24496D01*
X-37504Y24497D01*
X-37505Y24414D01*
X-37422Y24413D01*
X-37422Y24330D01*
X-37505Y24330D01*
X-37506Y24248D01*
X-37423Y24247D01*
X-37424Y24164D01*
X-37424Y24081D01*
X-37425Y23998D01*
X-37342Y23997D01*
X-37343Y23914D01*
X-37426Y23915D01*
X-37427Y23832D01*
X-37344Y23831D01*
X-37344Y23748D01*
X-37345Y23665D01*
X-37346Y23582D01*
X-37347Y23499D01*
X-37347Y23416D01*
X-37264Y23415D01*
X-37265Y23332D01*
X-37348Y23333D01*
X-37349Y23250D01*
X-37266Y23249D01*
X-37266Y23166D01*
X-37350Y23167D01*
X-37350Y23084D01*
X-37267Y23083D01*
X-37268Y23000D01*
X-37269Y22917D01*
X-37269Y22834D01*
X-37186Y22833D01*
X-37187Y22750D01*
X-37270Y22751D01*
X-37271Y22668D01*
X-37188Y22667D01*
X-37189Y22584D01*
X-37189Y22501D01*
X-37190Y22418D01*
X-37191Y22335D01*
X-37191Y22252D01*
X-37108Y22251D01*
X-37109Y22168D01*
X-37192Y22169D01*
X-37193Y22086D01*
X-37110Y22085D01*
X-37111Y22002D01*
X-37194Y22003D01*
X-37194Y21920D01*
X-37111Y21919D01*
X-37112Y21836D01*
X-37113Y21753D01*
X-37113Y21670D01*
X-37114Y21587D01*
X-37115Y21504D01*
X-37032Y21504D01*
X-37033Y21420D01*
X-37033Y21338D01*
X-37034Y21254D01*
X-37035Y21171D01*
X-37036Y21088D01*
X-36952Y21088D01*
X-36953Y21005D01*
X-37036Y21005D01*
X-37037Y20922D01*
X-36954Y20922D01*
X-36955Y20839D01*
X-37038Y20839D01*
X-37038Y20756D01*
X-36955Y20756D01*
X-36956Y20673D01*
X-37039Y20673D01*
X-37040Y20590D01*
X-36957Y20590D01*
X-36958Y20506D01*
X-36958Y20424D01*
X-36959Y20340D01*
X-36960Y20257D01*
X-36961Y20174D01*
X-36878Y20174D01*
X-36878Y20091D01*
X-36879Y20008D01*
X-36880Y19925D01*
X-36797Y19924D01*
X-36797Y19841D01*
X-36880Y19842D01*
X-36881Y19759D01*
X-36798Y19758D01*
X-36799Y19675D01*
X-36882Y19676D01*
X-36882Y19592D01*
X-36799Y19592D01*
X-36800Y19509D01*
X-36883Y19510D01*
X-36884Y19426D01*
X-36801Y19426D01*
X-36802Y19343D01*
X-36802Y19260D01*
X-36803Y19177D01*
X-36804Y19094D01*
X-36805Y19011D01*
X-36722Y19010D01*
X-36722Y18927D01*
X-36723Y18844D01*
X-36724Y18761D01*
X-36641Y18760D01*
X-36640Y18843D01*
X-36639Y18926D01*
X-36639Y19009D01*
X-36638Y19092D01*
X-36637Y19175D01*
X-36554Y19175D01*
X-36553Y19258D01*
X-36553Y19341D01*
X-36552Y19424D01*
X-36551Y19507D01*
X-36551Y19590D01*
X-36467Y19589D01*
X-36467Y19672D01*
X-36550Y19673D01*
X-36549Y19756D01*
X-36466Y19755D01*
X-36465Y19838D01*
X-36548Y19839D01*
X-36548Y19922D01*
X-36465Y19921D01*
X-36464Y20004D01*
X-36463Y20087D01*
X-36462Y20170D01*
X-36462Y20253D01*
X-36461Y20336D01*
X-36378Y20335D01*
X-36377Y20418D01*
X-36460Y20419D01*
X-36459Y20502D01*
X-36376Y20501D01*
X-36376Y20584D01*
X-36375Y20667D01*
X-36374Y20751D01*
X-36291Y20750D01*
X-36290Y20833D01*
X-36373Y20833D01*
X-36373Y20917D01*
X-36290Y20916D01*
X-36289Y20999D01*
X-36372Y21000D01*
X-36371Y21083D01*
X-36288Y21082D01*
X-36288Y21165D01*
X-36371Y21166D01*
X-36370Y21249D01*
X-36287Y21248D01*
X-36286Y21331D01*
X-36285Y21414D01*
X-36285Y21497D01*
X-36284Y21580D01*
X-36283Y21663D01*
X-36200Y21662D01*
X-36200Y21745D01*
X-36283Y21746D01*
X-36282Y21829D01*
X-36199Y21828D01*
X-36198Y21911D01*
X-36197Y21994D01*
X-36197Y22077D01*
X-36114Y22077D01*
X-36113Y22160D01*
X-36196Y22160D01*
X-36195Y22243D01*
X-36112Y22243D01*
X-36111Y22326D01*
X-36195Y22326D01*
X-36194Y22410D01*
X-36111Y22409D01*
X-36110Y22492D01*
X-36193Y22492D01*
X-36192Y22576D01*
X-36109Y22575D01*
X-36108Y22658D01*
X-36108Y22741D01*
X-36107Y22824D01*
X-36024Y22823D01*
X-36023Y22906D01*
X-36106Y22907D01*
X-36106Y22990D01*
X-36023Y22989D01*
X-36022Y23072D01*
X-36021Y23155D01*
X-36020Y23238D01*
X-35937Y23237D01*
X-35937Y23321D01*
X-36020Y23321D01*
X-36019Y23404D01*
X-35936Y23404D01*
X-35935Y23487D01*
X-36018Y23487D01*
X-36018Y23570D01*
X-35934Y23570D01*
X-35934Y23653D01*
X-36017Y23653D01*
X-36016Y23736D01*
X-35933Y23736D01*
X-35932Y23819D01*
X-35932Y23902D01*
X-35931Y23985D01*
X-35848Y23984D01*
X-35847Y24067D01*
X-35930Y24068D01*
X-35930Y24151D01*
X-35846Y24150D01*
X-35846Y24233D01*
X-35845Y24316D01*
X-35844Y24399D01*
X-35844Y24482D01*
X-35843Y24565D01*
X-35760Y24564D01*
X-35759Y24647D01*
X-35842Y24648D01*
X-35841Y24731D01*
X-35758Y24730D01*
X-35758Y24814D01*
X-35841Y24814D01*
X-35840Y24897D01*
X-35757Y24896D01*
X-35756Y24980D01*
X-35756Y25063D01*
X-35755Y25146D01*
X-35754Y25229D01*
X-35753Y25312D01*
X-35670Y25311D01*
X-35669Y25394D01*
X-35669Y25477D01*
X-35668Y25560D01*
X-35585Y25559D01*
X-35584Y25642D01*
X-35584Y25725D01*
X-35418Y25724D01*
X-35417Y25807D01*
X-35334Y25806D01*
X-35333Y25889D01*
X-35250Y25888D01*
X-35251Y25805D01*
X-35168Y25805D01*
X-35167Y25888D01*
X-35084Y25887D01*
X-35085Y25804D01*
X-35002Y25803D01*
X-35002Y25720D01*
X-34920Y25719D01*
X-34920Y25636D01*
X-34837Y25636D01*
X-34838Y25553D01*
X-34755Y25552D01*
X-34756Y25469D01*
X-34839Y25470D01*
X-34839Y25387D01*
X-34756Y25386D01*
X-34757Y25303D01*
X-34840Y25304D01*
X-34841Y25221D01*
X-34758Y25220D01*
X-34758Y25137D01*
X-34759Y25054D01*
X-34760Y24971D01*
X-34761Y24888D01*
X-34761Y24805D01*
X-34678Y24804D01*
X-34679Y24721D01*
X-34680Y24638D01*
X-34681Y24555D01*
X-34681Y24472D01*
X-34682Y24389D01*
X-34599Y24388D01*
X-34600Y24305D01*
X-34683Y24306D01*
X-34683Y24223D01*
X-34600Y24222D01*
X-34601Y24139D01*
X-34684Y24140D01*
X-34685Y24057D01*
X-34602Y24056D01*
X-34603Y23973D01*
X-34603Y23890D01*
X-34604Y23807D01*
X-34605Y23724D01*
X-34606Y23641D01*
X-34606Y23558D01*
X-34607Y23475D01*
X-34524Y23474D01*
X-34525Y23391D01*
X-34525Y23308D01*
X-34526Y23225D01*
X-34527Y23142D01*
X-34528Y23059D01*
X-34444Y23058D01*
X-34445Y22975D01*
X-34528Y22976D01*
X-34529Y22893D01*
X-34446Y22892D01*
X-34447Y22809D01*
X-34530Y22810D01*
X-34530Y22727D01*
X-34447Y22726D01*
X-34448Y22643D01*
X-34449Y22560D01*
X-34450Y22477D01*
X-34450Y22394D01*
X-34451Y22311D01*
X-34368Y22310D01*
X-34369Y22228D01*
X-34452Y22228D01*
X-34453Y22145D01*
X-34370Y22144D01*
X-34370Y22061D01*
X-34371Y21978D01*
X-34372Y21895D01*
X-34289Y21895D01*
X-34289Y21812D01*
X-34372Y21812D01*
X-34373Y21729D01*
X-34290Y21729D01*
X-34291Y21646D01*
X-34374Y21646D01*
X-34374Y21563D01*
X-34291Y21563D01*
X-34292Y21480D01*
X-34375Y21480D01*
X-34376Y21397D01*
X-34293Y21397D01*
X-34294Y21314D01*
X-34294Y21230D01*
X-34295Y21147D01*
X-34212Y21147D01*
X-34213Y21064D01*
X-34296Y21065D01*
X-34297Y20981D01*
X-34214Y20981D01*
X-34214Y20898D01*
X-34215Y20815D01*
X-34216Y20732D01*
X-34216Y20649D01*
X-34217Y20566D01*
X-34134Y20565D01*
X-34135Y20482D01*
X-34218Y20483D01*
X-34219Y20400D01*
X-34136Y20399D01*
X-34136Y20316D01*
X-34219Y20317D01*
X-34220Y20234D01*
X-34137Y20233D01*
X-34138Y20150D01*
X-34139Y20067D01*
X-34139Y19984D01*
X-34140Y19901D01*
X-34141Y19818D01*
X-34058Y19817D01*
X-34058Y19734D01*
X-34141Y19735D01*
X-34142Y19652D01*
X-34059Y19651D01*
X-34060Y19568D01*
X-34061Y19485D01*
X-34061Y19402D01*
X-33978Y19401D01*
X-33979Y19318D01*
X-34062Y19319D01*
X-34063Y19236D01*
X-33980Y19235D01*
X-33980Y19152D01*
X-34063Y19153D01*
X-34064Y19070D01*
X-33981Y19069D01*
X-33982Y18986D01*
X-34065Y18987D01*
X-34066Y18904D01*
X-33983Y18903D01*
X-33983Y18820D01*
X-33984Y18737D01*
X-33985Y18654D01*
X-33985Y18571D01*
X-33986Y18488D01*
X-33903Y18487D01*
X-33904Y18404D01*
X-33987Y18405D01*
X-33988Y18322D01*
X-33905Y18321D01*
X-33905Y18238D01*
X-33906Y18155D01*
X-33907Y18072D01*
X-33824Y18071D01*
X-33825Y17988D01*
X-33907Y17989D01*
X-33908Y17906D01*
X-33825Y17905D01*
X-33826Y17822D01*
X-33909Y17823D01*
X-33910Y17740D01*
X-33827Y17739D01*
X-33827Y17656D01*
X-33911Y17657D01*
X-33911Y17574D01*
X-33828Y17573D01*
X-33829Y17490D01*
X-33830Y17407D01*
X-33830Y17324D01*
X-33747Y17323D01*
X-33748Y17241D01*
X-33831Y17241D01*
X-33832Y17158D01*
X-33749Y17157D01*
X-33749Y17074D01*
X-33750Y16991D01*
X-33751Y16908D01*
X-33752Y16825D01*
X-33752Y16742D01*
X-33669Y16742D01*
X-33670Y16659D01*
X-33753Y16659D01*
X-33754Y16576D01*
X-33671Y16576D01*
X-33672Y16492D01*
X-33755Y16493D01*
X-33755Y16410D01*
X-33672Y16409D01*
X-33673Y16327D01*
X-33674Y16243D01*
X-33674Y16161D01*
X-33591Y16160D01*
X-33592Y16077D01*
X-33675Y16077D01*
X-33676Y15994D01*
X-33593Y15994D01*
X-33594Y15911D01*
X-33594Y15828D01*
X-33595Y15745D01*
X-33596Y15662D01*
X-33597Y15579D01*
X-33514Y15578D01*
X-33514Y15495D01*
X-33597Y15496D01*
X-33598Y15413D01*
X-33515Y15412D01*
X-33516Y15329D01*
X-33267Y15327D01*
X-33267Y15244D01*
X-33184Y15243D01*
X-33184Y15326D01*
X-32934Y15324D01*
X-32935Y15241D01*
X-32852Y15240D01*
X-32851Y15323D01*
X-32602Y15321D01*
X-32603Y15238D01*
X-32520Y15237D01*
X-32519Y15320D01*
X-32270Y15318D01*
X-32271Y15235D01*
X-32188Y15234D01*
X-32187Y15317D01*
X-31938Y15315D01*
X-31939Y15232D01*
X-31856Y15231D01*
X-31855Y15314D01*
X-31772Y15314D01*
X-31773Y15231D01*
X-31690Y15230D01*
X-31689Y15313D01*
X-31606Y15312D01*
X-31607Y15229D01*
X-31524Y15228D01*
X-31523Y15311D01*
X-31440Y15311D01*
X-31441Y15228D01*
X-31358Y15227D01*
X-31357Y15310D01*
X-31274Y15309D01*
X-31275Y15226D01*
X-31192Y15225D01*
X-31191Y15308D01*
X-31108Y15308D01*
X-31109Y15225D01*
X-31026Y15224D01*
X-31025Y15307D01*
X-30942Y15306D01*
X-30943Y15223D01*
X-30860Y15223D01*
X-30859Y15306D01*
X-30776Y15305D01*
X-30777Y15222D01*
X-30694Y15221D01*
X-30693Y15304D01*
X-30610Y15303D01*
X-30611Y15220D01*
X-30528Y15220D01*
X-30527Y15303D01*
X-30444Y15302D01*
X-30445Y15219D01*
X-30362Y15218D01*
X-30361Y15301D01*
X-30278Y15301D01*
X-30279Y15217D01*
X-30196Y15217D01*
X-30195Y15300D01*
X-30112Y15299D01*
X-30112Y15216D01*
X-30029Y15215D01*
X-30029Y15298D01*
X-29946Y15298D01*
X-29947Y15215D01*
X-29864Y15214D01*
X-29863Y15297D01*
X-29780Y15296D01*
X-29780Y15213D01*
X-29697Y15213D01*
X-29697Y15295D01*
X-29614Y15295D01*
X-29614Y15212D01*
X-29531Y15211D01*
X-29531Y15294D01*
X-29448Y15293D01*
X-29448Y15210D01*
X-29365Y15210D01*
X-29365Y15293D01*
X-29282Y15292D01*
X-29282Y15209D01*
X-29199Y15208D01*
X-29199Y15291D01*
X-29116Y15290D01*
X-29116Y15207D01*
X-29033Y15207D01*
X-29032Y15290D01*
X-28949Y15289D01*
X-28950Y15206D01*
X-28867Y15205D01*
X-28866Y15288D01*
X-28783Y15288D01*
X-28784Y15204D01*
X-28701Y15204D01*
X-28700Y15287D01*
X-28617Y15286D01*
X-28618Y15203D01*
X-28535Y15202D01*
X-28534Y15285D01*
X-28451Y15285D01*
X-28452Y15202D01*
X-28369Y15201D01*
X-28368Y15284D01*
X-28285Y15283D01*
X-28286Y15200D01*
X-28203Y15199D01*
X-28202Y15282D01*
X-28119Y15282D01*
X-28120Y15199D01*
X-28037Y15198D01*
X-28036Y15281D01*
X-27953Y15280D01*
X-27954Y15197D01*
X-27871Y15197D01*
X-27870Y15280D01*
X-27787Y15279D01*
X-27788Y15196D01*
X-27705Y15195D01*
X-27704Y15278D01*
X-27621Y15277D01*
X-27622Y15194D01*
X-27539Y15194D01*
X-27538Y15277D01*
X-27455Y15276D01*
X-27456Y15193D01*
X-27373Y15192D01*
X-27372Y15275D01*
X-27289Y15274D01*
X-27290Y15191D01*
X-27207Y15191D01*
X-27206Y15274D01*
X-27123Y15273D01*
X-27124Y15190D01*
X-27041Y15189D01*
X-27040Y15272D01*
X-26957Y15272D01*
X-26958Y15189D01*
X-26875Y15188D01*
X-26874Y15271D01*
X-26791Y15270D01*
X-26792Y15187D01*
X-26709Y15186D01*
X-26708Y15269D01*
X-26625Y15269D01*
X-26626Y15186D01*
X-26543Y15185D01*
X-26542Y15268D01*
X-26459Y15267D01*
X-26460Y15184D01*
X-26377Y15183D01*
X-26376Y15267D01*
X-26293Y15266D01*
X-26294Y15183D01*
X-26210Y15182D01*
X-26210Y15265D01*
X-26127Y15264D01*
X-26127Y15181D01*
X-26044Y15181D01*
X-26044Y15264D01*
X-25961Y15263D01*
X-25962Y15180D01*
X-25878Y15179D01*
X-25878Y15262D01*
X-25795Y15261D01*
X-25795Y15178D01*
X-25712Y15178D01*
X-25712Y15261D01*
X-25629Y15260D01*
X-25629Y15177D01*
X-25546Y15176D01*
X-25546Y15259D01*
X-25463Y15258D01*
X-25463Y15176D01*
X-25380Y15175D01*
X-25380Y15258D01*
X-25297Y15257D01*
X-25297Y15174D01*
X-25214Y15173D01*
X-25214Y15256D01*
X-25131Y15256D01*
X-25131Y15173D01*
X-25048Y15172D01*
X-25047Y15255D01*
X-24964Y15254D01*
X-24965Y15171D01*
X-24882Y15170D01*
X-24882Y15254D01*
X-24799Y15253D01*
X-24799Y15170D01*
X-24716Y15169D01*
X-24715Y15252D01*
X-24632Y15251D01*
X-24633Y15168D01*
X-24550Y15168D01*
X-24549Y15251D01*
X-24466Y15250D01*
X-24467Y15167D01*
X-24384Y15166D01*
X-24383Y15249D01*
X-24300Y15248D01*
X-24301Y15165D01*
X-24218Y15165D01*
X-24217Y15248D01*
X-24134Y15247D01*
X-24135Y15164D01*
X-24052Y15163D01*
X-24051Y15246D01*
X-23968Y15246D01*
X-23969Y15163D01*
X-23886Y15162D01*
X-23885Y15245D01*
X-23802Y15244D01*
X-23803Y15161D01*
X-23720Y15160D01*
X-23719Y15243D01*
X-23636Y15243D01*
X-23637Y15160D01*
X-23554Y15159D01*
X-23553Y15242D01*
X-23470Y15241D01*
X-23471Y15158D01*
X-23388Y15157D01*
X-23387Y15240D01*
X-23304Y15240D01*
X-23305Y15157D01*
X-23222Y15156D01*
X-23221Y15239D01*
X-23138Y15238D01*
X-23139Y15155D01*
X-23056Y15155D01*
X-23055Y15237D01*
X-22972Y15237D01*
X-22973Y15154D01*
X-22890Y15153D01*
X-22889Y15236D01*
X-22806Y15235D01*
X-22807Y15152D01*
X-22724Y15152D01*
X-22723Y15235D01*
X-22640Y15234D01*
X-22641Y15151D01*
X-22558Y15150D01*
X-22557Y15233D01*
X-22474Y15233D01*
X-22475Y15149D01*
X-22392Y15149D01*
X-22391Y15232D01*
X-22308Y15231D01*
X-22309Y15148D01*
X-22226Y15147D01*
X-22225Y15230D01*
X-22142Y15229D01*
X-22142Y15146D01*
X-22060Y15146D01*
X-22059Y15229D01*
X-21976Y15228D01*
X-21976Y15145D01*
X-21893Y15144D01*
X-21893Y15227D01*
X-21810Y15227D01*
X-21810Y15144D01*
X-21727Y15143D01*
X-21727Y15226D01*
X-21644Y15225D01*
X-21644Y15142D01*
X-21561Y15141D01*
X-21561Y15225D01*
X-21478Y15224D01*
X-21478Y15141D01*
X-21395Y15140D01*
X-21395Y15223D01*
X-21312Y15222D01*
X-21312Y15139D01*
X-21229Y15139D01*
X-21229Y15222D01*
X-21146Y15221D01*
X-21146Y15138D01*
X-20897Y15136D01*
X-20897Y15219D01*
X-20813Y15218D01*
X-20814Y15135D01*
X-20565Y15133D01*
X-20564Y15216D01*
X-20481Y15215D01*
X-20482Y15132D01*
X-20233Y15130D01*
X-20232Y15213D01*
X-20149Y15212D01*
X-20150Y15129D01*
X-19901Y15127D01*
X-19900Y15210D01*
X-19817Y15209D01*
X-19818Y15126D01*
X-19569Y15124D01*
X-19568Y15207D01*
X-19485Y15206D01*
X-19486Y15123D01*
X-19237Y15121D01*
X-19236Y15204D01*
X-19153Y15203D01*
X-19154Y15120D01*
X-18905Y15118D01*
X-18904Y15201D01*
X-18821Y15201D01*
X-18822Y15118D01*
X-18573Y15115D01*
X-18572Y15198D01*
X-18489Y15198D01*
X-18490Y15115D01*
X-18240Y15112D01*
X-18240Y15195D01*
X-18157Y15195D01*
X-18158Y15112D01*
X-17908Y15110D01*
X-17908Y15193D01*
X-17825Y15192D01*
X-17825Y15109D01*
X-9108Y15033D01*
X-9109Y14950D01*
X-9192Y14951D01*
X-9193Y14867D01*
X-9276Y14868D01*
X-9277Y14785D01*
X-9193Y14784D01*
X-9194Y14701D01*
X-9277Y14702D01*
X-9278Y14619D01*
X-34267Y14837D01*
X-34266Y14920D01*
X-34350Y14921D01*
X-34349Y15004D01*
X-34432Y15005D01*
X-34431Y15088D01*
X-34348Y15087D01*
X-34347Y15170D01*
X-34430Y15171D01*
X-34430Y15254D01*
X-34347Y15253D01*
X-34346Y15336D01*
X-34429Y15337D01*
X-34428Y15420D01*
X-34427Y15503D01*
X-34427Y15586D01*
X-34426Y15669D01*
X-34425Y15752D01*
X-34508Y15753D01*
X-34508Y15836D01*
X-34507Y15919D01*
X-34506Y16002D01*
X-34505Y16085D01*
X-34505Y16168D01*
X-34588Y16168D01*
X-34587Y16251D01*
X-34504Y16251D01*
X-34503Y16334D01*
X-34586Y16334D01*
X-34585Y16418D01*
X-34502Y16417D01*
X-34502Y16500D01*
X-34585Y16500D01*
X-34584Y16583D01*
X-34501Y16583D01*
X-34500Y16666D01*
X-34583Y16667D01*
X-34583Y16750D01*
X-34582Y16833D01*
X-34581Y16916D01*
X-34580Y16999D01*
X-34580Y17082D01*
X-34663Y17082D01*
X-34662Y17165D01*
X-34661Y17248D01*
X-34661Y17332D01*
X-34744Y17332D01*
X-34743Y17415D01*
X-34660Y17414D01*
X-34659Y17497D01*
X-34742Y17498D01*
X-34741Y17581D01*
X-34658Y17581D01*
X-34658Y17663D01*
X-34741Y17664D01*
X-34740Y17747D01*
X-34657Y17747D01*
X-34656Y17830D01*
X-34739Y17830D01*
X-34738Y17913D01*
X-34738Y17996D01*
X-34737Y18079D01*
X-34820Y18080D01*
X-34819Y18163D01*
X-34736Y18162D01*
X-34736Y18245D01*
X-34819Y18246D01*
X-34818Y18329D01*
X-34817Y18412D01*
X-34816Y18495D01*
X-34900Y18496D01*
X-34899Y18579D01*
X-34816Y18578D01*
X-34815Y18661D01*
X-34898Y18662D01*
X-34897Y18745D01*
X-34814Y18744D01*
X-34813Y18827D01*
X-34897Y18828D01*
X-34896Y18911D01*
X-34813Y18910D01*
X-34812Y18993D01*
X-34895Y18994D01*
X-34894Y19077D01*
X-34894Y19160D01*
X-34893Y19243D01*
X-34892Y19326D01*
X-34892Y19409D01*
X-34975Y19410D01*
X-34974Y19493D01*
X-34973Y19576D01*
X-34972Y19659D01*
X-34972Y19742D01*
X-34971Y19825D01*
X-35054Y19826D01*
X-35053Y19909D01*
X-34970Y19908D01*
X-34969Y19991D01*
X-35052Y19992D01*
X-35052Y20075D01*
X-34969Y20074D01*
X-34968Y20157D01*
X-35051Y20158D01*
X-35050Y20241D01*
X-35050Y20324D01*
X-35049Y20407D01*
X-35048Y20490D01*
X-35047Y20573D01*
X-35130Y20574D01*
X-35130Y20657D01*
X-35047Y20656D01*
X-35046Y20739D01*
X-35129Y20740D01*
X-35128Y20823D01*
X-35127Y20906D01*
X-35127Y20989D01*
X-35126Y21072D01*
X-35125Y21155D01*
X-35208Y21156D01*
X-35208Y21238D01*
X-35125Y21238D01*
X-35124Y21321D01*
X-35207Y21321D01*
X-35206Y21405D01*
X-35206Y21488D01*
X-35205Y21571D01*
X-35204Y21654D01*
X-35203Y21737D01*
X-35286Y21737D01*
X-35287Y21654D01*
X-35370Y21655D01*
X-35371Y21572D01*
X-35288Y21571D01*
X-35289Y21488D01*
X-35372Y21489D01*
X-35372Y21406D01*
X-35373Y21323D01*
X-35374Y21240D01*
X-35374Y21157D01*
X-35375Y21074D01*
X-35458Y21075D01*
X-35459Y20992D01*
X-35460Y20909D01*
X-35460Y20826D01*
X-35461Y20742D01*
X-35462Y20660D01*
X-35545Y20660D01*
X-35546Y20577D01*
X-35462Y20576D01*
X-35463Y20493D01*
X-35546Y20494D01*
X-35547Y20411D01*
X-35464Y20411D01*
X-35465Y20327D01*
X-35548Y20328D01*
X-35548Y20245D01*
X-35465Y20244D01*
X-35466Y20161D01*
X-35549Y20162D01*
X-35550Y20079D01*
X-35551Y19996D01*
X-35551Y19913D01*
X-35634Y19914D01*
X-35635Y19831D01*
X-35552Y19830D01*
X-35553Y19747D01*
X-35636Y19748D01*
X-35636Y19665D01*
X-35637Y19582D01*
X-35638Y19499D01*
X-35721Y19499D01*
X-35722Y19416D01*
X-35639Y19416D01*
X-35639Y19333D01*
X-35722Y19333D01*
X-35723Y19250D01*
X-35640Y19250D01*
X-35641Y19167D01*
X-35724Y19167D01*
X-35725Y19084D01*
X-35642Y19084D01*
X-35642Y19001D01*
X-35725Y19001D01*
X-35726Y18918D01*
X-35727Y18835D01*
X-35728Y18752D01*
X-35811Y18753D01*
X-35811Y18670D01*
X-35728Y18669D01*
X-35729Y18586D01*
X-35812Y18587D01*
X-35813Y18504D01*
X-35813Y18421D01*
X-35814Y18338D01*
X-35897Y18339D01*
X-35898Y18256D01*
X-35815Y18255D01*
X-35816Y18172D01*
X-35899Y18172D01*
X-35899Y18090D01*
X-35816Y18089D01*
X-35817Y18006D01*
X-35900Y18007D01*
X-35901Y17923D01*
X-35818Y17923D01*
X-35818Y17840D01*
X-35901Y17840D01*
X-35902Y17757D01*
X-35903Y17674D01*
X-35904Y17591D01*
X-35904Y17508D01*
X-35905Y17425D01*
X-35988Y17426D01*
X-35989Y17343D01*
X-35990Y17260D01*
X-35990Y17177D01*
X-35991Y17094D01*
X-35992Y17011D01*
X-36075Y17012D01*
X-36075Y16929D01*
X-35993Y16928D01*
X-35993Y16845D01*
X-36076Y16846D01*
X-36077Y16763D01*
X-35994Y16762D01*
X-35995Y16679D01*
X-36078Y16680D01*
X-36078Y16597D01*
X-36079Y16514D01*
X-36080Y16431D01*
X-36081Y16348D01*
X-36081Y16264D01*
X-36164Y16265D01*
X-36165Y16182D01*
X-36166Y16099D01*
X-36167Y16016D01*
X-36167Y15933D01*
X-36168Y15850D01*
X-36169Y15767D01*
X-36169Y15684D01*
X-36252Y15685D01*
X-36253Y15602D01*
X-36170Y15601D01*
X-36171Y15518D01*
X-36254Y15519D01*
X-36255Y15436D01*
X-36255Y15353D01*
X-36256Y15270D01*
X-36257Y15187D01*
X-36257Y15104D01*
X-36340Y15104D01*
X-36341Y15021D01*
X-36342Y14938D01*
X-36343Y14855D01*
X-37090Y14862D01*
X-37089Y14945D01*
X-37172Y14946D01*
X-37171Y15029D01*
X-37171Y15112D01*
X-37170Y15195D01*
X-37253Y15195D01*
X-37252Y15278D01*
X-37169Y15278D01*
X-37168Y15361D01*
X-37252Y15361D01*
X-37251Y15444D01*
X-37168Y15444D01*
X-37167Y15527D01*
X-37250Y15527D01*
X-37249Y15610D01*
X-37166Y15610D01*
X-37166Y15693D01*
X-37249Y15694D01*
X-37248Y15777D01*
X-37247Y15859D01*
X-37247Y15943D01*
X-37246Y16026D01*
X-37245Y16109D01*
X-37328Y16109D01*
X-37327Y16192D01*
X-37327Y16275D01*
X-37326Y16358D01*
X-37325Y16441D01*
X-37325Y16524D01*
X-37407Y16525D01*
X-37407Y16608D01*
X-37324Y16607D01*
X-37323Y16691D01*
X-37406Y16691D01*
X-37405Y16774D01*
X-37322Y16773D01*
X-37321Y16857D01*
X-37405Y16857D01*
X-37404Y16940D01*
X-37403Y17023D01*
X-37402Y17106D01*
X-37402Y17189D01*
X-37401Y17272D01*
X-37484Y17273D01*
X-37483Y17356D01*
X-37483Y17439D01*
X-37482Y17522D01*
X-37481Y17605D01*
X-37480Y17688D01*
X-37563Y17689D01*
X-37563Y17772D01*
X-37480Y17771D01*
X-37479Y17854D01*
X-37562Y17855D01*
X-37561Y17938D01*
X-37478Y17937D01*
X-37477Y18020D01*
X-37560Y18021D01*
X-37560Y18104D01*
X-37559Y18187D01*
X-37558Y18270D01*
X-37558Y18353D01*
X-37557Y18436D01*
X-37640Y18437D01*
X-37639Y18520D01*
X-37638Y18603D01*
X-37638Y18686D01*
X-37637Y18769D01*
X-37636Y18852D01*
X-37719Y18853D01*
X-37718Y18936D01*
X-37635Y18935D01*
X-37635Y19018D01*
X-37718Y19019D01*
X-37717Y19102D01*
X-37634Y19101D01*
X-37633Y19184D01*
X-37716Y19185D01*
X-37716Y19268D01*
X-37715Y19351D01*
X-37714Y19434D01*
X-37714Y19517D01*
X-37713Y19600D01*
X-37796Y19601D01*
X-37795Y19684D01*
X-37712Y19683D01*
X-37711Y19766D01*
X-37794Y19767D01*
X-37794Y19850D01*
X-37793Y19933D01*
X-37792Y20016D01*
X-37791Y20099D01*
X-37791Y20182D01*
X-37874Y20182D01*
X-37873Y20265D01*
X-37790Y20265D01*
X-37789Y20348D01*
X-37872Y20348D01*
X-37872Y20432D01*
X-37789Y20431D01*
X-37788Y20514D01*
X-37871Y20515D01*
X-37870Y20597D01*
X-37869Y20681D01*
X-37869Y20764D01*
X-37952Y20764D01*
X-37951Y20847D01*
X-37868Y20847D01*
X-37867Y20930D01*
X-37950Y20930D01*
X-37949Y21013D01*
X-37866Y21013D01*
X-37866Y21096D01*
X-37949Y21096D01*
X-37948Y21179D01*
X-37947Y21262D01*
X-37947Y21345D01*
X-38030Y21346D01*
X-38029Y21429D01*
X-37946Y21429D01*
X-37945Y21511D01*
X-38028Y21512D01*
X-38027Y21595D01*
X-37944Y21595D01*
X-37944Y21678D01*
X-38027Y21678D01*
X-38026Y21761D01*
X-38025Y21844D01*
X-38025Y21927D01*
X-38108Y21928D01*
X-38108Y21845D01*
X-38109Y21762D01*
X-38110Y21679D01*
X-38193Y21680D01*
X-38194Y21597D01*
X-38110Y21596D01*
X-38111Y21513D01*
X-38194Y21514D01*
X-38195Y21431D01*
X-38112Y21430D01*
X-38113Y21347D01*
X-38196Y21348D01*
X-38196Y21265D01*
X-38113Y21264D01*
X-38114Y21181D01*
X-38197Y21182D01*
X-38198Y21099D01*
X-38199Y21015D01*
X-38199Y20933D01*
X-38200Y20850D01*
X-38201Y20766D01*
X-38284Y20767D01*
X-38285Y20684D01*
X-38285Y20601D01*
X-38286Y20518D01*
X-38287Y20435D01*
X-38287Y20352D01*
X-38370Y20353D01*
X-38371Y20270D01*
X-38288Y20269D01*
X-38289Y20186D01*
X-38372Y20187D01*
X-38373Y20104D01*
X-38289Y20103D01*
X-38290Y20020D01*
X-38373Y20021D01*
X-38374Y19938D01*
X-38375Y19855D01*
X-38375Y19772D01*
X-38376Y19689D01*
X-38377Y19606D01*
X-38460Y19606D01*
X-38461Y19523D01*
X-38461Y19440D01*
X-38462Y19357D01*
X-38463Y19274D01*
X-38464Y19191D01*
X-38547Y19192D01*
X-38547Y19109D01*
X-38464Y19108D01*
X-38465Y19025D01*
X-38548Y19026D01*
X-38549Y18943D01*
X-38466Y18942D01*
X-38466Y18859D01*
X-38550Y18860D01*
X-38550Y18777D01*
X-38551Y18694D01*
X-38552Y18611D01*
X-38552Y18528D01*
X-38553Y18445D01*
X-38636Y18446D01*
X-38637Y18362D01*
X-38638Y18280D01*
X-38638Y18196D01*
X-38639Y18113D01*
X-38640Y18030D01*
X-38723Y18031D01*
X-38723Y17948D01*
X-38640Y17947D01*
X-38641Y17864D01*
X-38724Y17865D01*
X-38725Y17782D01*
X-38642Y17781D01*
X-38643Y17698D01*
X-38726Y17699D01*
X-38726Y17616D01*
X-38643Y17615D01*
X-38644Y17532D01*
X-38727Y17533D01*
X-38728Y17450D01*
X-38728Y17367D01*
X-38729Y17284D01*
X-38812Y17285D01*
X-38813Y17202D01*
X-38730Y17201D01*
X-38731Y17118D01*
X-38814Y17119D01*
X-38814Y17036D01*
X-38815Y16953D01*
X-38816Y16870D01*
X-38817Y16786D01*
X-38817Y16703D01*
X-38900Y16704D01*
X-38901Y16621D01*
X-38818Y16621D01*
X-38819Y16537D01*
X-38902Y16538D01*
X-38903Y16455D01*
X-38820Y16454D01*
X-38820Y16371D01*
X-38903Y16372D01*
X-38904Y16289D01*
X-38905Y16206D01*
X-38906Y16123D01*
X-38989Y16124D01*
X-38989Y16041D01*
X-38906Y16040D01*
X-38907Y15957D01*
X-38990Y15958D01*
X-38991Y15875D01*
X-38908Y15874D01*
X-38908Y15791D01*
X-38991Y15792D01*
X-38992Y15709D01*
X-38993Y15626D01*
X-38994Y15543D01*
X-39077Y15543D01*
X-39077Y15460D01*
X-38994Y15460D01*
X-38995Y15377D01*
X-39078Y15377D01*
X-39079Y15294D01*
X-38996Y15294D01*
X-38996Y15211D01*
X-39079Y15211D01*
X-39080Y15128D01*
X-39081Y15045D01*
X-39082Y14962D01*
X-39165Y14963D01*
X-39165Y14880D01*
X-39913Y14886D01*
X-39912Y14969D01*
X-39829Y14969D01*
X-39828Y15052D01*
X-39911Y15053D01*
X-39910Y15135D01*
X-39993Y15136D01*
X-39993Y15219D01*
X-39992Y15302D01*
X-39991Y15385D01*
X-39990Y15468D01*
X-39990Y15551D01*
X-40073Y15552D01*
X-40072Y15635D01*
X-39989Y15634D01*
X-39988Y15717D01*
X-40071Y15718D01*
X-40071Y15801D01*
X-39988Y15800D01*
X-39987Y15883D01*
X-40070Y15884D01*
X-40069Y15967D01*
X-40069Y16050D01*
X-40068Y16133D01*
X-40067Y16216D01*
X-40066Y16299D01*
X-40149Y16300D01*
X-40149Y16383D01*
X-40066Y16382D01*
X-40065Y16465D01*
X-40148Y16466D01*
X-40147Y16549D01*
X-40146Y16632D01*
X-40146Y16715D01*
X-40145Y16798D01*
X-40144Y16881D01*
X-40227Y16882D01*
X-40227Y16965D01*
X-40143Y16964D01*
X-40143Y17047D01*
X-40226Y17048D01*
X-40225Y17131D01*
X-40224Y17214D01*
X-40224Y17297D01*
X-40223Y17380D01*
X-40222Y17463D01*
X-40305Y17464D01*
X-40304Y17547D01*
X-40222Y17546D01*
X-40221Y17629D01*
X-40304Y17630D01*
X-40303Y17713D01*
X-40302Y17796D01*
X-40302Y17879D01*
X-40301Y17962D01*
X-40300Y18045D01*
X-40383Y18046D01*
X-40383Y18129D01*
X-40299Y18128D01*
X-40299Y18211D01*
X-40382Y18212D01*
X-40381Y18295D01*
X-40298Y18294D01*
X-40297Y18377D01*
X-40380Y18378D01*
X-40380Y18461D01*
X-40379Y18544D01*
X-40378Y18627D01*
X-40377Y18710D01*
X-40377Y18793D01*
X-40460Y18793D01*
X-40459Y18877D01*
X-40458Y18959D01*
X-40457Y19043D01*
X-40457Y19126D01*
X-40456Y19209D01*
X-40539Y19209D01*
X-40538Y19292D01*
X-40455Y19292D01*
X-40455Y19375D01*
X-40538Y19375D01*
X-40537Y19458D01*
X-40454Y19458D01*
X-40453Y19541D01*
X-40536Y19541D01*
X-40535Y19624D01*
X-40452Y19624D01*
X-40452Y19707D01*
X-40535Y19707D01*
X-40534Y19791D01*
X-40533Y19873D01*
X-40532Y19956D01*
X-40616Y19957D01*
X-40615Y20040D01*
X-40532Y20040D01*
X-40531Y20123D01*
X-40614Y20123D01*
X-40613Y20206D01*
X-40613Y20289D01*
X-40612Y20372D01*
X-40695Y20373D01*
X-40694Y20456D01*
X-40611Y20455D01*
X-40611Y20538D01*
X-40694Y20539D01*
X-40693Y20622D01*
X-40610Y20621D01*
X-40609Y20704D01*
X-40692Y20705D01*
X-40691Y20788D01*
X-40608Y20787D01*
X-40608Y20870D01*
X-40691Y20871D01*
X-40690Y20954D01*
X-40689Y21037D01*
X-40688Y21120D01*
X-40688Y21203D01*
X-40687Y21286D01*
X-40770Y21287D01*
X-40769Y21370D01*
X-40769Y21453D01*
X-40768Y21536D01*
X-40851Y21537D01*
X-40850Y21620D01*
X-40767Y21619D01*
X-40766Y21702D01*
X-40849Y21703D01*
X-40849Y21786D01*
X-40932Y21787D01*
X-40933Y21704D01*
X-40933Y21621D01*
X-40934Y21538D01*
X-40935Y21454D01*
X-40935Y21372D01*
X-41018Y21372D01*
X-41019Y21289D01*
X-40936Y21289D01*
X-40937Y21205D01*
X-41020Y21206D01*
X-41021Y21123D01*
X-40938Y21123D01*
X-40938Y21039D01*
X-41021Y21040D01*
X-41022Y20957D01*
X-41023Y20874D01*
X-41023Y20791D01*
X-41024Y20708D01*
X-41025Y20625D01*
X-41108Y20626D01*
X-41109Y20543D01*
X-41109Y20460D01*
X-41110Y20377D01*
X-41111Y20294D01*
X-41111Y20211D01*
X-41112Y20128D01*
X-41113Y20045D01*
X-41196Y20045D01*
X-41197Y19962D01*
X-41114Y19962D01*
X-41114Y19879D01*
X-41197Y19879D01*
X-41198Y19796D01*
X-41199Y19713D01*
X-41200Y19630D01*
X-41200Y19547D01*
X-41201Y19464D01*
X-41284Y19465D01*
X-41285Y19382D01*
X-41202Y19381D01*
X-41203Y19298D01*
X-41285Y19299D01*
X-41286Y19216D01*
X-41287Y19133D01*
X-41288Y19050D01*
X-41288Y18967D01*
X-41289Y18884D01*
X-41372Y18884D01*
X-41373Y18801D01*
X-41290Y18801D01*
X-41291Y18718D01*
X-41374Y18719D01*
X-41374Y18635D01*
X-41291Y18635D01*
X-41292Y18552D01*
X-41375Y18552D01*
X-41376Y18469D01*
X-41377Y18386D01*
X-41377Y18303D01*
X-41378Y18220D01*
X-41379Y18137D01*
X-41462Y18138D01*
X-41462Y18055D01*
X-41463Y17972D01*
X-41464Y17889D01*
X-41465Y17806D01*
X-41465Y17723D01*
X-41548Y17724D01*
X-41549Y17641D01*
X-41466Y17640D01*
X-41467Y17557D01*
X-41550Y17558D01*
X-41550Y17475D01*
X-41467Y17474D01*
X-41468Y17391D01*
X-41551Y17392D01*
X-41552Y17309D01*
X-41469Y17308D01*
X-41470Y17225D01*
X-41553Y17226D01*
X-41553Y17142D01*
X-41554Y17060D01*
X-41555Y16976D01*
X-41638Y16977D01*
X-41639Y16894D01*
X-41556Y16894D01*
X-41556Y16810D01*
X-41639Y16811D01*
X-41640Y16728D01*
X-41641Y16645D01*
X-41642Y16562D01*
X-41725Y16563D01*
X-41725Y16480D01*
X-41642Y16479D01*
X-41643Y16396D01*
X-41726Y16397D01*
X-41727Y16314D01*
X-41644Y16313D01*
X-41644Y16230D01*
X-41728Y16231D01*
X-41728Y16148D01*
X-41645Y16147D01*
X-41646Y16064D01*
X-41729Y16065D01*
X-41730Y15982D01*
X-41730Y15899D01*
X-41731Y15816D01*
X-41732Y15733D01*
X-41732Y15650D01*
X-41816Y15650D01*
X-41816Y15567D01*
X-41817Y15484D01*
X-41818Y15401D01*
X-41901Y15402D01*
X-41901Y15319D01*
X-41818Y15318D01*
X-41819Y15235D01*
X-41902Y15236D01*
X-41903Y15153D01*
X-41820Y15152D01*
X-41821Y15069D01*
X-41904Y15070D01*
X-41904Y14987D01*
X-41987Y14988D01*
X-41988Y14905D01*
X-50041Y14975D01*
X-50040Y15058D01*
X-49957Y15057D01*
X-49957Y15140D01*
X-50040Y15141D01*
X-50039Y15224D01*
X-49956Y15223D01*
X-49955Y15306D01*
X-50038Y15307D01*
X-50037Y15390D01*
X-47132Y15365D01*
X-47131Y15448D01*
X-47048Y15447D01*
X-47049Y15364D01*
X-46800Y15362D01*
X-46799Y15445D01*
X-46716Y15444D01*
X-46717Y15361D01*
X-46468Y15359D01*
X-46467Y15442D01*
X-46384Y15441D01*
X-46385Y15358D01*
X-46301Y15357D01*
X-46301Y15440D01*
X-46218Y15440D01*
X-46218Y15357D01*
X-46136Y15356D01*
X-46135Y15439D01*
X-46052Y15438D01*
X-46053Y15355D01*
X-45970Y15355D01*
X-45969Y15438D01*
X-45886Y15437D01*
X-45886Y15354D01*
X-45803Y15353D01*
X-45803Y15436D01*
X-45720Y15435D01*
X-45720Y15352D01*
X-45637Y15352D01*
X-45637Y15435D01*
X-45554Y15434D01*
X-45554Y15351D01*
X-45471Y15350D01*
X-45471Y15433D01*
X-45388Y15432D01*
X-45388Y15349D01*
X-45305Y15349D01*
X-45305Y15432D01*
X-45222Y15431D01*
X-45222Y15348D01*
X-45139Y15347D01*
X-45138Y15430D01*
X-45055Y15429D01*
X-45056Y15347D01*
X-44973Y15346D01*
X-44973Y15429D01*
X-44890Y15428D01*
X-44890Y15345D01*
X-44807Y15344D01*
X-44806Y15427D01*
X-44723Y15427D01*
X-44724Y15344D01*
X-44641Y15343D01*
X-44640Y15426D01*
X-44557Y15425D01*
X-44558Y15342D01*
X-44475Y15341D01*
X-44474Y15425D01*
X-44391Y15424D01*
X-44392Y15341D01*
X-44309Y15340D01*
X-44308Y15423D01*
X-44225Y15422D01*
X-44226Y15339D01*
X-44143Y15338D01*
X-44142Y15421D01*
X-44059Y15421D01*
X-44060Y15338D01*
X-43977Y15337D01*
X-43976Y15420D01*
X-43893Y15419D01*
X-43894Y15336D01*
X-43811Y15336D01*
X-43810Y15419D01*
X-43727Y15418D01*
X-43728Y15335D01*
X-43645Y15334D01*
X-43644Y15417D01*
X-43561Y15416D01*
X-43562Y15334D01*
X-43479Y15333D01*
X-43478Y15416D01*
X-43395Y15415D01*
X-43396Y15332D01*
X-43313Y15331D01*
X-43312Y15414D01*
X-43229Y15414D01*
X-43230Y15330D01*
X-43147Y15330D01*
X-43146Y15413D01*
X-42897Y15411D01*
X-42898Y15328D01*
X-42815Y15327D01*
X-42814Y15410D01*
X-42731Y15409D01*
X-42730Y15492D01*
X-42647Y15492D01*
X-42647Y15574D01*
X-42646Y15658D01*
X-42645Y15741D01*
X-42644Y15824D01*
X-42643Y15907D01*
X-42643Y15990D01*
X-42560Y15989D01*
X-42559Y16072D01*
X-42558Y16155D01*
X-42558Y16238D01*
X-42557Y16321D01*
X-42474Y16320D01*
X-42473Y16403D01*
X-42556Y16404D01*
X-42555Y16487D01*
X-42472Y16486D01*
X-42472Y16569D01*
X-42555Y16570D01*
X-42554Y16653D01*
X-42471Y16652D01*
X-42470Y16735D01*
X-42553Y16736D01*
X-42553Y16819D01*
X-42470Y16818D01*
X-42469Y16901D01*
X-42468Y16984D01*
X-42467Y17067D01*
X-42467Y17151D01*
X-42466Y17233D01*
X-42383Y17233D01*
X-42382Y17316D01*
X-42382Y17399D01*
X-42381Y17482D01*
X-42380Y17565D01*
X-42379Y17648D01*
X-42296Y17647D01*
X-42296Y17730D01*
X-42379Y17731D01*
X-42378Y17814D01*
X-42295Y17813D01*
X-42294Y17896D01*
X-42377Y17897D01*
X-42376Y17980D01*
X-42293Y17979D01*
X-42293Y18062D01*
X-42376Y18063D01*
X-42375Y18146D01*
X-42292Y18145D01*
X-42291Y18228D01*
X-42290Y18311D01*
X-42290Y18394D01*
X-42207Y18394D01*
X-42206Y18477D01*
X-42289Y18477D01*
X-42288Y18560D01*
X-42205Y18560D01*
X-42205Y18643D01*
X-42204Y18726D01*
X-42203Y18809D01*
X-42202Y18892D01*
X-42202Y18975D01*
X-42119Y18974D01*
X-42118Y19057D01*
X-42201Y19058D01*
X-42200Y19141D01*
X-42117Y19140D01*
X-42116Y19223D01*
X-42200Y19224D01*
X-42199Y19307D01*
X-42116Y19306D01*
X-42115Y19389D01*
X-42114Y19472D01*
X-42114Y19555D01*
X-42113Y19638D01*
X-42112Y19721D01*
X-42029Y19721D01*
X-42028Y19804D01*
X-42028Y19886D01*
X-42027Y19970D01*
X-42026Y20053D01*
X-42026Y20136D01*
X-41943Y20135D01*
X-41942Y20218D01*
X-42025Y20219D01*
X-42024Y20302D01*
X-41941Y20301D01*
X-41940Y20384D01*
X-42023Y20385D01*
X-42023Y20468D01*
X-41940Y20467D01*
X-41939Y20550D01*
X-41938Y20633D01*
X-41937Y20716D01*
X-41937Y20799D01*
X-41936Y20882D01*
X-41935Y20965D01*
X-41934Y21048D01*
X-41851Y21047D01*
X-41851Y21130D01*
X-41850Y21213D01*
X-41849Y21296D01*
X-41849Y21380D01*
X-41848Y21463D01*
X-41765Y21462D01*
X-41764Y21545D01*
X-41847Y21545D01*
X-41846Y21629D01*
X-41763Y21628D01*
X-41763Y21711D01*
X-41846Y21712D01*
X-41845Y21795D01*
X-41762Y21794D01*
X-41761Y21877D01*
X-41761Y21960D01*
X-41760Y22043D01*
X-41759Y22126D01*
X-41758Y22209D01*
X-41675Y22208D01*
X-41675Y22291D01*
X-41758Y22292D01*
X-41757Y22375D01*
X-41674Y22374D01*
X-41673Y22457D01*
X-41672Y22540D01*
X-41672Y22623D01*
X-41589Y22623D01*
X-41588Y22706D01*
X-41671Y22706D01*
X-41670Y22789D01*
X-41587Y22789D01*
X-41587Y22872D01*
X-41669Y22872D01*
X-41669Y22955D01*
X-41586Y22955D01*
X-41585Y23038D01*
X-41668Y23039D01*
X-41667Y23121D01*
X-41584Y23121D01*
X-41584Y23204D01*
X-41583Y23287D01*
X-41582Y23370D01*
X-41499Y23369D01*
X-41498Y23452D01*
X-41581Y23453D01*
X-41581Y23536D01*
X-41498Y23535D01*
X-41497Y23618D01*
X-41496Y23701D01*
X-41495Y23784D01*
X-41495Y23867D01*
X-41494Y23950D01*
X-41411Y23949D01*
X-41410Y24033D01*
X-41493Y24033D01*
X-41493Y24116D01*
X-41410Y24115D01*
X-41409Y24199D01*
X-41492Y24199D01*
X-41491Y24282D01*
X-41408Y24282D01*
X-41407Y24365D01*
X-41407Y24448D01*
X-41406Y24531D01*
X-41405Y24614D01*
X-41405Y24697D01*
X-41321Y24696D01*
X-41321Y24779D01*
X-41404Y24780D01*
X-41403Y24863D01*
X-41320Y24862D01*
X-41319Y24945D01*
X-41319Y25028D01*
X-41318Y25111D01*
X-41235Y25110D01*
X-41234Y25193D01*
X-41317Y25194D01*
X-41316Y25277D01*
X-41233Y25276D01*
X-41233Y25359D01*
X-41316Y25360D01*
X-41315Y25443D01*
X-41232Y25442D01*
X-41231Y25526D01*
X-41230Y25609D01*
X-41230Y25692D01*
X-41147Y25691D01*
X-41146Y25774D01*
X-41063Y25773D01*
X-41062Y25856D01*
X-40979Y25855D01*
X-40979Y25938D01*
X-40896Y25938D01*
D02*
G37*
G36*
X1005337Y-155808D02*
X1005050D01*
Y-156094D01*
X1004764D01*
Y-156380D01*
Y-156667D01*
X1004478D01*
Y-156953D01*
X1004192D01*
Y-157239D01*
X1003905D01*
Y-157526D01*
Y-157812D01*
X1003619D01*
Y-158098D01*
X1003333D01*
Y-158385D01*
X1003046D01*
Y-158671D01*
X1002760D01*
Y-158957D01*
Y-159244D01*
X1002474D01*
Y-159530D01*
X1002187D01*
Y-159816D01*
X1001901D01*
Y-160102D01*
Y-160389D01*
X1001615D01*
Y-160675D01*
X1001328D01*
Y-160961D01*
X1001042D01*
Y-161248D01*
X1000756D01*
Y-161534D01*
Y-161820D01*
X1000469D01*
Y-162107D01*
X1000183D01*
Y-162393D01*
X999897D01*
Y-162679D01*
Y-162966D01*
X999611D01*
Y-163252D01*
X999324D01*
Y-163538D01*
X999038D01*
Y-163824D01*
Y-164111D01*
X998752D01*
Y-164397D01*
X998465D01*
Y-164683D01*
X998179D01*
Y-164970D01*
X997893D01*
Y-165256D01*
Y-165542D01*
X997606D01*
Y-165829D01*
X997320D01*
Y-166115D01*
X997034D01*
Y-166401D01*
Y-166688D01*
X996747D01*
Y-166974D01*
X996461D01*
Y-167260D01*
X996175D01*
Y-167547D01*
Y-167833D01*
X995889D01*
Y-168119D01*
X995602D01*
Y-168405D01*
X995316D01*
Y-168692D01*
X995030D01*
Y-168978D01*
Y-169264D01*
X994743D01*
Y-169551D01*
X994457D01*
Y-169837D01*
X994171D01*
Y-170123D01*
Y-170410D01*
X993884D01*
Y-170696D01*
X993598D01*
Y-170982D01*
X993312D01*
Y-171269D01*
Y-171555D01*
X993025D01*
Y-171841D01*
X992739D01*
Y-172127D01*
X992453D01*
Y-172414D01*
X992166D01*
Y-172700D01*
Y-172986D01*
X991880D01*
Y-173273D01*
X991594D01*
Y-173559D01*
X991308D01*
Y-173845D01*
Y-174132D01*
X991021D01*
Y-174418D01*
X990735D01*
Y-174704D01*
X990449D01*
Y-174991D01*
X990162D01*
Y-175277D01*
Y-175563D01*
X990449D01*
Y-175850D01*
Y-176136D01*
X990735D01*
Y-176422D01*
Y-176709D01*
X991021D01*
Y-176995D01*
X991308D01*
Y-177281D01*
Y-177568D01*
X991594D01*
Y-177854D01*
Y-178140D01*
X991880D01*
Y-178426D01*
Y-178713D01*
X992166D01*
Y-178999D01*
Y-179285D01*
X992453D01*
Y-179572D01*
Y-179858D01*
X992739D01*
Y-180144D01*
Y-180431D01*
X993025D01*
Y-180717D01*
Y-181003D01*
X993312D01*
Y-181290D01*
Y-181576D01*
X993598D01*
Y-181862D01*
X993884D01*
Y-182149D01*
Y-182435D01*
X994171D01*
Y-182721D01*
Y-183007D01*
X994457D01*
Y-183294D01*
Y-183580D01*
X994743D01*
Y-183866D01*
Y-184153D01*
X995030D01*
Y-184439D01*
Y-184725D01*
X995316D01*
Y-185012D01*
Y-185298D01*
X995602D01*
Y-185584D01*
Y-185871D01*
X995889D01*
Y-186157D01*
X996175D01*
Y-186443D01*
Y-186730D01*
X996461D01*
Y-187016D01*
Y-187302D01*
X996747D01*
Y-187588D01*
Y-187875D01*
X997034D01*
Y-188161D01*
Y-188447D01*
X997320D01*
Y-188734D01*
Y-189020D01*
X997606D01*
Y-189306D01*
Y-189593D01*
X997893D01*
Y-189879D01*
Y-190165D01*
X998179D01*
Y-190452D01*
X998465D01*
Y-190738D01*
Y-191024D01*
X998752D01*
Y-191311D01*
Y-191597D01*
X999038D01*
Y-191883D01*
X983863D01*
Y-191597D01*
X983577D01*
Y-191311D01*
Y-191024D01*
Y-190738D01*
X983291D01*
Y-190452D01*
Y-190165D01*
Y-189879D01*
X983004D01*
Y-189593D01*
Y-189306D01*
X982718D01*
Y-189020D01*
Y-188734D01*
Y-188447D01*
X982432D01*
Y-188161D01*
Y-187875D01*
Y-187588D01*
X982146D01*
Y-187302D01*
Y-187016D01*
X981859D01*
Y-186730D01*
Y-186443D01*
Y-186157D01*
X981573D01*
Y-185871D01*
Y-185584D01*
Y-185298D01*
X981287D01*
Y-185012D01*
Y-184725D01*
Y-184439D01*
X981000D01*
Y-184153D01*
X980428D01*
Y-184439D01*
Y-184725D01*
X980141D01*
Y-185012D01*
X979855D01*
Y-185298D01*
Y-185584D01*
X979569D01*
Y-185871D01*
X979282D01*
Y-186157D01*
Y-186443D01*
X978996D01*
Y-186730D01*
X978710D01*
Y-187016D01*
Y-187302D01*
X978423D01*
Y-187588D01*
X978137D01*
Y-187875D01*
X977851D01*
Y-188161D01*
Y-188447D01*
X977565D01*
Y-188734D01*
X977278D01*
Y-189020D01*
Y-189306D01*
X976992D01*
Y-189593D01*
X976705D01*
Y-189879D01*
Y-190165D01*
X976419D01*
Y-190452D01*
X976133D01*
Y-190738D01*
Y-191024D01*
X975847D01*
Y-191311D01*
X975560D01*
Y-191597D01*
Y-191883D01*
X959527D01*
Y-191597D01*
X959813D01*
Y-191311D01*
X960099D01*
Y-191024D01*
X960386D01*
Y-190738D01*
X960672D01*
Y-190452D01*
Y-190165D01*
X960958D01*
Y-189879D01*
X961245D01*
Y-189593D01*
X961531D01*
Y-189306D01*
X961817D01*
Y-189020D01*
Y-188734D01*
X962104D01*
Y-188447D01*
X962390D01*
Y-188161D01*
X962676D01*
Y-187875D01*
Y-187588D01*
X962963D01*
Y-187302D01*
X963249D01*
Y-187016D01*
X963535D01*
Y-186730D01*
X963822D01*
Y-186443D01*
Y-186157D01*
X964108D01*
Y-185871D01*
X964394D01*
Y-185584D01*
X964680D01*
Y-185298D01*
X964967D01*
Y-185012D01*
Y-184725D01*
X965253D01*
Y-184439D01*
X965539D01*
Y-184153D01*
X965826D01*
Y-183866D01*
Y-183580D01*
X966112D01*
Y-183294D01*
X966398D01*
Y-183007D01*
X966685D01*
Y-182721D01*
X966971D01*
Y-182435D01*
Y-182149D01*
X967257D01*
Y-181862D01*
X967544D01*
Y-181576D01*
X967830D01*
Y-181290D01*
Y-181003D01*
X968116D01*
Y-180717D01*
X968402D01*
Y-180431D01*
X968689D01*
Y-180144D01*
X968975D01*
Y-179858D01*
Y-179572D01*
X969261D01*
Y-179285D01*
X969548D01*
Y-178999D01*
X969834D01*
Y-178713D01*
Y-178426D01*
X970120D01*
Y-178140D01*
X970407D01*
Y-177854D01*
X970693D01*
Y-177568D01*
X970979D01*
Y-177281D01*
Y-176995D01*
X971266D01*
Y-176709D01*
X971552D01*
Y-176422D01*
X971838D01*
Y-176136D01*
X972124D01*
Y-175850D01*
Y-175563D01*
X972411D01*
Y-175277D01*
X972697D01*
Y-174991D01*
X972983D01*
Y-174704D01*
Y-174418D01*
X973270D01*
Y-174132D01*
X973556D01*
Y-173845D01*
X973842D01*
Y-173559D01*
X974129D01*
Y-173273D01*
Y-172986D01*
X974415D01*
Y-172700D01*
Y-172414D01*
Y-172127D01*
X974129D01*
Y-171841D01*
X973842D01*
Y-171555D01*
Y-171269D01*
X973556D01*
Y-170982D01*
Y-170696D01*
X973270D01*
Y-170410D01*
Y-170123D01*
X972983D01*
Y-169837D01*
Y-169551D01*
X972697D01*
Y-169264D01*
Y-168978D01*
X972411D01*
Y-168692D01*
Y-168405D01*
X972124D01*
Y-168119D01*
X971838D01*
Y-167833D01*
Y-167547D01*
X971552D01*
Y-167260D01*
Y-166974D01*
X971266D01*
Y-166688D01*
Y-166401D01*
X970979D01*
Y-166115D01*
Y-165829D01*
X970693D01*
Y-165542D01*
Y-165256D01*
X970407D01*
Y-164970D01*
Y-164683D01*
X970120D01*
Y-164397D01*
X969834D01*
Y-164111D01*
Y-163824D01*
X969548D01*
Y-163538D01*
Y-163252D01*
X969261D01*
Y-162966D01*
Y-162679D01*
X968975D01*
Y-162393D01*
Y-162107D01*
X968689D01*
Y-161820D01*
Y-161534D01*
X968402D01*
Y-161248D01*
Y-160961D01*
X968116D01*
Y-160675D01*
Y-160389D01*
X967830D01*
Y-160102D01*
X967544D01*
Y-159816D01*
Y-159530D01*
X967257D01*
Y-159244D01*
Y-158957D01*
X966971D01*
Y-158671D01*
Y-158385D01*
X966685D01*
Y-158098D01*
Y-157812D01*
X966398D01*
Y-157526D01*
Y-157239D01*
X966112D01*
Y-156953D01*
Y-156667D01*
X965826D01*
Y-156380D01*
X965539D01*
Y-156094D01*
Y-155808D01*
X965253D01*
Y-155521D01*
X981000D01*
Y-155808D01*
X981287D01*
Y-156094D01*
Y-156380D01*
Y-156667D01*
X981573D01*
Y-156953D01*
Y-157239D01*
Y-157526D01*
X981859D01*
Y-157812D01*
Y-158098D01*
Y-158385D01*
X982146D01*
Y-158671D01*
Y-158957D01*
Y-159244D01*
X982432D01*
Y-159530D01*
Y-159816D01*
Y-160102D01*
X982718D01*
Y-160389D01*
Y-160675D01*
Y-160961D01*
X983004D01*
Y-161248D01*
Y-161534D01*
Y-161820D01*
X983291D01*
Y-162107D01*
Y-162393D01*
Y-162679D01*
X983577D01*
Y-162966D01*
Y-163252D01*
Y-163538D01*
Y-163824D01*
X984150D01*
Y-163538D01*
X984436D01*
Y-163252D01*
X984722D01*
Y-162966D01*
Y-162679D01*
X985009D01*
Y-162393D01*
X985295D01*
Y-162107D01*
Y-161820D01*
X985581D01*
Y-161534D01*
X985868D01*
Y-161248D01*
Y-160961D01*
X986154D01*
Y-160675D01*
X986440D01*
Y-160389D01*
Y-160102D01*
X986726D01*
Y-159816D01*
X987013D01*
Y-159530D01*
Y-159244D01*
X987299D01*
Y-158957D01*
X987585D01*
Y-158671D01*
Y-158385D01*
X987872D01*
Y-158098D01*
X988158D01*
Y-157812D01*
Y-157526D01*
X988444D01*
Y-157239D01*
X988731D01*
Y-156953D01*
Y-156667D01*
X989017D01*
Y-156380D01*
X989303D01*
Y-156094D01*
Y-155808D01*
X989590D01*
Y-155521D01*
X1005337D01*
Y-155808D01*
D02*
G37*
G36*
X872201Y-141778D02*
X873919D01*
Y-142065D01*
X874778D01*
Y-142351D01*
X875637D01*
Y-142637D01*
X876496D01*
Y-142924D01*
X877069D01*
Y-143210D01*
X877355D01*
Y-143496D01*
X877928D01*
Y-143783D01*
X878214D01*
Y-144069D01*
X878786D01*
Y-144355D01*
X879073D01*
Y-144641D01*
X879359D01*
Y-144928D01*
X879646D01*
Y-145214D01*
X879932D01*
Y-145501D01*
X880218D01*
Y-145787D01*
X880504D01*
Y-146073D01*
Y-146359D01*
X880791D01*
Y-146646D01*
X881077D01*
Y-146932D01*
Y-147218D01*
X881363D01*
Y-147505D01*
X881650D01*
Y-147791D01*
Y-148077D01*
X881936D01*
Y-148364D01*
Y-148650D01*
Y-148936D01*
X882222D01*
Y-149223D01*
Y-149509D01*
Y-149795D01*
X882509D01*
Y-150082D01*
Y-150368D01*
Y-150654D01*
Y-150940D01*
X882795D01*
Y-151227D01*
Y-151513D01*
Y-151799D01*
Y-152086D01*
Y-152372D01*
X883081D01*
Y-152658D01*
Y-152945D01*
Y-153231D01*
Y-153517D01*
Y-153804D01*
Y-154090D01*
Y-154376D01*
Y-154663D01*
Y-154949D01*
Y-155235D01*
Y-155521D01*
Y-155808D01*
Y-156094D01*
Y-156380D01*
Y-156667D01*
Y-156953D01*
Y-157239D01*
Y-157526D01*
Y-157812D01*
Y-158098D01*
X882795D01*
Y-158385D01*
Y-158671D01*
Y-158957D01*
Y-159244D01*
Y-159530D01*
Y-159816D01*
Y-160102D01*
X882509D01*
Y-160389D01*
Y-160675D01*
Y-160961D01*
Y-161248D01*
Y-161534D01*
X882222D01*
Y-161820D01*
Y-162107D01*
Y-162393D01*
Y-162679D01*
Y-162966D01*
X881936D01*
Y-163252D01*
Y-163538D01*
Y-163824D01*
X881650D01*
Y-164111D01*
Y-164397D01*
Y-164683D01*
Y-164970D01*
X881363D01*
Y-165256D01*
Y-165542D01*
Y-165829D01*
X881077D01*
Y-166115D01*
Y-166401D01*
X880791D01*
Y-166688D01*
Y-166974D01*
Y-167260D01*
X880504D01*
Y-167547D01*
Y-167833D01*
X880218D01*
Y-168119D01*
Y-168405D01*
X879932D01*
Y-168692D01*
Y-168978D01*
X879646D01*
Y-169264D01*
X879359D01*
Y-169551D01*
Y-169837D01*
X879073D01*
Y-170123D01*
X878786D01*
Y-170410D01*
X878500D01*
Y-170696D01*
Y-170982D01*
X878214D01*
Y-171269D01*
X877928D01*
Y-171555D01*
X877641D01*
Y-171841D01*
X877355D01*
Y-172127D01*
X877069D01*
Y-172414D01*
X876496D01*
Y-172700D01*
X876210D01*
Y-172986D01*
X875637D01*
Y-173273D01*
X875351D01*
Y-173559D01*
X874778D01*
Y-173845D01*
X873919D01*
Y-174132D01*
X873060D01*
Y-174418D01*
X872201D01*
Y-174704D01*
X870483D01*
Y-174991D01*
X865330D01*
Y-174704D01*
X862753D01*
Y-174418D01*
X860749D01*
Y-174132D01*
X859317D01*
Y-173845D01*
X857886D01*
Y-173559D01*
X856454D01*
Y-173845D01*
Y-174132D01*
Y-174418D01*
Y-174704D01*
Y-174991D01*
Y-175277D01*
Y-175563D01*
X856168D01*
Y-175850D01*
Y-176136D01*
Y-176422D01*
Y-176709D01*
Y-176995D01*
Y-177281D01*
X855882D01*
Y-177568D01*
Y-177854D01*
Y-178140D01*
Y-178426D01*
Y-178713D01*
Y-178999D01*
X855595D01*
Y-179285D01*
Y-179572D01*
Y-179858D01*
Y-180144D01*
Y-180431D01*
Y-180717D01*
Y-181003D01*
X855309D01*
Y-181290D01*
Y-181576D01*
Y-181862D01*
Y-182149D01*
Y-182435D01*
Y-182721D01*
X855023D01*
Y-183007D01*
Y-183294D01*
Y-183580D01*
Y-183866D01*
Y-184153D01*
Y-184439D01*
X854736D01*
Y-184725D01*
Y-185012D01*
Y-185298D01*
Y-185584D01*
Y-185871D01*
Y-186157D01*
Y-186443D01*
X854450D01*
Y-186730D01*
Y-187016D01*
Y-187302D01*
Y-187588D01*
Y-187875D01*
Y-188161D01*
X854164D01*
Y-188447D01*
Y-188734D01*
Y-189020D01*
Y-189306D01*
Y-189593D01*
Y-189879D01*
X853877D01*
Y-190165D01*
Y-190452D01*
Y-190738D01*
Y-191024D01*
Y-191311D01*
Y-191597D01*
Y-191883D01*
X840421D01*
Y-191597D01*
X840707D01*
Y-191311D01*
Y-191024D01*
Y-190738D01*
Y-190452D01*
Y-190165D01*
X840993D01*
Y-189879D01*
Y-189593D01*
Y-189306D01*
Y-189020D01*
Y-188734D01*
Y-188447D01*
Y-188161D01*
X841280D01*
Y-187875D01*
Y-187588D01*
Y-187302D01*
Y-187016D01*
Y-186730D01*
Y-186443D01*
X841566D01*
Y-186157D01*
Y-185871D01*
Y-185584D01*
Y-185298D01*
Y-185012D01*
Y-184725D01*
X841852D01*
Y-184439D01*
Y-184153D01*
Y-183866D01*
Y-183580D01*
Y-183294D01*
Y-183007D01*
Y-182721D01*
X842138D01*
Y-182435D01*
Y-182149D01*
Y-181862D01*
Y-181576D01*
Y-181290D01*
Y-181003D01*
X842425D01*
Y-180717D01*
Y-180431D01*
Y-180144D01*
Y-179858D01*
Y-179572D01*
Y-179285D01*
X842711D01*
Y-178999D01*
Y-178713D01*
Y-178426D01*
Y-178140D01*
Y-177854D01*
Y-177568D01*
X842997D01*
Y-177281D01*
Y-176995D01*
Y-176709D01*
Y-176422D01*
Y-176136D01*
Y-175850D01*
Y-175563D01*
X843284D01*
Y-175277D01*
Y-174991D01*
Y-174704D01*
Y-174418D01*
Y-174132D01*
Y-173845D01*
X843570D01*
Y-173559D01*
Y-173273D01*
Y-172986D01*
Y-172700D01*
Y-172414D01*
Y-172127D01*
X843856D01*
Y-171841D01*
Y-171555D01*
Y-171269D01*
Y-170982D01*
Y-170696D01*
Y-170410D01*
X844143D01*
Y-170123D01*
Y-169837D01*
Y-169551D01*
Y-169264D01*
Y-168978D01*
Y-168692D01*
Y-168405D01*
X844429D01*
Y-168119D01*
Y-167833D01*
Y-167547D01*
Y-167260D01*
Y-166974D01*
Y-166688D01*
X844715D01*
Y-166401D01*
Y-166115D01*
Y-165829D01*
Y-165542D01*
Y-165256D01*
Y-164970D01*
X845002D01*
Y-164683D01*
Y-164397D01*
Y-164111D01*
Y-163824D01*
Y-163538D01*
Y-163252D01*
Y-162966D01*
X845288D01*
Y-162679D01*
Y-162393D01*
Y-162107D01*
Y-161820D01*
Y-161534D01*
Y-161248D01*
X845574D01*
Y-160961D01*
Y-160675D01*
Y-160389D01*
Y-160102D01*
Y-159816D01*
Y-159530D01*
X845861D01*
Y-159244D01*
Y-158957D01*
Y-158671D01*
Y-158385D01*
Y-158098D01*
Y-157812D01*
X846147D01*
Y-157526D01*
Y-157239D01*
Y-156953D01*
Y-156667D01*
Y-156380D01*
Y-156094D01*
Y-155808D01*
X846433D01*
Y-155521D01*
Y-155235D01*
Y-154949D01*
Y-154663D01*
Y-154376D01*
Y-154090D01*
X846719D01*
Y-153804D01*
Y-153517D01*
Y-153231D01*
Y-152945D01*
Y-152658D01*
Y-152372D01*
X847006D01*
Y-152086D01*
Y-151799D01*
Y-151513D01*
Y-151227D01*
Y-150940D01*
Y-150654D01*
Y-150368D01*
X847292D01*
Y-150082D01*
Y-149795D01*
Y-149509D01*
Y-149223D01*
Y-148936D01*
Y-148650D01*
X847578D01*
Y-148364D01*
Y-148077D01*
Y-147791D01*
Y-147505D01*
Y-147218D01*
Y-146932D01*
X847865D01*
Y-146646D01*
Y-146359D01*
Y-146073D01*
Y-145787D01*
Y-145501D01*
Y-145214D01*
Y-144928D01*
X848151D01*
Y-144641D01*
Y-144355D01*
Y-144069D01*
Y-143783D01*
Y-143496D01*
Y-143210D01*
X848437D01*
Y-142924D01*
Y-142637D01*
Y-142351D01*
Y-142065D01*
Y-141778D01*
Y-141492D01*
X872201D01*
Y-141778D01*
D02*
G37*
G36*
X961245Y-155808D02*
Y-156094D01*
Y-156380D01*
Y-156667D01*
Y-156953D01*
Y-157239D01*
Y-157526D01*
Y-157812D01*
Y-158098D01*
Y-158385D01*
Y-158671D01*
Y-158957D01*
Y-159244D01*
Y-159530D01*
Y-159816D01*
Y-160102D01*
Y-160389D01*
Y-160675D01*
Y-160961D01*
Y-161248D01*
Y-161534D01*
X960958D01*
Y-161820D01*
Y-162107D01*
Y-162393D01*
Y-162679D01*
Y-162966D01*
X960672D01*
Y-163252D01*
Y-163538D01*
Y-163824D01*
Y-164111D01*
X960386D01*
Y-164397D01*
Y-164683D01*
Y-164970D01*
Y-165256D01*
X960099D01*
Y-165542D01*
Y-165829D01*
Y-166115D01*
X959813D01*
Y-166401D01*
Y-166688D01*
Y-166974D01*
X959527D01*
Y-167260D01*
Y-167547D01*
Y-167833D01*
X959241D01*
Y-168119D01*
Y-168405D01*
Y-168692D01*
X958954D01*
Y-168978D01*
Y-169264D01*
X958668D01*
Y-169551D01*
Y-169837D01*
X958381D01*
Y-170123D01*
Y-170410D01*
Y-170696D01*
X958095D01*
Y-170982D01*
Y-171269D01*
X957809D01*
Y-171555D01*
Y-171841D01*
Y-172127D01*
X957523D01*
Y-172414D01*
Y-172700D01*
X957236D01*
Y-172986D01*
Y-173273D01*
Y-173559D01*
X956950D01*
Y-173845D01*
Y-174132D01*
X956664D01*
Y-174418D01*
Y-174704D01*
Y-174991D01*
X956377D01*
Y-175277D01*
Y-175563D01*
X956091D01*
Y-175850D01*
Y-176136D01*
Y-176422D01*
X955805D01*
Y-176709D01*
Y-176995D01*
X955518D01*
Y-177281D01*
Y-177568D01*
Y-177854D01*
X955232D01*
Y-178140D01*
Y-178426D01*
X954946D01*
Y-178713D01*
Y-178999D01*
Y-179285D01*
X954659D01*
Y-179572D01*
Y-179858D01*
X954373D01*
Y-180144D01*
Y-180431D01*
Y-180717D01*
X954087D01*
Y-181003D01*
Y-181290D01*
X953800D01*
Y-181576D01*
Y-181862D01*
Y-182149D01*
X953514D01*
Y-182435D01*
Y-182721D01*
X953228D01*
Y-183007D01*
Y-183294D01*
Y-183580D01*
X952942D01*
Y-183866D01*
Y-184153D01*
X952655D01*
Y-184439D01*
Y-184725D01*
Y-185012D01*
X952369D01*
Y-185298D01*
Y-185584D01*
X952083D01*
Y-185871D01*
Y-186157D01*
Y-186443D01*
X951796D01*
Y-186730D01*
Y-187016D01*
X951510D01*
Y-187302D01*
Y-187588D01*
Y-187875D01*
X951224D01*
Y-188161D01*
Y-188447D01*
X950937D01*
Y-188734D01*
Y-189020D01*
Y-189306D01*
X950651D01*
Y-189593D01*
Y-189879D01*
X950365D01*
Y-190165D01*
Y-190452D01*
Y-190738D01*
X950078D01*
Y-191024D01*
Y-191311D01*
X949792D01*
Y-191597D01*
Y-191883D01*
Y-192169D01*
X949506D01*
Y-192456D01*
Y-192742D01*
X949220D01*
Y-193028D01*
Y-193315D01*
X948933D01*
Y-193601D01*
Y-193887D01*
X948647D01*
Y-194174D01*
Y-194460D01*
Y-194746D01*
X948361D01*
Y-195033D01*
X948074D01*
Y-195319D01*
Y-195605D01*
Y-195891D01*
X947788D01*
Y-196178D01*
X947502D01*
Y-196464D01*
Y-196750D01*
X947215D01*
Y-197037D01*
Y-197323D01*
X946929D01*
Y-197609D01*
Y-197896D01*
X946643D01*
Y-198182D01*
Y-198468D01*
X946356D01*
Y-198755D01*
X946070D01*
Y-199041D01*
Y-199327D01*
X945784D01*
Y-199614D01*
Y-199900D01*
X945497D01*
Y-200186D01*
X945211D01*
Y-200472D01*
X944925D01*
Y-200759D01*
Y-201045D01*
X944639D01*
Y-201331D01*
X944352D01*
Y-201618D01*
Y-201904D01*
X944066D01*
Y-202190D01*
X943780D01*
Y-202477D01*
X943493D01*
Y-202763D01*
Y-203049D01*
X943207D01*
Y-203336D01*
X942921D01*
Y-203622D01*
X942634D01*
Y-203908D01*
X942348D01*
Y-204195D01*
X942062D01*
Y-204481D01*
Y-204767D01*
X941775D01*
Y-205053D01*
X941489D01*
Y-205340D01*
X941203D01*
Y-205626D01*
X940916D01*
Y-205912D01*
X940630D01*
Y-206199D01*
X940344D01*
Y-206485D01*
X940057D01*
Y-206771D01*
X939485D01*
Y-207058D01*
X939199D01*
Y-207344D01*
X938912D01*
Y-207630D01*
X938626D01*
Y-207917D01*
X938340D01*
Y-208203D01*
X937767D01*
Y-208489D01*
X937481D01*
Y-208776D01*
X936908D01*
Y-209062D01*
X936622D01*
Y-209348D01*
X936049D01*
Y-209634D01*
X935763D01*
Y-209921D01*
X935190D01*
Y-210207D01*
X934618D01*
Y-210493D01*
X934045D01*
Y-210780D01*
X933472D01*
Y-211066D01*
X932900D01*
Y-211352D01*
X932041D01*
Y-211639D01*
X931468D01*
Y-211925D01*
X930609D01*
Y-212211D01*
X929464D01*
Y-212498D01*
X928319D01*
Y-212784D01*
X926601D01*
Y-213070D01*
X924597D01*
Y-213357D01*
X924310D01*
Y-213070D01*
Y-212784D01*
Y-212498D01*
Y-212211D01*
Y-211925D01*
Y-211639D01*
Y-211352D01*
Y-211066D01*
Y-210780D01*
Y-210493D01*
Y-210207D01*
Y-209921D01*
Y-209634D01*
Y-209348D01*
Y-209062D01*
Y-208776D01*
Y-208489D01*
Y-208203D01*
Y-207917D01*
Y-207630D01*
Y-207344D01*
Y-207058D01*
Y-206771D01*
Y-206485D01*
Y-206199D01*
Y-205912D01*
Y-205626D01*
Y-205340D01*
Y-205053D01*
Y-204767D01*
Y-204481D01*
Y-204195D01*
Y-203908D01*
X924883D01*
Y-203622D01*
X925455D01*
Y-203336D01*
X926028D01*
Y-203049D01*
X926601D01*
Y-202763D01*
X927173D01*
Y-202477D01*
X927746D01*
Y-202190D01*
X928032D01*
Y-201904D01*
X928605D01*
Y-201618D01*
X928891D01*
Y-201331D01*
X929464D01*
Y-201045D01*
X929750D01*
Y-200759D01*
X930037D01*
Y-200472D01*
X930609D01*
Y-200186D01*
X930896D01*
Y-199900D01*
X931182D01*
Y-199614D01*
X931468D01*
Y-199327D01*
X931754D01*
Y-199041D01*
X932041D01*
Y-198755D01*
X932327D01*
Y-198468D01*
X932613D01*
Y-198182D01*
X932900D01*
Y-197896D01*
X933186D01*
Y-197609D01*
X933472D01*
Y-197323D01*
X933759D01*
Y-197037D01*
Y-196750D01*
X934045D01*
Y-196464D01*
X934331D01*
Y-196178D01*
X934618D01*
Y-195891D01*
Y-195605D01*
X934904D01*
Y-195319D01*
X935190D01*
Y-195033D01*
Y-194746D01*
X935476D01*
Y-194460D01*
Y-194174D01*
X935763D01*
Y-193887D01*
X936049D01*
Y-193601D01*
Y-193315D01*
X936335D01*
Y-193028D01*
Y-192742D01*
X936622D01*
Y-192456D01*
Y-192169D01*
X934904D01*
Y-191883D01*
X932900D01*
Y-191597D01*
X931754D01*
Y-191311D01*
X931182D01*
Y-191024D01*
X930323D01*
Y-190738D01*
X929750D01*
Y-190452D01*
X929464D01*
Y-190165D01*
X928891D01*
Y-189879D01*
X928605D01*
Y-189593D01*
X928319D01*
Y-189306D01*
X928032D01*
Y-189020D01*
X927746D01*
Y-188734D01*
X927460D01*
Y-188447D01*
Y-188161D01*
X927173D01*
Y-187875D01*
X926887D01*
Y-187588D01*
Y-187302D01*
X926601D01*
Y-187016D01*
Y-186730D01*
X926315D01*
Y-186443D01*
Y-186157D01*
X926028D01*
Y-185871D01*
Y-185584D01*
Y-185298D01*
X925742D01*
Y-185012D01*
Y-184725D01*
Y-184439D01*
Y-184153D01*
X925455D01*
Y-183866D01*
Y-183580D01*
Y-183294D01*
Y-183007D01*
Y-182721D01*
Y-182435D01*
Y-182149D01*
X925169D01*
Y-181862D01*
Y-181576D01*
Y-181290D01*
Y-181003D01*
Y-180717D01*
Y-180431D01*
Y-180144D01*
Y-179858D01*
Y-179572D01*
Y-179285D01*
Y-178999D01*
Y-178713D01*
Y-178426D01*
Y-178140D01*
Y-177854D01*
X924883D01*
Y-177568D01*
Y-177281D01*
Y-176995D01*
Y-176709D01*
Y-176422D01*
Y-176136D01*
Y-175850D01*
Y-175563D01*
Y-175277D01*
Y-174991D01*
Y-174704D01*
Y-174418D01*
Y-174132D01*
Y-173845D01*
Y-173559D01*
X924597D01*
Y-173273D01*
Y-172986D01*
Y-172700D01*
Y-172414D01*
Y-172127D01*
Y-171841D01*
Y-171555D01*
Y-171269D01*
Y-170982D01*
Y-170696D01*
Y-170410D01*
Y-170123D01*
Y-169837D01*
Y-169551D01*
Y-169264D01*
Y-168978D01*
X924310D01*
Y-168692D01*
Y-168405D01*
Y-168119D01*
Y-167833D01*
Y-167547D01*
Y-167260D01*
Y-166974D01*
Y-166688D01*
Y-166401D01*
Y-166115D01*
Y-165829D01*
Y-165542D01*
Y-165256D01*
Y-164970D01*
Y-164683D01*
Y-164397D01*
X924024D01*
Y-164111D01*
Y-163824D01*
Y-163538D01*
Y-163252D01*
Y-162966D01*
Y-162679D01*
Y-162393D01*
Y-162107D01*
Y-161820D01*
Y-161534D01*
Y-161248D01*
Y-160961D01*
Y-160675D01*
Y-160389D01*
X923738D01*
Y-160102D01*
Y-159816D01*
Y-159530D01*
Y-159244D01*
Y-158957D01*
Y-158671D01*
Y-158385D01*
Y-158098D01*
Y-157812D01*
Y-157526D01*
Y-157239D01*
Y-156953D01*
Y-156667D01*
Y-156380D01*
Y-156094D01*
Y-155808D01*
X923451D01*
Y-155521D01*
X937194D01*
Y-155808D01*
Y-156094D01*
Y-156380D01*
Y-156667D01*
Y-156953D01*
Y-157239D01*
Y-157526D01*
Y-157812D01*
Y-158098D01*
Y-158385D01*
Y-158671D01*
Y-158957D01*
Y-159244D01*
Y-159530D01*
X937481D01*
Y-159816D01*
Y-160102D01*
Y-160389D01*
Y-160675D01*
Y-160961D01*
Y-161248D01*
Y-161534D01*
Y-161820D01*
Y-162107D01*
Y-162393D01*
Y-162679D01*
Y-162966D01*
Y-163252D01*
Y-163538D01*
Y-163824D01*
Y-164111D01*
Y-164397D01*
Y-164683D01*
Y-164970D01*
Y-165256D01*
Y-165542D01*
Y-165829D01*
Y-166115D01*
Y-166401D01*
Y-166688D01*
Y-166974D01*
Y-167260D01*
Y-167547D01*
Y-167833D01*
Y-168119D01*
Y-168405D01*
Y-168692D01*
Y-168978D01*
Y-169264D01*
Y-169551D01*
Y-169837D01*
Y-170123D01*
Y-170410D01*
Y-170696D01*
Y-170982D01*
Y-171269D01*
X937767D01*
Y-171555D01*
X937481D01*
Y-171841D01*
Y-172127D01*
X937767D01*
Y-172414D01*
Y-172700D01*
Y-172986D01*
Y-173273D01*
Y-173559D01*
Y-173845D01*
Y-174132D01*
Y-174418D01*
Y-174704D01*
Y-174991D01*
Y-175277D01*
Y-175563D01*
Y-175850D01*
Y-176136D01*
Y-176422D01*
Y-176709D01*
Y-176995D01*
Y-177281D01*
Y-177568D01*
Y-177854D01*
Y-178140D01*
Y-178426D01*
Y-178713D01*
Y-178999D01*
Y-179285D01*
Y-179572D01*
X938053D01*
Y-179858D01*
Y-180144D01*
Y-180431D01*
X938340D01*
Y-180717D01*
X938626D01*
Y-181003D01*
X938912D01*
Y-181290D01*
X939771D01*
Y-181576D01*
X940630D01*
Y-181290D01*
X940916D01*
Y-181003D01*
Y-180717D01*
Y-180431D01*
X941203D01*
Y-180144D01*
Y-179858D01*
X941489D01*
Y-179572D01*
Y-179285D01*
Y-178999D01*
X941775D01*
Y-178713D01*
Y-178426D01*
Y-178140D01*
X942062D01*
Y-177854D01*
Y-177568D01*
Y-177281D01*
X942348D01*
Y-176995D01*
Y-176709D01*
Y-176422D01*
X942634D01*
Y-176136D01*
Y-175850D01*
X942921D01*
Y-175563D01*
Y-175277D01*
Y-174991D01*
X943207D01*
Y-174704D01*
Y-174418D01*
Y-174132D01*
X943493D01*
Y-173845D01*
Y-173559D01*
Y-173273D01*
X943780D01*
Y-172986D01*
Y-172700D01*
X944066D01*
Y-172414D01*
Y-172127D01*
Y-171841D01*
X944352D01*
Y-171555D01*
Y-171269D01*
Y-170982D01*
X944639D01*
Y-170696D01*
Y-170410D01*
Y-170123D01*
X944925D01*
Y-169837D01*
Y-169551D01*
X945211D01*
Y-169264D01*
Y-168978D01*
Y-168692D01*
X945497D01*
Y-168405D01*
Y-168119D01*
Y-167833D01*
X945784D01*
Y-167547D01*
Y-167260D01*
Y-166974D01*
X946070D01*
Y-166688D01*
Y-166401D01*
X946356D01*
Y-166115D01*
Y-165829D01*
Y-165542D01*
X946643D01*
Y-165256D01*
Y-164970D01*
Y-164683D01*
X946929D01*
Y-164397D01*
Y-164111D01*
Y-163824D01*
X947215D01*
Y-163538D01*
Y-163252D01*
Y-162966D01*
Y-162679D01*
X947502D01*
Y-162393D01*
Y-162107D01*
Y-161820D01*
Y-161534D01*
X947788D01*
Y-161248D01*
Y-160961D01*
Y-160675D01*
Y-160389D01*
Y-160102D01*
X948074D01*
Y-159816D01*
Y-159530D01*
Y-159244D01*
Y-158957D01*
Y-158671D01*
Y-158385D01*
X948361D01*
Y-158098D01*
Y-157812D01*
Y-157526D01*
Y-157239D01*
Y-156953D01*
Y-156667D01*
Y-156380D01*
Y-156094D01*
Y-155808D01*
Y-155521D01*
X961245D01*
Y-155808D01*
D02*
G37*
G36*
X903409Y-138343D02*
Y-138629D01*
X903123D01*
Y-138915D01*
Y-139202D01*
Y-139488D01*
Y-139774D01*
Y-140060D01*
Y-140347D01*
X902837D01*
Y-140633D01*
Y-140919D01*
Y-141206D01*
Y-141492D01*
Y-141778D01*
Y-142065D01*
X902551D01*
Y-142351D01*
Y-142637D01*
Y-142924D01*
Y-143210D01*
Y-143496D01*
Y-143783D01*
Y-144069D01*
X902264D01*
Y-144355D01*
Y-144641D01*
Y-144928D01*
Y-145214D01*
Y-145501D01*
Y-145787D01*
X901978D01*
Y-146073D01*
Y-146359D01*
Y-146646D01*
Y-146932D01*
Y-147218D01*
Y-147505D01*
X901692D01*
Y-147791D01*
Y-148077D01*
Y-148364D01*
Y-148650D01*
Y-148936D01*
Y-149223D01*
Y-149509D01*
X901405D01*
Y-149795D01*
Y-150082D01*
Y-150368D01*
Y-150654D01*
Y-150940D01*
Y-151227D01*
X901119D01*
Y-151513D01*
Y-151799D01*
Y-152086D01*
Y-152372D01*
Y-152658D01*
Y-152945D01*
X900833D01*
Y-153231D01*
Y-153517D01*
Y-153804D01*
Y-154090D01*
Y-154376D01*
Y-154663D01*
X900546D01*
Y-154949D01*
Y-155235D01*
Y-155521D01*
Y-155808D01*
Y-156094D01*
Y-156380D01*
Y-156667D01*
X900260D01*
Y-156953D01*
Y-157239D01*
Y-157526D01*
Y-157812D01*
Y-158098D01*
Y-158385D01*
X899974D01*
Y-158671D01*
Y-158957D01*
X900546D01*
Y-158671D01*
X900833D01*
Y-158385D01*
X901119D01*
Y-158098D01*
X901692D01*
Y-157812D01*
X901978D01*
Y-157526D01*
X902264D01*
Y-157239D01*
X902837D01*
Y-156953D01*
X903409D01*
Y-156667D01*
X903696D01*
Y-156380D01*
X904268D01*
Y-156094D01*
X905127D01*
Y-155808D01*
X905700D01*
Y-155521D01*
X906559D01*
Y-155235D01*
X907990D01*
Y-154949D01*
X914289D01*
Y-155235D01*
X915435D01*
Y-155521D01*
X916294D01*
Y-155808D01*
X916866D01*
Y-156094D01*
X917153D01*
Y-156380D01*
X917725D01*
Y-156667D01*
X918011D01*
Y-156953D01*
X918298D01*
Y-157239D01*
X918584D01*
Y-157526D01*
X918870D01*
Y-157812D01*
Y-158098D01*
X919157D01*
Y-158385D01*
Y-158671D01*
X919443D01*
Y-158957D01*
Y-159244D01*
Y-159530D01*
X919729D01*
Y-159816D01*
Y-160102D01*
Y-160389D01*
Y-160675D01*
X920016D01*
Y-160961D01*
Y-161248D01*
Y-161534D01*
Y-161820D01*
Y-162107D01*
Y-162393D01*
Y-162679D01*
Y-162966D01*
Y-163252D01*
Y-163538D01*
Y-163824D01*
Y-164111D01*
Y-164397D01*
Y-164683D01*
Y-164970D01*
Y-165256D01*
Y-165542D01*
Y-165829D01*
X919729D01*
Y-166115D01*
Y-166401D01*
Y-166688D01*
Y-166974D01*
Y-167260D01*
Y-167547D01*
Y-167833D01*
X919443D01*
Y-168119D01*
Y-168405D01*
Y-168692D01*
Y-168978D01*
Y-169264D01*
Y-169551D01*
Y-169837D01*
X919157D01*
Y-170123D01*
Y-170410D01*
Y-170696D01*
Y-170982D01*
Y-171269D01*
Y-171555D01*
X918870D01*
Y-171841D01*
Y-172127D01*
Y-172414D01*
Y-172700D01*
Y-172986D01*
Y-173273D01*
X918584D01*
Y-173559D01*
Y-173845D01*
Y-174132D01*
Y-174418D01*
Y-174704D01*
Y-174991D01*
X918298D01*
Y-175277D01*
Y-175563D01*
Y-175850D01*
Y-176136D01*
Y-176422D01*
Y-176709D01*
Y-176995D01*
X918011D01*
Y-177281D01*
Y-177568D01*
Y-177854D01*
Y-178140D01*
Y-178426D01*
Y-178713D01*
X917725D01*
Y-178999D01*
Y-179285D01*
Y-179572D01*
Y-179858D01*
Y-180144D01*
Y-180431D01*
X917439D01*
Y-180717D01*
Y-181003D01*
Y-181290D01*
Y-181576D01*
Y-181862D01*
Y-182149D01*
Y-182435D01*
X917153D01*
Y-182721D01*
Y-183007D01*
Y-183294D01*
Y-183580D01*
Y-183866D01*
Y-184153D01*
X916866D01*
Y-184439D01*
Y-184725D01*
Y-185012D01*
Y-185298D01*
Y-185584D01*
Y-185871D01*
X916580D01*
Y-186157D01*
Y-186443D01*
Y-186730D01*
Y-187016D01*
Y-187302D01*
Y-187588D01*
X916294D01*
Y-187875D01*
Y-188161D01*
Y-188447D01*
Y-188734D01*
Y-189020D01*
Y-189306D01*
Y-189593D01*
X916007D01*
Y-189879D01*
Y-190165D01*
Y-190452D01*
Y-190738D01*
Y-191024D01*
Y-191311D01*
X915721D01*
Y-191597D01*
Y-191883D01*
X902551D01*
Y-191597D01*
Y-191311D01*
X902837D01*
Y-191024D01*
Y-190738D01*
Y-190452D01*
Y-190165D01*
Y-189879D01*
Y-189593D01*
X903123D01*
Y-189306D01*
Y-189020D01*
Y-188734D01*
Y-188447D01*
Y-188161D01*
Y-187875D01*
Y-187588D01*
X903409D01*
Y-187302D01*
Y-187016D01*
Y-186730D01*
Y-186443D01*
Y-186157D01*
Y-185871D01*
X903696D01*
Y-185584D01*
Y-185298D01*
Y-185012D01*
Y-184725D01*
Y-184439D01*
Y-184153D01*
X903982D01*
Y-183866D01*
Y-183580D01*
Y-183294D01*
Y-183007D01*
Y-182721D01*
Y-182435D01*
Y-182149D01*
X904268D01*
Y-181862D01*
Y-181576D01*
Y-181290D01*
Y-181003D01*
Y-180717D01*
Y-180431D01*
X904555D01*
Y-180144D01*
Y-179858D01*
Y-179572D01*
Y-179285D01*
Y-178999D01*
Y-178713D01*
Y-178426D01*
X904841D01*
Y-178140D01*
Y-177854D01*
Y-177568D01*
Y-177281D01*
Y-176995D01*
Y-176709D01*
X905127D01*
Y-176422D01*
Y-176136D01*
Y-175850D01*
Y-175563D01*
Y-175277D01*
Y-174991D01*
X905414D01*
Y-174704D01*
Y-174418D01*
Y-174132D01*
Y-173845D01*
Y-173559D01*
Y-173273D01*
X905700D01*
Y-172986D01*
Y-172700D01*
Y-172414D01*
Y-172127D01*
Y-171841D01*
Y-171555D01*
Y-171269D01*
X905986D01*
Y-170982D01*
Y-170696D01*
Y-170410D01*
Y-170123D01*
Y-169837D01*
Y-169551D01*
X906273D01*
Y-169264D01*
Y-168978D01*
Y-168692D01*
Y-168405D01*
Y-168119D01*
Y-167833D01*
Y-167547D01*
X906559D01*
Y-167260D01*
Y-166974D01*
Y-166688D01*
Y-166401D01*
Y-166115D01*
Y-165829D01*
X906273D01*
Y-165542D01*
Y-165256D01*
X905986D01*
Y-164970D01*
X905700D01*
Y-164683D01*
X905127D01*
Y-164397D01*
X903409D01*
Y-164683D01*
X901978D01*
Y-164970D01*
X901119D01*
Y-165256D01*
X900546D01*
Y-165542D01*
X900260D01*
Y-165829D01*
X899687D01*
Y-166115D01*
X899401D01*
Y-166401D01*
X899115D01*
Y-166688D01*
Y-166974D01*
X898828D01*
Y-167260D01*
Y-167547D01*
Y-167833D01*
X898542D01*
Y-168119D01*
Y-168405D01*
Y-168692D01*
Y-168978D01*
Y-169264D01*
Y-169551D01*
X898256D01*
Y-169837D01*
Y-170123D01*
Y-170410D01*
Y-170696D01*
Y-170982D01*
Y-171269D01*
Y-171555D01*
X897970D01*
Y-171841D01*
Y-172127D01*
Y-172414D01*
Y-172700D01*
Y-172986D01*
Y-173273D01*
X897683D01*
Y-173559D01*
Y-173845D01*
Y-174132D01*
Y-174418D01*
Y-174704D01*
Y-174991D01*
X897397D01*
Y-175277D01*
Y-175563D01*
Y-175850D01*
Y-176136D01*
Y-176422D01*
Y-176709D01*
X897111D01*
Y-176995D01*
Y-177281D01*
Y-177568D01*
Y-177854D01*
Y-178140D01*
Y-178426D01*
Y-178713D01*
X896824D01*
Y-178999D01*
Y-179285D01*
Y-179572D01*
Y-179858D01*
Y-180144D01*
Y-180431D01*
X896538D01*
Y-180717D01*
Y-181003D01*
Y-181290D01*
Y-181576D01*
Y-181862D01*
Y-182149D01*
X896252D01*
Y-182435D01*
Y-182721D01*
Y-183007D01*
Y-183294D01*
Y-183580D01*
Y-183866D01*
Y-184153D01*
X895965D01*
Y-184439D01*
Y-184725D01*
Y-185012D01*
Y-185298D01*
Y-185584D01*
Y-185871D01*
X895679D01*
Y-186157D01*
Y-186443D01*
Y-186730D01*
Y-187016D01*
Y-187302D01*
Y-187588D01*
X895393D01*
Y-187875D01*
Y-188161D01*
Y-188447D01*
Y-188734D01*
Y-189020D01*
Y-189306D01*
X895106D01*
Y-189593D01*
Y-189879D01*
Y-190165D01*
Y-190452D01*
Y-190738D01*
Y-191024D01*
Y-191311D01*
X894820D01*
Y-191597D01*
Y-191883D01*
X881650D01*
Y-191597D01*
Y-191311D01*
X881936D01*
Y-191024D01*
Y-190738D01*
Y-190452D01*
Y-190165D01*
Y-189879D01*
Y-189593D01*
Y-189306D01*
X882222D01*
Y-189020D01*
Y-188734D01*
Y-188447D01*
Y-188161D01*
Y-187875D01*
Y-187588D01*
X882509D01*
Y-187302D01*
Y-187016D01*
Y-186730D01*
Y-186443D01*
Y-186157D01*
Y-185871D01*
X882795D01*
Y-185584D01*
Y-185298D01*
Y-185012D01*
Y-184725D01*
Y-184439D01*
Y-184153D01*
Y-183866D01*
X883081D01*
Y-183580D01*
Y-183294D01*
Y-183007D01*
Y-182721D01*
Y-182435D01*
Y-182149D01*
X883368D01*
Y-181862D01*
Y-181576D01*
Y-181290D01*
Y-181003D01*
Y-180717D01*
Y-180431D01*
X883654D01*
Y-180144D01*
Y-179858D01*
Y-179572D01*
Y-179285D01*
Y-178999D01*
Y-178713D01*
X883940D01*
Y-178426D01*
Y-178140D01*
Y-177854D01*
Y-177568D01*
Y-177281D01*
Y-176995D01*
Y-176709D01*
X884227D01*
Y-176422D01*
Y-176136D01*
Y-175850D01*
Y-175563D01*
Y-175277D01*
Y-174991D01*
X884513D01*
Y-174704D01*
Y-174418D01*
Y-174132D01*
Y-173845D01*
Y-173559D01*
Y-173273D01*
X884799D01*
Y-172986D01*
Y-172700D01*
Y-172414D01*
Y-172127D01*
Y-171841D01*
Y-171555D01*
Y-171269D01*
X885085D01*
Y-170982D01*
Y-170696D01*
Y-170410D01*
Y-170123D01*
Y-169837D01*
Y-169551D01*
X885372D01*
Y-169264D01*
Y-168978D01*
Y-168692D01*
Y-168405D01*
Y-168119D01*
Y-167833D01*
X885658D01*
Y-167547D01*
Y-167260D01*
Y-166974D01*
Y-166688D01*
Y-166401D01*
Y-166115D01*
X885944D01*
Y-165829D01*
Y-165542D01*
Y-165256D01*
Y-164970D01*
Y-164683D01*
Y-164397D01*
Y-164111D01*
X886231D01*
Y-163824D01*
Y-163538D01*
Y-163252D01*
Y-162966D01*
Y-162679D01*
Y-162393D01*
X886517D01*
Y-162107D01*
Y-161820D01*
Y-161534D01*
Y-161248D01*
Y-160961D01*
Y-160675D01*
X886803D01*
Y-160389D01*
Y-160102D01*
Y-159816D01*
Y-159530D01*
Y-159244D01*
Y-158957D01*
X887090D01*
Y-158671D01*
Y-158385D01*
Y-158098D01*
Y-157812D01*
Y-157526D01*
Y-157239D01*
Y-156953D01*
X887376D01*
Y-156667D01*
Y-156380D01*
Y-156094D01*
Y-155808D01*
Y-155521D01*
Y-155235D01*
X887662D01*
Y-154949D01*
Y-154663D01*
Y-154376D01*
Y-154090D01*
Y-153804D01*
Y-153517D01*
X887949D01*
Y-153231D01*
Y-152945D01*
Y-152658D01*
Y-152372D01*
Y-152086D01*
Y-151799D01*
Y-151513D01*
X888235D01*
Y-151227D01*
Y-150940D01*
Y-150654D01*
Y-150368D01*
Y-150082D01*
Y-149795D01*
X888521D01*
Y-149509D01*
Y-149223D01*
Y-148936D01*
Y-148650D01*
Y-148364D01*
Y-148077D01*
X888807D01*
Y-147791D01*
Y-147505D01*
Y-147218D01*
Y-146932D01*
Y-146646D01*
Y-146359D01*
X889094D01*
Y-146073D01*
Y-145787D01*
Y-145501D01*
Y-145214D01*
Y-144928D01*
Y-144641D01*
Y-144355D01*
X889380D01*
Y-144069D01*
Y-143783D01*
Y-143496D01*
Y-143210D01*
Y-142924D01*
Y-142637D01*
X889666D01*
Y-142351D01*
Y-142065D01*
Y-141778D01*
Y-141492D01*
Y-141206D01*
Y-140919D01*
X889953D01*
Y-140633D01*
Y-140347D01*
Y-140060D01*
Y-139774D01*
Y-139488D01*
Y-139202D01*
Y-138915D01*
X890239D01*
Y-138629D01*
Y-138343D01*
Y-138056D01*
X903409D01*
Y-138343D01*
D02*
G37*
%LPC*%
G36*
X-40846Y22035D02*
X-40847Y21952D01*
X-40764Y21951D01*
X-40764Y22034D01*
X-40846Y22035D01*
D02*
G37*
G36*
X-35285Y21903D02*
X-35286Y21820D01*
X-35369Y21821D01*
X-35369Y21738D01*
X-35286Y21737D01*
X-35286Y21820D01*
X-35203Y21820D01*
X-35202Y21903D01*
X-35285Y21903D01*
D02*
G37*
G36*
X-40848Y21869D02*
X-40849Y21786D01*
X-40766Y21785D01*
X-40765Y21868D01*
X-40848Y21869D01*
D02*
G37*
G36*
X-39546Y18869D02*
X-39546Y18786D01*
X-39463Y18785D01*
X-39463Y18868D01*
X-39546Y18869D01*
D02*
G37*
G36*
X-39547Y18702D02*
X-39548Y18620D01*
X-39465Y18619D01*
X-39464Y18702D01*
X-39547Y18702D01*
D02*
G37*
G36*
X-36724Y18678D02*
X-36725Y18595D01*
X-36642Y18594D01*
X-36641Y18677D01*
X-36724Y18678D01*
D02*
G37*
G36*
X-33599Y15329D02*
X-33599Y15247D01*
X-33516Y15246D01*
X-33516Y15329D01*
X-33599Y15329D01*
D02*
G37*
G36*
X867907Y-152658D02*
X859890D01*
Y-152945D01*
Y-153231D01*
Y-153517D01*
Y-153804D01*
Y-154090D01*
X859604D01*
Y-154376D01*
Y-154663D01*
Y-154949D01*
Y-155235D01*
Y-155521D01*
Y-155808D01*
X859317D01*
Y-156094D01*
Y-156380D01*
Y-156667D01*
Y-156953D01*
Y-157239D01*
Y-157526D01*
X859031D01*
Y-157812D01*
Y-158098D01*
Y-158385D01*
Y-158671D01*
Y-158957D01*
Y-159244D01*
X858745D01*
Y-159530D01*
Y-159816D01*
Y-160102D01*
Y-160389D01*
Y-160675D01*
Y-160961D01*
Y-161248D01*
X858458D01*
Y-161534D01*
Y-161820D01*
Y-162107D01*
Y-162393D01*
Y-162679D01*
Y-162966D01*
X858172D01*
Y-163252D01*
Y-163538D01*
Y-163824D01*
X865330D01*
Y-163538D01*
X866475D01*
Y-163252D01*
X867048D01*
Y-162966D01*
X867334D01*
Y-162679D01*
X867620D01*
Y-162393D01*
X867907D01*
Y-162107D01*
X868193D01*
Y-161820D01*
Y-161534D01*
X868479D01*
Y-161248D01*
Y-160961D01*
X868766D01*
Y-160675D01*
Y-160389D01*
X869052D01*
Y-160102D01*
Y-159816D01*
Y-159530D01*
Y-159244D01*
X869338D01*
Y-158957D01*
Y-158671D01*
Y-158385D01*
Y-158098D01*
Y-157812D01*
X869625D01*
Y-157526D01*
Y-157239D01*
Y-156953D01*
Y-156667D01*
Y-156380D01*
Y-156094D01*
Y-155808D01*
Y-155521D01*
Y-155235D01*
Y-154949D01*
Y-154663D01*
X869338D01*
Y-154376D01*
Y-154090D01*
X869052D01*
Y-153804D01*
Y-153517D01*
X868766D01*
Y-153231D01*
X868479D01*
Y-152945D01*
X867907D01*
Y-152658D01*
D02*
G37*
%LPD*%
D10*
X1178748Y-229571D02*
Y-190201D01*
X1021267Y-150831D02*
X1296858D01*
X1021267Y-190201D02*
X1296858D01*
X824417Y-229571D02*
X1296858D01*
X824417Y-111461D02*
X1296858D01*
X824417Y-268941D02*
Y-111461D01*
X1021267Y-268941D02*
Y-111461D01*
X-356685Y900350D02*
X1296858D01*
Y-268941D02*
Y900350D01*
X-356685Y-268941D02*
Y900350D01*
Y-268941D02*
X1296858D01*
X1035046Y-255164D02*
X1031110D01*
Y-258115D01*
X1033078D01*
X1031110D01*
Y-261067D01*
X1037014Y-257131D02*
Y-261067D01*
Y-259099D01*
X1037998Y-258115D01*
X1038981Y-257131D01*
X1039965D01*
X1042917Y-261067D02*
X1044885D01*
X1043901D01*
Y-257131D01*
X1042917D01*
X1047837Y-256147D02*
X1048821Y-255164D01*
X1050789D01*
X1051772Y-256147D01*
Y-257131D01*
X1050789Y-258115D01*
X1049805D01*
X1050789D01*
X1051772Y-259099D01*
Y-260083D01*
X1050789Y-261067D01*
X1048821D01*
X1047837Y-260083D01*
X1053740Y-255164D02*
Y-261067D01*
X1056692D01*
X1057676Y-260083D01*
Y-256147D01*
X1056692Y-255164D01*
X1053740D01*
X1059644Y-262051D02*
X1063580D01*
X1069483Y-261067D02*
X1065548D01*
X1069483Y-257131D01*
Y-256147D01*
X1068499Y-255164D01*
X1066531D01*
X1065548Y-256147D01*
X1071451D02*
X1072435Y-255164D01*
X1074403D01*
X1075387Y-256147D01*
Y-260083D01*
X1074403Y-261067D01*
X1072435D01*
X1071451Y-260083D01*
Y-256147D01*
X1077355Y-261067D02*
X1079323D01*
X1078339D01*
Y-255164D01*
X1077355Y-256147D01*
X1082275Y-260083D02*
X1083258Y-261067D01*
X1085226D01*
X1086210Y-260083D01*
Y-256147D01*
X1085226Y-255164D01*
X1083258D01*
X1082275Y-256147D01*
Y-257131D01*
X1083258Y-258115D01*
X1086210D01*
X1088178Y-262051D02*
X1092114D01*
X1098017Y-256147D02*
X1097034Y-255164D01*
X1095066D01*
X1094082Y-256147D01*
Y-257131D01*
X1095066Y-258115D01*
X1097034D01*
X1098017Y-259099D01*
Y-260083D01*
X1097034Y-261067D01*
X1095066D01*
X1094082Y-260083D01*
X1100969Y-261067D02*
X1102937D01*
X1103921Y-260083D01*
Y-258115D01*
X1102937Y-257131D01*
X1100969D01*
X1099985Y-258115D01*
Y-260083D01*
X1100969Y-261067D01*
X1105889D02*
X1107857D01*
X1106873D01*
Y-255164D01*
X1105889D01*
X1114744D02*
Y-261067D01*
X1111792D01*
X1110808Y-260083D01*
Y-258115D01*
X1111792Y-257131D01*
X1114744D01*
X1119664Y-261067D02*
X1117696D01*
X1116712Y-260083D01*
Y-258115D01*
X1117696Y-257131D01*
X1119664D01*
X1120648Y-258115D01*
Y-259099D01*
X1116712D01*
X1122616Y-257131D02*
Y-261067D01*
Y-259099D01*
X1123600Y-258115D01*
X1124584Y-257131D01*
X1125568D01*
X1128519Y-255164D02*
Y-261067D01*
X1131471D01*
X1132455Y-260083D01*
Y-259099D01*
X1131471Y-258115D01*
X1128519D01*
X1131471D01*
X1132455Y-257131D01*
Y-256147D01*
X1131471Y-255164D01*
X1128519D01*
X1135407Y-257131D02*
X1137375D01*
X1138359Y-258115D01*
Y-261067D01*
X1135407D01*
X1134423Y-260083D01*
X1135407Y-259099D01*
X1138359D01*
X1144262Y-255164D02*
Y-261067D01*
X1141311D01*
X1140326Y-260083D01*
Y-258115D01*
X1141311Y-257131D01*
X1144262D01*
X1148198Y-263035D02*
X1149182D01*
X1150166Y-262051D01*
Y-257131D01*
X1147214D01*
X1146230Y-258115D01*
Y-260083D01*
X1147214Y-261067D01*
X1150166D01*
X1155085D02*
X1153118D01*
X1152134Y-260083D01*
Y-258115D01*
X1153118Y-257131D01*
X1155085D01*
X1156069Y-258115D01*
Y-259099D01*
X1152134D01*
X1158037Y-262051D02*
X1161973D01*
X1163941Y-256147D02*
X1164925Y-255164D01*
X1166893D01*
X1167877Y-256147D01*
Y-260083D01*
X1166893Y-261067D01*
X1164925D01*
X1163941Y-260083D01*
Y-256147D01*
X1169845Y-261067D02*
X1171812D01*
X1170829D01*
Y-255164D01*
X1169845Y-256147D01*
X1174764Y-261067D02*
Y-260083D01*
X1175748D01*
Y-261067D01*
X1174764D01*
X1179684D02*
Y-255164D01*
X1182636D01*
X1183620Y-256147D01*
Y-258115D01*
X1182636Y-259099D01*
X1179684D01*
X1189523Y-257131D02*
X1186571D01*
X1185588Y-258115D01*
Y-260083D01*
X1186571Y-261067D01*
X1189523D01*
X1191491Y-255164D02*
Y-261067D01*
X1194443D01*
X1195427Y-260083D01*
Y-259099D01*
Y-258115D01*
X1194443Y-257131D01*
X1191491D01*
X1197395Y-255164D02*
Y-261067D01*
X1200346D01*
X1201330Y-260083D01*
Y-256147D01*
X1200346Y-255164D01*
X1197395D01*
X1204282Y-261067D02*
X1206250D01*
X1207234Y-260083D01*
Y-258115D01*
X1206250Y-257131D01*
X1204282D01*
X1203298Y-258115D01*
Y-260083D01*
X1204282Y-261067D01*
X1213138Y-257131D02*
X1210186D01*
X1209202Y-258115D01*
Y-260083D01*
X1210186Y-261067D01*
X1213138D01*
D15*
X-1570Y42378D02*
X-558Y43390D01*
X-2741Y43913D02*
X-36Y41207D01*
X-2741D02*
Y43913D01*
X-1570Y38488D02*
X-558Y39500D01*
X-2741Y40022D02*
X-36Y37317D01*
X-2741D02*
X-36D01*
X-2741D02*
Y40022D01*
Y41207D02*
X-36D01*
X-17679Y42378D02*
X-16666Y43390D01*
X-18850Y43913D02*
X-16144Y41207D01*
X-18850D02*
Y43913D01*
X-17679Y38488D02*
X-16666Y39500D01*
X-18850Y40022D02*
X-16144Y37317D01*
X-18850D02*
X-16144D01*
X-18850D02*
Y40022D01*
Y41207D02*
X-16144D01*
X-161Y178022D02*
G03*
X-11719Y166089I253J-11808D01*
G01*
X-11726Y166089D02*
G03*
X-39627Y156685I16667J-95546D01*
G01*
X39655Y156679D02*
G03*
X11703Y166092I-44568J-86143D01*
G01*
X11746Y166092D02*
G03*
X189Y178016I-11811J116D01*
G01*
X-24512Y6543D02*
G03*
X24555Y6543I24533J42723D01*
G01*
X48173Y9652D02*
G03*
X24540Y6538I43865J-424098D01*
G01*
X62998Y7868D02*
G03*
X48188Y9657I-11477J-32805D01*
G01*
X62998Y7868D02*
G03*
X55999Y26983I-24495J1871D01*
G01*
X78747Y23617D02*
G03*
X55999Y26983I-26577J-101038D01*
G01*
X78747Y23617D02*
G03*
X63909Y48296I-59470J-18955D01*
G01*
X90558Y51175D02*
G03*
X63897Y48307I3682J-159583D01*
G01*
X90558Y51175D02*
G03*
X70501Y76336I-47910J-17616D01*
G01*
X70501D02*
G03*
X69011Y93228I-31925J5695D01*
G01*
X69011D02*
G03*
X73664Y135990I-97680J32264D01*
G01*
X74809Y173228D02*
G03*
X73664Y135990I97809J-21644D01*
G01*
X74809Y173228D02*
G03*
X39655Y156679I15198J-77899D01*
G01*
X-39627Y156685D02*
G03*
X-74782Y173234I-50353J-61350D01*
G01*
X-73636Y135996D02*
G03*
X-74782Y173234I-98954J15594D01*
G01*
X-73636Y135996D02*
G03*
X-68983Y93234I102333J-10498D01*
G01*
X-68983D02*
G03*
X-70473Y76342I30435J-11197D01*
G01*
X-70473D02*
G03*
X-90530Y51181I27853J-42777D01*
G01*
X-63869Y48313D02*
G03*
X-90530Y51181I-30343J-156715D01*
G01*
X-63881Y48302D02*
G03*
X-78719Y23622I44633J-43634D01*
G01*
X-55972Y26989D02*
G03*
X-78719Y23622I3830J-104405D01*
G01*
X-55972Y26989D02*
G03*
X-62970Y7874I17496J-17245D01*
G01*
X-48161Y9663D02*
G03*
X-62970Y7874I-3333J-34594D01*
G01*
X-24512Y6543D02*
G03*
X-48146Y9657I-67498J-420984D01*
G01*
X-161Y178022D02*
X189D01*
X1182685Y-202012D02*
Y-194141D01*
X1186621D01*
X1187932Y-195452D01*
Y-198076D01*
X1186621Y-199388D01*
X1182685D01*
X1185308D02*
X1187932Y-202012D01*
X1194492D02*
X1191868D01*
X1190556Y-200700D01*
Y-198076D01*
X1191868Y-196764D01*
X1194492D01*
X1195804Y-198076D01*
Y-199388D01*
X1190556D01*
X1198428Y-196764D02*
X1201052Y-202012D01*
X1203675Y-196764D01*
X828354Y-233511D02*
Y-241382D01*
X832290D01*
X833602Y-240070D01*
Y-234823D01*
X832290Y-233511D01*
X828354D01*
X840161Y-241382D02*
X837537D01*
X836226Y-240070D01*
Y-237446D01*
X837537Y-236134D01*
X840161D01*
X841473Y-237446D01*
Y-238758D01*
X836226D01*
X844097Y-241382D02*
X848033D01*
X849345Y-240070D01*
X848033Y-238758D01*
X845409D01*
X844097Y-237446D01*
X845409Y-236134D01*
X849345D01*
X854592Y-244006D02*
X855904D01*
X857216Y-242694D01*
Y-236134D01*
X853280D01*
X851968Y-237446D01*
Y-240070D01*
X853280Y-241382D01*
X857216D01*
X859840D02*
X862464D01*
X861152D01*
Y-236134D01*
X859840D01*
X866399Y-241382D02*
Y-236134D01*
X870335D01*
X871647Y-237446D01*
Y-241382D01*
X878207D02*
X875583D01*
X874271Y-240070D01*
Y-237446D01*
X875583Y-236134D01*
X878207D01*
X879519Y-237446D01*
Y-238758D01*
X874271D01*
X882143Y-236134D02*
Y-241382D01*
Y-238758D01*
X883454Y-237446D01*
X884766Y-236134D01*
X886078D01*
X1025204Y-115400D02*
Y-123272D01*
X1029140D01*
X1030452Y-121960D01*
Y-116712D01*
X1029140Y-115400D01*
X1025204D01*
X1034388Y-123272D02*
X1037012D01*
X1038323Y-121960D01*
Y-119336D01*
X1037012Y-118024D01*
X1034388D01*
X1033076Y-119336D01*
Y-121960D01*
X1034388Y-123272D01*
X1046195Y-118024D02*
X1042259D01*
X1040947Y-119336D01*
Y-121960D01*
X1042259Y-123272D01*
X1046195D01*
X1048819Y-118024D02*
Y-121960D01*
X1050131Y-123272D01*
X1054066D01*
Y-118024D01*
X1056690Y-123272D02*
Y-118024D01*
X1058002D01*
X1059314Y-119336D01*
Y-123272D01*
Y-119336D01*
X1060626Y-118024D01*
X1061938Y-119336D01*
Y-123272D01*
X1068498D02*
X1065874D01*
X1064562Y-121960D01*
Y-119336D01*
X1065874Y-118024D01*
X1068498D01*
X1069810Y-119336D01*
Y-120648D01*
X1064562D01*
X1072433Y-123272D02*
Y-118024D01*
X1076369D01*
X1077681Y-119336D01*
Y-123272D01*
X1081617Y-116712D02*
Y-118024D01*
X1080305D01*
X1082929D01*
X1081617D01*
Y-121960D01*
X1082929Y-123272D01*
X1025204Y-154770D02*
Y-162642D01*
X1030452D01*
X1034388Y-157394D02*
X1037012D01*
X1038323Y-158706D01*
Y-162642D01*
X1034388D01*
X1033076Y-161330D01*
X1034388Y-160018D01*
X1038323D01*
X1040947Y-157394D02*
Y-161330D01*
X1042259Y-162642D01*
X1046195D01*
Y-163954D01*
X1044883Y-165266D01*
X1043571D01*
X1046195Y-162642D02*
Y-157394D01*
X1052755Y-162642D02*
X1050131D01*
X1048819Y-161330D01*
Y-158706D01*
X1050131Y-157394D01*
X1052755D01*
X1054066Y-158706D01*
Y-160018D01*
X1048819D01*
X1056690Y-157394D02*
Y-162642D01*
Y-160018D01*
X1058002Y-158706D01*
X1059314Y-157394D01*
X1060626D01*
X1072433Y-162642D02*
Y-154770D01*
X1077681Y-162642D01*
Y-154770D01*
X1081617Y-157394D02*
X1084241D01*
X1085552Y-158706D01*
Y-162642D01*
X1081617D01*
X1080305Y-161330D01*
X1081617Y-160018D01*
X1085552D01*
X1088176Y-162642D02*
Y-157394D01*
X1089488D01*
X1090800Y-158706D01*
Y-162642D01*
Y-158706D01*
X1092112Y-157394D01*
X1093424Y-158706D01*
Y-162642D01*
X1099984D02*
X1097360D01*
X1096048Y-161330D01*
Y-158706D01*
X1097360Y-157394D01*
X1099984D01*
X1101295Y-158706D01*
Y-160018D01*
X1096048D01*
X1025204Y-194141D02*
Y-202012D01*
X1029140D01*
X1030452Y-200700D01*
Y-195452D01*
X1029140Y-194141D01*
X1025204D01*
X1034388Y-196764D02*
X1037012D01*
X1038323Y-198076D01*
Y-202012D01*
X1034388D01*
X1033076Y-200700D01*
X1034388Y-199388D01*
X1038323D01*
X1042259Y-195452D02*
Y-196764D01*
X1040947D01*
X1043571D01*
X1042259D01*
Y-200700D01*
X1043571Y-202012D01*
X1051443D02*
X1048819D01*
X1047507Y-200700D01*
Y-198076D01*
X1048819Y-196764D01*
X1051443D01*
X1052755Y-198076D01*
Y-199388D01*
X1047507D01*
X1025204Y-233511D02*
Y-241382D01*
X1029140D01*
X1030452Y-240070D01*
Y-234823D01*
X1029140Y-233511D01*
X1025204D01*
X1034388Y-241382D02*
X1037012D01*
X1038323Y-240070D01*
Y-237446D01*
X1037012Y-236134D01*
X1034388D01*
X1033076Y-237446D01*
Y-240070D01*
X1034388Y-241382D01*
X1046195Y-236134D02*
X1042259D01*
X1040947Y-237446D01*
Y-240070D01*
X1042259Y-241382D01*
X1046195D01*
X1048819Y-236134D02*
Y-240070D01*
X1050131Y-241382D01*
X1054066D01*
Y-236134D01*
X1056690Y-241382D02*
Y-236134D01*
X1058002D01*
X1059314Y-237446D01*
Y-241382D01*
Y-237446D01*
X1060626Y-236134D01*
X1061938Y-237446D01*
Y-241382D01*
X1068498D02*
X1065874D01*
X1064562Y-240070D01*
Y-237446D01*
X1065874Y-236134D01*
X1068498D01*
X1069810Y-237446D01*
Y-238758D01*
X1064562D01*
X1072433Y-241382D02*
Y-236134D01*
X1076369D01*
X1077681Y-237446D01*
Y-241382D01*
X1081617Y-234823D02*
Y-236134D01*
X1080305D01*
X1082929D01*
X1081617D01*
Y-240070D01*
X1082929Y-241382D01*
D16*
X1042921Y-168552D02*
Y-182327D01*
X1049809D01*
X1052104Y-180031D01*
Y-177735D01*
X1049809Y-175439D01*
X1042921D01*
X1049809D01*
X1052104Y-173144D01*
Y-170848D01*
X1049809Y-168552D01*
X1042921D01*
X1058992Y-182327D02*
X1063584D01*
X1065879Y-180031D01*
Y-175439D01*
X1063584Y-173144D01*
X1058992D01*
X1056696Y-175439D01*
Y-180031D01*
X1058992Y-182327D01*
X1072767Y-170848D02*
Y-173144D01*
X1070471D01*
X1075063D01*
X1072767D01*
Y-180031D01*
X1075063Y-182327D01*
X1084246Y-170848D02*
Y-173144D01*
X1081950D01*
X1086542D01*
X1084246D01*
Y-180031D01*
X1086542Y-182327D01*
X1095725D02*
X1100317D01*
X1102613Y-180031D01*
Y-175439D01*
X1100317Y-173144D01*
X1095725D01*
X1093430Y-175439D01*
Y-180031D01*
X1095725Y-182327D01*
X1107205D02*
Y-173144D01*
X1109501D01*
X1111796Y-175439D01*
Y-182327D01*
Y-175439D01*
X1114092Y-173144D01*
X1116388Y-175439D01*
Y-182327D01*
X1134755Y-168552D02*
Y-182327D01*
X1143938D01*
X1150826Y-173144D02*
X1155417D01*
X1157713Y-175439D01*
Y-182327D01*
X1150826D01*
X1148530Y-180031D01*
X1150826Y-177735D01*
X1157713D01*
X1162305Y-173144D02*
Y-180031D01*
X1164601Y-182327D01*
X1171488D01*
Y-184623D01*
X1169193Y-186919D01*
X1166897D01*
X1171488Y-182327D02*
Y-173144D01*
X1182968Y-182327D02*
X1178376D01*
X1176080Y-180031D01*
Y-175439D01*
X1178376Y-173144D01*
X1182968D01*
X1185263Y-175439D01*
Y-177735D01*
X1176080D01*
X1189855Y-173144D02*
Y-182327D01*
Y-177735D01*
X1192151Y-175439D01*
X1194447Y-173144D01*
X1196743D01*
X846071Y-247293D02*
Y-263036D01*
X851318Y-257788D01*
X856566Y-263036D01*
Y-247293D01*
X861814Y-263036D02*
X867061D01*
X864437D01*
Y-252540D01*
X861814D01*
X874933Y-263036D02*
Y-252540D01*
X877556D01*
X880180Y-255164D01*
Y-263036D01*
Y-255164D01*
X882804Y-252540D01*
X885428Y-255164D01*
Y-263036D01*
X890676Y-247293D02*
Y-257788D01*
X895923Y-263036D01*
X901171Y-257788D01*
Y-247293D01*
X916914Y-249917D02*
X914290Y-247293D01*
X909042D01*
X906419Y-249917D01*
Y-260412D01*
X909042Y-263036D01*
X914290D01*
X916914Y-260412D01*
Y-255164D01*
X911666D01*
X1200401Y-210546D02*
X1203025Y-207923D01*
X1208273D01*
X1210897Y-210546D01*
Y-221042D01*
X1208273Y-223665D01*
X1203025D01*
X1200401Y-221042D01*
Y-210546D01*
X1216144Y-223665D02*
X1221392D01*
X1218768D01*
Y-207923D01*
X1216144Y-210546D01*
X1046199Y-209890D02*
X1041607Y-212186D01*
X1037015Y-216778D01*
Y-221370D01*
X1039311Y-223665D01*
X1043903D01*
X1046199Y-221370D01*
Y-219074D01*
X1043903Y-216778D01*
X1037015D01*
X1050791Y-223665D02*
X1059974Y-214482D01*
X1064566Y-212186D02*
X1066861Y-209890D01*
X1071453D01*
X1073749Y-212186D01*
Y-221370D01*
X1071453Y-223665D01*
X1066861D01*
X1064566Y-221370D01*
Y-212186D01*
X1078341D02*
X1080637Y-209890D01*
X1085228D01*
X1087524Y-212186D01*
Y-214482D01*
X1085228Y-216778D01*
X1087524Y-219074D01*
Y-221370D01*
X1085228Y-223665D01*
X1080637D01*
X1078341Y-221370D01*
Y-219074D01*
X1080637Y-216778D01*
X1078341Y-214482D01*
Y-212186D01*
X1080637Y-216778D02*
X1085228D01*
X1092116Y-223665D02*
X1101299Y-214482D01*
X1115074Y-223665D02*
X1105891D01*
X1115074Y-214482D01*
Y-212186D01*
X1112778Y-209890D01*
X1108187D01*
X1105891Y-212186D01*
X1119666D02*
X1121962Y-209890D01*
X1126553D01*
X1128849Y-212186D01*
Y-221370D01*
X1126553Y-223665D01*
X1121962D01*
X1119666Y-221370D01*
Y-212186D01*
X1133441Y-223665D02*
X1138033D01*
X1135737D01*
Y-209890D01*
X1133441Y-212186D01*
X1144920Y-221370D02*
X1147216Y-223665D01*
X1151808D01*
X1154104Y-221370D01*
Y-212186D01*
X1151808Y-209890D01*
X1147216D01*
X1144920Y-212186D01*
Y-214482D01*
X1147216Y-216778D01*
X1154104D01*
X1031110Y-144925D02*
Y-129182D01*
X1036358Y-134430D01*
X1041605Y-129182D01*
Y-144925D01*
X1046853D02*
X1052100D01*
X1049477D01*
Y-134430D01*
X1046853D01*
X1059972Y-144925D02*
Y-134430D01*
X1067843D01*
X1070467Y-137054D01*
Y-144925D01*
X1075715D02*
X1080963D01*
X1078339D01*
Y-134430D01*
X1075715D01*
X1104577Y-144925D02*
Y-129182D01*
X1112449D01*
X1115072Y-131806D01*
Y-137054D01*
X1112449Y-139678D01*
X1104577D01*
X1120320Y-129182D02*
Y-144925D01*
Y-137054D01*
X1122944Y-134430D01*
X1128191D01*
X1130815Y-137054D01*
Y-144925D01*
X1136063Y-131806D02*
X1138687Y-129182D01*
X1143934D01*
X1146558Y-131806D01*
Y-142301D01*
X1143934Y-144925D01*
X1138687D01*
X1136063Y-142301D01*
Y-131806D01*
X1151806Y-134430D02*
X1162301Y-144925D01*
X1157053Y-139678D01*
X1162301Y-134430D01*
X1151806Y-144925D01*
X1167549Y-134430D02*
X1178044Y-144925D01*
X1172796Y-139678D01*
X1178044Y-134430D01*
X1167549Y-144925D01*
D26*
X0Y66142D02*
D03*
Y144882D02*
D03*
D27*
Y166339D02*
D03*
D28*
X36496Y74803D02*
D03*
X-36496D02*
D03*
D29*
X26496D02*
D03*
X-26496D02*
D03*
D30*
X56736Y117760D02*
G03*
X57697Y120079I-2319J2319D01*
G01*
X42698Y144882D02*
G03*
X49769Y147811I0J10000D01*
G01*
X29425Y90449D02*
G03*
X26496Y83378I7071J-7071D01*
G01*
X-49769Y147811D02*
G03*
X-42698Y144882I7071J7071D01*
G01*
X-57697Y120079D02*
G03*
X-56040Y116080I5655J0D01*
G01*
X-59055Y123358D02*
G03*
X-57697Y120079I4637J0D01*
G01*
X-59055Y138574D02*
G03*
X-61984Y145645I-10000J0D01*
G01*
X69735Y133800D02*
G03*
X66806Y140871I-10000J0D01*
G01*
X66905Y107260D02*
G03*
X69735Y114091I-6832J6832D01*
G01*
X59834Y104331D02*
G03*
X66905Y107260I0J10000D01*
G01*
X54332Y104331D02*
G03*
X48953Y102103I0J-7607D01*
G01*
X39425Y92575D02*
G03*
X36496Y85504I7071J-7071D01*
G01*
X23693Y66142D02*
G03*
X30764Y69071I0J10000D01*
G01*
X-30764D02*
G03*
X-23693Y66142I7071J7071D01*
G01*
X-36496Y92393D02*
G03*
X-39425Y99464I-10000J0D01*
G01*
X49769Y147811D02*
X54332Y152374D01*
X0Y144882D02*
X42698D01*
X29425Y90449D02*
X56736Y117760D01*
X26496Y74803D02*
Y83378D01*
X-42698Y144882D02*
X-0D01*
X-54332Y152374D02*
X-49769Y147811D01*
X-59055Y123358D02*
Y138574D01*
X-62008Y145669D02*
X-61984Y145645D01*
X62008Y145669D02*
X66806Y140871D01*
X69735Y114091D02*
Y133800D01*
X54332Y104331D02*
X59834D01*
X39425Y92575D02*
X48953Y102103D01*
X30764Y69071D02*
X36496Y74803D01*
Y85504D01*
X-36496Y74803D02*
Y92393D01*
X0Y66142D02*
X23693D01*
X-36496Y74803D02*
X-30764Y69071D01*
X-23693Y66142D02*
X0D01*
X-56040Y116080D02*
X-39425Y99464D01*
X-0Y74803D02*
X26496D01*
X-26496D02*
X-0D01*
Y144882D01*
D31*
X-54332Y152374D02*
D03*
D32*
X-62008Y145669D02*
D03*
D33*
X62008D02*
D03*
D34*
X54332Y152374D02*
D03*
D35*
X-57697Y120079D02*
D03*
X57697D02*
D03*
M02*
