G04*
G04 #@! TF.GenerationSoftware,Altium Limited,Altium Designer,18.1.11 (251)*
G04*
G04 Layer_Color=8388736*
%FSLAX25Y25*%
%MOIN*%
G70*
G01*
G75*
%ADD10C,0.00787*%
%ADD15C,0.00984*%
%ADD16C,0.01575*%
%ADD43C,0.01000*%
%ADD44C,0.00600*%
G36*
X872201Y-141778D02*
X873919D01*
Y-142065D01*
X874778D01*
Y-142351D01*
X875637D01*
Y-142637D01*
X876496D01*
Y-142924D01*
X877069D01*
Y-143210D01*
X877355D01*
Y-143496D01*
X877928D01*
Y-143783D01*
X878214D01*
Y-144069D01*
X878786D01*
Y-144355D01*
X879073D01*
Y-144641D01*
X879359D01*
Y-144928D01*
X879646D01*
Y-145214D01*
X879932D01*
Y-145501D01*
X880218D01*
Y-145787D01*
X880504D01*
Y-146073D01*
Y-146359D01*
X880791D01*
Y-146646D01*
X881077D01*
Y-146932D01*
Y-147218D01*
X881363D01*
Y-147505D01*
X881650D01*
Y-147791D01*
Y-148077D01*
X881936D01*
Y-148364D01*
Y-148650D01*
Y-148936D01*
X882222D01*
Y-149223D01*
Y-149509D01*
Y-149795D01*
X882509D01*
Y-150082D01*
Y-150368D01*
Y-150654D01*
Y-150940D01*
X882795D01*
Y-151227D01*
Y-151513D01*
Y-151799D01*
Y-152086D01*
Y-152372D01*
X883081D01*
Y-152658D01*
Y-152945D01*
Y-153231D01*
Y-153517D01*
Y-153804D01*
Y-154090D01*
Y-154376D01*
Y-154663D01*
Y-154949D01*
Y-155235D01*
Y-155521D01*
Y-155808D01*
Y-156094D01*
Y-156380D01*
Y-156667D01*
Y-156953D01*
Y-157239D01*
Y-157526D01*
Y-157812D01*
Y-158098D01*
X882795D01*
Y-158385D01*
Y-158671D01*
Y-158957D01*
Y-159244D01*
Y-159530D01*
Y-159816D01*
Y-160102D01*
X882509D01*
Y-160389D01*
Y-160675D01*
Y-160961D01*
Y-161248D01*
Y-161534D01*
X882222D01*
Y-161820D01*
Y-162107D01*
Y-162393D01*
Y-162679D01*
Y-162966D01*
X881936D01*
Y-163252D01*
Y-163538D01*
Y-163824D01*
X881650D01*
Y-164111D01*
Y-164397D01*
Y-164683D01*
Y-164970D01*
X881363D01*
Y-165256D01*
Y-165542D01*
Y-165829D01*
X881077D01*
Y-166115D01*
Y-166401D01*
X880791D01*
Y-166688D01*
Y-166974D01*
Y-167260D01*
X880504D01*
Y-167547D01*
Y-167833D01*
X880218D01*
Y-168119D01*
Y-168405D01*
X879932D01*
Y-168692D01*
Y-168978D01*
X879646D01*
Y-169264D01*
X879359D01*
Y-169551D01*
Y-169837D01*
X879073D01*
Y-170123D01*
X878786D01*
Y-170410D01*
X878500D01*
Y-170696D01*
Y-170982D01*
X878214D01*
Y-171269D01*
X877928D01*
Y-171555D01*
X877641D01*
Y-171841D01*
X877355D01*
Y-172127D01*
X877069D01*
Y-172414D01*
X876496D01*
Y-172700D01*
X876210D01*
Y-172986D01*
X875637D01*
Y-173273D01*
X875351D01*
Y-173559D01*
X874778D01*
Y-173845D01*
X873919D01*
Y-174132D01*
X873060D01*
Y-174418D01*
X872201D01*
Y-174704D01*
X870483D01*
Y-174991D01*
X865330D01*
Y-174704D01*
X862753D01*
Y-174418D01*
X860749D01*
Y-174132D01*
X859317D01*
Y-173845D01*
X857886D01*
Y-173559D01*
X856454D01*
Y-173845D01*
Y-174132D01*
Y-174418D01*
Y-174704D01*
Y-174991D01*
Y-175277D01*
Y-175563D01*
X856168D01*
Y-175850D01*
Y-176136D01*
Y-176422D01*
Y-176709D01*
Y-176995D01*
Y-177281D01*
X855882D01*
Y-177568D01*
Y-177854D01*
Y-178140D01*
Y-178426D01*
Y-178713D01*
Y-178999D01*
X855595D01*
Y-179285D01*
Y-179572D01*
Y-179858D01*
Y-180144D01*
Y-180431D01*
Y-180717D01*
Y-181003D01*
X855309D01*
Y-181290D01*
Y-181576D01*
Y-181862D01*
Y-182149D01*
Y-182435D01*
Y-182721D01*
X855023D01*
Y-183007D01*
Y-183294D01*
Y-183580D01*
Y-183866D01*
Y-184153D01*
Y-184439D01*
X854736D01*
Y-184725D01*
Y-185012D01*
Y-185298D01*
Y-185584D01*
Y-185871D01*
Y-186157D01*
Y-186443D01*
X854450D01*
Y-186730D01*
Y-187016D01*
Y-187302D01*
Y-187588D01*
Y-187875D01*
Y-188161D01*
X854164D01*
Y-188447D01*
Y-188734D01*
Y-189020D01*
Y-189306D01*
Y-189593D01*
Y-189879D01*
X853877D01*
Y-190165D01*
Y-190452D01*
Y-190738D01*
Y-191024D01*
Y-191311D01*
Y-191597D01*
Y-191883D01*
X840421D01*
Y-191597D01*
X840707D01*
Y-191311D01*
Y-191024D01*
Y-190738D01*
Y-190452D01*
Y-190165D01*
X840993D01*
Y-189879D01*
Y-189593D01*
Y-189306D01*
Y-189020D01*
Y-188734D01*
Y-188447D01*
Y-188161D01*
X841280D01*
Y-187875D01*
Y-187588D01*
Y-187302D01*
Y-187016D01*
Y-186730D01*
Y-186443D01*
X841566D01*
Y-186157D01*
Y-185871D01*
Y-185584D01*
Y-185298D01*
Y-185012D01*
Y-184725D01*
X841852D01*
Y-184439D01*
Y-184153D01*
Y-183866D01*
Y-183580D01*
Y-183294D01*
Y-183007D01*
Y-182721D01*
X842138D01*
Y-182435D01*
Y-182149D01*
Y-181862D01*
Y-181576D01*
Y-181290D01*
Y-181003D01*
X842425D01*
Y-180717D01*
Y-180431D01*
Y-180144D01*
Y-179858D01*
Y-179572D01*
Y-179285D01*
X842711D01*
Y-178999D01*
Y-178713D01*
Y-178426D01*
Y-178140D01*
Y-177854D01*
Y-177568D01*
X842997D01*
Y-177281D01*
Y-176995D01*
Y-176709D01*
Y-176422D01*
Y-176136D01*
Y-175850D01*
Y-175563D01*
X843284D01*
Y-175277D01*
Y-174991D01*
Y-174704D01*
Y-174418D01*
Y-174132D01*
Y-173845D01*
X843570D01*
Y-173559D01*
Y-173273D01*
Y-172986D01*
Y-172700D01*
Y-172414D01*
Y-172127D01*
X843856D01*
Y-171841D01*
Y-171555D01*
Y-171269D01*
Y-170982D01*
Y-170696D01*
Y-170410D01*
X844143D01*
Y-170123D01*
Y-169837D01*
Y-169551D01*
Y-169264D01*
Y-168978D01*
Y-168692D01*
Y-168405D01*
X844429D01*
Y-168119D01*
Y-167833D01*
Y-167547D01*
Y-167260D01*
Y-166974D01*
Y-166688D01*
X844715D01*
Y-166401D01*
Y-166115D01*
Y-165829D01*
Y-165542D01*
Y-165256D01*
Y-164970D01*
X845002D01*
Y-164683D01*
Y-164397D01*
Y-164111D01*
Y-163824D01*
Y-163538D01*
Y-163252D01*
Y-162966D01*
X845288D01*
Y-162679D01*
Y-162393D01*
Y-162107D01*
Y-161820D01*
Y-161534D01*
Y-161248D01*
X845574D01*
Y-160961D01*
Y-160675D01*
Y-160389D01*
Y-160102D01*
Y-159816D01*
Y-159530D01*
X845861D01*
Y-159244D01*
Y-158957D01*
Y-158671D01*
Y-158385D01*
Y-158098D01*
Y-157812D01*
X846147D01*
Y-157526D01*
Y-157239D01*
Y-156953D01*
Y-156667D01*
Y-156380D01*
Y-156094D01*
Y-155808D01*
X846433D01*
Y-155521D01*
Y-155235D01*
Y-154949D01*
Y-154663D01*
Y-154376D01*
Y-154090D01*
X846719D01*
Y-153804D01*
Y-153517D01*
Y-153231D01*
Y-152945D01*
Y-152658D01*
Y-152372D01*
X847006D01*
Y-152086D01*
Y-151799D01*
Y-151513D01*
Y-151227D01*
Y-150940D01*
Y-150654D01*
Y-150368D01*
X847292D01*
Y-150082D01*
Y-149795D01*
Y-149509D01*
Y-149223D01*
Y-148936D01*
Y-148650D01*
X847578D01*
Y-148364D01*
Y-148077D01*
Y-147791D01*
Y-147505D01*
Y-147218D01*
Y-146932D01*
X847865D01*
Y-146646D01*
Y-146359D01*
Y-146073D01*
Y-145787D01*
Y-145501D01*
Y-145214D01*
Y-144928D01*
X848151D01*
Y-144641D01*
Y-144355D01*
Y-144069D01*
Y-143783D01*
Y-143496D01*
Y-143210D01*
X848437D01*
Y-142924D01*
Y-142637D01*
Y-142351D01*
Y-142065D01*
Y-141778D01*
Y-141492D01*
X872201D01*
Y-141778D01*
D02*
G37*
G36*
X903409Y-138343D02*
Y-138629D01*
X903123D01*
Y-138915D01*
Y-139202D01*
Y-139488D01*
Y-139774D01*
Y-140060D01*
Y-140347D01*
X902837D01*
Y-140633D01*
Y-140919D01*
Y-141206D01*
Y-141492D01*
Y-141778D01*
Y-142065D01*
X902551D01*
Y-142351D01*
Y-142637D01*
Y-142924D01*
Y-143210D01*
Y-143496D01*
Y-143783D01*
Y-144069D01*
X902264D01*
Y-144355D01*
Y-144641D01*
Y-144928D01*
Y-145214D01*
Y-145501D01*
Y-145787D01*
X901978D01*
Y-146073D01*
Y-146359D01*
Y-146646D01*
Y-146932D01*
Y-147218D01*
Y-147505D01*
X901692D01*
Y-147791D01*
Y-148077D01*
Y-148364D01*
Y-148650D01*
Y-148936D01*
Y-149223D01*
Y-149509D01*
X901405D01*
Y-149795D01*
Y-150082D01*
Y-150368D01*
Y-150654D01*
Y-150940D01*
Y-151227D01*
X901119D01*
Y-151513D01*
Y-151799D01*
Y-152086D01*
Y-152372D01*
Y-152658D01*
Y-152945D01*
X900833D01*
Y-153231D01*
Y-153517D01*
Y-153804D01*
Y-154090D01*
Y-154376D01*
Y-154663D01*
X900546D01*
Y-154949D01*
Y-155235D01*
Y-155521D01*
Y-155808D01*
Y-156094D01*
Y-156380D01*
Y-156667D01*
X900260D01*
Y-156953D01*
Y-157239D01*
Y-157526D01*
Y-157812D01*
Y-158098D01*
Y-158385D01*
X899974D01*
Y-158671D01*
Y-158957D01*
X900546D01*
Y-158671D01*
X900833D01*
Y-158385D01*
X901119D01*
Y-158098D01*
X901692D01*
Y-157812D01*
X901978D01*
Y-157526D01*
X902264D01*
Y-157239D01*
X902837D01*
Y-156953D01*
X903409D01*
Y-156667D01*
X903696D01*
Y-156380D01*
X904268D01*
Y-156094D01*
X905127D01*
Y-155808D01*
X905700D01*
Y-155521D01*
X906559D01*
Y-155235D01*
X907990D01*
Y-154949D01*
X914289D01*
Y-155235D01*
X915435D01*
Y-155521D01*
X916294D01*
Y-155808D01*
X916866D01*
Y-156094D01*
X917153D01*
Y-156380D01*
X917725D01*
Y-156667D01*
X918011D01*
Y-156953D01*
X918298D01*
Y-157239D01*
X918584D01*
Y-157526D01*
X918870D01*
Y-157812D01*
Y-158098D01*
X919157D01*
Y-158385D01*
Y-158671D01*
X919443D01*
Y-158957D01*
Y-159244D01*
Y-159530D01*
X919729D01*
Y-159816D01*
Y-160102D01*
Y-160389D01*
Y-160675D01*
X920016D01*
Y-160961D01*
Y-161248D01*
Y-161534D01*
Y-161820D01*
Y-162107D01*
Y-162393D01*
Y-162679D01*
Y-162966D01*
Y-163252D01*
Y-163538D01*
Y-163824D01*
Y-164111D01*
Y-164397D01*
Y-164683D01*
Y-164970D01*
Y-165256D01*
Y-165542D01*
Y-165829D01*
X919729D01*
Y-166115D01*
Y-166401D01*
Y-166688D01*
Y-166974D01*
Y-167260D01*
Y-167547D01*
Y-167833D01*
X919443D01*
Y-168119D01*
Y-168405D01*
Y-168692D01*
Y-168978D01*
Y-169264D01*
Y-169551D01*
Y-169837D01*
X919157D01*
Y-170123D01*
Y-170410D01*
Y-170696D01*
Y-170982D01*
Y-171269D01*
Y-171555D01*
X918870D01*
Y-171841D01*
Y-172127D01*
Y-172414D01*
Y-172700D01*
Y-172986D01*
Y-173273D01*
X918584D01*
Y-173559D01*
Y-173845D01*
Y-174132D01*
Y-174418D01*
Y-174704D01*
Y-174991D01*
X918298D01*
Y-175277D01*
Y-175563D01*
Y-175850D01*
Y-176136D01*
Y-176422D01*
Y-176709D01*
Y-176995D01*
X918011D01*
Y-177281D01*
Y-177568D01*
Y-177854D01*
Y-178140D01*
Y-178426D01*
Y-178713D01*
X917725D01*
Y-178999D01*
Y-179285D01*
Y-179572D01*
Y-179858D01*
Y-180144D01*
Y-180431D01*
X917439D01*
Y-180717D01*
Y-181003D01*
Y-181290D01*
Y-181576D01*
Y-181862D01*
Y-182149D01*
Y-182435D01*
X917153D01*
Y-182721D01*
Y-183007D01*
Y-183294D01*
Y-183580D01*
Y-183866D01*
Y-184153D01*
X916866D01*
Y-184439D01*
Y-184725D01*
Y-185012D01*
Y-185298D01*
Y-185584D01*
Y-185871D01*
X916580D01*
Y-186157D01*
Y-186443D01*
Y-186730D01*
Y-187016D01*
Y-187302D01*
Y-187588D01*
X916294D01*
Y-187875D01*
Y-188161D01*
Y-188447D01*
Y-188734D01*
Y-189020D01*
Y-189306D01*
Y-189593D01*
X916007D01*
Y-189879D01*
Y-190165D01*
Y-190452D01*
Y-190738D01*
Y-191024D01*
Y-191311D01*
X915721D01*
Y-191597D01*
Y-191883D01*
X902551D01*
Y-191597D01*
Y-191311D01*
X902837D01*
Y-191024D01*
Y-190738D01*
Y-190452D01*
Y-190165D01*
Y-189879D01*
Y-189593D01*
X903123D01*
Y-189306D01*
Y-189020D01*
Y-188734D01*
Y-188447D01*
Y-188161D01*
Y-187875D01*
Y-187588D01*
X903409D01*
Y-187302D01*
Y-187016D01*
Y-186730D01*
Y-186443D01*
Y-186157D01*
Y-185871D01*
X903696D01*
Y-185584D01*
Y-185298D01*
Y-185012D01*
Y-184725D01*
Y-184439D01*
Y-184153D01*
X903982D01*
Y-183866D01*
Y-183580D01*
Y-183294D01*
Y-183007D01*
Y-182721D01*
Y-182435D01*
Y-182149D01*
X904268D01*
Y-181862D01*
Y-181576D01*
Y-181290D01*
Y-181003D01*
Y-180717D01*
Y-180431D01*
X904555D01*
Y-180144D01*
Y-179858D01*
Y-179572D01*
Y-179285D01*
Y-178999D01*
Y-178713D01*
Y-178426D01*
X904841D01*
Y-178140D01*
Y-177854D01*
Y-177568D01*
Y-177281D01*
Y-176995D01*
Y-176709D01*
X905127D01*
Y-176422D01*
Y-176136D01*
Y-175850D01*
Y-175563D01*
Y-175277D01*
Y-174991D01*
X905414D01*
Y-174704D01*
Y-174418D01*
Y-174132D01*
Y-173845D01*
Y-173559D01*
Y-173273D01*
X905700D01*
Y-172986D01*
Y-172700D01*
Y-172414D01*
Y-172127D01*
Y-171841D01*
Y-171555D01*
Y-171269D01*
X905986D01*
Y-170982D01*
Y-170696D01*
Y-170410D01*
Y-170123D01*
Y-169837D01*
Y-169551D01*
X906273D01*
Y-169264D01*
Y-168978D01*
Y-168692D01*
Y-168405D01*
Y-168119D01*
Y-167833D01*
Y-167547D01*
X906559D01*
Y-167260D01*
Y-166974D01*
Y-166688D01*
Y-166401D01*
Y-166115D01*
Y-165829D01*
X906273D01*
Y-165542D01*
Y-165256D01*
X905986D01*
Y-164970D01*
X905700D01*
Y-164683D01*
X905127D01*
Y-164397D01*
X903409D01*
Y-164683D01*
X901978D01*
Y-164970D01*
X901119D01*
Y-165256D01*
X900546D01*
Y-165542D01*
X900260D01*
Y-165829D01*
X899687D01*
Y-166115D01*
X899401D01*
Y-166401D01*
X899115D01*
Y-166688D01*
Y-166974D01*
X898828D01*
Y-167260D01*
Y-167547D01*
Y-167833D01*
X898542D01*
Y-168119D01*
Y-168405D01*
Y-168692D01*
Y-168978D01*
Y-169264D01*
Y-169551D01*
X898256D01*
Y-169837D01*
Y-170123D01*
Y-170410D01*
Y-170696D01*
Y-170982D01*
Y-171269D01*
Y-171555D01*
X897970D01*
Y-171841D01*
Y-172127D01*
Y-172414D01*
Y-172700D01*
Y-172986D01*
Y-173273D01*
X897683D01*
Y-173559D01*
Y-173845D01*
Y-174132D01*
Y-174418D01*
Y-174704D01*
Y-174991D01*
X897397D01*
Y-175277D01*
Y-175563D01*
Y-175850D01*
Y-176136D01*
Y-176422D01*
Y-176709D01*
X897111D01*
Y-176995D01*
Y-177281D01*
Y-177568D01*
Y-177854D01*
Y-178140D01*
Y-178426D01*
Y-178713D01*
X896824D01*
Y-178999D01*
Y-179285D01*
Y-179572D01*
Y-179858D01*
Y-180144D01*
Y-180431D01*
X896538D01*
Y-180717D01*
Y-181003D01*
Y-181290D01*
Y-181576D01*
Y-181862D01*
Y-182149D01*
X896252D01*
Y-182435D01*
Y-182721D01*
Y-183007D01*
Y-183294D01*
Y-183580D01*
Y-183866D01*
Y-184153D01*
X895965D01*
Y-184439D01*
Y-184725D01*
Y-185012D01*
Y-185298D01*
Y-185584D01*
Y-185871D01*
X895679D01*
Y-186157D01*
Y-186443D01*
Y-186730D01*
Y-187016D01*
Y-187302D01*
Y-187588D01*
X895393D01*
Y-187875D01*
Y-188161D01*
Y-188447D01*
Y-188734D01*
Y-189020D01*
Y-189306D01*
X895106D01*
Y-189593D01*
Y-189879D01*
Y-190165D01*
Y-190452D01*
Y-190738D01*
Y-191024D01*
Y-191311D01*
X894820D01*
Y-191597D01*
Y-191883D01*
X881650D01*
Y-191597D01*
Y-191311D01*
X881936D01*
Y-191024D01*
Y-190738D01*
Y-190452D01*
Y-190165D01*
Y-189879D01*
Y-189593D01*
Y-189306D01*
X882222D01*
Y-189020D01*
Y-188734D01*
Y-188447D01*
Y-188161D01*
Y-187875D01*
Y-187588D01*
X882509D01*
Y-187302D01*
Y-187016D01*
Y-186730D01*
Y-186443D01*
Y-186157D01*
Y-185871D01*
X882795D01*
Y-185584D01*
Y-185298D01*
Y-185012D01*
Y-184725D01*
Y-184439D01*
Y-184153D01*
Y-183866D01*
X883081D01*
Y-183580D01*
Y-183294D01*
Y-183007D01*
Y-182721D01*
Y-182435D01*
Y-182149D01*
X883368D01*
Y-181862D01*
Y-181576D01*
Y-181290D01*
Y-181003D01*
Y-180717D01*
Y-180431D01*
X883654D01*
Y-180144D01*
Y-179858D01*
Y-179572D01*
Y-179285D01*
Y-178999D01*
Y-178713D01*
X883940D01*
Y-178426D01*
Y-178140D01*
Y-177854D01*
Y-177568D01*
Y-177281D01*
Y-176995D01*
Y-176709D01*
X884227D01*
Y-176422D01*
Y-176136D01*
Y-175850D01*
Y-175563D01*
Y-175277D01*
Y-174991D01*
X884513D01*
Y-174704D01*
Y-174418D01*
Y-174132D01*
Y-173845D01*
Y-173559D01*
Y-173273D01*
X884799D01*
Y-172986D01*
Y-172700D01*
Y-172414D01*
Y-172127D01*
Y-171841D01*
Y-171555D01*
Y-171269D01*
X885085D01*
Y-170982D01*
Y-170696D01*
Y-170410D01*
Y-170123D01*
Y-169837D01*
Y-169551D01*
X885372D01*
Y-169264D01*
Y-168978D01*
Y-168692D01*
Y-168405D01*
Y-168119D01*
Y-167833D01*
X885658D01*
Y-167547D01*
Y-167260D01*
Y-166974D01*
Y-166688D01*
Y-166401D01*
Y-166115D01*
X885944D01*
Y-165829D01*
Y-165542D01*
Y-165256D01*
Y-164970D01*
Y-164683D01*
Y-164397D01*
Y-164111D01*
X886231D01*
Y-163824D01*
Y-163538D01*
Y-163252D01*
Y-162966D01*
Y-162679D01*
Y-162393D01*
X886517D01*
Y-162107D01*
Y-161820D01*
Y-161534D01*
Y-161248D01*
Y-160961D01*
Y-160675D01*
X886803D01*
Y-160389D01*
Y-160102D01*
Y-159816D01*
Y-159530D01*
Y-159244D01*
Y-158957D01*
X887090D01*
Y-158671D01*
Y-158385D01*
Y-158098D01*
Y-157812D01*
Y-157526D01*
Y-157239D01*
Y-156953D01*
X887376D01*
Y-156667D01*
Y-156380D01*
Y-156094D01*
Y-155808D01*
Y-155521D01*
Y-155235D01*
X887662D01*
Y-154949D01*
Y-154663D01*
Y-154376D01*
Y-154090D01*
Y-153804D01*
Y-153517D01*
X887949D01*
Y-153231D01*
Y-152945D01*
Y-152658D01*
Y-152372D01*
Y-152086D01*
Y-151799D01*
Y-151513D01*
X888235D01*
Y-151227D01*
Y-150940D01*
Y-150654D01*
Y-150368D01*
Y-150082D01*
Y-149795D01*
X888521D01*
Y-149509D01*
Y-149223D01*
Y-148936D01*
Y-148650D01*
Y-148364D01*
Y-148077D01*
X888807D01*
Y-147791D01*
Y-147505D01*
Y-147218D01*
Y-146932D01*
Y-146646D01*
Y-146359D01*
X889094D01*
Y-146073D01*
Y-145787D01*
Y-145501D01*
Y-145214D01*
Y-144928D01*
Y-144641D01*
Y-144355D01*
X889380D01*
Y-144069D01*
Y-143783D01*
Y-143496D01*
Y-143210D01*
Y-142924D01*
Y-142637D01*
X889666D01*
Y-142351D01*
Y-142065D01*
Y-141778D01*
Y-141492D01*
Y-141206D01*
Y-140919D01*
X889953D01*
Y-140633D01*
Y-140347D01*
Y-140060D01*
Y-139774D01*
Y-139488D01*
Y-139202D01*
Y-138915D01*
X890239D01*
Y-138629D01*
Y-138343D01*
Y-138056D01*
X903409D01*
Y-138343D01*
D02*
G37*
G36*
X1005337Y-155808D02*
X1005050D01*
Y-156094D01*
X1004764D01*
Y-156380D01*
Y-156667D01*
X1004478D01*
Y-156953D01*
X1004192D01*
Y-157239D01*
X1003905D01*
Y-157526D01*
Y-157812D01*
X1003619D01*
Y-158098D01*
X1003333D01*
Y-158385D01*
X1003046D01*
Y-158671D01*
X1002760D01*
Y-158957D01*
Y-159244D01*
X1002474D01*
Y-159530D01*
X1002187D01*
Y-159816D01*
X1001901D01*
Y-160102D01*
Y-160389D01*
X1001615D01*
Y-160675D01*
X1001328D01*
Y-160961D01*
X1001042D01*
Y-161248D01*
X1000756D01*
Y-161534D01*
Y-161820D01*
X1000469D01*
Y-162107D01*
X1000183D01*
Y-162393D01*
X999897D01*
Y-162679D01*
Y-162966D01*
X999611D01*
Y-163252D01*
X999324D01*
Y-163538D01*
X999038D01*
Y-163824D01*
Y-164111D01*
X998752D01*
Y-164397D01*
X998465D01*
Y-164683D01*
X998179D01*
Y-164970D01*
X997893D01*
Y-165256D01*
Y-165542D01*
X997606D01*
Y-165829D01*
X997320D01*
Y-166115D01*
X997034D01*
Y-166401D01*
Y-166688D01*
X996747D01*
Y-166974D01*
X996461D01*
Y-167260D01*
X996175D01*
Y-167547D01*
Y-167833D01*
X995889D01*
Y-168119D01*
X995602D01*
Y-168405D01*
X995316D01*
Y-168692D01*
X995030D01*
Y-168978D01*
Y-169264D01*
X994743D01*
Y-169551D01*
X994457D01*
Y-169837D01*
X994171D01*
Y-170123D01*
Y-170410D01*
X993884D01*
Y-170696D01*
X993598D01*
Y-170982D01*
X993312D01*
Y-171269D01*
Y-171555D01*
X993025D01*
Y-171841D01*
X992739D01*
Y-172127D01*
X992453D01*
Y-172414D01*
X992166D01*
Y-172700D01*
Y-172986D01*
X991880D01*
Y-173273D01*
X991594D01*
Y-173559D01*
X991308D01*
Y-173845D01*
Y-174132D01*
X991021D01*
Y-174418D01*
X990735D01*
Y-174704D01*
X990449D01*
Y-174991D01*
X990162D01*
Y-175277D01*
Y-175563D01*
X990449D01*
Y-175850D01*
Y-176136D01*
X990735D01*
Y-176422D01*
Y-176709D01*
X991021D01*
Y-176995D01*
X991308D01*
Y-177281D01*
Y-177568D01*
X991594D01*
Y-177854D01*
Y-178140D01*
X991880D01*
Y-178426D01*
Y-178713D01*
X992166D01*
Y-178999D01*
Y-179285D01*
X992453D01*
Y-179572D01*
Y-179858D01*
X992739D01*
Y-180144D01*
Y-180431D01*
X993025D01*
Y-180717D01*
Y-181003D01*
X993312D01*
Y-181290D01*
Y-181576D01*
X993598D01*
Y-181862D01*
X993884D01*
Y-182149D01*
Y-182435D01*
X994171D01*
Y-182721D01*
Y-183007D01*
X994457D01*
Y-183294D01*
Y-183580D01*
X994743D01*
Y-183866D01*
Y-184153D01*
X995030D01*
Y-184439D01*
Y-184725D01*
X995316D01*
Y-185012D01*
Y-185298D01*
X995602D01*
Y-185584D01*
Y-185871D01*
X995889D01*
Y-186157D01*
X996175D01*
Y-186443D01*
Y-186730D01*
X996461D01*
Y-187016D01*
Y-187302D01*
X996747D01*
Y-187588D01*
Y-187875D01*
X997034D01*
Y-188161D01*
Y-188447D01*
X997320D01*
Y-188734D01*
Y-189020D01*
X997606D01*
Y-189306D01*
Y-189593D01*
X997893D01*
Y-189879D01*
Y-190165D01*
X998179D01*
Y-190452D01*
X998465D01*
Y-190738D01*
Y-191024D01*
X998752D01*
Y-191311D01*
Y-191597D01*
X999038D01*
Y-191883D01*
X983863D01*
Y-191597D01*
X983577D01*
Y-191311D01*
Y-191024D01*
Y-190738D01*
X983291D01*
Y-190452D01*
Y-190165D01*
Y-189879D01*
X983004D01*
Y-189593D01*
Y-189306D01*
X982718D01*
Y-189020D01*
Y-188734D01*
Y-188447D01*
X982432D01*
Y-188161D01*
Y-187875D01*
Y-187588D01*
X982146D01*
Y-187302D01*
Y-187016D01*
X981859D01*
Y-186730D01*
Y-186443D01*
Y-186157D01*
X981573D01*
Y-185871D01*
Y-185584D01*
Y-185298D01*
X981287D01*
Y-185012D01*
Y-184725D01*
Y-184439D01*
X981000D01*
Y-184153D01*
X980428D01*
Y-184439D01*
Y-184725D01*
X980141D01*
Y-185012D01*
X979855D01*
Y-185298D01*
Y-185584D01*
X979569D01*
Y-185871D01*
X979282D01*
Y-186157D01*
Y-186443D01*
X978996D01*
Y-186730D01*
X978710D01*
Y-187016D01*
Y-187302D01*
X978423D01*
Y-187588D01*
X978137D01*
Y-187875D01*
X977851D01*
Y-188161D01*
Y-188447D01*
X977565D01*
Y-188734D01*
X977278D01*
Y-189020D01*
Y-189306D01*
X976992D01*
Y-189593D01*
X976705D01*
Y-189879D01*
Y-190165D01*
X976419D01*
Y-190452D01*
X976133D01*
Y-190738D01*
Y-191024D01*
X975847D01*
Y-191311D01*
X975560D01*
Y-191597D01*
Y-191883D01*
X959527D01*
Y-191597D01*
X959813D01*
Y-191311D01*
X960099D01*
Y-191024D01*
X960386D01*
Y-190738D01*
X960672D01*
Y-190452D01*
Y-190165D01*
X960958D01*
Y-189879D01*
X961245D01*
Y-189593D01*
X961531D01*
Y-189306D01*
X961817D01*
Y-189020D01*
Y-188734D01*
X962104D01*
Y-188447D01*
X962390D01*
Y-188161D01*
X962676D01*
Y-187875D01*
Y-187588D01*
X962963D01*
Y-187302D01*
X963249D01*
Y-187016D01*
X963535D01*
Y-186730D01*
X963822D01*
Y-186443D01*
Y-186157D01*
X964108D01*
Y-185871D01*
X964394D01*
Y-185584D01*
X964680D01*
Y-185298D01*
X964967D01*
Y-185012D01*
Y-184725D01*
X965253D01*
Y-184439D01*
X965539D01*
Y-184153D01*
X965826D01*
Y-183866D01*
Y-183580D01*
X966112D01*
Y-183294D01*
X966398D01*
Y-183007D01*
X966685D01*
Y-182721D01*
X966971D01*
Y-182435D01*
Y-182149D01*
X967257D01*
Y-181862D01*
X967544D01*
Y-181576D01*
X967830D01*
Y-181290D01*
Y-181003D01*
X968116D01*
Y-180717D01*
X968402D01*
Y-180431D01*
X968689D01*
Y-180144D01*
X968975D01*
Y-179858D01*
Y-179572D01*
X969261D01*
Y-179285D01*
X969548D01*
Y-178999D01*
X969834D01*
Y-178713D01*
Y-178426D01*
X970120D01*
Y-178140D01*
X970407D01*
Y-177854D01*
X970693D01*
Y-177568D01*
X970979D01*
Y-177281D01*
Y-176995D01*
X971266D01*
Y-176709D01*
X971552D01*
Y-176422D01*
X971838D01*
Y-176136D01*
X972124D01*
Y-175850D01*
Y-175563D01*
X972411D01*
Y-175277D01*
X972697D01*
Y-174991D01*
X972983D01*
Y-174704D01*
Y-174418D01*
X973270D01*
Y-174132D01*
X973556D01*
Y-173845D01*
X973842D01*
Y-173559D01*
X974129D01*
Y-173273D01*
Y-172986D01*
X974415D01*
Y-172700D01*
Y-172414D01*
Y-172127D01*
X974129D01*
Y-171841D01*
X973842D01*
Y-171555D01*
Y-171269D01*
X973556D01*
Y-170982D01*
Y-170696D01*
X973270D01*
Y-170410D01*
Y-170123D01*
X972983D01*
Y-169837D01*
Y-169551D01*
X972697D01*
Y-169264D01*
Y-168978D01*
X972411D01*
Y-168692D01*
Y-168405D01*
X972124D01*
Y-168119D01*
X971838D01*
Y-167833D01*
Y-167547D01*
X971552D01*
Y-167260D01*
Y-166974D01*
X971266D01*
Y-166688D01*
Y-166401D01*
X970979D01*
Y-166115D01*
Y-165829D01*
X970693D01*
Y-165542D01*
Y-165256D01*
X970407D01*
Y-164970D01*
Y-164683D01*
X970120D01*
Y-164397D01*
X969834D01*
Y-164111D01*
Y-163824D01*
X969548D01*
Y-163538D01*
Y-163252D01*
X969261D01*
Y-162966D01*
Y-162679D01*
X968975D01*
Y-162393D01*
Y-162107D01*
X968689D01*
Y-161820D01*
Y-161534D01*
X968402D01*
Y-161248D01*
Y-160961D01*
X968116D01*
Y-160675D01*
Y-160389D01*
X967830D01*
Y-160102D01*
X967544D01*
Y-159816D01*
Y-159530D01*
X967257D01*
Y-159244D01*
Y-158957D01*
X966971D01*
Y-158671D01*
Y-158385D01*
X966685D01*
Y-158098D01*
Y-157812D01*
X966398D01*
Y-157526D01*
Y-157239D01*
X966112D01*
Y-156953D01*
Y-156667D01*
X965826D01*
Y-156380D01*
X965539D01*
Y-156094D01*
Y-155808D01*
X965253D01*
Y-155521D01*
X981000D01*
Y-155808D01*
X981287D01*
Y-156094D01*
Y-156380D01*
Y-156667D01*
X981573D01*
Y-156953D01*
Y-157239D01*
Y-157526D01*
X981859D01*
Y-157812D01*
Y-158098D01*
Y-158385D01*
X982146D01*
Y-158671D01*
Y-158957D01*
Y-159244D01*
X982432D01*
Y-159530D01*
Y-159816D01*
Y-160102D01*
X982718D01*
Y-160389D01*
Y-160675D01*
Y-160961D01*
X983004D01*
Y-161248D01*
Y-161534D01*
Y-161820D01*
X983291D01*
Y-162107D01*
Y-162393D01*
Y-162679D01*
X983577D01*
Y-162966D01*
Y-163252D01*
Y-163538D01*
Y-163824D01*
X984150D01*
Y-163538D01*
X984436D01*
Y-163252D01*
X984722D01*
Y-162966D01*
Y-162679D01*
X985009D01*
Y-162393D01*
X985295D01*
Y-162107D01*
Y-161820D01*
X985581D01*
Y-161534D01*
X985868D01*
Y-161248D01*
Y-160961D01*
X986154D01*
Y-160675D01*
X986440D01*
Y-160389D01*
Y-160102D01*
X986726D01*
Y-159816D01*
X987013D01*
Y-159530D01*
Y-159244D01*
X987299D01*
Y-158957D01*
X987585D01*
Y-158671D01*
Y-158385D01*
X987872D01*
Y-158098D01*
X988158D01*
Y-157812D01*
Y-157526D01*
X988444D01*
Y-157239D01*
X988731D01*
Y-156953D01*
Y-156667D01*
X989017D01*
Y-156380D01*
X989303D01*
Y-156094D01*
Y-155808D01*
X989590D01*
Y-155521D01*
X1005337D01*
Y-155808D01*
D02*
G37*
G36*
X961245D02*
Y-156094D01*
Y-156380D01*
Y-156667D01*
Y-156953D01*
Y-157239D01*
Y-157526D01*
Y-157812D01*
Y-158098D01*
Y-158385D01*
Y-158671D01*
Y-158957D01*
Y-159244D01*
Y-159530D01*
Y-159816D01*
Y-160102D01*
Y-160389D01*
Y-160675D01*
Y-160961D01*
Y-161248D01*
Y-161534D01*
X960958D01*
Y-161820D01*
Y-162107D01*
Y-162393D01*
Y-162679D01*
Y-162966D01*
X960672D01*
Y-163252D01*
Y-163538D01*
Y-163824D01*
Y-164111D01*
X960386D01*
Y-164397D01*
Y-164683D01*
Y-164970D01*
Y-165256D01*
X960099D01*
Y-165542D01*
Y-165829D01*
Y-166115D01*
X959813D01*
Y-166401D01*
Y-166688D01*
Y-166974D01*
X959527D01*
Y-167260D01*
Y-167547D01*
Y-167833D01*
X959241D01*
Y-168119D01*
Y-168405D01*
Y-168692D01*
X958954D01*
Y-168978D01*
Y-169264D01*
X958668D01*
Y-169551D01*
Y-169837D01*
X958381D01*
Y-170123D01*
Y-170410D01*
Y-170696D01*
X958095D01*
Y-170982D01*
Y-171269D01*
X957809D01*
Y-171555D01*
Y-171841D01*
Y-172127D01*
X957523D01*
Y-172414D01*
Y-172700D01*
X957236D01*
Y-172986D01*
Y-173273D01*
Y-173559D01*
X956950D01*
Y-173845D01*
Y-174132D01*
X956664D01*
Y-174418D01*
Y-174704D01*
Y-174991D01*
X956377D01*
Y-175277D01*
Y-175563D01*
X956091D01*
Y-175850D01*
Y-176136D01*
Y-176422D01*
X955805D01*
Y-176709D01*
Y-176995D01*
X955518D01*
Y-177281D01*
Y-177568D01*
Y-177854D01*
X955232D01*
Y-178140D01*
Y-178426D01*
X954946D01*
Y-178713D01*
Y-178999D01*
Y-179285D01*
X954659D01*
Y-179572D01*
Y-179858D01*
X954373D01*
Y-180144D01*
Y-180431D01*
Y-180717D01*
X954087D01*
Y-181003D01*
Y-181290D01*
X953800D01*
Y-181576D01*
Y-181862D01*
Y-182149D01*
X953514D01*
Y-182435D01*
Y-182721D01*
X953228D01*
Y-183007D01*
Y-183294D01*
Y-183580D01*
X952942D01*
Y-183866D01*
Y-184153D01*
X952655D01*
Y-184439D01*
Y-184725D01*
Y-185012D01*
X952369D01*
Y-185298D01*
Y-185584D01*
X952083D01*
Y-185871D01*
Y-186157D01*
Y-186443D01*
X951796D01*
Y-186730D01*
Y-187016D01*
X951510D01*
Y-187302D01*
Y-187588D01*
Y-187875D01*
X951224D01*
Y-188161D01*
Y-188447D01*
X950937D01*
Y-188734D01*
Y-189020D01*
Y-189306D01*
X950651D01*
Y-189593D01*
Y-189879D01*
X950365D01*
Y-190165D01*
Y-190452D01*
Y-190738D01*
X950078D01*
Y-191024D01*
Y-191311D01*
X949792D01*
Y-191597D01*
Y-191883D01*
Y-192169D01*
X949506D01*
Y-192456D01*
Y-192742D01*
X949220D01*
Y-193028D01*
Y-193315D01*
X948933D01*
Y-193601D01*
Y-193887D01*
X948647D01*
Y-194174D01*
Y-194460D01*
Y-194746D01*
X948361D01*
Y-195033D01*
X948074D01*
Y-195319D01*
Y-195605D01*
Y-195891D01*
X947788D01*
Y-196178D01*
X947502D01*
Y-196464D01*
Y-196750D01*
X947215D01*
Y-197037D01*
Y-197323D01*
X946929D01*
Y-197609D01*
Y-197896D01*
X946643D01*
Y-198182D01*
Y-198468D01*
X946356D01*
Y-198755D01*
X946070D01*
Y-199041D01*
Y-199327D01*
X945784D01*
Y-199614D01*
Y-199900D01*
X945497D01*
Y-200186D01*
X945211D01*
Y-200472D01*
X944925D01*
Y-200759D01*
Y-201045D01*
X944639D01*
Y-201331D01*
X944352D01*
Y-201618D01*
Y-201904D01*
X944066D01*
Y-202190D01*
X943780D01*
Y-202477D01*
X943493D01*
Y-202763D01*
Y-203049D01*
X943207D01*
Y-203336D01*
X942921D01*
Y-203622D01*
X942634D01*
Y-203908D01*
X942348D01*
Y-204195D01*
X942062D01*
Y-204481D01*
Y-204767D01*
X941775D01*
Y-205053D01*
X941489D01*
Y-205340D01*
X941203D01*
Y-205626D01*
X940916D01*
Y-205912D01*
X940630D01*
Y-206199D01*
X940344D01*
Y-206485D01*
X940057D01*
Y-206771D01*
X939485D01*
Y-207058D01*
X939199D01*
Y-207344D01*
X938912D01*
Y-207630D01*
X938626D01*
Y-207917D01*
X938340D01*
Y-208203D01*
X937767D01*
Y-208489D01*
X937481D01*
Y-208776D01*
X936908D01*
Y-209062D01*
X936622D01*
Y-209348D01*
X936049D01*
Y-209634D01*
X935763D01*
Y-209921D01*
X935190D01*
Y-210207D01*
X934618D01*
Y-210493D01*
X934045D01*
Y-210780D01*
X933472D01*
Y-211066D01*
X932900D01*
Y-211352D01*
X932041D01*
Y-211639D01*
X931468D01*
Y-211925D01*
X930609D01*
Y-212211D01*
X929464D01*
Y-212498D01*
X928319D01*
Y-212784D01*
X926601D01*
Y-213070D01*
X924597D01*
Y-213357D01*
X924310D01*
Y-213070D01*
Y-212784D01*
Y-212498D01*
Y-212211D01*
Y-211925D01*
Y-211639D01*
Y-211352D01*
Y-211066D01*
Y-210780D01*
Y-210493D01*
Y-210207D01*
Y-209921D01*
Y-209634D01*
Y-209348D01*
Y-209062D01*
Y-208776D01*
Y-208489D01*
Y-208203D01*
Y-207917D01*
Y-207630D01*
Y-207344D01*
Y-207058D01*
Y-206771D01*
Y-206485D01*
Y-206199D01*
Y-205912D01*
Y-205626D01*
Y-205340D01*
Y-205053D01*
Y-204767D01*
Y-204481D01*
Y-204195D01*
Y-203908D01*
X924883D01*
Y-203622D01*
X925455D01*
Y-203336D01*
X926028D01*
Y-203049D01*
X926601D01*
Y-202763D01*
X927173D01*
Y-202477D01*
X927746D01*
Y-202190D01*
X928032D01*
Y-201904D01*
X928605D01*
Y-201618D01*
X928891D01*
Y-201331D01*
X929464D01*
Y-201045D01*
X929750D01*
Y-200759D01*
X930037D01*
Y-200472D01*
X930609D01*
Y-200186D01*
X930896D01*
Y-199900D01*
X931182D01*
Y-199614D01*
X931468D01*
Y-199327D01*
X931754D01*
Y-199041D01*
X932041D01*
Y-198755D01*
X932327D01*
Y-198468D01*
X932613D01*
Y-198182D01*
X932900D01*
Y-197896D01*
X933186D01*
Y-197609D01*
X933472D01*
Y-197323D01*
X933759D01*
Y-197037D01*
Y-196750D01*
X934045D01*
Y-196464D01*
X934331D01*
Y-196178D01*
X934618D01*
Y-195891D01*
Y-195605D01*
X934904D01*
Y-195319D01*
X935190D01*
Y-195033D01*
Y-194746D01*
X935476D01*
Y-194460D01*
Y-194174D01*
X935763D01*
Y-193887D01*
X936049D01*
Y-193601D01*
Y-193315D01*
X936335D01*
Y-193028D01*
Y-192742D01*
X936622D01*
Y-192456D01*
Y-192169D01*
X934904D01*
Y-191883D01*
X932900D01*
Y-191597D01*
X931754D01*
Y-191311D01*
X931182D01*
Y-191024D01*
X930323D01*
Y-190738D01*
X929750D01*
Y-190452D01*
X929464D01*
Y-190165D01*
X928891D01*
Y-189879D01*
X928605D01*
Y-189593D01*
X928319D01*
Y-189306D01*
X928032D01*
Y-189020D01*
X927746D01*
Y-188734D01*
X927460D01*
Y-188447D01*
Y-188161D01*
X927173D01*
Y-187875D01*
X926887D01*
Y-187588D01*
Y-187302D01*
X926601D01*
Y-187016D01*
Y-186730D01*
X926315D01*
Y-186443D01*
Y-186157D01*
X926028D01*
Y-185871D01*
Y-185584D01*
Y-185298D01*
X925742D01*
Y-185012D01*
Y-184725D01*
Y-184439D01*
Y-184153D01*
X925455D01*
Y-183866D01*
Y-183580D01*
Y-183294D01*
Y-183007D01*
Y-182721D01*
Y-182435D01*
Y-182149D01*
X925169D01*
Y-181862D01*
Y-181576D01*
Y-181290D01*
Y-181003D01*
Y-180717D01*
Y-180431D01*
Y-180144D01*
Y-179858D01*
Y-179572D01*
Y-179285D01*
Y-178999D01*
Y-178713D01*
Y-178426D01*
Y-178140D01*
Y-177854D01*
X924883D01*
Y-177568D01*
Y-177281D01*
Y-176995D01*
Y-176709D01*
Y-176422D01*
Y-176136D01*
Y-175850D01*
Y-175563D01*
Y-175277D01*
Y-174991D01*
Y-174704D01*
Y-174418D01*
Y-174132D01*
Y-173845D01*
Y-173559D01*
X924597D01*
Y-173273D01*
Y-172986D01*
Y-172700D01*
Y-172414D01*
Y-172127D01*
Y-171841D01*
Y-171555D01*
Y-171269D01*
Y-170982D01*
Y-170696D01*
Y-170410D01*
Y-170123D01*
Y-169837D01*
Y-169551D01*
Y-169264D01*
Y-168978D01*
X924310D01*
Y-168692D01*
Y-168405D01*
Y-168119D01*
Y-167833D01*
Y-167547D01*
Y-167260D01*
Y-166974D01*
Y-166688D01*
Y-166401D01*
Y-166115D01*
Y-165829D01*
Y-165542D01*
Y-165256D01*
Y-164970D01*
Y-164683D01*
Y-164397D01*
X924024D01*
Y-164111D01*
Y-163824D01*
Y-163538D01*
Y-163252D01*
Y-162966D01*
Y-162679D01*
Y-162393D01*
Y-162107D01*
Y-161820D01*
Y-161534D01*
Y-161248D01*
Y-160961D01*
Y-160675D01*
Y-160389D01*
X923738D01*
Y-160102D01*
Y-159816D01*
Y-159530D01*
Y-159244D01*
Y-158957D01*
Y-158671D01*
Y-158385D01*
Y-158098D01*
Y-157812D01*
Y-157526D01*
Y-157239D01*
Y-156953D01*
Y-156667D01*
Y-156380D01*
Y-156094D01*
Y-155808D01*
X923451D01*
Y-155521D01*
X937194D01*
Y-155808D01*
Y-156094D01*
Y-156380D01*
Y-156667D01*
Y-156953D01*
Y-157239D01*
Y-157526D01*
Y-157812D01*
Y-158098D01*
Y-158385D01*
Y-158671D01*
Y-158957D01*
Y-159244D01*
Y-159530D01*
X937481D01*
Y-159816D01*
Y-160102D01*
Y-160389D01*
Y-160675D01*
Y-160961D01*
Y-161248D01*
Y-161534D01*
Y-161820D01*
Y-162107D01*
Y-162393D01*
Y-162679D01*
Y-162966D01*
Y-163252D01*
Y-163538D01*
Y-163824D01*
Y-164111D01*
Y-164397D01*
Y-164683D01*
Y-164970D01*
Y-165256D01*
Y-165542D01*
Y-165829D01*
Y-166115D01*
Y-166401D01*
Y-166688D01*
Y-166974D01*
Y-167260D01*
Y-167547D01*
Y-167833D01*
Y-168119D01*
Y-168405D01*
Y-168692D01*
Y-168978D01*
Y-169264D01*
Y-169551D01*
Y-169837D01*
Y-170123D01*
Y-170410D01*
Y-170696D01*
Y-170982D01*
Y-171269D01*
X937767D01*
Y-171555D01*
X937481D01*
Y-171841D01*
Y-172127D01*
X937767D01*
Y-172414D01*
Y-172700D01*
Y-172986D01*
Y-173273D01*
Y-173559D01*
Y-173845D01*
Y-174132D01*
Y-174418D01*
Y-174704D01*
Y-174991D01*
Y-175277D01*
Y-175563D01*
Y-175850D01*
Y-176136D01*
Y-176422D01*
Y-176709D01*
Y-176995D01*
Y-177281D01*
Y-177568D01*
Y-177854D01*
Y-178140D01*
Y-178426D01*
Y-178713D01*
Y-178999D01*
Y-179285D01*
Y-179572D01*
X938053D01*
Y-179858D01*
Y-180144D01*
Y-180431D01*
X938340D01*
Y-180717D01*
X938626D01*
Y-181003D01*
X938912D01*
Y-181290D01*
X939771D01*
Y-181576D01*
X940630D01*
Y-181290D01*
X940916D01*
Y-181003D01*
Y-180717D01*
Y-180431D01*
X941203D01*
Y-180144D01*
Y-179858D01*
X941489D01*
Y-179572D01*
Y-179285D01*
Y-178999D01*
X941775D01*
Y-178713D01*
Y-178426D01*
Y-178140D01*
X942062D01*
Y-177854D01*
Y-177568D01*
Y-177281D01*
X942348D01*
Y-176995D01*
Y-176709D01*
Y-176422D01*
X942634D01*
Y-176136D01*
Y-175850D01*
X942921D01*
Y-175563D01*
Y-175277D01*
Y-174991D01*
X943207D01*
Y-174704D01*
Y-174418D01*
Y-174132D01*
X943493D01*
Y-173845D01*
Y-173559D01*
Y-173273D01*
X943780D01*
Y-172986D01*
Y-172700D01*
X944066D01*
Y-172414D01*
Y-172127D01*
Y-171841D01*
X944352D01*
Y-171555D01*
Y-171269D01*
Y-170982D01*
X944639D01*
Y-170696D01*
Y-170410D01*
Y-170123D01*
X944925D01*
Y-169837D01*
Y-169551D01*
X945211D01*
Y-169264D01*
Y-168978D01*
Y-168692D01*
X945497D01*
Y-168405D01*
Y-168119D01*
Y-167833D01*
X945784D01*
Y-167547D01*
Y-167260D01*
Y-166974D01*
X946070D01*
Y-166688D01*
Y-166401D01*
X946356D01*
Y-166115D01*
Y-165829D01*
Y-165542D01*
X946643D01*
Y-165256D01*
Y-164970D01*
Y-164683D01*
X946929D01*
Y-164397D01*
Y-164111D01*
Y-163824D01*
X947215D01*
Y-163538D01*
Y-163252D01*
Y-162966D01*
Y-162679D01*
X947502D01*
Y-162393D01*
Y-162107D01*
Y-161820D01*
Y-161534D01*
X947788D01*
Y-161248D01*
Y-160961D01*
Y-160675D01*
Y-160389D01*
Y-160102D01*
X948074D01*
Y-159816D01*
Y-159530D01*
Y-159244D01*
Y-158957D01*
Y-158671D01*
Y-158385D01*
X948361D01*
Y-158098D01*
Y-157812D01*
Y-157526D01*
Y-157239D01*
Y-156953D01*
Y-156667D01*
Y-156380D01*
Y-156094D01*
Y-155808D01*
Y-155521D01*
X961245D01*
Y-155808D01*
D02*
G37*
%LPC*%
G36*
X867907Y-152658D02*
X859890D01*
Y-152945D01*
Y-153231D01*
Y-153517D01*
Y-153804D01*
Y-154090D01*
X859604D01*
Y-154376D01*
Y-154663D01*
Y-154949D01*
Y-155235D01*
Y-155521D01*
Y-155808D01*
X859317D01*
Y-156094D01*
Y-156380D01*
Y-156667D01*
Y-156953D01*
Y-157239D01*
Y-157526D01*
X859031D01*
Y-157812D01*
Y-158098D01*
Y-158385D01*
Y-158671D01*
Y-158957D01*
Y-159244D01*
X858745D01*
Y-159530D01*
Y-159816D01*
Y-160102D01*
Y-160389D01*
Y-160675D01*
Y-160961D01*
Y-161248D01*
X858458D01*
Y-161534D01*
Y-161820D01*
Y-162107D01*
Y-162393D01*
Y-162679D01*
Y-162966D01*
X858172D01*
Y-163252D01*
Y-163538D01*
Y-163824D01*
X865330D01*
Y-163538D01*
X866475D01*
Y-163252D01*
X867048D01*
Y-162966D01*
X867334D01*
Y-162679D01*
X867620D01*
Y-162393D01*
X867907D01*
Y-162107D01*
X868193D01*
Y-161820D01*
Y-161534D01*
X868479D01*
Y-161248D01*
Y-160961D01*
X868766D01*
Y-160675D01*
Y-160389D01*
X869052D01*
Y-160102D01*
Y-159816D01*
Y-159530D01*
Y-159244D01*
X869338D01*
Y-158957D01*
Y-158671D01*
Y-158385D01*
Y-158098D01*
Y-157812D01*
X869625D01*
Y-157526D01*
Y-157239D01*
Y-156953D01*
Y-156667D01*
Y-156380D01*
Y-156094D01*
Y-155808D01*
Y-155521D01*
Y-155235D01*
Y-154949D01*
Y-154663D01*
X869338D01*
Y-154376D01*
Y-154090D01*
X869052D01*
Y-153804D01*
Y-153517D01*
X868766D01*
Y-153231D01*
X868479D01*
Y-152945D01*
X867907D01*
Y-152658D01*
D02*
G37*
%LPD*%
D10*
X1178748Y-229571D02*
Y-190201D01*
X1021267Y-150831D02*
X1296858D01*
X1021267Y-190201D02*
X1296858D01*
X824417Y-229571D02*
X1296858D01*
X824417Y-111461D02*
X1296858D01*
X824417Y-268941D02*
Y-111461D01*
X1021267Y-268941D02*
Y-111461D01*
X-356685Y900350D02*
X1296858D01*
Y-268941D02*
Y900350D01*
X-356685Y-268941D02*
Y900350D01*
Y-268941D02*
X1296858D01*
X1035046Y-255164D02*
X1031110D01*
Y-258115D01*
X1033078D01*
X1031110D01*
Y-261067D01*
X1037014Y-257131D02*
Y-261067D01*
Y-259099D01*
X1037998Y-258115D01*
X1038981Y-257131D01*
X1039965D01*
X1042917Y-261067D02*
X1044885D01*
X1043901D01*
Y-257131D01*
X1042917D01*
X1047837Y-256147D02*
X1048821Y-255164D01*
X1050789D01*
X1051772Y-256147D01*
Y-257131D01*
X1050789Y-258115D01*
X1049805D01*
X1050789D01*
X1051772Y-259099D01*
Y-260083D01*
X1050789Y-261067D01*
X1048821D01*
X1047837Y-260083D01*
X1053740Y-255164D02*
Y-261067D01*
X1056692D01*
X1057676Y-260083D01*
Y-256147D01*
X1056692Y-255164D01*
X1053740D01*
X1059644Y-262051D02*
X1063580D01*
X1069483Y-261067D02*
X1065548D01*
X1069483Y-257131D01*
Y-256147D01*
X1068499Y-255164D01*
X1066531D01*
X1065548Y-256147D01*
X1071451D02*
X1072435Y-255164D01*
X1074403D01*
X1075387Y-256147D01*
Y-260083D01*
X1074403Y-261067D01*
X1072435D01*
X1071451Y-260083D01*
Y-256147D01*
X1077355Y-261067D02*
X1079323D01*
X1078339D01*
Y-255164D01*
X1077355Y-256147D01*
X1082275Y-260083D02*
X1083258Y-261067D01*
X1085226D01*
X1086210Y-260083D01*
Y-256147D01*
X1085226Y-255164D01*
X1083258D01*
X1082275Y-256147D01*
Y-257131D01*
X1083258Y-258115D01*
X1086210D01*
X1088178Y-262051D02*
X1092114D01*
X1098017Y-256147D02*
X1097034Y-255164D01*
X1095066D01*
X1094082Y-256147D01*
Y-257131D01*
X1095066Y-258115D01*
X1097034D01*
X1098017Y-259099D01*
Y-260083D01*
X1097034Y-261067D01*
X1095066D01*
X1094082Y-260083D01*
X1100969Y-261067D02*
X1102937D01*
X1103921Y-260083D01*
Y-258115D01*
X1102937Y-257131D01*
X1100969D01*
X1099985Y-258115D01*
Y-260083D01*
X1100969Y-261067D01*
X1105889D02*
X1107857D01*
X1106873D01*
Y-255164D01*
X1105889D01*
X1114744D02*
Y-261067D01*
X1111792D01*
X1110808Y-260083D01*
Y-258115D01*
X1111792Y-257131D01*
X1114744D01*
X1119664Y-261067D02*
X1117696D01*
X1116712Y-260083D01*
Y-258115D01*
X1117696Y-257131D01*
X1119664D01*
X1120648Y-258115D01*
Y-259099D01*
X1116712D01*
X1122616Y-257131D02*
Y-261067D01*
Y-259099D01*
X1123600Y-258115D01*
X1124584Y-257131D01*
X1125568D01*
X1128519Y-255164D02*
Y-261067D01*
X1131471D01*
X1132455Y-260083D01*
Y-259099D01*
X1131471Y-258115D01*
X1128519D01*
X1131471D01*
X1132455Y-257131D01*
Y-256147D01*
X1131471Y-255164D01*
X1128519D01*
X1135407Y-257131D02*
X1137375D01*
X1138359Y-258115D01*
Y-261067D01*
X1135407D01*
X1134423Y-260083D01*
X1135407Y-259099D01*
X1138359D01*
X1144262Y-255164D02*
Y-261067D01*
X1141311D01*
X1140326Y-260083D01*
Y-258115D01*
X1141311Y-257131D01*
X1144262D01*
X1148198Y-263035D02*
X1149182D01*
X1150166Y-262051D01*
Y-257131D01*
X1147214D01*
X1146230Y-258115D01*
Y-260083D01*
X1147214Y-261067D01*
X1150166D01*
X1155085D02*
X1153118D01*
X1152134Y-260083D01*
Y-258115D01*
X1153118Y-257131D01*
X1155085D01*
X1156069Y-258115D01*
Y-259099D01*
X1152134D01*
X1158037Y-262051D02*
X1161973D01*
X1163941Y-256147D02*
X1164925Y-255164D01*
X1166893D01*
X1167877Y-256147D01*
Y-260083D01*
X1166893Y-261067D01*
X1164925D01*
X1163941Y-260083D01*
Y-256147D01*
X1169845Y-261067D02*
X1171812D01*
X1170829D01*
Y-255164D01*
X1169845Y-256147D01*
X1174764Y-261067D02*
Y-260083D01*
X1175748D01*
Y-261067D01*
X1174764D01*
X1179684D02*
Y-255164D01*
X1182636D01*
X1183620Y-256147D01*
Y-258115D01*
X1182636Y-259099D01*
X1179684D01*
X1189523Y-257131D02*
X1186571D01*
X1185588Y-258115D01*
Y-260083D01*
X1186571Y-261067D01*
X1189523D01*
X1191491Y-255164D02*
Y-261067D01*
X1194443D01*
X1195427Y-260083D01*
Y-259099D01*
Y-258115D01*
X1194443Y-257131D01*
X1191491D01*
X1197395Y-255164D02*
Y-261067D01*
X1200346D01*
X1201330Y-260083D01*
Y-256147D01*
X1200346Y-255164D01*
X1197395D01*
X1204282Y-261067D02*
X1206250D01*
X1207234Y-260083D01*
Y-258115D01*
X1206250Y-257131D01*
X1204282D01*
X1203298Y-258115D01*
Y-260083D01*
X1204282Y-261067D01*
X1213138Y-257131D02*
X1210186D01*
X1209202Y-258115D01*
Y-260083D01*
X1210186Y-261067D01*
X1213138D01*
D15*
X-62992Y-62992D02*
X-61024D01*
X-62008D01*
Y-57089D01*
X-62992Y-58073D01*
X-58073Y-62992D02*
Y-59056D01*
X-57089D01*
X-56105Y-60040D01*
Y-62992D01*
Y-60040D01*
X-55121Y-59056D01*
X-54137Y-60040D01*
Y-62992D01*
X-52169D02*
Y-59056D01*
X-51185D01*
X-50201Y-60040D01*
Y-62992D01*
Y-60040D01*
X-49217Y-59056D01*
X-48233Y-60040D01*
Y-62992D01*
X-40362Y-57089D02*
X-36426D01*
X-38394D01*
Y-62992D01*
X-34458Y-57089D02*
Y-62992D01*
Y-60040D01*
X-33474Y-59056D01*
X-31506D01*
X-30522Y-60040D01*
Y-62992D01*
X-28554D02*
X-26587D01*
X-27571D01*
Y-59056D01*
X-28554D01*
X-19699D02*
X-22651D01*
X-23635Y-60040D01*
Y-62008D01*
X-22651Y-62992D01*
X-19699D01*
X-17731D02*
Y-57089D01*
Y-61024D02*
X-14779Y-59056D01*
X-17731Y-61024D02*
X-14779Y-62992D01*
X-11828D02*
Y-59056D01*
X-8876D01*
X-7892Y-60040D01*
Y-62992D01*
X-2972D02*
X-4940D01*
X-5924Y-62008D01*
Y-60040D01*
X-4940Y-59056D01*
X-2972D01*
X-1988Y-60040D01*
Y-61024D01*
X-5924D01*
X-20Y-62992D02*
X2931D01*
X3915Y-62008D01*
X2931Y-61024D01*
X963D01*
X-20Y-60040D01*
X963Y-59056D01*
X3915D01*
X5883Y-62992D02*
X8835D01*
X9819Y-62008D01*
X8835Y-61024D01*
X6867D01*
X5883Y-60040D01*
X6867Y-59056D01*
X9819D01*
X-59056Y-46261D02*
X-60040Y-45278D01*
X-62008D01*
X-62992Y-46261D01*
Y-50197D01*
X-62008Y-51181D01*
X-60040D01*
X-59056Y-50197D01*
Y-48229D01*
X-61024D01*
X-56105Y-51181D02*
X-54137D01*
X-53153Y-50197D01*
Y-48229D01*
X-54137Y-47245D01*
X-56105D01*
X-57089Y-48229D01*
Y-50197D01*
X-56105Y-51181D01*
X-51185D02*
X-49217D01*
X-50201D01*
Y-45278D01*
X-51185D01*
X-42329D02*
Y-51181D01*
X-45281D01*
X-46265Y-50197D01*
Y-48229D01*
X-45281Y-47245D01*
X-42329D01*
X-34458Y-53149D02*
Y-47245D01*
X-31506D01*
X-30522Y-48229D01*
Y-50197D01*
X-31506Y-51181D01*
X-34458D01*
X-28554D02*
X-26587D01*
X-27571D01*
Y-45278D01*
X-28554D01*
X-22651Y-47245D02*
X-20683D01*
X-19699Y-48229D01*
Y-51181D01*
X-22651D01*
X-23635Y-50197D01*
X-22651Y-49213D01*
X-19699D01*
X-16747Y-46261D02*
Y-47245D01*
X-17731D01*
X-15763D01*
X-16747D01*
Y-50197D01*
X-15763Y-51181D01*
X-9860D02*
X-11828D01*
X-12811Y-50197D01*
Y-48229D01*
X-11828Y-47245D01*
X-9860D01*
X-8876Y-48229D01*
Y-49213D01*
X-12811D01*
X-2972Y-45278D02*
Y-51181D01*
X-5924D01*
X-6908Y-50197D01*
Y-48229D01*
X-5924Y-47245D01*
X-2972D01*
X-62992Y-33467D02*
Y-39370D01*
X-60040D01*
X-59056Y-38386D01*
Y-37402D01*
X-60040Y-36418D01*
X-62992D01*
X-60040D01*
X-59056Y-35434D01*
Y-34450D01*
X-60040Y-33467D01*
X-62992D01*
X-57089Y-39370D02*
X-55121D01*
X-56105D01*
Y-33467D01*
X-57089D01*
X-51185Y-35434D02*
X-49217D01*
X-48233Y-36418D01*
Y-39370D01*
X-51185D01*
X-52169Y-38386D01*
X-51185Y-37402D01*
X-48233D01*
X-42329Y-35434D02*
X-45281D01*
X-46265Y-36418D01*
Y-38386D01*
X-45281Y-39370D01*
X-42329D01*
X-40362D02*
Y-33467D01*
Y-37402D02*
X-37410Y-35434D01*
X-40362Y-37402D02*
X-37410Y-39370D01*
X-24619Y-34450D02*
X-25603Y-33467D01*
X-27571D01*
X-28554Y-34450D01*
Y-35434D01*
X-27571Y-36418D01*
X-25603D01*
X-24619Y-37402D01*
Y-38386D01*
X-25603Y-39370D01*
X-27571D01*
X-28554Y-38386D01*
X-22651Y-39370D02*
X-20683D01*
X-21667D01*
Y-35434D01*
X-22651D01*
X-17731Y-39370D02*
X-15763D01*
X-16747D01*
Y-33467D01*
X-17731D01*
X-12811Y-39370D02*
Y-33467D01*
Y-37402D02*
X-9860Y-35434D01*
X-12811Y-37402D02*
X-9860Y-39370D01*
X-6908D02*
X-3956D01*
X-2972Y-38386D01*
X-3956Y-37402D01*
X-5924D01*
X-6908Y-36418D01*
X-5924Y-35434D01*
X-2972D01*
X2931D02*
X-20D01*
X-1004Y-36418D01*
Y-38386D01*
X-20Y-39370D01*
X2931D01*
X4899Y-35434D02*
Y-39370D01*
Y-37402D01*
X5883Y-36418D01*
X6867Y-35434D01*
X7851D01*
X13755Y-39370D02*
X11787D01*
X10803Y-38386D01*
Y-36418D01*
X11787Y-35434D01*
X13755D01*
X14739Y-36418D01*
Y-37402D01*
X10803D01*
X19658Y-39370D02*
X17690D01*
X16706Y-38386D01*
Y-36418D01*
X17690Y-35434D01*
X19658D01*
X20642Y-36418D01*
Y-37402D01*
X16706D01*
X22610Y-39370D02*
Y-35434D01*
X25562D01*
X26546Y-36418D01*
Y-39370D01*
X-62992Y-21655D02*
Y-27559D01*
X-61024Y-25591D01*
X-59056Y-27559D01*
Y-21655D01*
X-57089D02*
Y-27559D01*
Y-24607D01*
X-56105Y-23623D01*
X-54137D01*
X-53153Y-24607D01*
Y-27559D01*
X-51185D02*
X-49217D01*
X-50201D01*
Y-23623D01*
X-51185D01*
X-45281Y-22639D02*
Y-23623D01*
X-46265D01*
X-44297D01*
X-45281D01*
Y-26575D01*
X-44297Y-27559D01*
X-38394D02*
X-40362D01*
X-41346Y-26575D01*
Y-24607D01*
X-40362Y-23623D01*
X-38394D01*
X-37410Y-24607D01*
Y-25591D01*
X-41346D01*
X-25603Y-22639D02*
X-26587Y-21655D01*
X-28554D01*
X-29538Y-22639D01*
Y-23623D01*
X-28554Y-24607D01*
X-26587D01*
X-25603Y-25591D01*
Y-26575D01*
X-26587Y-27559D01*
X-28554D01*
X-29538Y-26575D01*
X-22651Y-27559D02*
X-20683D01*
X-19699Y-26575D01*
Y-24607D01*
X-20683Y-23623D01*
X-22651D01*
X-23635Y-24607D01*
Y-26575D01*
X-22651Y-27559D01*
X-17731D02*
X-15763D01*
X-16747D01*
Y-21655D01*
X-17731D01*
X-8876D02*
Y-27559D01*
X-11828D01*
X-12811Y-26575D01*
Y-24607D01*
X-11828Y-23623D01*
X-8876D01*
X-3956Y-27559D02*
X-5924D01*
X-6908Y-26575D01*
Y-24607D01*
X-5924Y-23623D01*
X-3956D01*
X-2972Y-24607D01*
Y-25591D01*
X-6908D01*
X-1004Y-23623D02*
Y-27559D01*
Y-25591D01*
X-20Y-24607D01*
X964Y-23623D01*
X1947D01*
X10803Y-27559D02*
Y-21655D01*
X12771Y-23623D01*
X14739Y-21655D01*
Y-27559D01*
X17690Y-23623D02*
X19658D01*
X20642Y-24607D01*
Y-27559D01*
X17690D01*
X16706Y-26575D01*
X17690Y-25591D01*
X20642D01*
X22610Y-27559D02*
X25562D01*
X26546Y-26575D01*
X25562Y-25591D01*
X23594D01*
X22610Y-24607D01*
X23594Y-23623D01*
X26546D01*
X28514Y-27559D02*
Y-21655D01*
Y-25591D02*
X31466Y-23623D01*
X28514Y-25591D02*
X31466Y-27559D01*
X-161Y178022D02*
G03*
X-11719Y166089I253J-11808D01*
G01*
X-11726Y166089D02*
G03*
X-39627Y156685I16667J-95546D01*
G01*
X39655Y156679D02*
G03*
X11703Y166092I-44568J-86143D01*
G01*
X11746Y166092D02*
G03*
X189Y178016I-11811J116D01*
G01*
X-24512Y6543D02*
G03*
X24555Y6543I24533J42723D01*
G01*
X48173Y9652D02*
G03*
X24540Y6538I43865J-424098D01*
G01*
X62998Y7868D02*
G03*
X48188Y9657I-11477J-32805D01*
G01*
X62998Y7868D02*
G03*
X55999Y26983I-24495J1871D01*
G01*
X78747Y23617D02*
G03*
X55999Y26983I-26577J-101038D01*
G01*
X78747Y23617D02*
G03*
X63909Y48296I-59470J-18955D01*
G01*
X90558Y51175D02*
G03*
X63897Y48307I3682J-159583D01*
G01*
X90558Y51175D02*
G03*
X70501Y76336I-47910J-17616D01*
G01*
X70501D02*
G03*
X69011Y93228I-31925J5695D01*
G01*
X69011D02*
G03*
X73664Y135990I-97680J32264D01*
G01*
X74809Y173228D02*
G03*
X73664Y135990I97809J-21644D01*
G01*
X74809Y173228D02*
G03*
X39655Y156679I15198J-77899D01*
G01*
X-39627Y156685D02*
G03*
X-74782Y173234I-50353J-61350D01*
G01*
X-73636Y135996D02*
G03*
X-74782Y173234I-98954J15594D01*
G01*
X-73636Y135996D02*
G03*
X-68983Y93234I102333J-10498D01*
G01*
X-68983D02*
G03*
X-70473Y76342I30435J-11197D01*
G01*
X-70473D02*
G03*
X-90530Y51181I27853J-42777D01*
G01*
X-63869Y48313D02*
G03*
X-90530Y51181I-30343J-156715D01*
G01*
X-63881Y48302D02*
G03*
X-78719Y23622I44633J-43634D01*
G01*
X-55972Y26989D02*
G03*
X-78719Y23622I3830J-104405D01*
G01*
X-55972Y26989D02*
G03*
X-62970Y7874I17496J-17245D01*
G01*
X-48161Y9663D02*
G03*
X-62970Y7874I-3333J-34594D01*
G01*
X-24512Y6543D02*
G03*
X-48146Y9657I-67498J-420984D01*
G01*
X-161Y178022D02*
X189D01*
X1182685Y-202012D02*
Y-194141D01*
X1186621D01*
X1187932Y-195452D01*
Y-198076D01*
X1186621Y-199388D01*
X1182685D01*
X1185308D02*
X1187932Y-202012D01*
X1194492D02*
X1191868D01*
X1190556Y-200700D01*
Y-198076D01*
X1191868Y-196764D01*
X1194492D01*
X1195804Y-198076D01*
Y-199388D01*
X1190556D01*
X1198428Y-196764D02*
X1201052Y-202012D01*
X1203675Y-196764D01*
X828354Y-233511D02*
Y-241382D01*
X832290D01*
X833602Y-240070D01*
Y-234823D01*
X832290Y-233511D01*
X828354D01*
X840161Y-241382D02*
X837537D01*
X836226Y-240070D01*
Y-237446D01*
X837537Y-236134D01*
X840161D01*
X841473Y-237446D01*
Y-238758D01*
X836226D01*
X844097Y-241382D02*
X848033D01*
X849345Y-240070D01*
X848033Y-238758D01*
X845409D01*
X844097Y-237446D01*
X845409Y-236134D01*
X849345D01*
X854592Y-244006D02*
X855904D01*
X857216Y-242694D01*
Y-236134D01*
X853280D01*
X851968Y-237446D01*
Y-240070D01*
X853280Y-241382D01*
X857216D01*
X859840D02*
X862464D01*
X861152D01*
Y-236134D01*
X859840D01*
X866399Y-241382D02*
Y-236134D01*
X870335D01*
X871647Y-237446D01*
Y-241382D01*
X878207D02*
X875583D01*
X874271Y-240070D01*
Y-237446D01*
X875583Y-236134D01*
X878207D01*
X879519Y-237446D01*
Y-238758D01*
X874271D01*
X882143Y-236134D02*
Y-241382D01*
Y-238758D01*
X883454Y-237446D01*
X884766Y-236134D01*
X886078D01*
X1025204Y-115400D02*
Y-123272D01*
X1029140D01*
X1030452Y-121960D01*
Y-116712D01*
X1029140Y-115400D01*
X1025204D01*
X1034388Y-123272D02*
X1037012D01*
X1038323Y-121960D01*
Y-119336D01*
X1037012Y-118024D01*
X1034388D01*
X1033076Y-119336D01*
Y-121960D01*
X1034388Y-123272D01*
X1046195Y-118024D02*
X1042259D01*
X1040947Y-119336D01*
Y-121960D01*
X1042259Y-123272D01*
X1046195D01*
X1048819Y-118024D02*
Y-121960D01*
X1050131Y-123272D01*
X1054066D01*
Y-118024D01*
X1056690Y-123272D02*
Y-118024D01*
X1058002D01*
X1059314Y-119336D01*
Y-123272D01*
Y-119336D01*
X1060626Y-118024D01*
X1061938Y-119336D01*
Y-123272D01*
X1068498D02*
X1065874D01*
X1064562Y-121960D01*
Y-119336D01*
X1065874Y-118024D01*
X1068498D01*
X1069810Y-119336D01*
Y-120648D01*
X1064562D01*
X1072433Y-123272D02*
Y-118024D01*
X1076369D01*
X1077681Y-119336D01*
Y-123272D01*
X1081617Y-116712D02*
Y-118024D01*
X1080305D01*
X1082929D01*
X1081617D01*
Y-121960D01*
X1082929Y-123272D01*
X1025204Y-154770D02*
Y-162642D01*
X1030452D01*
X1034388Y-157394D02*
X1037012D01*
X1038323Y-158706D01*
Y-162642D01*
X1034388D01*
X1033076Y-161330D01*
X1034388Y-160018D01*
X1038323D01*
X1040947Y-157394D02*
Y-161330D01*
X1042259Y-162642D01*
X1046195D01*
Y-163954D01*
X1044883Y-165266D01*
X1043571D01*
X1046195Y-162642D02*
Y-157394D01*
X1052755Y-162642D02*
X1050131D01*
X1048819Y-161330D01*
Y-158706D01*
X1050131Y-157394D01*
X1052755D01*
X1054066Y-158706D01*
Y-160018D01*
X1048819D01*
X1056690Y-157394D02*
Y-162642D01*
Y-160018D01*
X1058002Y-158706D01*
X1059314Y-157394D01*
X1060626D01*
X1072433Y-162642D02*
Y-154770D01*
X1077681Y-162642D01*
Y-154770D01*
X1081617Y-157394D02*
X1084241D01*
X1085552Y-158706D01*
Y-162642D01*
X1081617D01*
X1080305Y-161330D01*
X1081617Y-160018D01*
X1085552D01*
X1088176Y-162642D02*
Y-157394D01*
X1089488D01*
X1090800Y-158706D01*
Y-162642D01*
Y-158706D01*
X1092112Y-157394D01*
X1093424Y-158706D01*
Y-162642D01*
X1099984D02*
X1097360D01*
X1096048Y-161330D01*
Y-158706D01*
X1097360Y-157394D01*
X1099984D01*
X1101295Y-158706D01*
Y-160018D01*
X1096048D01*
X1025204Y-194141D02*
Y-202012D01*
X1029140D01*
X1030452Y-200700D01*
Y-195452D01*
X1029140Y-194141D01*
X1025204D01*
X1034388Y-196764D02*
X1037012D01*
X1038323Y-198076D01*
Y-202012D01*
X1034388D01*
X1033076Y-200700D01*
X1034388Y-199388D01*
X1038323D01*
X1042259Y-195452D02*
Y-196764D01*
X1040947D01*
X1043571D01*
X1042259D01*
Y-200700D01*
X1043571Y-202012D01*
X1051443D02*
X1048819D01*
X1047507Y-200700D01*
Y-198076D01*
X1048819Y-196764D01*
X1051443D01*
X1052755Y-198076D01*
Y-199388D01*
X1047507D01*
X1025204Y-233511D02*
Y-241382D01*
X1029140D01*
X1030452Y-240070D01*
Y-234823D01*
X1029140Y-233511D01*
X1025204D01*
X1034388Y-241382D02*
X1037012D01*
X1038323Y-240070D01*
Y-237446D01*
X1037012Y-236134D01*
X1034388D01*
X1033076Y-237446D01*
Y-240070D01*
X1034388Y-241382D01*
X1046195Y-236134D02*
X1042259D01*
X1040947Y-237446D01*
Y-240070D01*
X1042259Y-241382D01*
X1046195D01*
X1048819Y-236134D02*
Y-240070D01*
X1050131Y-241382D01*
X1054066D01*
Y-236134D01*
X1056690Y-241382D02*
Y-236134D01*
X1058002D01*
X1059314Y-237446D01*
Y-241382D01*
Y-237446D01*
X1060626Y-236134D01*
X1061938Y-237446D01*
Y-241382D01*
X1068498D02*
X1065874D01*
X1064562Y-240070D01*
Y-237446D01*
X1065874Y-236134D01*
X1068498D01*
X1069810Y-237446D01*
Y-238758D01*
X1064562D01*
X1072433Y-241382D02*
Y-236134D01*
X1076369D01*
X1077681Y-237446D01*
Y-241382D01*
X1081617Y-234823D02*
Y-236134D01*
X1080305D01*
X1082929D01*
X1081617D01*
Y-240070D01*
X1082929Y-241382D01*
D16*
X1052104Y-168552D02*
X1042921D01*
Y-175439D01*
X1047513D01*
X1042921D01*
Y-182327D01*
X1058992Y-173143D02*
X1063584D01*
X1065879Y-175439D01*
Y-182327D01*
X1058992D01*
X1056696Y-180031D01*
X1058992Y-177735D01*
X1065879D01*
X1070471Y-168552D02*
Y-182327D01*
X1077359D01*
X1079655Y-180031D01*
Y-177735D01*
Y-175439D01*
X1077359Y-173143D01*
X1070471D01*
X1084246D02*
Y-182327D01*
Y-177735D01*
X1086542Y-175439D01*
X1088838Y-173143D01*
X1091134D01*
X1098021Y-182327D02*
X1102613D01*
X1100317D01*
Y-173143D01*
X1098021D01*
X1118684D02*
X1111796D01*
X1109501Y-175439D01*
Y-180031D01*
X1111796Y-182327D01*
X1118684D01*
X1125571Y-173143D02*
X1130163D01*
X1132459Y-175439D01*
Y-182327D01*
X1125571D01*
X1123276Y-180031D01*
X1125571Y-177735D01*
X1132459D01*
X1139347Y-170848D02*
Y-173143D01*
X1137051D01*
X1141642D01*
X1139347D01*
Y-180031D01*
X1141642Y-182327D01*
X1148530D02*
X1153122D01*
X1150826D01*
Y-173143D01*
X1148530D01*
X1162305Y-182327D02*
X1166897D01*
X1169193Y-180031D01*
Y-175439D01*
X1166897Y-173143D01*
X1162305D01*
X1160009Y-175439D01*
Y-180031D01*
X1162305Y-182327D01*
X1173784D02*
Y-173143D01*
X1180672D01*
X1182968Y-175439D01*
Y-182327D01*
X846071Y-247293D02*
Y-263036D01*
X851318Y-257788D01*
X856566Y-263036D01*
Y-247293D01*
X861814Y-263036D02*
X867061D01*
X864437D01*
Y-252540D01*
X861814D01*
X874933Y-263036D02*
Y-252540D01*
X877556D01*
X880180Y-255164D01*
Y-263036D01*
Y-255164D01*
X882804Y-252540D01*
X885428Y-255164D01*
Y-263036D01*
X890676Y-247293D02*
Y-257788D01*
X895923Y-263036D01*
X901171Y-257788D01*
Y-247293D01*
X916914Y-249917D02*
X914290Y-247293D01*
X909042D01*
X906419Y-249917D01*
Y-260412D01*
X909042Y-263036D01*
X914290D01*
X916914Y-260412D01*
Y-255164D01*
X911666D01*
X1200401Y-210546D02*
X1203025Y-207923D01*
X1208273D01*
X1210897Y-210546D01*
Y-221042D01*
X1208273Y-223665D01*
X1203025D01*
X1200401Y-221042D01*
Y-210546D01*
X1216144Y-223665D02*
X1221392D01*
X1218768D01*
Y-207923D01*
X1216144Y-210546D01*
X1046199Y-209890D02*
X1041607Y-212186D01*
X1037015Y-216778D01*
Y-221370D01*
X1039311Y-223665D01*
X1043903D01*
X1046199Y-221370D01*
Y-219074D01*
X1043903Y-216778D01*
X1037015D01*
X1050791Y-223665D02*
X1059974Y-214482D01*
X1064566Y-212186D02*
X1066861Y-209890D01*
X1071453D01*
X1073749Y-212186D01*
Y-221370D01*
X1071453Y-223665D01*
X1066861D01*
X1064566Y-221370D01*
Y-212186D01*
X1078341D02*
X1080637Y-209890D01*
X1085228D01*
X1087524Y-212186D01*
Y-214482D01*
X1085228Y-216778D01*
X1087524Y-219074D01*
Y-221370D01*
X1085228Y-223665D01*
X1080637D01*
X1078341Y-221370D01*
Y-219074D01*
X1080637Y-216778D01*
X1078341Y-214482D01*
Y-212186D01*
X1080637Y-216778D02*
X1085228D01*
X1092116Y-223665D02*
X1101299Y-214482D01*
X1115074Y-223665D02*
X1105891D01*
X1115074Y-214482D01*
Y-212186D01*
X1112778Y-209890D01*
X1108187D01*
X1105891Y-212186D01*
X1119666D02*
X1121962Y-209890D01*
X1126553D01*
X1128849Y-212186D01*
Y-221370D01*
X1126553Y-223665D01*
X1121962D01*
X1119666Y-221370D01*
Y-212186D01*
X1133441Y-223665D02*
X1138033D01*
X1135737D01*
Y-209890D01*
X1133441Y-212186D01*
X1144920Y-221370D02*
X1147216Y-223665D01*
X1151808D01*
X1154104Y-221370D01*
Y-212186D01*
X1151808Y-209890D01*
X1147216D01*
X1144920Y-212186D01*
Y-214482D01*
X1147216Y-216778D01*
X1154104D01*
X1031110Y-144925D02*
Y-129182D01*
X1036358Y-134430D01*
X1041605Y-129182D01*
Y-144925D01*
X1046853D02*
X1052100D01*
X1049477D01*
Y-134430D01*
X1046853D01*
X1059972Y-144925D02*
Y-134430D01*
X1067843D01*
X1070467Y-137054D01*
Y-144925D01*
X1075715D02*
X1080963D01*
X1078339D01*
Y-134430D01*
X1075715D01*
X1104577Y-144925D02*
Y-129182D01*
X1112449D01*
X1115072Y-131806D01*
Y-137054D01*
X1112449Y-139678D01*
X1104577D01*
X1120320Y-129182D02*
Y-144925D01*
Y-137054D01*
X1122944Y-134430D01*
X1128191D01*
X1130815Y-137054D01*
Y-144925D01*
X1136063Y-131806D02*
X1138687Y-129182D01*
X1143934D01*
X1146558Y-131806D01*
Y-142301D01*
X1143934Y-144925D01*
X1138687D01*
X1136063Y-142301D01*
Y-131806D01*
X1151806Y-134430D02*
X1162301Y-144925D01*
X1157053Y-139678D01*
X1162301Y-134430D01*
X1151806Y-144925D01*
X1167549Y-134430D02*
X1178044Y-144925D01*
X1172796Y-139678D01*
X1178044Y-134430D01*
X1167549Y-144925D01*
D43*
X-90530Y-10138D02*
X-84530Y-8138D01*
X-90530Y-10138D02*
X-84530Y-12138D01*
X84558D02*
X90558Y-10138D01*
X84558Y-8138D02*
X90558Y-10138D01*
X-90530D02*
X-17182D01*
X14009D02*
X90558D01*
X-90530Y-11138D02*
Y35433D01*
X90558Y-11138D02*
Y35427D01*
X-101969Y178022D02*
X-99968Y172022D01*
X-103969D02*
X-101969Y178022D01*
X-103969Y6000D02*
X-101969Y0D01*
X-99968Y6000D01*
X-101969Y103006D02*
Y178022D01*
Y0D02*
Y71815D01*
X-102969Y178022D02*
X-11622D01*
X-102969Y0D02*
X-25591D01*
D44*
X-12583Y-14737D02*
Y-8738D01*
X-15582Y-11738D01*
X-11583D01*
X-5585Y-8738D02*
X-7584Y-9738D01*
X-9584Y-11738D01*
Y-13737D01*
X-8584Y-14737D01*
X-6585D01*
X-5585Y-13737D01*
Y-12737D01*
X-6585Y-11738D01*
X-9584D01*
X-2586Y-15736D02*
X-1586Y-14737D01*
Y-13737D01*
X-2586D01*
Y-14737D01*
X-1586D01*
X-2586Y-15736D01*
X-3585Y-16736D01*
X2413Y-9738D02*
X3412Y-8738D01*
X5412D01*
X6411Y-9738D01*
Y-13737D01*
X5412Y-14737D01*
X3412D01*
X2413Y-13737D01*
Y-9738D01*
X8411D02*
X9410Y-8738D01*
X11410D01*
X12409Y-9738D01*
Y-13737D01*
X11410Y-14737D01*
X9410D01*
X8411Y-13737D01*
Y-9738D01*
X-97370Y76414D02*
X-103368D01*
X-100369Y73415D01*
Y77414D01*
X-103368Y83412D02*
Y79413D01*
X-100369D01*
X-101368Y81413D01*
Y82412D01*
X-100369Y83412D01*
X-98369D01*
X-97370Y82412D01*
Y80413D01*
X-98369Y79413D01*
X-96370Y86411D02*
X-97370Y87411D01*
X-98369D01*
Y86411D01*
X-97370D01*
Y87411D01*
X-96370Y86411D01*
X-95371Y85412D01*
X-97370Y95408D02*
Y91410D01*
X-101368Y95408D01*
X-102368D01*
X-103368Y94409D01*
Y92409D01*
X-102368Y91410D01*
X-97370Y101406D02*
Y97408D01*
X-101368Y101406D01*
X-102368D01*
X-103368Y100407D01*
Y98407D01*
X-102368Y97408D01*
M02*
